<svg width="380" height="230" viewBox="0 0 380 230" fill="none" xmlns="http://www.w3.org/2000/svg">
<path d="M288.745 82.6327V84.7014L290.813 84.6316C336.166 83.1 371.932 122.845 365.643 167.785L365.011 172.298C362.817 187.979 354.869 202.282 342.712 212.427C331.245 221.997 316.783 227.239 301.847 227.239H89.7144L65.9815 225.02C56.856 224.166 47.9678 221.628 39.7675 217.535L34.0149 214.663C24.3935 209.86 16.4477 202.262 11.219 192.865C5.3104 182.247 3.20296 169.929 5.24516 157.95L6.02044 153.403C7.94067 142.139 13.4657 131.803 21.7647 123.95C31.5621 114.678 44.5388 109.511 58.0277 109.511H70.3045H72.3045V107.511V96.7518C72.3045 76.8433 83.4696 58.6167 101.205 49.5725C116.435 41.8062 134.477 41.8692 149.652 49.7419L154.817 52.4212L156.86 53.4812L157.624 51.3099L158.537 48.7173C165.483 28.9841 180.898 13.3963 200.552 6.2307L202.442 5.54158C208.869 3.19866 215.656 2 222.496 2C227.628 2 232.738 2.6748 237.694 4.00705L242.167 5.20937C249.188 7.0965 255.831 10.1768 261.808 14.3157L262.746 14.9653C274.761 23.2863 283.35 35.6836 286.918 49.8567C288.132 54.6761 288.745 59.6269 288.745 64.5966V82.6327Z" stroke="#C9D8DF" stroke-width="4"/>
<path d="M112.008 113V101.625H110.641V106.516H105.977V101.625H104.617V113H105.977V107.742H110.641V113H112.008ZM114.078 108.695V108.867C114.078 109.477 114.167 110.042 114.344 110.562C114.521 111.083 114.776 111.536 115.109 111.922C115.438 112.307 115.839 112.609 116.312 112.828C116.792 113.047 117.331 113.156 117.93 113.156C118.523 113.156 119.057 113.047 119.531 112.828C120.005 112.609 120.409 112.307 120.742 111.922C121.07 111.536 121.323 111.083 121.5 110.562C121.677 110.042 121.766 109.477 121.766 108.867V108.695C121.766 108.086 121.677 107.521 121.5 107C121.323 106.474 121.07 106.018 120.742 105.633C120.409 105.247 120.003 104.945 119.523 104.727C119.049 104.503 118.513 104.391 117.914 104.391C117.32 104.391 116.786 104.503 116.312 104.727C115.839 104.945 115.438 105.247 115.109 105.633C114.776 106.018 114.521 106.474 114.344 107C114.167 107.521 114.078 108.086 114.078 108.695ZM115.523 108.867V108.695C115.523 108.284 115.573 107.891 115.672 107.516C115.771 107.135 115.922 106.802 116.125 106.516C116.323 106.229 116.57 106.003 116.867 105.836C117.164 105.664 117.513 105.578 117.914 105.578C118.315 105.578 118.664 105.664 118.961 105.836C119.263 106.003 119.516 106.229 119.719 106.516C119.917 106.802 120.065 107.135 120.164 107.516C120.268 107.891 120.32 108.284 120.32 108.695V108.867C120.32 109.284 120.271 109.682 120.172 110.062C120.073 110.438 119.924 110.768 119.727 111.055C119.523 111.341 119.271 111.568 118.969 111.734C118.672 111.901 118.326 111.984 117.93 111.984C117.529 111.984 117.177 111.901 116.875 111.734C116.573 111.568 116.323 111.341 116.125 111.055C115.922 110.768 115.771 110.438 115.672 110.062C115.573 109.682 115.523 109.284 115.523 108.867ZM124.906 113H126.047L127.352 107.82L127.562 106.508L127.781 107.82L129.102 113H130.242L132.039 104.547H130.758L129.82 109.938L129.609 111.266L129.383 109.938L128.039 104.547H127.109L125.758 109.938L125.547 111.148L125.375 109.938L124.391 104.547H123.109L124.906 113ZM148.867 113H150.375V112.875C150.281 112.641 150.208 112.367 150.156 112.055C150.104 111.737 150.078 111.438 150.078 111.156V107.227C150.078 106.753 149.992 106.339 149.82 105.984C149.648 105.63 149.414 105.333 149.117 105.094C148.815 104.859 148.458 104.685 148.047 104.57C147.635 104.451 147.19 104.391 146.711 104.391C146.185 104.391 145.714 104.464 145.297 104.609C144.885 104.755 144.536 104.945 144.25 105.18C143.958 105.419 143.734 105.688 143.578 105.984C143.427 106.281 143.349 106.583 143.344 106.891H144.797C144.797 106.714 144.839 106.544 144.922 106.383C145.01 106.216 145.133 106.073 145.289 105.953C145.445 105.833 145.635 105.737 145.859 105.664C146.089 105.591 146.346 105.555 146.633 105.555C146.94 105.555 147.216 105.594 147.461 105.672C147.711 105.75 147.922 105.859 148.094 106C148.266 106.146 148.398 106.32 148.492 106.523C148.586 106.727 148.633 106.956 148.633 107.211V107.875H147.055C146.466 107.875 145.932 107.932 145.453 108.047C144.979 108.161 144.573 108.333 144.234 108.562C143.896 108.797 143.633 109.089 143.445 109.438C143.263 109.786 143.172 110.193 143.172 110.656C143.172 111.01 143.24 111.341 143.375 111.648C143.516 111.951 143.714 112.211 143.969 112.43C144.219 112.654 144.523 112.831 144.883 112.961C145.247 113.091 145.654 113.156 146.102 113.156C146.378 113.156 146.638 113.128 146.883 113.07C147.128 113.013 147.359 112.935 147.578 112.836C147.792 112.737 147.987 112.622 148.164 112.492C148.346 112.362 148.51 112.224 148.656 112.078C148.672 112.255 148.695 112.427 148.727 112.594C148.763 112.755 148.81 112.891 148.867 113ZM146.312 111.898C146.031 111.898 145.784 111.862 145.57 111.789C145.357 111.716 145.18 111.615 145.039 111.484C144.898 111.359 144.792 111.208 144.719 111.031C144.651 110.854 144.617 110.661 144.617 110.453C144.617 110.234 144.656 110.039 144.734 109.867C144.818 109.695 144.938 109.547 145.094 109.422C145.312 109.245 145.607 109.115 145.977 109.031C146.352 108.943 146.789 108.898 147.289 108.898H148.633V110.609C148.549 110.776 148.435 110.938 148.289 111.094C148.143 111.245 147.971 111.38 147.773 111.5C147.57 111.62 147.346 111.716 147.102 111.789C146.857 111.862 146.594 111.898 146.312 111.898ZM168.102 113H169.414V104.547H167.961V110.609C167.883 110.792 167.784 110.961 167.664 111.117C167.549 111.268 167.414 111.398 167.258 111.508C167.07 111.643 166.849 111.75 166.594 111.828C166.339 111.901 166.049 111.938 165.727 111.938C165.451 111.938 165.206 111.901 164.992 111.828C164.784 111.755 164.607 111.628 164.461 111.445C164.315 111.268 164.206 111.029 164.133 110.727C164.06 110.424 164.023 110.044 164.023 109.586V104.547H162.578V109.57C162.578 110.201 162.646 110.742 162.781 111.195C162.922 111.643 163.12 112.013 163.375 112.305C163.63 112.596 163.938 112.812 164.297 112.953C164.656 113.089 165.057 113.156 165.5 113.156C166.052 113.156 166.539 113.042 166.961 112.812C167.383 112.578 167.734 112.253 168.016 111.836L168.102 113ZM177.758 110.758C177.758 110.893 177.732 111.021 177.68 111.141C177.628 111.26 177.552 111.37 177.453 111.469C177.292 111.63 177.068 111.758 176.781 111.852C176.495 111.94 176.159 111.984 175.773 111.984C175.529 111.984 175.281 111.958 175.031 111.906C174.781 111.854 174.555 111.766 174.352 111.641C174.143 111.516 173.969 111.352 173.828 111.148C173.693 110.945 173.615 110.695 173.594 110.398H172.148C172.148 110.758 172.229 111.104 172.391 111.438C172.557 111.771 172.797 112.062 173.109 112.312C173.417 112.568 173.794 112.773 174.242 112.93C174.69 113.081 175.201 113.156 175.773 113.156C176.273 113.156 176.734 113.096 177.156 112.977C177.578 112.857 177.94 112.688 178.242 112.469C178.544 112.25 178.779 111.987 178.945 111.68C179.117 111.372 179.203 111.031 179.203 110.656C179.203 110.307 179.128 110 178.977 109.734C178.831 109.469 178.617 109.234 178.336 109.031C178.055 108.833 177.708 108.664 177.297 108.523C176.885 108.378 176.419 108.25 175.898 108.141C175.503 108.062 175.174 107.982 174.914 107.898C174.659 107.815 174.456 107.721 174.305 107.617C174.148 107.513 174.039 107.396 173.977 107.266C173.914 107.135 173.883 106.987 173.883 106.82C173.883 106.659 173.922 106.503 174 106.352C174.078 106.201 174.195 106.068 174.352 105.953C174.503 105.839 174.693 105.747 174.922 105.68C175.156 105.612 175.427 105.578 175.734 105.578C176.031 105.578 176.297 105.62 176.531 105.703C176.771 105.786 176.974 105.896 177.141 106.031C177.307 106.167 177.438 106.323 177.531 106.5C177.625 106.672 177.672 106.849 177.672 107.031H179.117C179.117 106.661 179.036 106.318 178.875 106C178.719 105.677 178.495 105.396 178.203 105.156C177.911 104.917 177.557 104.729 177.141 104.594C176.724 104.458 176.255 104.391 175.734 104.391C175.25 104.391 174.805 104.456 174.398 104.586C173.997 104.716 173.651 104.893 173.359 105.117C173.068 105.341 172.841 105.604 172.68 105.906C172.518 106.203 172.438 106.523 172.438 106.867C172.438 107.216 172.516 107.523 172.672 107.789C172.828 108.049 173.049 108.276 173.336 108.469C173.617 108.667 173.956 108.836 174.352 108.977C174.753 109.117 175.195 109.237 175.68 109.336C176.076 109.414 176.406 109.503 176.672 109.602C176.938 109.695 177.151 109.799 177.312 109.914C177.474 110.029 177.589 110.156 177.656 110.297C177.724 110.432 177.758 110.586 177.758 110.758ZM185.484 113.156C186.307 113.156 186.997 112.992 187.555 112.664C188.117 112.331 188.539 111.951 188.82 111.523L187.938 110.836C187.672 111.18 187.339 111.456 186.938 111.664C186.536 111.872 186.078 111.977 185.562 111.977C185.172 111.977 184.815 111.904 184.492 111.758C184.169 111.612 183.893 111.411 183.664 111.156C183.44 110.917 183.263 110.641 183.133 110.328C183.008 110.016 182.927 109.654 182.891 109.242V109.188H188.93V108.539C188.93 107.951 188.854 107.404 188.703 106.898C188.557 106.393 188.333 105.953 188.031 105.578C187.729 105.208 187.349 104.919 186.891 104.711C186.438 104.497 185.906 104.391 185.297 104.391C184.812 104.391 184.339 104.49 183.875 104.688C183.417 104.885 183.008 105.169 182.648 105.539C182.284 105.914 181.992 106.372 181.773 106.914C181.555 107.451 181.445 108.06 181.445 108.742V109.07C181.445 109.659 181.544 110.203 181.742 110.703C181.94 111.203 182.216 111.635 182.57 112C182.924 112.365 183.349 112.648 183.844 112.852C184.344 113.055 184.891 113.156 185.484 113.156ZM185.297 105.578C185.667 105.578 185.984 105.646 186.25 105.781C186.521 105.917 186.745 106.094 186.922 106.312C187.099 106.531 187.237 106.792 187.336 107.094C187.435 107.391 187.484 107.669 187.484 107.93V108H182.938C182.995 107.609 183.094 107.266 183.234 106.969C183.38 106.667 183.557 106.411 183.766 106.203C183.974 106 184.208 105.846 184.469 105.742C184.729 105.633 185.005 105.578 185.297 105.578ZM196.898 104.391C196.284 104.391 195.734 104.526 195.25 104.797C194.771 105.062 194.359 105.427 194.016 105.891L194.008 105.68L193.945 104.547H192.57V113H194.023V107.578C194.117 107.318 194.234 107.083 194.375 106.875C194.521 106.661 194.69 106.482 194.883 106.336C195.096 106.169 195.346 106.044 195.633 105.961C195.919 105.872 196.24 105.828 196.594 105.828C196.87 105.828 197.133 105.844 197.383 105.875C197.638 105.901 197.906 105.945 198.188 106.008L198.383 104.594C198.237 104.531 198.018 104.482 197.727 104.445C197.44 104.409 197.164 104.391 196.898 104.391ZM214.18 111.984C213.727 111.984 213.346 111.896 213.039 111.719C212.737 111.536 212.495 111.299 212.312 111.008C212.125 110.721 211.99 110.398 211.906 110.039C211.828 109.674 211.789 109.307 211.789 108.938V108.609C211.789 108.245 211.828 107.883 211.906 107.523C211.99 107.164 212.125 106.839 212.312 106.547C212.5 106.26 212.745 106.029 213.047 105.852C213.354 105.669 213.732 105.578 214.18 105.578C214.471 105.578 214.742 105.628 214.992 105.727C215.247 105.826 215.466 105.961 215.648 106.133C215.831 106.305 215.974 106.505 216.078 106.734C216.188 106.958 216.245 107.198 216.25 107.453H217.617C217.617 107.026 217.531 106.625 217.359 106.25C217.188 105.875 216.951 105.549 216.648 105.273C216.341 105.003 215.977 104.789 215.555 104.633C215.138 104.471 214.68 104.391 214.18 104.391C213.539 104.391 212.979 104.505 212.5 104.734C212.021 104.964 211.622 105.271 211.305 105.656C210.982 106.047 210.74 106.497 210.578 107.008C210.417 107.518 210.336 108.052 210.336 108.609V108.938C210.336 109.5 210.417 110.036 210.578 110.547C210.74 111.052 210.982 111.497 211.305 111.883C211.622 112.273 212.021 112.583 212.5 112.812C212.979 113.042 213.539 113.156 214.18 113.156C214.628 113.156 215.057 113.081 215.469 112.93C215.88 112.773 216.245 112.565 216.562 112.305C216.88 112.049 217.133 111.753 217.32 111.414C217.513 111.07 217.612 110.711 217.617 110.336H216.25C216.245 110.57 216.182 110.789 216.062 110.992C215.948 111.19 215.794 111.362 215.602 111.508C215.409 111.659 215.188 111.776 214.938 111.859C214.693 111.943 214.44 111.984 214.18 111.984ZM221.633 105.805V101H220.188V113H221.633V106.859C221.737 106.693 221.854 106.542 221.984 106.406C222.12 106.266 222.266 106.143 222.422 106.039C222.62 105.904 222.836 105.799 223.07 105.727C223.305 105.654 223.552 105.617 223.812 105.617C224.13 105.612 224.411 105.656 224.656 105.75C224.901 105.839 225.104 105.974 225.266 106.156C225.417 106.323 225.531 106.534 225.609 106.789C225.688 107.039 225.727 107.331 225.727 107.664V113H227.172V107.68C227.172 107.112 227.102 106.622 226.961 106.211C226.826 105.794 226.63 105.451 226.375 105.18C226.12 104.909 225.81 104.711 225.445 104.586C225.086 104.456 224.685 104.391 224.242 104.391C223.904 104.396 223.583 104.445 223.281 104.539C222.984 104.633 222.711 104.771 222.461 104.953C222.305 105.062 222.156 105.19 222.016 105.336C221.875 105.477 221.747 105.633 221.633 105.805ZM229.391 108.695V108.867C229.391 109.477 229.479 110.042 229.656 110.562C229.833 111.083 230.089 111.536 230.422 111.922C230.75 112.307 231.151 112.609 231.625 112.828C232.104 113.047 232.643 113.156 233.242 113.156C233.836 113.156 234.37 113.047 234.844 112.828C235.318 112.609 235.721 112.307 236.055 111.922C236.383 111.536 236.635 111.083 236.812 110.562C236.99 110.042 237.078 109.477 237.078 108.867V108.695C237.078 108.086 236.99 107.521 236.812 107C236.635 106.474 236.383 106.018 236.055 105.633C235.721 105.247 235.315 104.945 234.836 104.727C234.362 104.503 233.826 104.391 233.227 104.391C232.633 104.391 232.099 104.503 231.625 104.727C231.151 104.945 230.75 105.247 230.422 105.633C230.089 106.018 229.833 106.474 229.656 107C229.479 107.521 229.391 108.086 229.391 108.695ZM230.836 108.867V108.695C230.836 108.284 230.885 107.891 230.984 107.516C231.083 107.135 231.234 106.802 231.438 106.516C231.635 106.229 231.883 106.003 232.18 105.836C232.477 105.664 232.826 105.578 233.227 105.578C233.628 105.578 233.977 105.664 234.273 105.836C234.576 106.003 234.828 106.229 235.031 106.516C235.229 106.802 235.378 107.135 235.477 107.516C235.581 107.891 235.633 108.284 235.633 108.695V108.867C235.633 109.284 235.583 109.682 235.484 110.062C235.385 110.438 235.237 110.768 235.039 111.055C234.836 111.341 234.583 111.568 234.281 111.734C233.984 111.901 233.638 111.984 233.242 111.984C232.841 111.984 232.49 111.901 232.188 111.734C231.885 111.568 231.635 111.341 231.438 111.055C231.234 110.768 231.083 110.438 230.984 110.062C230.885 109.682 230.836 109.284 230.836 108.867ZM239 108.695V108.867C239 109.477 239.089 110.042 239.266 110.562C239.443 111.083 239.698 111.536 240.031 111.922C240.359 112.307 240.76 112.609 241.234 112.828C241.714 113.047 242.253 113.156 242.852 113.156C243.445 113.156 243.979 113.047 244.453 112.828C244.927 112.609 245.331 112.307 245.664 111.922C245.992 111.536 246.245 111.083 246.422 110.562C246.599 110.042 246.688 109.477 246.688 108.867V108.695C246.688 108.086 246.599 107.521 246.422 107C246.245 106.474 245.992 106.018 245.664 105.633C245.331 105.247 244.924 104.945 244.445 104.727C243.971 104.503 243.435 104.391 242.836 104.391C242.242 104.391 241.708 104.503 241.234 104.727C240.76 104.945 240.359 105.247 240.031 105.633C239.698 106.018 239.443 106.474 239.266 107C239.089 107.521 239 108.086 239 108.695ZM240.445 108.867V108.695C240.445 108.284 240.495 107.891 240.594 107.516C240.693 107.135 240.844 106.802 241.047 106.516C241.245 106.229 241.492 106.003 241.789 105.836C242.086 105.664 242.435 105.578 242.836 105.578C243.237 105.578 243.586 105.664 243.883 105.836C244.185 106.003 244.438 106.229 244.641 106.516C244.839 106.802 244.987 107.135 245.086 107.516C245.19 107.891 245.242 108.284 245.242 108.695V108.867C245.242 109.284 245.193 109.682 245.094 110.062C244.995 110.438 244.846 110.768 244.648 111.055C244.445 111.341 244.193 111.568 243.891 111.734C243.594 111.901 243.247 111.984 242.852 111.984C242.451 111.984 242.099 111.901 241.797 111.734C241.495 111.568 241.245 111.341 241.047 111.055C240.844 110.768 240.693 110.438 240.594 110.062C240.495 109.682 240.445 109.284 240.445 108.867ZM254.633 110.758C254.633 110.893 254.607 111.021 254.555 111.141C254.503 111.26 254.427 111.37 254.328 111.469C254.167 111.63 253.943 111.758 253.656 111.852C253.37 111.94 253.034 111.984 252.648 111.984C252.404 111.984 252.156 111.958 251.906 111.906C251.656 111.854 251.43 111.766 251.227 111.641C251.018 111.516 250.844 111.352 250.703 111.148C250.568 110.945 250.49 110.695 250.469 110.398H249.023C249.023 110.758 249.104 111.104 249.266 111.438C249.432 111.771 249.672 112.062 249.984 112.312C250.292 112.568 250.669 112.773 251.117 112.93C251.565 113.081 252.076 113.156 252.648 113.156C253.148 113.156 253.609 113.096 254.031 112.977C254.453 112.857 254.815 112.688 255.117 112.469C255.419 112.25 255.654 111.987 255.82 111.68C255.992 111.372 256.078 111.031 256.078 110.656C256.078 110.307 256.003 110 255.852 109.734C255.706 109.469 255.492 109.234 255.211 109.031C254.93 108.833 254.583 108.664 254.172 108.523C253.76 108.378 253.294 108.25 252.773 108.141C252.378 108.062 252.049 107.982 251.789 107.898C251.534 107.815 251.331 107.721 251.18 107.617C251.023 107.513 250.914 107.396 250.852 107.266C250.789 107.135 250.758 106.987 250.758 106.82C250.758 106.659 250.797 106.503 250.875 106.352C250.953 106.201 251.07 106.068 251.227 105.953C251.378 105.839 251.568 105.747 251.797 105.68C252.031 105.612 252.302 105.578 252.609 105.578C252.906 105.578 253.172 105.62 253.406 105.703C253.646 105.786 253.849 105.896 254.016 106.031C254.182 106.167 254.312 106.323 254.406 106.5C254.5 106.672 254.547 106.849 254.547 107.031H255.992C255.992 106.661 255.911 106.318 255.75 106C255.594 105.677 255.37 105.396 255.078 105.156C254.786 104.917 254.432 104.729 254.016 104.594C253.599 104.458 253.13 104.391 252.609 104.391C252.125 104.391 251.68 104.456 251.273 104.586C250.872 104.716 250.526 104.893 250.234 105.117C249.943 105.341 249.716 105.604 249.555 105.906C249.393 106.203 249.312 106.523 249.312 106.867C249.312 107.216 249.391 107.523 249.547 107.789C249.703 108.049 249.924 108.276 250.211 108.469C250.492 108.667 250.831 108.836 251.227 108.977C251.628 109.117 252.07 109.237 252.555 109.336C252.951 109.414 253.281 109.503 253.547 109.602C253.812 109.695 254.026 109.799 254.188 109.914C254.349 110.029 254.464 110.156 254.531 110.297C254.599 110.432 254.633 110.586 254.633 110.758ZM262.359 113.156C263.182 113.156 263.872 112.992 264.43 112.664C264.992 112.331 265.414 111.951 265.695 111.523L264.812 110.836C264.547 111.18 264.214 111.456 263.812 111.664C263.411 111.872 262.953 111.977 262.438 111.977C262.047 111.977 261.69 111.904 261.367 111.758C261.044 111.612 260.768 111.411 260.539 111.156C260.315 110.917 260.138 110.641 260.008 110.328C259.883 110.016 259.802 109.654 259.766 109.242V109.188H265.805V108.539C265.805 107.951 265.729 107.404 265.578 106.898C265.432 106.393 265.208 105.953 264.906 105.578C264.604 105.208 264.224 104.919 263.766 104.711C263.312 104.497 262.781 104.391 262.172 104.391C261.688 104.391 261.214 104.49 260.75 104.688C260.292 104.885 259.883 105.169 259.523 105.539C259.159 105.914 258.867 106.372 258.648 106.914C258.43 107.451 258.32 108.06 258.32 108.742V109.07C258.32 109.659 258.419 110.203 258.617 110.703C258.815 111.203 259.091 111.635 259.445 112C259.799 112.365 260.224 112.648 260.719 112.852C261.219 113.055 261.766 113.156 262.359 113.156ZM262.172 105.578C262.542 105.578 262.859 105.646 263.125 105.781C263.396 105.917 263.62 106.094 263.797 106.312C263.974 106.531 264.112 106.792 264.211 107.094C264.31 107.391 264.359 107.669 264.359 107.93V108H259.812C259.87 107.609 259.969 107.266 260.109 106.969C260.255 106.667 260.432 106.411 260.641 106.203C260.849 106 261.083 105.846 261.344 105.742C261.604 105.633 261.88 105.578 262.172 105.578ZM273.852 110.758C273.852 110.893 273.826 111.021 273.773 111.141C273.721 111.26 273.646 111.37 273.547 111.469C273.385 111.63 273.161 111.758 272.875 111.852C272.589 111.94 272.253 111.984 271.867 111.984C271.622 111.984 271.375 111.958 271.125 111.906C270.875 111.854 270.648 111.766 270.445 111.641C270.237 111.516 270.062 111.352 269.922 111.148C269.786 110.945 269.708 110.695 269.688 110.398H268.242C268.242 110.758 268.323 111.104 268.484 111.438C268.651 111.771 268.891 112.062 269.203 112.312C269.51 112.568 269.888 112.773 270.336 112.93C270.784 113.081 271.294 113.156 271.867 113.156C272.367 113.156 272.828 113.096 273.25 112.977C273.672 112.857 274.034 112.688 274.336 112.469C274.638 112.25 274.872 111.987 275.039 111.68C275.211 111.372 275.297 111.031 275.297 110.656C275.297 110.307 275.221 110 275.07 109.734C274.924 109.469 274.711 109.234 274.43 109.031C274.148 108.833 273.802 108.664 273.391 108.523C272.979 108.378 272.513 108.25 271.992 108.141C271.596 108.062 271.268 107.982 271.008 107.898C270.753 107.815 270.549 107.721 270.398 107.617C270.242 107.513 270.133 107.396 270.07 107.266C270.008 107.135 269.977 106.987 269.977 106.82C269.977 106.659 270.016 106.503 270.094 106.352C270.172 106.201 270.289 106.068 270.445 105.953C270.596 105.839 270.786 105.747 271.016 105.68C271.25 105.612 271.521 105.578 271.828 105.578C272.125 105.578 272.391 105.62 272.625 105.703C272.865 105.786 273.068 105.896 273.234 106.031C273.401 106.167 273.531 106.323 273.625 106.5C273.719 106.672 273.766 106.849 273.766 107.031H275.211C275.211 106.661 275.13 106.318 274.969 106C274.812 105.677 274.589 105.396 274.297 105.156C274.005 104.917 273.651 104.729 273.234 104.594C272.818 104.458 272.349 104.391 271.828 104.391C271.344 104.391 270.898 104.456 270.492 104.586C270.091 104.716 269.745 104.893 269.453 105.117C269.161 105.341 268.935 105.604 268.773 105.906C268.612 106.203 268.531 106.523 268.531 106.867C268.531 107.216 268.609 107.523 268.766 107.789C268.922 108.049 269.143 108.276 269.43 108.469C269.711 108.667 270.049 108.836 270.445 108.977C270.846 109.117 271.289 109.237 271.773 109.336C272.169 109.414 272.5 109.503 272.766 109.602C273.031 109.695 273.245 109.799 273.406 109.914C273.568 110.029 273.682 110.156 273.75 110.297C273.818 110.432 273.852 110.586 273.852 110.758ZM125.539 126.805V122H124.094V134H125.539V127.859C125.643 127.693 125.76 127.542 125.891 127.406C126.026 127.266 126.172 127.143 126.328 127.039C126.526 126.904 126.742 126.799 126.977 126.727C127.211 126.654 127.458 126.617 127.719 126.617C128.036 126.612 128.318 126.656 128.562 126.75C128.807 126.839 129.01 126.974 129.172 127.156C129.323 127.323 129.438 127.534 129.516 127.789C129.594 128.039 129.633 128.331 129.633 128.664V134H131.078V128.68C131.078 128.112 131.008 127.622 130.867 127.211C130.732 126.794 130.536 126.451 130.281 126.18C130.026 125.909 129.716 125.711 129.352 125.586C128.992 125.456 128.591 125.391 128.148 125.391C127.81 125.396 127.49 125.445 127.188 125.539C126.891 125.633 126.617 125.771 126.367 125.953C126.211 126.062 126.062 126.19 125.922 126.336C125.781 126.477 125.654 126.633 125.539 126.805ZM133.297 129.695V129.867C133.297 130.477 133.385 131.042 133.562 131.562C133.74 132.083 133.995 132.536 134.328 132.922C134.656 133.307 135.057 133.609 135.531 133.828C136.01 134.047 136.549 134.156 137.148 134.156C137.742 134.156 138.276 134.047 138.75 133.828C139.224 133.609 139.628 133.307 139.961 132.922C140.289 132.536 140.542 132.083 140.719 131.562C140.896 131.042 140.984 130.477 140.984 129.867V129.695C140.984 129.086 140.896 128.521 140.719 128C140.542 127.474 140.289 127.018 139.961 126.633C139.628 126.247 139.221 125.945 138.742 125.727C138.268 125.503 137.732 125.391 137.133 125.391C136.539 125.391 136.005 125.503 135.531 125.727C135.057 125.945 134.656 126.247 134.328 126.633C133.995 127.018 133.74 127.474 133.562 128C133.385 128.521 133.297 129.086 133.297 129.695ZM134.742 129.867V129.695C134.742 129.284 134.792 128.891 134.891 128.516C134.99 128.135 135.141 127.802 135.344 127.516C135.542 127.229 135.789 127.003 136.086 126.836C136.383 126.664 136.732 126.578 137.133 126.578C137.534 126.578 137.883 126.664 138.18 126.836C138.482 127.003 138.734 127.229 138.938 127.516C139.135 127.802 139.284 128.135 139.383 128.516C139.487 128.891 139.539 129.284 139.539 129.695V129.867C139.539 130.284 139.49 130.682 139.391 131.062C139.292 131.438 139.143 131.768 138.945 132.055C138.742 132.341 138.49 132.568 138.188 132.734C137.891 132.901 137.544 132.984 137.148 132.984C136.747 132.984 136.396 132.901 136.094 132.734C135.792 132.568 135.542 132.341 135.344 132.055C135.141 131.768 134.99 131.438 134.891 131.062C134.792 130.682 134.742 130.284 134.742 129.867ZM144.125 134H145.266L146.57 128.82L146.781 127.508L147 128.82L148.32 134H149.461L151.258 125.547H149.977L149.039 130.938L148.828 132.266L148.602 130.938L147.258 125.547H146.328L144.977 130.938L144.766 132.148L144.594 130.938L143.609 125.547H142.328L144.125 134ZM165.953 123.5H164.5V125.547H162.281V126.664H164.5V131.258C164.5 131.779 164.568 132.224 164.703 132.594C164.844 132.958 165.034 133.255 165.273 133.484C165.513 133.719 165.794 133.891 166.117 134C166.445 134.104 166.797 134.156 167.172 134.156C167.396 134.156 167.62 134.146 167.844 134.125C168.073 134.104 168.289 134.073 168.492 134.031C168.695 133.995 168.883 133.951 169.055 133.898C169.227 133.841 169.372 133.776 169.492 133.703L169.289 132.68C169.201 132.701 169.086 132.727 168.945 132.758C168.81 132.784 168.664 132.81 168.508 132.836C168.346 132.862 168.182 132.885 168.016 132.906C167.849 132.922 167.688 132.93 167.531 132.93C167.318 132.93 167.115 132.904 166.922 132.852C166.734 132.799 166.568 132.708 166.422 132.578C166.276 132.453 166.161 132.284 166.078 132.07C165.995 131.857 165.953 131.586 165.953 131.258V126.664H169.172V125.547H165.953V123.5ZM171.734 129.695V129.867C171.734 130.477 171.823 131.042 172 131.562C172.177 132.083 172.432 132.536 172.766 132.922C173.094 133.307 173.495 133.609 173.969 133.828C174.448 134.047 174.987 134.156 175.586 134.156C176.18 134.156 176.714 134.047 177.188 133.828C177.661 133.609 178.065 133.307 178.398 132.922C178.727 132.536 178.979 132.083 179.156 131.562C179.333 131.042 179.422 130.477 179.422 129.867V129.695C179.422 129.086 179.333 128.521 179.156 128C178.979 127.474 178.727 127.018 178.398 126.633C178.065 126.247 177.659 125.945 177.18 125.727C176.706 125.503 176.169 125.391 175.57 125.391C174.977 125.391 174.443 125.503 173.969 125.727C173.495 125.945 173.094 126.247 172.766 126.633C172.432 127.018 172.177 127.474 172 128C171.823 128.521 171.734 129.086 171.734 129.695ZM173.18 129.867V129.695C173.18 129.284 173.229 128.891 173.328 128.516C173.427 128.135 173.578 127.802 173.781 127.516C173.979 127.229 174.227 127.003 174.523 126.836C174.82 126.664 175.169 126.578 175.57 126.578C175.971 126.578 176.32 126.664 176.617 126.836C176.919 127.003 177.172 127.229 177.375 127.516C177.573 127.802 177.721 128.135 177.82 128.516C177.924 128.891 177.977 129.284 177.977 129.695V129.867C177.977 130.284 177.927 130.682 177.828 131.062C177.729 131.438 177.581 131.768 177.383 132.055C177.18 132.341 176.927 132.568 176.625 132.734C176.328 132.901 175.982 132.984 175.586 132.984C175.185 132.984 174.833 132.901 174.531 132.734C174.229 132.568 173.979 132.341 173.781 132.055C173.578 131.768 173.427 131.438 173.328 131.062C173.229 130.682 173.18 130.284 173.18 129.867ZM194.781 123.5H193.328V125.547H191.109V126.664H193.328V131.258C193.328 131.779 193.396 132.224 193.531 132.594C193.672 132.958 193.862 133.255 194.102 133.484C194.341 133.719 194.622 133.891 194.945 134C195.273 134.104 195.625 134.156 196 134.156C196.224 134.156 196.448 134.146 196.672 134.125C196.901 134.104 197.117 134.073 197.32 134.031C197.523 133.995 197.711 133.951 197.883 133.898C198.055 133.841 198.201 133.776 198.32 133.703L198.117 132.68C198.029 132.701 197.914 132.727 197.773 132.758C197.638 132.784 197.492 132.81 197.336 132.836C197.174 132.862 197.01 132.885 196.844 132.906C196.677 132.922 196.516 132.93 196.359 132.93C196.146 132.93 195.943 132.904 195.75 132.852C195.562 132.799 195.396 132.708 195.25 132.578C195.104 132.453 194.99 132.284 194.906 132.07C194.823 131.857 194.781 131.586 194.781 131.258V126.664H198V125.547H194.781V123.5ZM206.508 125.391C205.893 125.391 205.344 125.526 204.859 125.797C204.38 126.062 203.969 126.427 203.625 126.891L203.617 126.68L203.555 125.547H202.18V134H203.633V128.578C203.727 128.318 203.844 128.083 203.984 127.875C204.13 127.661 204.299 127.482 204.492 127.336C204.706 127.169 204.956 127.044 205.242 126.961C205.529 126.872 205.849 126.828 206.203 126.828C206.479 126.828 206.742 126.844 206.992 126.875C207.247 126.901 207.516 126.945 207.797 127.008L207.992 125.594C207.846 125.531 207.628 125.482 207.336 125.445C207.049 125.409 206.773 125.391 206.508 125.391ZM216.133 134H217.641V133.875C217.547 133.641 217.474 133.367 217.422 133.055C217.37 132.737 217.344 132.438 217.344 132.156V128.227C217.344 127.753 217.258 127.339 217.086 126.984C216.914 126.63 216.68 126.333 216.383 126.094C216.081 125.859 215.724 125.685 215.312 125.57C214.901 125.451 214.456 125.391 213.977 125.391C213.451 125.391 212.979 125.464 212.562 125.609C212.151 125.755 211.802 125.945 211.516 126.18C211.224 126.419 211 126.688 210.844 126.984C210.693 127.281 210.615 127.583 210.609 127.891H212.062C212.062 127.714 212.104 127.544 212.188 127.383C212.276 127.216 212.398 127.073 212.555 126.953C212.711 126.833 212.901 126.737 213.125 126.664C213.354 126.591 213.612 126.555 213.898 126.555C214.206 126.555 214.482 126.594 214.727 126.672C214.977 126.75 215.188 126.859 215.359 127C215.531 127.146 215.664 127.32 215.758 127.523C215.852 127.727 215.898 127.956 215.898 128.211V128.875H214.32C213.732 128.875 213.198 128.932 212.719 129.047C212.245 129.161 211.839 129.333 211.5 129.562C211.161 129.797 210.898 130.089 210.711 130.438C210.529 130.786 210.438 131.193 210.438 131.656C210.438 132.01 210.505 132.341 210.641 132.648C210.781 132.951 210.979 133.211 211.234 133.43C211.484 133.654 211.789 133.831 212.148 133.961C212.513 134.091 212.919 134.156 213.367 134.156C213.643 134.156 213.904 134.128 214.148 134.07C214.393 134.013 214.625 133.935 214.844 133.836C215.057 133.737 215.253 133.622 215.43 133.492C215.612 133.362 215.776 133.224 215.922 133.078C215.938 133.255 215.961 133.427 215.992 133.594C216.029 133.755 216.076 133.891 216.133 134ZM213.578 132.898C213.297 132.898 213.049 132.862 212.836 132.789C212.622 132.716 212.445 132.615 212.305 132.484C212.164 132.359 212.057 132.208 211.984 132.031C211.917 131.854 211.883 131.661 211.883 131.453C211.883 131.234 211.922 131.039 212 130.867C212.083 130.695 212.203 130.547 212.359 130.422C212.578 130.245 212.872 130.115 213.242 130.031C213.617 129.943 214.055 129.898 214.555 129.898H215.898V131.609C215.815 131.776 215.701 131.938 215.555 132.094C215.409 132.245 215.237 132.38 215.039 132.5C214.836 132.62 214.612 132.716 214.367 132.789C214.122 132.862 213.859 132.898 213.578 132.898ZM223.07 134H224.172L227.617 125.547H226.141L223.773 131.922L223.633 132.445L223.5 131.922L221.078 125.547H219.594L223.07 134ZM233.531 134.156C234.354 134.156 235.044 133.992 235.602 133.664C236.164 133.331 236.586 132.951 236.867 132.523L235.984 131.836C235.719 132.18 235.385 132.456 234.984 132.664C234.583 132.872 234.125 132.977 233.609 132.977C233.219 132.977 232.862 132.904 232.539 132.758C232.216 132.612 231.94 132.411 231.711 132.156C231.487 131.917 231.31 131.641 231.18 131.328C231.055 131.016 230.974 130.654 230.938 130.242V130.188H236.977V129.539C236.977 128.951 236.901 128.404 236.75 127.898C236.604 127.393 236.38 126.953 236.078 126.578C235.776 126.208 235.396 125.919 234.938 125.711C234.484 125.497 233.953 125.391 233.344 125.391C232.859 125.391 232.385 125.49 231.922 125.688C231.464 125.885 231.055 126.169 230.695 126.539C230.331 126.914 230.039 127.372 229.82 127.914C229.602 128.451 229.492 129.06 229.492 129.742V130.07C229.492 130.659 229.591 131.203 229.789 131.703C229.987 132.203 230.263 132.635 230.617 133C230.971 133.365 231.396 133.648 231.891 133.852C232.391 134.055 232.938 134.156 233.531 134.156ZM233.344 126.578C233.714 126.578 234.031 126.646 234.297 126.781C234.568 126.917 234.792 127.094 234.969 127.312C235.146 127.531 235.284 127.792 235.383 128.094C235.482 128.391 235.531 128.669 235.531 128.93V129H230.984C231.042 128.609 231.141 128.266 231.281 127.969C231.427 127.667 231.604 127.411 231.812 127.203C232.021 127 232.255 126.846 232.516 126.742C232.776 126.633 233.052 126.578 233.344 126.578ZM239.633 122V123.258H242.508V132.75H239.633V134H246.711V132.75H243.953V122H239.633ZM251.922 133.062C251.922 133.365 252.016 133.622 252.203 133.836C252.396 134.044 252.68 134.148 253.055 134.148C253.424 134.148 253.708 134.044 253.906 133.836C254.104 133.628 254.203 133.37 254.203 133.062C254.203 132.75 254.104 132.487 253.906 132.273C253.714 132.055 253.43 131.945 253.055 131.945C252.674 131.945 252.391 132.055 252.203 132.273C252.016 132.492 251.922 132.755 251.922 133.062ZM251.922 126.219C251.922 126.521 252.016 126.779 252.203 126.992C252.396 127.201 252.68 127.305 253.055 127.305C253.424 127.305 253.708 127.201 253.906 126.992C254.104 126.784 254.203 126.526 254.203 126.219C254.203 125.906 254.104 125.643 253.906 125.43C253.714 125.211 253.43 125.102 253.055 125.102C252.674 125.102 252.391 125.211 252.203 125.43C252.016 125.648 251.922 125.911 251.922 126.219ZM115.695 145.742V146.883H117.109V145.719C117.109 145.271 117.169 144.854 117.289 144.469C117.414 144.083 117.599 143.706 117.844 143.336L117.055 142.773C116.836 142.961 116.643 143.174 116.477 143.414C116.31 143.654 116.169 143.904 116.055 144.164C115.935 144.43 115.844 144.698 115.781 144.969C115.724 145.24 115.695 145.497 115.695 145.742ZM118.234 145.742V146.883H119.648V145.719C119.648 145.271 119.708 144.854 119.828 144.469C119.953 144.083 120.138 143.706 120.383 143.336L119.594 142.773C119.375 142.961 119.182 143.174 119.016 143.414C118.849 143.654 118.708 143.904 118.594 144.164C118.474 144.43 118.383 144.698 118.32 144.969C118.263 145.24 118.234 145.497 118.234 145.742ZM130.422 149.977V148.75H125.688V144.859H131.211V143.625H124.227V155H125.688V149.977H130.422ZM139.258 155H140.766V154.875C140.672 154.641 140.599 154.367 140.547 154.055C140.495 153.737 140.469 153.438 140.469 153.156V149.227C140.469 148.753 140.383 148.339 140.211 147.984C140.039 147.63 139.805 147.333 139.508 147.094C139.206 146.859 138.849 146.685 138.438 146.57C138.026 146.451 137.581 146.391 137.102 146.391C136.576 146.391 136.104 146.464 135.688 146.609C135.276 146.755 134.927 146.945 134.641 147.18C134.349 147.419 134.125 147.688 133.969 147.984C133.818 148.281 133.74 148.583 133.734 148.891H135.188C135.188 148.714 135.229 148.544 135.312 148.383C135.401 148.216 135.523 148.073 135.68 147.953C135.836 147.833 136.026 147.737 136.25 147.664C136.479 147.591 136.737 147.555 137.023 147.555C137.331 147.555 137.607 147.594 137.852 147.672C138.102 147.75 138.312 147.859 138.484 148C138.656 148.146 138.789 148.32 138.883 148.523C138.977 148.727 139.023 148.956 139.023 149.211V149.875H137.445C136.857 149.875 136.323 149.932 135.844 150.047C135.37 150.161 134.964 150.333 134.625 150.562C134.286 150.797 134.023 151.089 133.836 151.438C133.654 151.786 133.562 152.193 133.562 152.656C133.562 153.01 133.63 153.341 133.766 153.648C133.906 153.951 134.104 154.211 134.359 154.43C134.609 154.654 134.914 154.831 135.273 154.961C135.638 155.091 136.044 155.156 136.492 155.156C136.768 155.156 137.029 155.128 137.273 155.07C137.518 155.013 137.75 154.935 137.969 154.836C138.182 154.737 138.378 154.622 138.555 154.492C138.737 154.362 138.901 154.224 139.047 154.078C139.062 154.255 139.086 154.427 139.117 154.594C139.154 154.755 139.201 154.891 139.258 155ZM136.703 153.898C136.422 153.898 136.174 153.862 135.961 153.789C135.747 153.716 135.57 153.615 135.43 153.484C135.289 153.359 135.182 153.208 135.109 153.031C135.042 152.854 135.008 152.661 135.008 152.453C135.008 152.234 135.047 152.039 135.125 151.867C135.208 151.695 135.328 151.547 135.484 151.422C135.703 151.245 135.997 151.115 136.367 151.031C136.742 150.943 137.18 150.898 137.68 150.898H139.023V152.609C138.94 152.776 138.826 152.938 138.68 153.094C138.534 153.245 138.362 153.38 138.164 153.5C137.961 153.62 137.737 153.716 137.492 153.789C137.247 153.862 136.984 153.898 136.703 153.898ZM143.977 146.547H142.68V155H144.055V148.273C144.086 148.19 144.125 148.112 144.172 148.039C144.224 147.966 144.284 147.901 144.352 147.844C144.44 147.771 144.547 147.716 144.672 147.68C144.802 147.638 144.953 147.617 145.125 147.617C145.281 147.617 145.417 147.638 145.531 147.68C145.651 147.716 145.75 147.776 145.828 147.859C145.911 147.948 145.971 148.06 146.008 148.195C146.049 148.331 146.07 148.487 146.07 148.664V155H147.445V148.672C147.445 148.641 147.445 148.615 147.445 148.594C147.445 148.568 147.445 148.542 147.445 148.516C147.461 148.385 147.492 148.268 147.539 148.164C147.586 148.055 147.651 147.958 147.734 147.875C147.818 147.797 147.922 147.734 148.047 147.688C148.172 147.641 148.32 147.617 148.492 147.617C148.654 147.617 148.794 147.638 148.914 147.68C149.039 147.721 149.143 147.784 149.227 147.867C149.305 147.956 149.365 148.068 149.406 148.203C149.448 148.339 149.469 148.495 149.469 148.672V155H150.844V148.688C150.844 148.281 150.797 147.93 150.703 147.633C150.609 147.331 150.474 147.086 150.297 146.898C150.135 146.732 149.938 146.607 149.703 146.523C149.469 146.435 149.206 146.391 148.914 146.391C148.701 146.396 148.503 146.424 148.32 146.477C148.143 146.529 147.982 146.599 147.836 146.688C147.721 146.766 147.615 146.857 147.516 146.961C147.417 147.065 147.331 147.177 147.258 147.297C147.201 147.167 147.13 147.049 147.047 146.945C146.969 146.841 146.88 146.753 146.781 146.68C146.646 146.586 146.487 146.516 146.305 146.469C146.128 146.417 145.927 146.391 145.703 146.391C145.307 146.396 144.969 146.482 144.688 146.648C144.411 146.815 144.188 147.047 144.016 147.344L143.977 146.547ZM153.148 146.547V147.805H156.023V153.75H153.148V155H160.227V153.75H157.469V146.547H153.148ZM155.836 144.328C155.836 144.562 155.906 144.758 156.047 144.914C156.193 145.07 156.411 145.148 156.703 145.148C156.99 145.148 157.206 145.07 157.352 144.914C157.497 144.758 157.57 144.562 157.57 144.328C157.57 144.198 157.549 144.078 157.508 143.969C157.466 143.859 157.404 143.768 157.32 143.695C157.253 143.628 157.167 143.576 157.062 143.539C156.958 143.497 156.839 143.477 156.703 143.477C156.568 143.477 156.445 143.497 156.336 143.539C156.232 143.576 156.146 143.628 156.078 143.695C155.995 143.773 155.932 143.867 155.891 143.977C155.854 144.086 155.836 144.203 155.836 144.328ZM162.758 143V144.258H165.633V153.75H162.758V155H169.836V153.75H167.078V143H162.758ZM172.367 146.547V147.805H175.242V153.75H172.367V155H179.445V153.75H176.688V146.547H172.367ZM175.055 144.328C175.055 144.562 175.125 144.758 175.266 144.914C175.411 145.07 175.63 145.148 175.922 145.148C176.208 145.148 176.424 145.07 176.57 144.914C176.716 144.758 176.789 144.562 176.789 144.328C176.789 144.198 176.768 144.078 176.727 143.969C176.685 143.859 176.622 143.768 176.539 143.695C176.471 143.628 176.385 143.576 176.281 143.539C176.177 143.497 176.057 143.477 175.922 143.477C175.786 143.477 175.664 143.497 175.555 143.539C175.451 143.576 175.365 143.628 175.297 143.695C175.214 143.773 175.151 143.867 175.109 143.977C175.073 144.086 175.055 144.203 175.055 144.328ZM187.305 155H188.812V154.875C188.719 154.641 188.646 154.367 188.594 154.055C188.542 153.737 188.516 153.438 188.516 153.156V149.227C188.516 148.753 188.43 148.339 188.258 147.984C188.086 147.63 187.852 147.333 187.555 147.094C187.253 146.859 186.896 146.685 186.484 146.57C186.073 146.451 185.628 146.391 185.148 146.391C184.622 146.391 184.151 146.464 183.734 146.609C183.323 146.755 182.974 146.945 182.688 147.18C182.396 147.419 182.172 147.688 182.016 147.984C181.865 148.281 181.786 148.583 181.781 148.891H183.234C183.234 148.714 183.276 148.544 183.359 148.383C183.448 148.216 183.57 148.073 183.727 147.953C183.883 147.833 184.073 147.737 184.297 147.664C184.526 147.591 184.784 147.555 185.07 147.555C185.378 147.555 185.654 147.594 185.898 147.672C186.148 147.75 186.359 147.859 186.531 148C186.703 148.146 186.836 148.32 186.93 148.523C187.023 148.727 187.07 148.956 187.07 149.211V149.875H185.492C184.904 149.875 184.37 149.932 183.891 150.047C183.417 150.161 183.01 150.333 182.672 150.562C182.333 150.797 182.07 151.089 181.883 151.438C181.701 151.786 181.609 152.193 181.609 152.656C181.609 153.01 181.677 153.341 181.812 153.648C181.953 153.951 182.151 154.211 182.406 154.43C182.656 154.654 182.961 154.831 183.32 154.961C183.685 155.091 184.091 155.156 184.539 155.156C184.815 155.156 185.076 155.128 185.32 155.07C185.565 155.013 185.797 154.935 186.016 154.836C186.229 154.737 186.424 154.622 186.602 154.492C186.784 154.362 186.948 154.224 187.094 154.078C187.109 154.255 187.133 154.427 187.164 154.594C187.201 154.755 187.247 154.891 187.305 155ZM184.75 153.898C184.469 153.898 184.221 153.862 184.008 153.789C183.794 153.716 183.617 153.615 183.477 153.484C183.336 153.359 183.229 153.208 183.156 153.031C183.089 152.854 183.055 152.661 183.055 152.453C183.055 152.234 183.094 152.039 183.172 151.867C183.255 151.695 183.375 151.547 183.531 151.422C183.75 151.245 184.044 151.115 184.414 151.031C184.789 150.943 185.227 150.898 185.727 150.898H187.07V152.609C186.987 152.776 186.872 152.938 186.727 153.094C186.581 153.245 186.409 153.38 186.211 153.5C186.008 153.62 185.784 153.716 185.539 153.789C185.294 153.862 185.031 153.898 184.75 153.898ZM196.898 146.391C196.284 146.391 195.734 146.526 195.25 146.797C194.771 147.062 194.359 147.427 194.016 147.891L194.008 147.68L193.945 146.547H192.57V155H194.023V149.578C194.117 149.318 194.234 149.083 194.375 148.875C194.521 148.661 194.69 148.482 194.883 148.336C195.096 148.169 195.346 148.044 195.633 147.961C195.919 147.872 196.24 147.828 196.594 147.828C196.87 147.828 197.133 147.844 197.383 147.875C197.638 147.901 197.906 147.945 198.188 148.008L198.383 146.594C198.237 146.531 198.018 146.482 197.727 146.445C197.44 146.409 197.164 146.391 196.898 146.391ZM201.195 146.547V147.805H204.07V153.75H201.195V155H208.273V153.75H205.516V146.547H201.195ZM203.883 144.328C203.883 144.562 203.953 144.758 204.094 144.914C204.24 145.07 204.458 145.148 204.75 145.148C205.036 145.148 205.253 145.07 205.398 144.914C205.544 144.758 205.617 144.562 205.617 144.328C205.617 144.198 205.596 144.078 205.555 143.969C205.513 143.859 205.451 143.768 205.367 143.695C205.299 143.628 205.214 143.576 205.109 143.539C205.005 143.497 204.885 143.477 204.75 143.477C204.615 143.477 204.492 143.497 204.383 143.539C204.279 143.576 204.193 143.628 204.125 143.695C204.042 143.773 203.979 143.867 203.938 143.977C203.901 144.086 203.883 144.203 203.883 144.328ZM214 144.5H212.547V146.547H210.328V147.664H212.547V152.258C212.547 152.779 212.615 153.224 212.75 153.594C212.891 153.958 213.081 154.255 213.32 154.484C213.56 154.719 213.841 154.891 214.164 155C214.492 155.104 214.844 155.156 215.219 155.156C215.443 155.156 215.667 155.146 215.891 155.125C216.12 155.104 216.336 155.073 216.539 155.031C216.742 154.995 216.93 154.951 217.102 154.898C217.273 154.841 217.419 154.776 217.539 154.703L217.336 153.68C217.247 153.701 217.133 153.727 216.992 153.758C216.857 153.784 216.711 153.81 216.555 153.836C216.393 153.862 216.229 153.885 216.062 153.906C215.896 153.922 215.734 153.93 215.578 153.93C215.365 153.93 215.161 153.904 214.969 153.852C214.781 153.799 214.615 153.708 214.469 153.578C214.323 153.453 214.208 153.284 214.125 153.07C214.042 152.857 214 152.586 214 152.258V147.664H217.219V146.547H214V144.5ZM220.867 158.414C221.247 158.414 221.583 158.344 221.875 158.203C222.167 158.062 222.422 157.888 222.641 157.68C222.859 157.471 223.044 157.245 223.195 157C223.352 156.755 223.479 156.523 223.578 156.305L227.867 146.547H226.25L224.07 152.031L223.672 153.023L223.297 152L220.977 146.547H219.359L223 154.602L222.422 155.727C222.37 155.831 222.297 155.964 222.203 156.125C222.115 156.286 222.008 156.443 221.883 156.594C221.753 156.745 221.604 156.875 221.438 156.984C221.276 157.094 221.096 157.148 220.898 157.148C220.826 157.148 220.724 157.143 220.594 157.133C220.469 157.128 220.341 157.12 220.211 157.109L219.977 158.289C220.07 158.31 220.208 158.336 220.391 158.367C220.573 158.398 220.732 158.414 220.867 158.414ZM244.961 155H246.469V154.875C246.375 154.641 246.302 154.367 246.25 154.055C246.198 153.737 246.172 153.438 246.172 153.156V149.227C246.172 148.753 246.086 148.339 245.914 147.984C245.742 147.63 245.508 147.333 245.211 147.094C244.909 146.859 244.552 146.685 244.141 146.57C243.729 146.451 243.284 146.391 242.805 146.391C242.279 146.391 241.807 146.464 241.391 146.609C240.979 146.755 240.63 146.945 240.344 147.18C240.052 147.419 239.828 147.688 239.672 147.984C239.521 148.281 239.443 148.583 239.438 148.891H240.891C240.891 148.714 240.932 148.544 241.016 148.383C241.104 148.216 241.227 148.073 241.383 147.953C241.539 147.833 241.729 147.737 241.953 147.664C242.182 147.591 242.44 147.555 242.727 147.555C243.034 147.555 243.31 147.594 243.555 147.672C243.805 147.75 244.016 147.859 244.188 148C244.359 148.146 244.492 148.32 244.586 148.523C244.68 148.727 244.727 148.956 244.727 149.211V149.875H243.148C242.56 149.875 242.026 149.932 241.547 150.047C241.073 150.161 240.667 150.333 240.328 150.562C239.99 150.797 239.727 151.089 239.539 151.438C239.357 151.786 239.266 152.193 239.266 152.656C239.266 153.01 239.333 153.341 239.469 153.648C239.609 153.951 239.807 154.211 240.062 154.43C240.312 154.654 240.617 154.831 240.977 154.961C241.341 155.091 241.747 155.156 242.195 155.156C242.471 155.156 242.732 155.128 242.977 155.07C243.221 155.013 243.453 154.935 243.672 154.836C243.885 154.737 244.081 154.622 244.258 154.492C244.44 154.362 244.604 154.224 244.75 154.078C244.766 154.255 244.789 154.427 244.82 154.594C244.857 154.755 244.904 154.891 244.961 155ZM242.406 153.898C242.125 153.898 241.878 153.862 241.664 153.789C241.451 153.716 241.273 153.615 241.133 153.484C240.992 153.359 240.885 153.208 240.812 153.031C240.745 152.854 240.711 152.661 240.711 152.453C240.711 152.234 240.75 152.039 240.828 151.867C240.911 151.695 241.031 151.547 241.188 151.422C241.406 151.245 241.701 151.115 242.07 151.031C242.445 150.943 242.883 150.898 243.383 150.898H244.727V152.609C244.643 152.776 244.529 152.938 244.383 153.094C244.237 153.245 244.065 153.38 243.867 153.5C243.664 153.62 243.44 153.716 243.195 153.789C242.951 153.862 242.688 153.898 242.406 153.898ZM249.016 155H250.461V148.938C250.56 148.755 250.674 148.589 250.805 148.438C250.94 148.286 251.086 148.154 251.242 148.039C251.435 147.909 251.646 147.807 251.875 147.734C252.104 147.656 252.352 147.617 252.617 147.617C252.924 147.617 253.195 147.654 253.43 147.727C253.669 147.799 253.872 147.917 254.039 148.078C254.201 148.24 254.323 148.451 254.406 148.711C254.49 148.971 254.531 149.289 254.531 149.664V155H255.977V149.633C255.977 149.07 255.906 148.586 255.766 148.18C255.63 147.768 255.435 147.43 255.18 147.164C254.924 146.898 254.615 146.703 254.25 146.578C253.891 146.453 253.49 146.391 253.047 146.391C252.719 146.396 252.406 146.445 252.109 146.539C251.818 146.628 251.547 146.755 251.297 146.922C251.13 147.031 250.971 147.161 250.82 147.312C250.674 147.458 250.539 147.62 250.414 147.797L250.312 146.547H249.016V155ZM258.352 150.703V150.867C258.352 151.471 258.432 152.036 258.594 152.562C258.755 153.083 258.982 153.536 259.273 153.922C259.565 154.307 259.917 154.609 260.328 154.828C260.745 155.047 261.208 155.156 261.719 155.156C262.24 155.156 262.695 155.068 263.086 154.891C263.477 154.714 263.812 154.453 264.094 154.109L264.156 155H265.484V143H264.039V147.383C263.763 147.06 263.435 146.815 263.055 146.648C262.68 146.477 262.24 146.391 261.734 146.391C261.219 146.391 260.753 146.497 260.336 146.711C259.919 146.924 259.565 147.221 259.273 147.602C258.977 147.982 258.747 148.438 258.586 148.969C258.43 149.495 258.352 150.073 258.352 150.703ZM259.797 150.867V150.703C259.797 150.292 259.841 149.901 259.93 149.531C260.018 149.156 260.156 148.826 260.344 148.539C260.526 148.258 260.76 148.034 261.047 147.867C261.339 147.701 261.688 147.617 262.094 147.617C262.568 147.617 262.964 147.729 263.281 147.953C263.599 148.172 263.852 148.453 264.039 148.797V152.719C263.852 153.089 263.599 153.383 263.281 153.602C262.964 153.82 262.562 153.93 262.078 153.93C261.677 153.93 261.333 153.849 261.047 153.688C260.76 153.521 260.526 153.297 260.344 153.016C260.156 152.734 260.018 152.409 259.93 152.039C259.841 151.669 259.797 151.279 259.797 150.867ZM151.852 176.156C152.674 176.156 153.365 175.992 153.922 175.664C154.484 175.331 154.906 174.951 155.188 174.523L154.305 173.836C154.039 174.18 153.706 174.456 153.305 174.664C152.904 174.872 152.445 174.977 151.93 174.977C151.539 174.977 151.182 174.904 150.859 174.758C150.536 174.612 150.26 174.411 150.031 174.156C149.807 173.917 149.63 173.641 149.5 173.328C149.375 173.016 149.294 172.654 149.258 172.242V172.188H155.297V171.539C155.297 170.951 155.221 170.404 155.07 169.898C154.924 169.393 154.701 168.953 154.398 168.578C154.096 168.208 153.716 167.919 153.258 167.711C152.805 167.497 152.273 167.391 151.664 167.391C151.18 167.391 150.706 167.49 150.242 167.688C149.784 167.885 149.375 168.169 149.016 168.539C148.651 168.914 148.359 169.372 148.141 169.914C147.922 170.451 147.812 171.06 147.812 171.742V172.07C147.812 172.659 147.911 173.203 148.109 173.703C148.307 174.203 148.583 174.635 148.938 175C149.292 175.365 149.716 175.648 150.211 175.852C150.711 176.055 151.258 176.156 151.852 176.156ZM151.664 168.578C152.034 168.578 152.352 168.646 152.617 168.781C152.888 168.917 153.112 169.094 153.289 169.312C153.466 169.531 153.604 169.792 153.703 170.094C153.802 170.391 153.852 170.669 153.852 170.93V171H149.305C149.362 170.609 149.461 170.266 149.602 169.969C149.747 169.667 149.924 169.411 150.133 169.203C150.341 169 150.576 168.846 150.836 168.742C151.096 168.633 151.372 168.578 151.664 168.578ZM161.219 170.68L158.984 167.547H157.312L160.461 171.727L157.227 176H158.914L161.25 172.781L163.586 176H165.258L162.023 171.727L165.172 167.547H163.477L161.219 170.68ZM167.328 179.25H168.773V175.188C168.878 175.302 168.99 175.409 169.109 175.508C169.229 175.602 169.357 175.688 169.492 175.766C169.716 175.891 169.966 175.987 170.242 176.055C170.523 176.122 170.826 176.156 171.148 176.156C171.68 176.156 172.151 176.047 172.562 175.828C172.979 175.609 173.328 175.307 173.609 174.922C173.891 174.536 174.104 174.083 174.25 173.562C174.396 173.036 174.469 172.471 174.469 171.867V171.703C174.469 171.073 174.396 170.495 174.25 169.969C174.104 169.438 173.891 168.982 173.609 168.602C173.328 168.221 172.979 167.924 172.562 167.711C172.146 167.497 171.667 167.391 171.125 167.391C170.818 167.391 170.529 167.424 170.258 167.492C169.992 167.555 169.75 167.648 169.531 167.773C169.375 167.857 169.229 167.958 169.094 168.078C168.958 168.193 168.833 168.323 168.719 168.469L168.648 167.547H167.328V179.25ZM173.023 171.703V171.867C173.023 172.279 172.977 172.672 172.883 173.047C172.794 173.422 172.656 173.753 172.469 174.039C172.281 174.326 172.042 174.555 171.75 174.727C171.458 174.893 171.112 174.977 170.711 174.977C170.461 174.977 170.232 174.945 170.023 174.883C169.82 174.82 169.635 174.734 169.469 174.625C169.323 174.531 169.193 174.417 169.078 174.281C168.964 174.146 168.862 174 168.773 173.844V169.773C168.872 169.596 168.987 169.435 169.117 169.289C169.247 169.143 169.396 169.021 169.562 168.922C169.714 168.823 169.883 168.747 170.07 168.695C170.263 168.643 170.471 168.617 170.695 168.617C171.102 168.617 171.451 168.701 171.742 168.867C172.034 169.034 172.276 169.258 172.469 169.539C172.656 169.826 172.794 170.156 172.883 170.531C172.977 170.901 173.023 171.292 173.023 171.703ZM180.68 176.156C181.503 176.156 182.193 175.992 182.75 175.664C183.312 175.331 183.734 174.951 184.016 174.523L183.133 173.836C182.867 174.18 182.534 174.456 182.133 174.664C181.732 174.872 181.273 174.977 180.758 174.977C180.367 174.977 180.01 174.904 179.688 174.758C179.365 174.612 179.089 174.411 178.859 174.156C178.635 173.917 178.458 173.641 178.328 173.328C178.203 173.016 178.122 172.654 178.086 172.242V172.188H184.125V171.539C184.125 170.951 184.049 170.404 183.898 169.898C183.753 169.393 183.529 168.953 183.227 168.578C182.924 168.208 182.544 167.919 182.086 167.711C181.633 167.497 181.102 167.391 180.492 167.391C180.008 167.391 179.534 167.49 179.07 167.688C178.612 167.885 178.203 168.169 177.844 168.539C177.479 168.914 177.188 169.372 176.969 169.914C176.75 170.451 176.641 171.06 176.641 171.742V172.07C176.641 172.659 176.74 173.203 176.938 173.703C177.135 174.203 177.411 174.635 177.766 175C178.12 175.365 178.544 175.648 179.039 175.852C179.539 176.055 180.086 176.156 180.68 176.156ZM180.492 168.578C180.862 168.578 181.18 168.646 181.445 168.781C181.716 168.917 181.94 169.094 182.117 169.312C182.294 169.531 182.432 169.792 182.531 170.094C182.63 170.391 182.68 170.669 182.68 170.93V171H178.133C178.19 170.609 178.289 170.266 178.43 169.969C178.576 169.667 178.753 169.411 178.961 169.203C179.169 169 179.404 168.846 179.664 168.742C179.924 168.633 180.201 168.578 180.492 168.578ZM186.555 176H188V169.938C188.099 169.755 188.214 169.589 188.344 169.438C188.479 169.286 188.625 169.154 188.781 169.039C188.974 168.909 189.185 168.807 189.414 168.734C189.643 168.656 189.891 168.617 190.156 168.617C190.464 168.617 190.734 168.654 190.969 168.727C191.208 168.799 191.411 168.917 191.578 169.078C191.74 169.24 191.862 169.451 191.945 169.711C192.029 169.971 192.07 170.289 192.07 170.664V176H193.516V170.633C193.516 170.07 193.445 169.586 193.305 169.18C193.169 168.768 192.974 168.43 192.719 168.164C192.464 167.898 192.154 167.703 191.789 167.578C191.43 167.453 191.029 167.391 190.586 167.391C190.258 167.396 189.945 167.445 189.648 167.539C189.357 167.628 189.086 167.755 188.836 167.922C188.669 168.031 188.51 168.161 188.359 168.312C188.214 168.458 188.078 168.62 187.953 168.797L187.852 167.547H186.555V176ZM201.781 173.758C201.781 173.893 201.755 174.021 201.703 174.141C201.651 174.26 201.576 174.37 201.477 174.469C201.315 174.63 201.091 174.758 200.805 174.852C200.518 174.94 200.182 174.984 199.797 174.984C199.552 174.984 199.305 174.958 199.055 174.906C198.805 174.854 198.578 174.766 198.375 174.641C198.167 174.516 197.992 174.352 197.852 174.148C197.716 173.945 197.638 173.695 197.617 173.398H196.172C196.172 173.758 196.253 174.104 196.414 174.438C196.581 174.771 196.82 175.062 197.133 175.312C197.44 175.568 197.818 175.773 198.266 175.93C198.714 176.081 199.224 176.156 199.797 176.156C200.297 176.156 200.758 176.096 201.18 175.977C201.602 175.857 201.964 175.688 202.266 175.469C202.568 175.25 202.802 174.987 202.969 174.68C203.141 174.372 203.227 174.031 203.227 173.656C203.227 173.307 203.151 173 203 172.734C202.854 172.469 202.641 172.234 202.359 172.031C202.078 171.833 201.732 171.664 201.32 171.523C200.909 171.378 200.443 171.25 199.922 171.141C199.526 171.062 199.198 170.982 198.938 170.898C198.682 170.815 198.479 170.721 198.328 170.617C198.172 170.513 198.062 170.396 198 170.266C197.938 170.135 197.906 169.987 197.906 169.82C197.906 169.659 197.945 169.503 198.023 169.352C198.102 169.201 198.219 169.068 198.375 168.953C198.526 168.839 198.716 168.747 198.945 168.68C199.18 168.612 199.451 168.578 199.758 168.578C200.055 168.578 200.32 168.62 200.555 168.703C200.794 168.786 200.997 168.896 201.164 169.031C201.331 169.167 201.461 169.323 201.555 169.5C201.648 169.672 201.695 169.849 201.695 170.031H203.141C203.141 169.661 203.06 169.318 202.898 169C202.742 168.677 202.518 168.396 202.227 168.156C201.935 167.917 201.581 167.729 201.164 167.594C200.747 167.458 200.279 167.391 199.758 167.391C199.273 167.391 198.828 167.456 198.422 167.586C198.021 167.716 197.674 167.893 197.383 168.117C197.091 168.341 196.865 168.604 196.703 168.906C196.542 169.203 196.461 169.523 196.461 169.867C196.461 170.216 196.539 170.523 196.695 170.789C196.852 171.049 197.073 171.276 197.359 171.469C197.641 171.667 197.979 171.836 198.375 171.977C198.776 172.117 199.219 172.237 199.703 172.336C200.099 172.414 200.43 172.503 200.695 172.602C200.961 172.695 201.174 172.799 201.336 172.914C201.497 173.029 201.612 173.156 201.68 173.297C201.747 173.432 201.781 173.586 201.781 173.758ZM209.508 176.156C210.331 176.156 211.021 175.992 211.578 175.664C212.141 175.331 212.562 174.951 212.844 174.523L211.961 173.836C211.695 174.18 211.362 174.456 210.961 174.664C210.56 174.872 210.102 174.977 209.586 174.977C209.195 174.977 208.839 174.904 208.516 174.758C208.193 174.612 207.917 174.411 207.688 174.156C207.464 173.917 207.286 173.641 207.156 173.328C207.031 173.016 206.951 172.654 206.914 172.242V172.188H212.953V171.539C212.953 170.951 212.878 170.404 212.727 169.898C212.581 169.393 212.357 168.953 212.055 168.578C211.753 168.208 211.372 167.919 210.914 167.711C210.461 167.497 209.93 167.391 209.32 167.391C208.836 167.391 208.362 167.49 207.898 167.688C207.44 167.885 207.031 168.169 206.672 168.539C206.307 168.914 206.016 169.372 205.797 169.914C205.578 170.451 205.469 171.06 205.469 171.742V172.07C205.469 172.659 205.568 173.203 205.766 173.703C205.964 174.203 206.24 174.635 206.594 175C206.948 175.365 207.372 175.648 207.867 175.852C208.367 176.055 208.914 176.156 209.508 176.156ZM209.32 168.578C209.69 168.578 210.008 168.646 210.273 168.781C210.544 168.917 210.768 169.094 210.945 169.312C211.122 169.531 211.26 169.792 211.359 170.094C211.458 170.391 211.508 170.669 211.508 170.93V171H206.961C207.018 170.609 207.117 170.266 207.258 169.969C207.404 169.667 207.581 169.411 207.789 169.203C207.997 169 208.232 168.846 208.492 168.742C208.753 168.633 209.029 168.578 209.32 168.578ZM217.898 175.062C217.898 175.365 217.992 175.622 218.18 175.836C218.372 176.044 218.656 176.148 219.031 176.148C219.401 176.148 219.685 176.044 219.883 175.836C220.081 175.628 220.18 175.37 220.18 175.062C220.18 174.75 220.081 174.487 219.883 174.273C219.69 174.055 219.406 173.945 219.031 173.945C218.651 173.945 218.367 174.055 218.18 174.273C217.992 174.492 217.898 174.755 217.898 175.062ZM228.133 164.977V163.828H226.719V165C226.719 165.448 226.656 165.865 226.531 166.25C226.411 166.635 226.229 167.013 225.984 167.383L226.773 167.945C226.992 167.758 227.185 167.544 227.352 167.305C227.518 167.065 227.661 166.812 227.781 166.547C227.896 166.286 227.982 166.021 228.039 165.75C228.102 165.479 228.133 165.221 228.133 164.977ZM230.727 164.977V163.828H229.312V165C229.312 165.448 229.25 165.865 229.125 166.25C229.005 166.635 228.823 167.013 228.578 167.383L229.367 167.945C229.586 167.758 229.779 167.544 229.945 167.305C230.112 167.065 230.255 166.812 230.375 166.547C230.49 166.286 230.576 166.021 230.633 165.75C230.695 165.479 230.727 165.221 230.727 164.977Z" fill="black"/>
</svg>
