<svg width="380" height="230" viewBox="0 0 380 230" fill="none" xmlns="http://www.w3.org/2000/svg">
<path d="M288.745 82.6327V84.7014L290.813 84.6316C336.166 83.1 371.932 122.845 365.643 167.785L365.011 172.298C362.817 187.979 354.869 202.282 342.712 212.427C331.245 221.997 316.783 227.239 301.847 227.239H89.7144L65.9815 225.02C56.856 224.166 47.9678 221.628 39.7675 217.535L34.0149 214.663C24.3935 209.86 16.4477 202.262 11.219 192.865C5.3104 182.247 3.20296 169.929 5.24516 157.95L6.02044 153.403C7.94067 142.139 13.4657 131.803 21.7647 123.95C31.5621 114.678 44.5388 109.511 58.0277 109.511H70.3045H72.3045V107.511V96.7518C72.3045 76.8433 83.4696 58.6167 101.205 49.5725C116.435 41.8062 134.477 41.8692 149.652 49.7419L154.817 52.4212L156.86 53.4812L157.624 51.3099L158.537 48.7173C165.483 28.9841 180.898 13.3963 200.552 6.2307L202.442 5.54158C208.869 3.19866 215.656 2 222.496 2C227.628 2 232.738 2.6748 237.694 4.00705L242.167 5.20937C249.188 7.0965 255.831 10.1768 261.808 14.3157L262.746 14.9653C274.761 23.2863 283.35 35.6836 286.918 49.8567C288.132 54.6761 288.745 59.6269 288.745 64.5966V82.6327Z" stroke="#C9D8DF" stroke-width="4"/>
<path d="M115.695 98.7422V99.8828H117.109V98.7188C117.109 98.2708 117.169 97.8542 117.289 97.4688C117.414 97.0833 117.599 96.7057 117.844 96.3359L117.055 95.7734C116.836 95.9609 116.643 96.1745 116.477 96.4141C116.31 96.6536 116.169 96.9036 116.055 97.1641C115.935 97.4297 115.844 97.6979 115.781 97.9688C115.724 98.2396 115.695 98.4974 115.695 98.7422ZM118.234 98.7422V99.8828H119.648V98.7188C119.648 98.2708 119.708 97.8542 119.828 97.4688C119.953 97.0833 120.138 96.7057 120.383 96.3359L119.594 95.7734C119.375 95.9609 119.182 96.1745 119.016 96.4141C118.849 96.6536 118.708 96.9036 118.594 97.1641C118.474 97.4297 118.383 97.6979 118.32 97.9688C118.263 98.2396 118.234 98.4974 118.234 98.7422ZM124.094 96.625V97.8828H126.758V106.75H124.094V108H130.969V106.75H128.242V97.8828H130.969V96.625H124.094ZM144.125 108H145.266L146.57 102.82L146.781 101.508L147 102.82L148.32 108H149.461L151.258 99.5469H149.977L149.039 104.938L148.828 106.266L148.602 104.938L147.258 99.5469H146.328L144.977 104.938L144.766 106.148L144.594 104.938L143.609 99.5469H142.328L144.125 108ZM152.516 103.695V103.867C152.516 104.477 152.604 105.042 152.781 105.562C152.958 106.083 153.214 106.536 153.547 106.922C153.875 107.307 154.276 107.609 154.75 107.828C155.229 108.047 155.768 108.156 156.367 108.156C156.961 108.156 157.495 108.047 157.969 107.828C158.443 107.609 158.846 107.307 159.18 106.922C159.508 106.536 159.76 106.083 159.938 105.562C160.115 105.042 160.203 104.477 160.203 103.867V103.695C160.203 103.086 160.115 102.521 159.938 102C159.76 101.474 159.508 101.018 159.18 100.633C158.846 100.247 158.44 99.9453 157.961 99.7266C157.487 99.5026 156.951 99.3906 156.352 99.3906C155.758 99.3906 155.224 99.5026 154.75 99.7266C154.276 99.9453 153.875 100.247 153.547 100.633C153.214 101.018 152.958 101.474 152.781 102C152.604 102.521 152.516 103.086 152.516 103.695ZM153.961 103.867V103.695C153.961 103.284 154.01 102.891 154.109 102.516C154.208 102.135 154.359 101.802 154.562 101.516C154.76 101.229 155.008 101.003 155.305 100.836C155.602 100.664 155.951 100.578 156.352 100.578C156.753 100.578 157.102 100.664 157.398 100.836C157.701 101.003 157.953 101.229 158.156 101.516C158.354 101.802 158.503 102.135 158.602 102.516C158.706 102.891 158.758 103.284 158.758 103.695V103.867C158.758 104.284 158.708 104.682 158.609 105.062C158.51 105.438 158.362 105.768 158.164 106.055C157.961 106.341 157.708 106.568 157.406 106.734C157.109 106.901 156.763 106.984 156.367 106.984C155.966 106.984 155.615 106.901 155.312 106.734C155.01 106.568 154.76 106.341 154.562 106.055C154.359 105.768 154.208 105.438 154.109 105.062C154.01 104.682 153.961 104.284 153.961 103.867ZM168.102 108H169.414V99.5469H167.961V105.609C167.883 105.792 167.784 105.961 167.664 106.117C167.549 106.268 167.414 106.398 167.258 106.508C167.07 106.643 166.849 106.75 166.594 106.828C166.339 106.901 166.049 106.938 165.727 106.938C165.451 106.938 165.206 106.901 164.992 106.828C164.784 106.755 164.607 106.628 164.461 106.445C164.315 106.268 164.206 106.029 164.133 105.727C164.06 105.424 164.023 105.044 164.023 104.586V99.5469H162.578V104.57C162.578 105.201 162.646 105.742 162.781 106.195C162.922 106.643 163.12 107.013 163.375 107.305C163.63 107.596 163.938 107.812 164.297 107.953C164.656 108.089 165.057 108.156 165.5 108.156C166.052 108.156 166.539 108.042 166.961 107.812C167.383 107.578 167.734 107.253 168.016 106.836L168.102 108ZM172.367 96V97.2578H175.242V106.75H172.367V108H179.445V106.75H176.688V96H172.367ZM181.477 103.703V103.867C181.477 104.471 181.557 105.036 181.719 105.562C181.88 106.083 182.107 106.536 182.398 106.922C182.69 107.307 183.042 107.609 183.453 107.828C183.87 108.047 184.333 108.156 184.844 108.156C185.365 108.156 185.82 108.068 186.211 107.891C186.602 107.714 186.938 107.453 187.219 107.109L187.281 108H188.609V96H187.164V100.383C186.888 100.06 186.56 99.8151 186.18 99.6484C185.805 99.4766 185.365 99.3906 184.859 99.3906C184.344 99.3906 183.878 99.4974 183.461 99.7109C183.044 99.9245 182.69 100.221 182.398 100.602C182.102 100.982 181.872 101.438 181.711 101.969C181.555 102.495 181.477 103.073 181.477 103.703ZM182.922 103.867V103.703C182.922 103.292 182.966 102.901 183.055 102.531C183.143 102.156 183.281 101.826 183.469 101.539C183.651 101.258 183.885 101.034 184.172 100.867C184.464 100.701 184.812 100.617 185.219 100.617C185.693 100.617 186.089 100.729 186.406 100.953C186.724 101.172 186.977 101.453 187.164 101.797V105.719C186.977 106.089 186.724 106.383 186.406 106.602C186.089 106.82 185.688 106.93 185.203 106.93C184.802 106.93 184.458 106.849 184.172 106.688C183.885 106.521 183.651 106.297 183.469 106.016C183.281 105.734 183.143 105.409 183.055 105.039C182.966 104.669 182.922 104.279 182.922 103.867ZM201.195 96V97.2578H204.07V106.75H201.195V108H208.273V106.75H205.516V96H201.195ZM210.805 99.5469V100.805H213.68V106.75H210.805V108H217.883V106.75H215.125V99.5469H210.805ZM213.492 97.3281C213.492 97.5625 213.562 97.7578 213.703 97.9141C213.849 98.0703 214.068 98.1484 214.359 98.1484C214.646 98.1484 214.862 98.0703 215.008 97.9141C215.154 97.7578 215.227 97.5625 215.227 97.3281C215.227 97.1979 215.206 97.0781 215.164 96.9688C215.122 96.8594 215.06 96.7682 214.977 96.6953C214.909 96.6276 214.823 96.5755 214.719 96.5391C214.615 96.4974 214.495 96.4766 214.359 96.4766C214.224 96.4766 214.102 96.4974 213.992 96.5391C213.888 96.5755 213.802 96.6276 213.734 96.6953C213.651 96.7734 213.589 96.8672 213.547 96.9766C213.51 97.0859 213.492 97.2031 213.492 97.3281ZM222.719 104.055L225.82 108H227.656L223.711 103.07L227.133 99.5469H225.375L222.602 102.328L221.656 103.344V96H220.203V108H221.656V105.078L222.719 104.055ZM233.531 108.156C234.354 108.156 235.044 107.992 235.602 107.664C236.164 107.331 236.586 106.951 236.867 106.523L235.984 105.836C235.719 106.18 235.385 106.456 234.984 106.664C234.583 106.872 234.125 106.977 233.609 106.977C233.219 106.977 232.862 106.904 232.539 106.758C232.216 106.612 231.94 106.411 231.711 106.156C231.487 105.917 231.31 105.641 231.18 105.328C231.055 105.016 230.974 104.654 230.938 104.242V104.188H236.977V103.539C236.977 102.951 236.901 102.404 236.75 101.898C236.604 101.393 236.38 100.953 236.078 100.578C235.776 100.208 235.396 99.9193 234.938 99.7109C234.484 99.4974 233.953 99.3906 233.344 99.3906C232.859 99.3906 232.385 99.4896 231.922 99.6875C231.464 99.8854 231.055 100.169 230.695 100.539C230.331 100.914 230.039 101.372 229.82 101.914C229.602 102.451 229.492 103.06 229.492 103.742V104.07C229.492 104.659 229.591 105.203 229.789 105.703C229.987 106.203 230.263 106.635 230.617 107C230.971 107.365 231.396 107.648 231.891 107.852C232.391 108.055 232.938 108.156 233.531 108.156ZM233.344 100.578C233.714 100.578 234.031 100.646 234.297 100.781C234.568 100.917 234.792 101.094 234.969 101.312C235.146 101.531 235.284 101.792 235.383 102.094C235.482 102.391 235.531 102.669 235.531 102.93V103H230.984C231.042 102.609 231.141 102.266 231.281 101.969C231.427 101.667 231.604 101.411 231.812 101.203C232.021 101 232.255 100.846 232.516 100.742C232.776 100.633 233.052 100.578 233.344 100.578ZM252.438 97.5H250.984V99.5469H248.766V100.664H250.984V105.258C250.984 105.779 251.052 106.224 251.188 106.594C251.328 106.958 251.518 107.255 251.758 107.484C251.997 107.719 252.279 107.891 252.602 108C252.93 108.104 253.281 108.156 253.656 108.156C253.88 108.156 254.104 108.146 254.328 108.125C254.557 108.104 254.773 108.073 254.977 108.031C255.18 107.995 255.367 107.951 255.539 107.898C255.711 107.841 255.857 107.776 255.977 107.703L255.773 106.68C255.685 106.701 255.57 106.727 255.43 106.758C255.294 106.784 255.148 106.81 254.992 106.836C254.831 106.862 254.667 106.885 254.5 106.906C254.333 106.922 254.172 106.93 254.016 106.93C253.802 106.93 253.599 106.904 253.406 106.852C253.219 106.799 253.052 106.708 252.906 106.578C252.76 106.453 252.646 106.284 252.562 106.07C252.479 105.857 252.438 105.586 252.438 105.258V100.664H255.656V99.5469H252.438V97.5ZM258.219 103.695V103.867C258.219 104.477 258.307 105.042 258.484 105.562C258.661 106.083 258.917 106.536 259.25 106.922C259.578 107.307 259.979 107.609 260.453 107.828C260.932 108.047 261.471 108.156 262.07 108.156C262.664 108.156 263.198 108.047 263.672 107.828C264.146 107.609 264.549 107.307 264.883 106.922C265.211 106.536 265.464 106.083 265.641 105.562C265.818 105.042 265.906 104.477 265.906 103.867V103.695C265.906 103.086 265.818 102.521 265.641 102C265.464 101.474 265.211 101.018 264.883 100.633C264.549 100.247 264.143 99.9453 263.664 99.7266C263.19 99.5026 262.654 99.3906 262.055 99.3906C261.461 99.3906 260.927 99.5026 260.453 99.7266C259.979 99.9453 259.578 100.247 259.25 100.633C258.917 101.018 258.661 101.474 258.484 102C258.307 102.521 258.219 103.086 258.219 103.695ZM259.664 103.867V103.695C259.664 103.284 259.714 102.891 259.812 102.516C259.911 102.135 260.062 101.802 260.266 101.516C260.464 101.229 260.711 101.003 261.008 100.836C261.305 100.664 261.654 100.578 262.055 100.578C262.456 100.578 262.805 100.664 263.102 100.836C263.404 101.003 263.656 101.229 263.859 101.516C264.057 101.802 264.206 102.135 264.305 102.516C264.409 102.891 264.461 103.284 264.461 103.695V103.867C264.461 104.284 264.411 104.682 264.312 105.062C264.214 105.438 264.065 105.768 263.867 106.055C263.664 106.341 263.411 106.568 263.109 106.734C262.812 106.901 262.466 106.984 262.07 106.984C261.669 106.984 261.318 106.901 261.016 106.734C260.714 106.568 260.464 106.341 260.266 106.055C260.062 105.768 259.911 105.438 259.812 105.062C259.714 104.682 259.664 104.284 259.664 103.867ZM106.32 121.805V117H104.875V129H106.32V122.859C106.424 122.693 106.542 122.542 106.672 122.406C106.807 122.266 106.953 122.143 107.109 122.039C107.307 121.904 107.523 121.799 107.758 121.727C107.992 121.654 108.24 121.617 108.5 121.617C108.818 121.612 109.099 121.656 109.344 121.75C109.589 121.839 109.792 121.974 109.953 122.156C110.104 122.323 110.219 122.534 110.297 122.789C110.375 123.039 110.414 123.331 110.414 123.664V129H111.859V123.68C111.859 123.112 111.789 122.622 111.648 122.211C111.513 121.794 111.318 121.451 111.062 121.18C110.807 120.909 110.497 120.711 110.133 120.586C109.773 120.456 109.372 120.391 108.93 120.391C108.591 120.396 108.271 120.445 107.969 120.539C107.672 120.633 107.398 120.771 107.148 120.953C106.992 121.062 106.844 121.19 106.703 121.336C106.562 121.477 106.435 121.633 106.32 121.805ZM120.039 129H121.547V128.875C121.453 128.641 121.38 128.367 121.328 128.055C121.276 127.737 121.25 127.438 121.25 127.156V123.227C121.25 122.753 121.164 122.339 120.992 121.984C120.82 121.63 120.586 121.333 120.289 121.094C119.987 120.859 119.63 120.685 119.219 120.57C118.807 120.451 118.362 120.391 117.883 120.391C117.357 120.391 116.885 120.464 116.469 120.609C116.057 120.755 115.708 120.945 115.422 121.18C115.13 121.419 114.906 121.688 114.75 121.984C114.599 122.281 114.521 122.583 114.516 122.891H115.969C115.969 122.714 116.01 122.544 116.094 122.383C116.182 122.216 116.305 122.073 116.461 121.953C116.617 121.833 116.807 121.737 117.031 121.664C117.26 121.591 117.518 121.555 117.805 121.555C118.112 121.555 118.388 121.594 118.633 121.672C118.883 121.75 119.094 121.859 119.266 122C119.438 122.146 119.57 122.32 119.664 122.523C119.758 122.727 119.805 122.956 119.805 123.211V123.875H118.227C117.638 123.875 117.104 123.932 116.625 124.047C116.151 124.161 115.745 124.333 115.406 124.562C115.068 124.797 114.805 125.089 114.617 125.438C114.435 125.786 114.344 126.193 114.344 126.656C114.344 127.01 114.411 127.341 114.547 127.648C114.688 127.951 114.885 128.211 115.141 128.43C115.391 128.654 115.695 128.831 116.055 128.961C116.419 129.091 116.826 129.156 117.273 129.156C117.549 129.156 117.81 129.128 118.055 129.07C118.299 129.013 118.531 128.935 118.75 128.836C118.964 128.737 119.159 128.622 119.336 128.492C119.518 128.362 119.682 128.224 119.828 128.078C119.844 128.255 119.867 128.427 119.898 128.594C119.935 128.755 119.982 128.891 120.039 129ZM117.484 127.898C117.203 127.898 116.956 127.862 116.742 127.789C116.529 127.716 116.352 127.615 116.211 127.484C116.07 127.359 115.964 127.208 115.891 127.031C115.823 126.854 115.789 126.661 115.789 126.453C115.789 126.234 115.828 126.039 115.906 125.867C115.99 125.695 116.109 125.547 116.266 125.422C116.484 125.245 116.779 125.115 117.148 125.031C117.523 124.943 117.961 124.898 118.461 124.898H119.805V126.609C119.721 126.776 119.607 126.938 119.461 127.094C119.315 127.245 119.143 127.38 118.945 127.5C118.742 127.62 118.518 127.716 118.273 127.789C118.029 127.862 117.766 127.898 117.484 127.898ZM126.977 129H128.078L131.523 120.547H130.047L127.68 126.922L127.539 127.445L127.406 126.922L124.984 120.547H123.5L126.977 129ZM137.438 129.156C138.26 129.156 138.951 128.992 139.508 128.664C140.07 128.331 140.492 127.951 140.773 127.523L139.891 126.836C139.625 127.18 139.292 127.456 138.891 127.664C138.49 127.872 138.031 127.977 137.516 127.977C137.125 127.977 136.768 127.904 136.445 127.758C136.122 127.612 135.846 127.411 135.617 127.156C135.393 126.917 135.216 126.641 135.086 126.328C134.961 126.016 134.88 125.654 134.844 125.242V125.188H140.883V124.539C140.883 123.951 140.807 123.404 140.656 122.898C140.51 122.393 140.286 121.953 139.984 121.578C139.682 121.208 139.302 120.919 138.844 120.711C138.391 120.497 137.859 120.391 137.25 120.391C136.766 120.391 136.292 120.49 135.828 120.688C135.37 120.885 134.961 121.169 134.602 121.539C134.237 121.914 133.945 122.372 133.727 122.914C133.508 123.451 133.398 124.06 133.398 124.742V125.07C133.398 125.659 133.497 126.203 133.695 126.703C133.893 127.203 134.169 127.635 134.523 128C134.878 128.365 135.302 128.648 135.797 128.852C136.297 129.055 136.844 129.156 137.438 129.156ZM137.25 121.578C137.62 121.578 137.938 121.646 138.203 121.781C138.474 121.917 138.698 122.094 138.875 122.312C139.052 122.531 139.19 122.792 139.289 123.094C139.388 123.391 139.438 123.669 139.438 123.93V124H134.891C134.948 123.609 135.047 123.266 135.188 122.969C135.333 122.667 135.51 122.411 135.719 122.203C135.927 122 136.161 121.846 136.422 121.742C136.682 121.633 136.958 121.578 137.25 121.578ZM156.344 118.5H154.891V120.547H152.672V121.664H154.891V126.258C154.891 126.779 154.958 127.224 155.094 127.594C155.234 127.958 155.424 128.255 155.664 128.484C155.904 128.719 156.185 128.891 156.508 129C156.836 129.104 157.188 129.156 157.562 129.156C157.786 129.156 158.01 129.146 158.234 129.125C158.464 129.104 158.68 129.073 158.883 129.031C159.086 128.995 159.273 128.951 159.445 128.898C159.617 128.841 159.763 128.776 159.883 128.703L159.68 127.68C159.591 127.701 159.477 127.727 159.336 127.758C159.201 127.784 159.055 127.81 158.898 127.836C158.737 127.862 158.573 127.885 158.406 127.906C158.24 127.922 158.078 127.93 157.922 127.93C157.708 127.93 157.505 127.904 157.312 127.852C157.125 127.799 156.958 127.708 156.812 127.578C156.667 127.453 156.552 127.284 156.469 127.07C156.385 126.857 156.344 126.586 156.344 126.258V121.664H159.562V120.547H156.344V118.5ZM163.977 121.805V117H162.531V129H163.977V122.859C164.081 122.693 164.198 122.542 164.328 122.406C164.464 122.266 164.609 122.143 164.766 122.039C164.964 121.904 165.18 121.799 165.414 121.727C165.648 121.654 165.896 121.617 166.156 121.617C166.474 121.612 166.755 121.656 167 121.75C167.245 121.839 167.448 121.974 167.609 122.156C167.76 122.323 167.875 122.534 167.953 122.789C168.031 123.039 168.07 123.331 168.07 123.664V129H169.516V123.68C169.516 123.112 169.445 122.622 169.305 122.211C169.169 121.794 168.974 121.451 168.719 121.18C168.464 120.909 168.154 120.711 167.789 120.586C167.43 120.456 167.029 120.391 166.586 120.391C166.247 120.396 165.927 120.445 165.625 120.539C165.328 120.633 165.055 120.771 164.805 120.953C164.648 121.062 164.5 121.19 164.359 121.336C164.219 121.477 164.091 121.633 163.977 121.805ZM175.875 129.156C176.698 129.156 177.388 128.992 177.945 128.664C178.508 128.331 178.93 127.951 179.211 127.523L178.328 126.836C178.062 127.18 177.729 127.456 177.328 127.664C176.927 127.872 176.469 127.977 175.953 127.977C175.562 127.977 175.206 127.904 174.883 127.758C174.56 127.612 174.284 127.411 174.055 127.156C173.831 126.917 173.654 126.641 173.523 126.328C173.398 126.016 173.318 125.654 173.281 125.242V125.188H179.32V124.539C179.32 123.951 179.245 123.404 179.094 122.898C178.948 122.393 178.724 121.953 178.422 121.578C178.12 121.208 177.74 120.919 177.281 120.711C176.828 120.497 176.297 120.391 175.688 120.391C175.203 120.391 174.729 120.49 174.266 120.688C173.807 120.885 173.398 121.169 173.039 121.539C172.674 121.914 172.383 122.372 172.164 122.914C171.945 123.451 171.836 124.06 171.836 124.742V125.07C171.836 125.659 171.935 126.203 172.133 126.703C172.331 127.203 172.607 127.635 172.961 128C173.315 128.365 173.74 128.648 174.234 128.852C174.734 129.055 175.281 129.156 175.875 129.156ZM175.688 121.578C176.057 121.578 176.375 121.646 176.641 121.781C176.911 121.917 177.135 122.094 177.312 122.312C177.49 122.531 177.628 122.792 177.727 123.094C177.826 123.391 177.875 123.669 177.875 123.93V124H173.328C173.385 123.609 173.484 123.266 173.625 122.969C173.771 122.667 173.948 122.411 174.156 122.203C174.365 122 174.599 121.846 174.859 121.742C175.12 121.633 175.396 121.578 175.688 121.578ZM196.977 126.758C196.977 126.893 196.951 127.021 196.898 127.141C196.846 127.26 196.771 127.37 196.672 127.469C196.51 127.63 196.286 127.758 196 127.852C195.714 127.94 195.378 127.984 194.992 127.984C194.747 127.984 194.5 127.958 194.25 127.906C194 127.854 193.773 127.766 193.57 127.641C193.362 127.516 193.188 127.352 193.047 127.148C192.911 126.945 192.833 126.695 192.812 126.398H191.367C191.367 126.758 191.448 127.104 191.609 127.438C191.776 127.771 192.016 128.062 192.328 128.312C192.635 128.568 193.013 128.773 193.461 128.93C193.909 129.081 194.419 129.156 194.992 129.156C195.492 129.156 195.953 129.096 196.375 128.977C196.797 128.857 197.159 128.688 197.461 128.469C197.763 128.25 197.997 127.987 198.164 127.68C198.336 127.372 198.422 127.031 198.422 126.656C198.422 126.307 198.346 126 198.195 125.734C198.049 125.469 197.836 125.234 197.555 125.031C197.273 124.833 196.927 124.664 196.516 124.523C196.104 124.378 195.638 124.25 195.117 124.141C194.721 124.062 194.393 123.982 194.133 123.898C193.878 123.815 193.674 123.721 193.523 123.617C193.367 123.513 193.258 123.396 193.195 123.266C193.133 123.135 193.102 122.987 193.102 122.82C193.102 122.659 193.141 122.503 193.219 122.352C193.297 122.201 193.414 122.068 193.57 121.953C193.721 121.839 193.911 121.747 194.141 121.68C194.375 121.612 194.646 121.578 194.953 121.578C195.25 121.578 195.516 121.62 195.75 121.703C195.99 121.786 196.193 121.896 196.359 122.031C196.526 122.167 196.656 122.323 196.75 122.5C196.844 122.672 196.891 122.849 196.891 123.031H198.336C198.336 122.661 198.255 122.318 198.094 122C197.938 121.677 197.714 121.396 197.422 121.156C197.13 120.917 196.776 120.729 196.359 120.594C195.943 120.458 195.474 120.391 194.953 120.391C194.469 120.391 194.023 120.456 193.617 120.586C193.216 120.716 192.87 120.893 192.578 121.117C192.286 121.341 192.06 121.604 191.898 121.906C191.737 122.203 191.656 122.523 191.656 122.867C191.656 123.216 191.734 123.523 191.891 123.789C192.047 124.049 192.268 124.276 192.555 124.469C192.836 124.667 193.174 124.836 193.57 124.977C193.971 125.117 194.414 125.237 194.898 125.336C195.294 125.414 195.625 125.503 195.891 125.602C196.156 125.695 196.37 125.799 196.531 125.914C196.693 126.029 196.807 126.156 196.875 126.297C196.943 126.432 196.977 126.586 196.977 126.758ZM206.523 129H208.031V128.875C207.938 128.641 207.865 128.367 207.812 128.055C207.76 127.737 207.734 127.438 207.734 127.156V123.227C207.734 122.753 207.648 122.339 207.477 121.984C207.305 121.63 207.07 121.333 206.773 121.094C206.471 120.859 206.115 120.685 205.703 120.57C205.292 120.451 204.846 120.391 204.367 120.391C203.841 120.391 203.37 120.464 202.953 120.609C202.542 120.755 202.193 120.945 201.906 121.18C201.615 121.419 201.391 121.688 201.234 121.984C201.083 122.281 201.005 122.583 201 122.891H202.453C202.453 122.714 202.495 122.544 202.578 122.383C202.667 122.216 202.789 122.073 202.945 121.953C203.102 121.833 203.292 121.737 203.516 121.664C203.745 121.591 204.003 121.555 204.289 121.555C204.596 121.555 204.872 121.594 205.117 121.672C205.367 121.75 205.578 121.859 205.75 122C205.922 122.146 206.055 122.32 206.148 122.523C206.242 122.727 206.289 122.956 206.289 123.211V123.875H204.711C204.122 123.875 203.589 123.932 203.109 124.047C202.635 124.161 202.229 124.333 201.891 124.562C201.552 124.797 201.289 125.089 201.102 125.438C200.919 125.786 200.828 126.193 200.828 126.656C200.828 127.01 200.896 127.341 201.031 127.648C201.172 127.951 201.37 128.211 201.625 128.43C201.875 128.654 202.18 128.831 202.539 128.961C202.904 129.091 203.31 129.156 203.758 129.156C204.034 129.156 204.294 129.128 204.539 129.07C204.784 129.013 205.016 128.935 205.234 128.836C205.448 128.737 205.643 128.622 205.82 128.492C206.003 128.362 206.167 128.224 206.312 128.078C206.328 128.255 206.352 128.427 206.383 128.594C206.419 128.755 206.466 128.891 206.523 129ZM203.969 127.898C203.688 127.898 203.44 127.862 203.227 127.789C203.013 127.716 202.836 127.615 202.695 127.484C202.555 127.359 202.448 127.208 202.375 127.031C202.307 126.854 202.273 126.661 202.273 126.453C202.273 126.234 202.312 126.039 202.391 125.867C202.474 125.695 202.594 125.547 202.75 125.422C202.969 125.245 203.263 125.115 203.633 125.031C204.008 124.943 204.445 124.898 204.945 124.898H206.289V126.609C206.206 126.776 206.091 126.938 205.945 127.094C205.799 127.245 205.628 127.38 205.43 127.5C205.227 127.62 205.003 127.716 204.758 127.789C204.513 127.862 204.25 127.898 203.969 127.898ZM211.242 120.547H209.945V129H211.32V122.273C211.352 122.19 211.391 122.112 211.438 122.039C211.49 121.966 211.549 121.901 211.617 121.844C211.706 121.771 211.812 121.716 211.938 121.68C212.068 121.638 212.219 121.617 212.391 121.617C212.547 121.617 212.682 121.638 212.797 121.68C212.917 121.716 213.016 121.776 213.094 121.859C213.177 121.948 213.237 122.06 213.273 122.195C213.315 122.331 213.336 122.487 213.336 122.664V129H214.711V122.672C214.711 122.641 214.711 122.615 214.711 122.594C214.711 122.568 214.711 122.542 214.711 122.516C214.727 122.385 214.758 122.268 214.805 122.164C214.852 122.055 214.917 121.958 215 121.875C215.083 121.797 215.188 121.734 215.312 121.688C215.438 121.641 215.586 121.617 215.758 121.617C215.919 121.617 216.06 121.638 216.18 121.68C216.305 121.721 216.409 121.784 216.492 121.867C216.57 121.956 216.63 122.068 216.672 122.203C216.714 122.339 216.734 122.495 216.734 122.672V129H218.109V122.688C218.109 122.281 218.062 121.93 217.969 121.633C217.875 121.331 217.74 121.086 217.562 120.898C217.401 120.732 217.203 120.607 216.969 120.523C216.734 120.435 216.471 120.391 216.18 120.391C215.966 120.396 215.768 120.424 215.586 120.477C215.409 120.529 215.247 120.599 215.102 120.688C214.987 120.766 214.88 120.857 214.781 120.961C214.682 121.065 214.596 121.177 214.523 121.297C214.466 121.167 214.396 121.049 214.312 120.945C214.234 120.841 214.146 120.753 214.047 120.68C213.911 120.586 213.753 120.516 213.57 120.469C213.393 120.417 213.193 120.391 212.969 120.391C212.573 120.396 212.234 120.482 211.953 120.648C211.677 120.815 211.453 121.047 211.281 121.344L211.242 120.547ZM223.922 129.156C224.745 129.156 225.435 128.992 225.992 128.664C226.555 128.331 226.977 127.951 227.258 127.523L226.375 126.836C226.109 127.18 225.776 127.456 225.375 127.664C224.974 127.872 224.516 127.977 224 127.977C223.609 127.977 223.253 127.904 222.93 127.758C222.607 127.612 222.331 127.411 222.102 127.156C221.878 126.917 221.701 126.641 221.57 126.328C221.445 126.016 221.365 125.654 221.328 125.242V125.188H227.367V124.539C227.367 123.951 227.292 123.404 227.141 122.898C226.995 122.393 226.771 121.953 226.469 121.578C226.167 121.208 225.786 120.919 225.328 120.711C224.875 120.497 224.344 120.391 223.734 120.391C223.25 120.391 222.776 120.49 222.312 120.688C221.854 120.885 221.445 121.169 221.086 121.539C220.721 121.914 220.43 122.372 220.211 122.914C219.992 123.451 219.883 124.06 219.883 124.742V125.07C219.883 125.659 219.982 126.203 220.18 126.703C220.378 127.203 220.654 127.635 221.008 128C221.362 128.365 221.786 128.648 222.281 128.852C222.781 129.055 223.328 129.156 223.922 129.156ZM223.734 121.578C224.104 121.578 224.422 121.646 224.688 121.781C224.958 121.917 225.182 122.094 225.359 122.312C225.536 122.531 225.674 122.792 225.773 123.094C225.872 123.391 225.922 123.669 225.922 123.93V124H221.375C221.432 123.609 221.531 123.266 221.672 122.969C221.818 122.667 221.995 122.411 222.203 122.203C222.411 122 222.646 121.846 222.906 121.742C223.167 121.633 223.443 121.578 223.734 121.578ZM242.828 118.5H241.375V120.547H239.156V121.664H241.375V126.258C241.375 126.779 241.443 127.224 241.578 127.594C241.719 127.958 241.909 128.255 242.148 128.484C242.388 128.719 242.669 128.891 242.992 129C243.32 129.104 243.672 129.156 244.047 129.156C244.271 129.156 244.495 129.146 244.719 129.125C244.948 129.104 245.164 129.073 245.367 129.031C245.57 128.995 245.758 128.951 245.93 128.898C246.102 128.841 246.247 128.776 246.367 128.703L246.164 127.68C246.076 127.701 245.961 127.727 245.82 127.758C245.685 127.784 245.539 127.81 245.383 127.836C245.221 127.862 245.057 127.885 244.891 127.906C244.724 127.922 244.562 127.93 244.406 127.93C244.193 127.93 243.99 127.904 243.797 127.852C243.609 127.799 243.443 127.708 243.297 127.578C243.151 127.453 243.036 127.284 242.953 127.07C242.87 126.857 242.828 126.586 242.828 126.258V121.664H246.047V120.547H242.828V118.5ZM249.695 132.414C250.076 132.414 250.411 132.344 250.703 132.203C250.995 132.062 251.25 131.888 251.469 131.68C251.688 131.471 251.872 131.245 252.023 131C252.18 130.755 252.307 130.523 252.406 130.305L256.695 120.547H255.078L252.898 126.031L252.5 127.023L252.125 126L249.805 120.547H248.188L251.828 128.602L251.25 129.727C251.198 129.831 251.125 129.964 251.031 130.125C250.943 130.286 250.836 130.443 250.711 130.594C250.581 130.745 250.432 130.875 250.266 130.984C250.104 131.094 249.924 131.148 249.727 131.148C249.654 131.148 249.552 131.143 249.422 131.133C249.297 131.128 249.169 131.12 249.039 131.109L248.805 132.289C248.898 132.31 249.036 132.336 249.219 132.367C249.401 132.398 249.56 132.414 249.695 132.414ZM258.617 132.25H260.062V128.188C260.167 128.302 260.279 128.409 260.398 128.508C260.518 128.602 260.646 128.688 260.781 128.766C261.005 128.891 261.255 128.987 261.531 129.055C261.812 129.122 262.115 129.156 262.438 129.156C262.969 129.156 263.44 129.047 263.852 128.828C264.268 128.609 264.617 128.307 264.898 127.922C265.18 127.536 265.393 127.083 265.539 126.562C265.685 126.036 265.758 125.471 265.758 124.867V124.703C265.758 124.073 265.685 123.495 265.539 122.969C265.393 122.438 265.18 121.982 264.898 121.602C264.617 121.221 264.268 120.924 263.852 120.711C263.435 120.497 262.956 120.391 262.414 120.391C262.107 120.391 261.818 120.424 261.547 120.492C261.281 120.555 261.039 120.648 260.82 120.773C260.664 120.857 260.518 120.958 260.383 121.078C260.247 121.193 260.122 121.323 260.008 121.469L259.938 120.547H258.617V132.25ZM264.312 124.703V124.867C264.312 125.279 264.266 125.672 264.172 126.047C264.083 126.422 263.945 126.753 263.758 127.039C263.57 127.326 263.331 127.555 263.039 127.727C262.747 127.893 262.401 127.977 262 127.977C261.75 127.977 261.521 127.945 261.312 127.883C261.109 127.82 260.924 127.734 260.758 127.625C260.612 127.531 260.482 127.417 260.367 127.281C260.253 127.146 260.151 127 260.062 126.844V122.773C260.161 122.596 260.276 122.435 260.406 122.289C260.536 122.143 260.685 122.021 260.852 121.922C261.003 121.823 261.172 121.747 261.359 121.695C261.552 121.643 261.76 121.617 261.984 121.617C262.391 121.617 262.74 121.701 263.031 121.867C263.323 122.034 263.565 122.258 263.758 122.539C263.945 122.826 264.083 123.156 264.172 123.531C264.266 123.901 264.312 124.292 264.312 124.703ZM271.969 129.156C272.792 129.156 273.482 128.992 274.039 128.664C274.602 128.331 275.023 127.951 275.305 127.523L274.422 126.836C274.156 127.18 273.823 127.456 273.422 127.664C273.021 127.872 272.562 127.977 272.047 127.977C271.656 127.977 271.299 127.904 270.977 127.758C270.654 127.612 270.378 127.411 270.148 127.156C269.924 126.917 269.747 126.641 269.617 126.328C269.492 126.016 269.411 125.654 269.375 125.242V125.188H275.414V124.539C275.414 123.951 275.339 123.404 275.188 122.898C275.042 122.393 274.818 121.953 274.516 121.578C274.214 121.208 273.833 120.919 273.375 120.711C272.922 120.497 272.391 120.391 271.781 120.391C271.297 120.391 270.823 120.49 270.359 120.688C269.901 120.885 269.492 121.169 269.133 121.539C268.768 121.914 268.477 122.372 268.258 122.914C268.039 123.451 267.93 124.06 267.93 124.742V125.07C267.93 125.659 268.029 126.203 268.227 126.703C268.424 127.203 268.701 127.635 269.055 128C269.409 128.365 269.833 128.648 270.328 128.852C270.828 129.055 271.375 129.156 271.969 129.156ZM271.781 121.578C272.151 121.578 272.469 121.646 272.734 121.781C273.005 121.917 273.229 122.094 273.406 122.312C273.583 122.531 273.721 122.792 273.82 123.094C273.919 123.391 273.969 123.669 273.969 123.93V124H269.422C269.479 123.609 269.578 123.266 269.719 122.969C269.865 122.667 270.042 122.411 270.25 122.203C270.458 122 270.693 121.846 270.953 121.742C271.214 121.633 271.49 121.578 271.781 121.578ZM104.469 145.695V145.867C104.469 146.477 104.557 147.042 104.734 147.562C104.911 148.083 105.167 148.536 105.5 148.922C105.828 149.307 106.229 149.609 106.703 149.828C107.182 150.047 107.721 150.156 108.32 150.156C108.914 150.156 109.448 150.047 109.922 149.828C110.396 149.609 110.799 149.307 111.133 148.922C111.461 148.536 111.714 148.083 111.891 147.562C112.068 147.042 112.156 146.477 112.156 145.867V145.695C112.156 145.086 112.068 144.521 111.891 144C111.714 143.474 111.461 143.018 111.133 142.633C110.799 142.247 110.393 141.945 109.914 141.727C109.44 141.503 108.904 141.391 108.305 141.391C107.711 141.391 107.177 141.503 106.703 141.727C106.229 141.945 105.828 142.247 105.5 142.633C105.167 143.018 104.911 143.474 104.734 144C104.557 144.521 104.469 145.086 104.469 145.695ZM105.914 145.867V145.695C105.914 145.284 105.964 144.891 106.062 144.516C106.161 144.135 106.312 143.802 106.516 143.516C106.714 143.229 106.961 143.003 107.258 142.836C107.555 142.664 107.904 142.578 108.305 142.578C108.706 142.578 109.055 142.664 109.352 142.836C109.654 143.003 109.906 143.229 110.109 143.516C110.307 143.802 110.456 144.135 110.555 144.516C110.659 144.891 110.711 145.284 110.711 145.695V145.867C110.711 146.284 110.661 146.682 110.562 147.062C110.464 147.438 110.315 147.768 110.117 148.055C109.914 148.341 109.661 148.568 109.359 148.734C109.062 148.901 108.716 148.984 108.32 148.984C107.919 148.984 107.568 148.901 107.266 148.734C106.964 148.568 106.714 148.341 106.516 148.055C106.312 147.768 106.161 147.438 106.062 147.062C105.964 146.682 105.914 146.284 105.914 145.867ZM116.641 150H118.094V142.664H121.352V141.547H118.094V140.953C118.094 140.599 118.138 140.289 118.227 140.023C118.32 139.758 118.456 139.542 118.633 139.375C118.799 139.214 119.008 139.094 119.258 139.016C119.513 138.932 119.805 138.891 120.133 138.891C120.456 138.891 120.758 138.919 121.039 138.977C121.326 139.029 121.576 139.091 121.789 139.164L121.961 137.969C121.826 137.932 121.693 137.901 121.562 137.875C121.432 137.844 121.302 137.815 121.172 137.789C120.974 137.753 120.773 137.724 120.57 137.703C120.367 137.677 120.161 137.664 119.953 137.664C119.453 137.664 119 137.734 118.594 137.875C118.188 138.016 117.841 138.224 117.555 138.5C117.263 138.776 117.036 139.12 116.875 139.531C116.719 139.938 116.641 140.411 116.641 140.953V141.547H114.312V142.664H116.641V150ZM136.586 150H137.688L141.133 141.547H139.656L137.289 147.922L137.148 148.445L137.016 147.922L134.594 141.547H133.109L136.586 150ZM148.867 150H150.375V149.875C150.281 149.641 150.208 149.367 150.156 149.055C150.104 148.737 150.078 148.438 150.078 148.156V144.227C150.078 143.753 149.992 143.339 149.82 142.984C149.648 142.63 149.414 142.333 149.117 142.094C148.815 141.859 148.458 141.685 148.047 141.57C147.635 141.451 147.19 141.391 146.711 141.391C146.185 141.391 145.714 141.464 145.297 141.609C144.885 141.755 144.536 141.945 144.25 142.18C143.958 142.419 143.734 142.688 143.578 142.984C143.427 143.281 143.349 143.583 143.344 143.891H144.797C144.797 143.714 144.839 143.544 144.922 143.383C145.01 143.216 145.133 143.073 145.289 142.953C145.445 142.833 145.635 142.737 145.859 142.664C146.089 142.591 146.346 142.555 146.633 142.555C146.94 142.555 147.216 142.594 147.461 142.672C147.711 142.75 147.922 142.859 148.094 143C148.266 143.146 148.398 143.32 148.492 143.523C148.586 143.727 148.633 143.956 148.633 144.211V144.875H147.055C146.466 144.875 145.932 144.932 145.453 145.047C144.979 145.161 144.573 145.333 144.234 145.562C143.896 145.797 143.633 146.089 143.445 146.438C143.263 146.786 143.172 147.193 143.172 147.656C143.172 148.01 143.24 148.341 143.375 148.648C143.516 148.951 143.714 149.211 143.969 149.43C144.219 149.654 144.523 149.831 144.883 149.961C145.247 150.091 145.654 150.156 146.102 150.156C146.378 150.156 146.638 150.128 146.883 150.07C147.128 150.013 147.359 149.935 147.578 149.836C147.792 149.737 147.987 149.622 148.164 149.492C148.346 149.362 148.51 149.224 148.656 149.078C148.672 149.255 148.695 149.427 148.727 149.594C148.763 149.755 148.81 149.891 148.867 150ZM146.312 148.898C146.031 148.898 145.784 148.862 145.57 148.789C145.357 148.716 145.18 148.615 145.039 148.484C144.898 148.359 144.792 148.208 144.719 148.031C144.651 147.854 144.617 147.661 144.617 147.453C144.617 147.234 144.656 147.039 144.734 146.867C144.818 146.695 144.938 146.547 145.094 146.422C145.312 146.245 145.607 146.115 145.977 146.031C146.352 145.943 146.789 145.898 147.289 145.898H148.633V147.609C148.549 147.776 148.435 147.938 148.289 148.094C148.143 148.245 147.971 148.38 147.773 148.5C147.57 148.62 147.346 148.716 147.102 148.789C146.857 148.862 146.594 148.898 146.312 148.898ZM156.523 148.984C156.07 148.984 155.69 148.896 155.383 148.719C155.081 148.536 154.839 148.299 154.656 148.008C154.469 147.721 154.333 147.398 154.25 147.039C154.172 146.674 154.133 146.307 154.133 145.938V145.609C154.133 145.245 154.172 144.883 154.25 144.523C154.333 144.164 154.469 143.839 154.656 143.547C154.844 143.26 155.089 143.029 155.391 142.852C155.698 142.669 156.076 142.578 156.523 142.578C156.815 142.578 157.086 142.628 157.336 142.727C157.591 142.826 157.81 142.961 157.992 143.133C158.174 143.305 158.318 143.505 158.422 143.734C158.531 143.958 158.589 144.198 158.594 144.453H159.961C159.961 144.026 159.875 143.625 159.703 143.25C159.531 142.875 159.294 142.549 158.992 142.273C158.685 142.003 158.32 141.789 157.898 141.633C157.482 141.471 157.023 141.391 156.523 141.391C155.883 141.391 155.323 141.505 154.844 141.734C154.365 141.964 153.966 142.271 153.648 142.656C153.326 143.047 153.083 143.497 152.922 144.008C152.76 144.518 152.68 145.052 152.68 145.609V145.938C152.68 146.5 152.76 147.036 152.922 147.547C153.083 148.052 153.326 148.497 153.648 148.883C153.966 149.273 154.365 149.583 154.844 149.812C155.323 150.042 155.883 150.156 156.523 150.156C156.971 150.156 157.401 150.081 157.812 149.93C158.224 149.773 158.589 149.565 158.906 149.305C159.224 149.049 159.477 148.753 159.664 148.414C159.857 148.07 159.956 147.711 159.961 147.336H158.594C158.589 147.57 158.526 147.789 158.406 147.992C158.292 148.19 158.138 148.362 157.945 148.508C157.753 148.659 157.531 148.776 157.281 148.859C157.036 148.943 156.784 148.984 156.523 148.984ZM168.086 150H169.594V149.875C169.5 149.641 169.427 149.367 169.375 149.055C169.323 148.737 169.297 148.438 169.297 148.156V144.227C169.297 143.753 169.211 143.339 169.039 142.984C168.867 142.63 168.633 142.333 168.336 142.094C168.034 141.859 167.677 141.685 167.266 141.57C166.854 141.451 166.409 141.391 165.93 141.391C165.404 141.391 164.932 141.464 164.516 141.609C164.104 141.755 163.755 141.945 163.469 142.18C163.177 142.419 162.953 142.688 162.797 142.984C162.646 143.281 162.568 143.583 162.562 143.891H164.016C164.016 143.714 164.057 143.544 164.141 143.383C164.229 143.216 164.352 143.073 164.508 142.953C164.664 142.833 164.854 142.737 165.078 142.664C165.307 142.591 165.565 142.555 165.852 142.555C166.159 142.555 166.435 142.594 166.68 142.672C166.93 142.75 167.141 142.859 167.312 143C167.484 143.146 167.617 143.32 167.711 143.523C167.805 143.727 167.852 143.956 167.852 144.211V144.875H166.273C165.685 144.875 165.151 144.932 164.672 145.047C164.198 145.161 163.792 145.333 163.453 145.562C163.115 145.797 162.852 146.089 162.664 146.438C162.482 146.786 162.391 147.193 162.391 147.656C162.391 148.01 162.458 148.341 162.594 148.648C162.734 148.951 162.932 149.211 163.188 149.43C163.438 149.654 163.742 149.831 164.102 149.961C164.466 150.091 164.872 150.156 165.32 150.156C165.596 150.156 165.857 150.128 166.102 150.07C166.346 150.013 166.578 149.935 166.797 149.836C167.01 149.737 167.206 149.622 167.383 149.492C167.565 149.362 167.729 149.224 167.875 149.078C167.891 149.255 167.914 149.427 167.945 149.594C167.982 149.755 168.029 149.891 168.086 150ZM165.531 148.898C165.25 148.898 165.003 148.862 164.789 148.789C164.576 148.716 164.398 148.615 164.258 148.484C164.117 148.359 164.01 148.208 163.938 148.031C163.87 147.854 163.836 147.661 163.836 147.453C163.836 147.234 163.875 147.039 163.953 146.867C164.036 146.695 164.156 146.547 164.312 146.422C164.531 146.245 164.826 146.115 165.195 146.031C165.57 145.943 166.008 145.898 166.508 145.898H167.852V147.609C167.768 147.776 167.654 147.938 167.508 148.094C167.362 148.245 167.19 148.38 166.992 148.5C166.789 148.62 166.565 148.716 166.32 148.789C166.076 148.862 165.812 148.898 165.531 148.898ZM175.562 139.5H174.109V141.547H171.891V142.664H174.109V147.258C174.109 147.779 174.177 148.224 174.312 148.594C174.453 148.958 174.643 149.255 174.883 149.484C175.122 149.719 175.404 149.891 175.727 150C176.055 150.104 176.406 150.156 176.781 150.156C177.005 150.156 177.229 150.146 177.453 150.125C177.682 150.104 177.898 150.073 178.102 150.031C178.305 149.995 178.492 149.951 178.664 149.898C178.836 149.841 178.982 149.776 179.102 149.703L178.898 148.68C178.81 148.701 178.695 148.727 178.555 148.758C178.419 148.784 178.273 148.81 178.117 148.836C177.956 148.862 177.792 148.885 177.625 148.906C177.458 148.922 177.297 148.93 177.141 148.93C176.927 148.93 176.724 148.904 176.531 148.852C176.344 148.799 176.177 148.708 176.031 148.578C175.885 148.453 175.771 148.284 175.688 148.07C175.604 147.857 175.562 147.586 175.562 147.258V142.664H178.781V141.547H175.562V139.5ZM181.977 141.547V142.805H184.852V148.75H181.977V150H189.055V148.75H186.297V141.547H181.977ZM184.664 139.328C184.664 139.562 184.734 139.758 184.875 139.914C185.021 140.07 185.24 140.148 185.531 140.148C185.818 140.148 186.034 140.07 186.18 139.914C186.326 139.758 186.398 139.562 186.398 139.328C186.398 139.198 186.378 139.078 186.336 138.969C186.294 138.859 186.232 138.768 186.148 138.695C186.081 138.628 185.995 138.576 185.891 138.539C185.786 138.497 185.667 138.477 185.531 138.477C185.396 138.477 185.273 138.497 185.164 138.539C185.06 138.576 184.974 138.628 184.906 138.695C184.823 138.773 184.76 138.867 184.719 138.977C184.682 139.086 184.664 139.203 184.664 139.328ZM190.953 145.695V145.867C190.953 146.477 191.042 147.042 191.219 147.562C191.396 148.083 191.651 148.536 191.984 148.922C192.312 149.307 192.714 149.609 193.188 149.828C193.667 150.047 194.206 150.156 194.805 150.156C195.398 150.156 195.932 150.047 196.406 149.828C196.88 149.609 197.284 149.307 197.617 148.922C197.945 148.536 198.198 148.083 198.375 147.562C198.552 147.042 198.641 146.477 198.641 145.867V145.695C198.641 145.086 198.552 144.521 198.375 144C198.198 143.474 197.945 143.018 197.617 142.633C197.284 142.247 196.878 141.945 196.398 141.727C195.924 141.503 195.388 141.391 194.789 141.391C194.195 141.391 193.661 141.503 193.188 141.727C192.714 141.945 192.312 142.247 191.984 142.633C191.651 143.018 191.396 143.474 191.219 144C191.042 144.521 190.953 145.086 190.953 145.695ZM192.398 145.867V145.695C192.398 145.284 192.448 144.891 192.547 144.516C192.646 144.135 192.797 143.802 193 143.516C193.198 143.229 193.445 143.003 193.742 142.836C194.039 142.664 194.388 142.578 194.789 142.578C195.19 142.578 195.539 142.664 195.836 142.836C196.138 143.003 196.391 143.229 196.594 143.516C196.792 143.802 196.94 144.135 197.039 144.516C197.143 144.891 197.195 145.284 197.195 145.695V145.867C197.195 146.284 197.146 146.682 197.047 147.062C196.948 147.438 196.799 147.768 196.602 148.055C196.398 148.341 196.146 148.568 195.844 148.734C195.547 148.901 195.201 148.984 194.805 148.984C194.404 148.984 194.052 148.901 193.75 148.734C193.448 148.568 193.198 148.341 193 148.055C192.797 147.768 192.646 147.438 192.547 147.062C192.448 146.682 192.398 146.284 192.398 145.867ZM200.969 150H202.414V143.938C202.513 143.755 202.628 143.589 202.758 143.438C202.893 143.286 203.039 143.154 203.195 143.039C203.388 142.909 203.599 142.807 203.828 142.734C204.057 142.656 204.305 142.617 204.57 142.617C204.878 142.617 205.148 142.654 205.383 142.727C205.622 142.799 205.826 142.917 205.992 143.078C206.154 143.24 206.276 143.451 206.359 143.711C206.443 143.971 206.484 144.289 206.484 144.664V150H207.93V144.633C207.93 144.07 207.859 143.586 207.719 143.18C207.583 142.768 207.388 142.43 207.133 142.164C206.878 141.898 206.568 141.703 206.203 141.578C205.844 141.453 205.443 141.391 205 141.391C204.672 141.396 204.359 141.445 204.062 141.539C203.771 141.628 203.5 141.755 203.25 141.922C203.083 142.031 202.924 142.161 202.773 142.312C202.628 142.458 202.492 142.62 202.367 142.797L202.266 141.547H200.969V150ZM216.195 147.758C216.195 147.893 216.169 148.021 216.117 148.141C216.065 148.26 215.99 148.37 215.891 148.469C215.729 148.63 215.505 148.758 215.219 148.852C214.932 148.94 214.596 148.984 214.211 148.984C213.966 148.984 213.719 148.958 213.469 148.906C213.219 148.854 212.992 148.766 212.789 148.641C212.581 148.516 212.406 148.352 212.266 148.148C212.13 147.945 212.052 147.695 212.031 147.398H210.586C210.586 147.758 210.667 148.104 210.828 148.438C210.995 148.771 211.234 149.062 211.547 149.312C211.854 149.568 212.232 149.773 212.68 149.93C213.128 150.081 213.638 150.156 214.211 150.156C214.711 150.156 215.172 150.096 215.594 149.977C216.016 149.857 216.378 149.688 216.68 149.469C216.982 149.25 217.216 148.987 217.383 148.68C217.555 148.372 217.641 148.031 217.641 147.656C217.641 147.307 217.565 147 217.414 146.734C217.268 146.469 217.055 146.234 216.773 146.031C216.492 145.833 216.146 145.664 215.734 145.523C215.323 145.378 214.857 145.25 214.336 145.141C213.94 145.062 213.612 144.982 213.352 144.898C213.096 144.815 212.893 144.721 212.742 144.617C212.586 144.513 212.477 144.396 212.414 144.266C212.352 144.135 212.32 143.987 212.32 143.82C212.32 143.659 212.359 143.503 212.438 143.352C212.516 143.201 212.633 143.068 212.789 142.953C212.94 142.839 213.13 142.747 213.359 142.68C213.594 142.612 213.865 142.578 214.172 142.578C214.469 142.578 214.734 142.62 214.969 142.703C215.208 142.786 215.411 142.896 215.578 143.031C215.745 143.167 215.875 143.323 215.969 143.5C216.062 143.672 216.109 143.849 216.109 144.031H217.555C217.555 143.661 217.474 143.318 217.312 143C217.156 142.677 216.932 142.396 216.641 142.156C216.349 141.917 215.995 141.729 215.578 141.594C215.161 141.458 214.693 141.391 214.172 141.391C213.688 141.391 213.242 141.456 212.836 141.586C212.435 141.716 212.089 141.893 211.797 142.117C211.505 142.341 211.279 142.604 211.117 142.906C210.956 143.203 210.875 143.523 210.875 143.867C210.875 144.216 210.953 144.523 211.109 144.789C211.266 145.049 211.487 145.276 211.773 145.469C212.055 145.667 212.393 145.836 212.789 145.977C213.19 146.117 213.633 146.237 214.117 146.336C214.513 146.414 214.844 146.503 215.109 146.602C215.375 146.695 215.589 146.799 215.75 146.914C215.911 147.029 216.026 147.156 216.094 147.297C216.161 147.432 216.195 147.586 216.195 147.758ZM230.609 150H231.75L233.055 144.82L233.266 143.508L233.484 144.82L234.805 150H235.945L237.742 141.547H236.461L235.523 146.938L235.312 148.266L235.086 146.938L233.742 141.547H232.812L231.461 146.938L231.25 148.148L231.078 146.938L230.094 141.547H228.812L230.609 150ZM240.852 142.805V138H239.406V150H240.852V143.859C240.956 143.693 241.073 143.542 241.203 143.406C241.339 143.266 241.484 143.143 241.641 143.039C241.839 142.904 242.055 142.799 242.289 142.727C242.523 142.654 242.771 142.617 243.031 142.617C243.349 142.612 243.63 142.656 243.875 142.75C244.12 142.839 244.323 142.974 244.484 143.156C244.635 143.323 244.75 143.534 244.828 143.789C244.906 144.039 244.945 144.331 244.945 144.664V150H246.391V144.68C246.391 144.112 246.32 143.622 246.18 143.211C246.044 142.794 245.849 142.451 245.594 142.18C245.339 141.909 245.029 141.711 244.664 141.586C244.305 141.456 243.904 141.391 243.461 141.391C243.122 141.396 242.802 141.445 242.5 141.539C242.203 141.633 241.93 141.771 241.68 141.953C241.523 142.062 241.375 142.19 241.234 142.336C241.094 142.477 240.966 142.633 240.852 142.805ZM249.242 141.547V142.805H252.117V148.75H249.242V150H256.32V148.75H253.562V141.547H249.242ZM251.93 139.328C251.93 139.562 252 139.758 252.141 139.914C252.286 140.07 252.505 140.148 252.797 140.148C253.083 140.148 253.299 140.07 253.445 139.914C253.591 139.758 253.664 139.562 253.664 139.328C253.664 139.198 253.643 139.078 253.602 138.969C253.56 138.859 253.497 138.768 253.414 138.695C253.346 138.628 253.26 138.576 253.156 138.539C253.052 138.497 252.932 138.477 252.797 138.477C252.661 138.477 252.539 138.497 252.43 138.539C252.326 138.576 252.24 138.628 252.172 138.695C252.089 138.773 252.026 138.867 251.984 138.977C251.948 139.086 251.93 139.203 251.93 139.328ZM258.852 138V139.258H261.727V148.75H258.852V150H265.93V148.75H263.172V138H258.852ZM271.969 150.156C272.792 150.156 273.482 149.992 274.039 149.664C274.602 149.331 275.023 148.951 275.305 148.523L274.422 147.836C274.156 148.18 273.823 148.456 273.422 148.664C273.021 148.872 272.562 148.977 272.047 148.977C271.656 148.977 271.299 148.904 270.977 148.758C270.654 148.612 270.378 148.411 270.148 148.156C269.924 147.917 269.747 147.641 269.617 147.328C269.492 147.016 269.411 146.654 269.375 146.242V146.188H275.414V145.539C275.414 144.951 275.339 144.404 275.188 143.898C275.042 143.393 274.818 142.953 274.516 142.578C274.214 142.208 273.833 141.919 273.375 141.711C272.922 141.497 272.391 141.391 271.781 141.391C271.297 141.391 270.823 141.49 270.359 141.688C269.901 141.885 269.492 142.169 269.133 142.539C268.768 142.914 268.477 143.372 268.258 143.914C268.039 144.451 267.93 145.06 267.93 145.742V146.07C267.93 146.659 268.029 147.203 268.227 147.703C268.424 148.203 268.701 148.635 269.055 149C269.409 149.365 269.833 149.648 270.328 149.852C270.828 150.055 271.375 150.156 271.969 150.156ZM271.781 142.578C272.151 142.578 272.469 142.646 272.734 142.781C273.005 142.917 273.229 143.094 273.406 143.312C273.583 143.531 273.721 143.792 273.82 144.094C273.919 144.391 273.969 144.669 273.969 144.93V145H269.422C269.479 144.609 269.578 144.266 269.719 143.969C269.865 143.667 270.042 143.411 270.25 143.203C270.458 143 270.693 142.846 270.953 142.742C271.214 142.633 271.49 142.578 271.781 142.578ZM115.93 163.805V159H114.484V171H115.93V164.859C116.034 164.693 116.151 164.542 116.281 164.406C116.417 164.266 116.562 164.143 116.719 164.039C116.917 163.904 117.133 163.799 117.367 163.727C117.602 163.654 117.849 163.617 118.109 163.617C118.427 163.612 118.708 163.656 118.953 163.75C119.198 163.839 119.401 163.974 119.562 164.156C119.714 164.323 119.828 164.534 119.906 164.789C119.984 165.039 120.023 165.331 120.023 165.664V171H121.469V165.68C121.469 165.112 121.398 164.622 121.258 164.211C121.122 163.794 120.927 163.451 120.672 163.18C120.417 162.909 120.107 162.711 119.742 162.586C119.383 162.456 118.982 162.391 118.539 162.391C118.201 162.396 117.88 162.445 117.578 162.539C117.281 162.633 117.008 162.771 116.758 162.953C116.602 163.062 116.453 163.19 116.312 163.336C116.172 163.477 116.044 163.633 115.93 163.805ZM129.648 171H131.156V170.875C131.062 170.641 130.99 170.367 130.938 170.055C130.885 169.737 130.859 169.438 130.859 169.156V165.227C130.859 164.753 130.773 164.339 130.602 163.984C130.43 163.63 130.195 163.333 129.898 163.094C129.596 162.859 129.24 162.685 128.828 162.57C128.417 162.451 127.971 162.391 127.492 162.391C126.966 162.391 126.495 162.464 126.078 162.609C125.667 162.755 125.318 162.945 125.031 163.18C124.74 163.419 124.516 163.688 124.359 163.984C124.208 164.281 124.13 164.583 124.125 164.891H125.578C125.578 164.714 125.62 164.544 125.703 164.383C125.792 164.216 125.914 164.073 126.07 163.953C126.227 163.833 126.417 163.737 126.641 163.664C126.87 163.591 127.128 163.555 127.414 163.555C127.721 163.555 127.997 163.594 128.242 163.672C128.492 163.75 128.703 163.859 128.875 164C129.047 164.146 129.18 164.32 129.273 164.523C129.367 164.727 129.414 164.956 129.414 165.211V165.875H127.836C127.247 165.875 126.714 165.932 126.234 166.047C125.76 166.161 125.354 166.333 125.016 166.562C124.677 166.797 124.414 167.089 124.227 167.438C124.044 167.786 123.953 168.193 123.953 168.656C123.953 169.01 124.021 169.341 124.156 169.648C124.297 169.951 124.495 170.211 124.75 170.43C125 170.654 125.305 170.831 125.664 170.961C126.029 171.091 126.435 171.156 126.883 171.156C127.159 171.156 127.419 171.128 127.664 171.07C127.909 171.013 128.141 170.935 128.359 170.836C128.573 170.737 128.768 170.622 128.945 170.492C129.128 170.362 129.292 170.224 129.438 170.078C129.453 170.255 129.477 170.427 129.508 170.594C129.544 170.755 129.591 170.891 129.648 171ZM127.094 169.898C126.812 169.898 126.565 169.862 126.352 169.789C126.138 169.716 125.961 169.615 125.82 169.484C125.68 169.359 125.573 169.208 125.5 169.031C125.432 168.854 125.398 168.661 125.398 168.453C125.398 168.234 125.438 168.039 125.516 167.867C125.599 167.695 125.719 167.547 125.875 167.422C126.094 167.245 126.388 167.115 126.758 167.031C127.133 166.943 127.57 166.898 128.07 166.898H129.414V168.609C129.331 168.776 129.216 168.938 129.07 169.094C128.924 169.245 128.753 169.38 128.555 169.5C128.352 169.62 128.128 169.716 127.883 169.789C127.638 169.862 127.375 169.898 127.094 169.898ZM136.586 171H137.688L141.133 162.547H139.656L137.289 168.922L137.148 169.445L137.016 168.922L134.594 162.547H133.109L136.586 171ZM143.539 162.547V163.805H146.414V169.75H143.539V171H150.617V169.75H147.859V162.547H143.539ZM146.227 160.328C146.227 160.562 146.297 160.758 146.438 160.914C146.583 161.07 146.802 161.148 147.094 161.148C147.38 161.148 147.596 161.07 147.742 160.914C147.888 160.758 147.961 160.562 147.961 160.328C147.961 160.198 147.94 160.078 147.898 159.969C147.857 159.859 147.794 159.768 147.711 159.695C147.643 159.628 147.557 159.576 147.453 159.539C147.349 159.497 147.229 159.477 147.094 159.477C146.958 159.477 146.836 159.497 146.727 159.539C146.622 159.576 146.536 159.628 146.469 159.695C146.385 159.773 146.323 159.867 146.281 159.977C146.245 160.086 146.227 160.203 146.227 160.328ZM152.922 171H154.367V164.938C154.466 164.755 154.581 164.589 154.711 164.438C154.846 164.286 154.992 164.154 155.148 164.039C155.341 163.909 155.552 163.807 155.781 163.734C156.01 163.656 156.258 163.617 156.523 163.617C156.831 163.617 157.102 163.654 157.336 163.727C157.576 163.799 157.779 163.917 157.945 164.078C158.107 164.24 158.229 164.451 158.312 164.711C158.396 164.971 158.438 165.289 158.438 165.664V171H159.883V165.633C159.883 165.07 159.812 164.586 159.672 164.18C159.536 163.768 159.341 163.43 159.086 163.164C158.831 162.898 158.521 162.703 158.156 162.578C157.797 162.453 157.396 162.391 156.953 162.391C156.625 162.396 156.312 162.445 156.016 162.539C155.724 162.628 155.453 162.755 155.203 162.922C155.036 163.031 154.878 163.161 154.727 163.312C154.581 163.458 154.445 163.62 154.32 163.797L154.219 162.547H152.922V171ZM162.266 166.703V166.867C162.266 167.471 162.344 168.036 162.5 168.562C162.656 169.083 162.88 169.536 163.172 169.922C163.458 170.307 163.81 170.609 164.227 170.828C164.643 171.047 165.109 171.156 165.625 171.156C165.932 171.156 166.219 171.122 166.484 171.055C166.75 170.992 166.992 170.901 167.211 170.781C167.352 170.703 167.482 170.612 167.602 170.508C167.727 170.404 167.844 170.289 167.953 170.164V170.891C167.953 171.255 167.901 171.578 167.797 171.859C167.693 172.141 167.544 172.375 167.352 172.562C167.154 172.755 166.917 172.901 166.641 173C166.365 173.099 166.055 173.148 165.711 173.148C165.518 173.148 165.326 173.128 165.133 173.086C164.94 173.049 164.747 172.987 164.555 172.898C164.362 172.81 164.172 172.69 163.984 172.539C163.797 172.393 163.615 172.214 163.438 172L162.688 172.867C162.88 173.143 163.109 173.375 163.375 173.562C163.646 173.75 163.927 173.898 164.219 174.008C164.505 174.122 164.789 174.203 165.07 174.25C165.352 174.302 165.602 174.328 165.82 174.328C166.352 174.328 166.836 174.25 167.273 174.094C167.711 173.938 168.089 173.708 168.406 173.406C168.719 173.104 168.961 172.737 169.133 172.305C169.31 171.872 169.398 171.378 169.398 170.82V162.547H168.086L168.016 163.469C167.917 163.344 167.81 163.229 167.695 163.125C167.586 163.021 167.469 162.93 167.344 162.852C167.115 162.701 166.857 162.586 166.57 162.508C166.289 162.43 165.979 162.391 165.641 162.391C165.115 162.391 164.643 162.497 164.227 162.711C163.81 162.924 163.456 163.221 163.164 163.602C162.872 163.982 162.648 164.438 162.492 164.969C162.341 165.495 162.266 166.073 162.266 166.703ZM163.711 166.867V166.703C163.711 166.292 163.753 165.901 163.836 165.531C163.924 165.156 164.062 164.826 164.25 164.539C164.432 164.258 164.667 164.034 164.953 163.867C165.245 163.701 165.594 163.617 166 163.617C166.24 163.617 166.458 163.648 166.656 163.711C166.854 163.768 167.034 163.849 167.195 163.953C167.357 164.062 167.5 164.19 167.625 164.336C167.75 164.482 167.859 164.643 167.953 164.82V168.695C167.859 168.878 167.75 169.044 167.625 169.195C167.5 169.346 167.359 169.477 167.203 169.586C167.042 169.695 166.859 169.781 166.656 169.844C166.458 169.901 166.234 169.93 165.984 169.93C165.583 169.93 165.24 169.849 164.953 169.688C164.667 169.521 164.432 169.297 164.25 169.016C164.062 168.734 163.924 168.409 163.836 168.039C163.753 167.669 163.711 167.279 163.711 166.867ZM187.305 171H188.812V170.875C188.719 170.641 188.646 170.367 188.594 170.055C188.542 169.737 188.516 169.438 188.516 169.156V165.227C188.516 164.753 188.43 164.339 188.258 163.984C188.086 163.63 187.852 163.333 187.555 163.094C187.253 162.859 186.896 162.685 186.484 162.57C186.073 162.451 185.628 162.391 185.148 162.391C184.622 162.391 184.151 162.464 183.734 162.609C183.323 162.755 182.974 162.945 182.688 163.18C182.396 163.419 182.172 163.688 182.016 163.984C181.865 164.281 181.786 164.583 181.781 164.891H183.234C183.234 164.714 183.276 164.544 183.359 164.383C183.448 164.216 183.57 164.073 183.727 163.953C183.883 163.833 184.073 163.737 184.297 163.664C184.526 163.591 184.784 163.555 185.07 163.555C185.378 163.555 185.654 163.594 185.898 163.672C186.148 163.75 186.359 163.859 186.531 164C186.703 164.146 186.836 164.32 186.93 164.523C187.023 164.727 187.07 164.956 187.07 165.211V165.875H185.492C184.904 165.875 184.37 165.932 183.891 166.047C183.417 166.161 183.01 166.333 182.672 166.562C182.333 166.797 182.07 167.089 181.883 167.438C181.701 167.786 181.609 168.193 181.609 168.656C181.609 169.01 181.677 169.341 181.812 169.648C181.953 169.951 182.151 170.211 182.406 170.43C182.656 170.654 182.961 170.831 183.32 170.961C183.685 171.091 184.091 171.156 184.539 171.156C184.815 171.156 185.076 171.128 185.32 171.07C185.565 171.013 185.797 170.935 186.016 170.836C186.229 170.737 186.424 170.622 186.602 170.492C186.784 170.362 186.948 170.224 187.094 170.078C187.109 170.255 187.133 170.427 187.164 170.594C187.201 170.755 187.247 170.891 187.305 171ZM184.75 169.898C184.469 169.898 184.221 169.862 184.008 169.789C183.794 169.716 183.617 169.615 183.477 169.484C183.336 169.359 183.229 169.208 183.156 169.031C183.089 168.854 183.055 168.661 183.055 168.453C183.055 168.234 183.094 168.039 183.172 167.867C183.255 167.695 183.375 167.547 183.531 167.422C183.75 167.245 184.044 167.115 184.414 167.031C184.789 166.943 185.227 166.898 185.727 166.898H187.07V168.609C186.987 168.776 186.872 168.938 186.727 169.094C186.581 169.245 186.409 169.38 186.211 169.5C186.008 169.62 185.784 169.716 185.539 169.789C185.294 169.862 185.031 169.898 184.75 169.898ZM206.586 168.758C206.586 168.893 206.56 169.021 206.508 169.141C206.456 169.26 206.38 169.37 206.281 169.469C206.12 169.63 205.896 169.758 205.609 169.852C205.323 169.94 204.987 169.984 204.602 169.984C204.357 169.984 204.109 169.958 203.859 169.906C203.609 169.854 203.383 169.766 203.18 169.641C202.971 169.516 202.797 169.352 202.656 169.148C202.521 168.945 202.443 168.695 202.422 168.398H200.977C200.977 168.758 201.057 169.104 201.219 169.438C201.385 169.771 201.625 170.062 201.938 170.312C202.245 170.568 202.622 170.773 203.07 170.93C203.518 171.081 204.029 171.156 204.602 171.156C205.102 171.156 205.562 171.096 205.984 170.977C206.406 170.857 206.768 170.688 207.07 170.469C207.372 170.25 207.607 169.987 207.773 169.68C207.945 169.372 208.031 169.031 208.031 168.656C208.031 168.307 207.956 168 207.805 167.734C207.659 167.469 207.445 167.234 207.164 167.031C206.883 166.833 206.536 166.664 206.125 166.523C205.714 166.378 205.247 166.25 204.727 166.141C204.331 166.062 204.003 165.982 203.742 165.898C203.487 165.815 203.284 165.721 203.133 165.617C202.977 165.513 202.867 165.396 202.805 165.266C202.742 165.135 202.711 164.987 202.711 164.82C202.711 164.659 202.75 164.503 202.828 164.352C202.906 164.201 203.023 164.068 203.18 163.953C203.331 163.839 203.521 163.747 203.75 163.68C203.984 163.612 204.255 163.578 204.562 163.578C204.859 163.578 205.125 163.62 205.359 163.703C205.599 163.786 205.802 163.896 205.969 164.031C206.135 164.167 206.266 164.323 206.359 164.5C206.453 164.672 206.5 164.849 206.5 165.031H207.945C207.945 164.661 207.865 164.318 207.703 164C207.547 163.677 207.323 163.396 207.031 163.156C206.74 162.917 206.385 162.729 205.969 162.594C205.552 162.458 205.083 162.391 204.562 162.391C204.078 162.391 203.633 162.456 203.227 162.586C202.826 162.716 202.479 162.893 202.188 163.117C201.896 163.341 201.669 163.604 201.508 163.906C201.346 164.203 201.266 164.523 201.266 164.867C201.266 165.216 201.344 165.523 201.5 165.789C201.656 166.049 201.878 166.276 202.164 166.469C202.445 166.667 202.784 166.836 203.18 166.977C203.581 167.117 204.023 167.237 204.508 167.336C204.904 167.414 205.234 167.503 205.5 167.602C205.766 167.695 205.979 167.799 206.141 167.914C206.302 168.029 206.417 168.156 206.484 168.297C206.552 168.432 206.586 168.586 206.586 168.758ZM211.242 162.547H209.945V171H211.32V164.273C211.352 164.19 211.391 164.112 211.438 164.039C211.49 163.966 211.549 163.901 211.617 163.844C211.706 163.771 211.812 163.716 211.938 163.68C212.068 163.638 212.219 163.617 212.391 163.617C212.547 163.617 212.682 163.638 212.797 163.68C212.917 163.716 213.016 163.776 213.094 163.859C213.177 163.948 213.237 164.06 213.273 164.195C213.315 164.331 213.336 164.487 213.336 164.664V171H214.711V164.672C214.711 164.641 214.711 164.615 214.711 164.594C214.711 164.568 214.711 164.542 214.711 164.516C214.727 164.385 214.758 164.268 214.805 164.164C214.852 164.055 214.917 163.958 215 163.875C215.083 163.797 215.188 163.734 215.312 163.688C215.438 163.641 215.586 163.617 215.758 163.617C215.919 163.617 216.06 163.638 216.18 163.68C216.305 163.721 216.409 163.784 216.492 163.867C216.57 163.956 216.63 164.068 216.672 164.203C216.714 164.339 216.734 164.495 216.734 164.672V171H218.109V164.688C218.109 164.281 218.062 163.93 217.969 163.633C217.875 163.331 217.74 163.086 217.562 162.898C217.401 162.732 217.203 162.607 216.969 162.523C216.734 162.435 216.471 162.391 216.18 162.391C215.966 162.396 215.768 162.424 215.586 162.477C215.409 162.529 215.247 162.599 215.102 162.688C214.987 162.766 214.88 162.857 214.781 162.961C214.682 163.065 214.596 163.177 214.523 163.297C214.466 163.167 214.396 163.049 214.312 162.945C214.234 162.841 214.146 162.753 214.047 162.68C213.911 162.586 213.753 162.516 213.57 162.469C213.393 162.417 213.193 162.391 212.969 162.391C212.573 162.396 212.234 162.482 211.953 162.648C211.677 162.815 211.453 163.047 211.281 163.344L211.242 162.547ZM225.742 171H227.25V170.875C227.156 170.641 227.083 170.367 227.031 170.055C226.979 169.737 226.953 169.438 226.953 169.156V165.227C226.953 164.753 226.867 164.339 226.695 163.984C226.523 163.63 226.289 163.333 225.992 163.094C225.69 162.859 225.333 162.685 224.922 162.57C224.51 162.451 224.065 162.391 223.586 162.391C223.06 162.391 222.589 162.464 222.172 162.609C221.76 162.755 221.411 162.945 221.125 163.18C220.833 163.419 220.609 163.688 220.453 163.984C220.302 164.281 220.224 164.583 220.219 164.891H221.672C221.672 164.714 221.714 164.544 221.797 164.383C221.885 164.216 222.008 164.073 222.164 163.953C222.32 163.833 222.51 163.737 222.734 163.664C222.964 163.591 223.221 163.555 223.508 163.555C223.815 163.555 224.091 163.594 224.336 163.672C224.586 163.75 224.797 163.859 224.969 164C225.141 164.146 225.273 164.32 225.367 164.523C225.461 164.727 225.508 164.956 225.508 165.211V165.875H223.93C223.341 165.875 222.807 165.932 222.328 166.047C221.854 166.161 221.448 166.333 221.109 166.562C220.771 166.797 220.508 167.089 220.32 167.438C220.138 167.786 220.047 168.193 220.047 168.656C220.047 169.01 220.115 169.341 220.25 169.648C220.391 169.951 220.589 170.211 220.844 170.43C221.094 170.654 221.398 170.831 221.758 170.961C222.122 171.091 222.529 171.156 222.977 171.156C223.253 171.156 223.513 171.128 223.758 171.07C224.003 171.013 224.234 170.935 224.453 170.836C224.667 170.737 224.862 170.622 225.039 170.492C225.221 170.362 225.385 170.224 225.531 170.078C225.547 170.255 225.57 170.427 225.602 170.594C225.638 170.755 225.685 170.891 225.742 171ZM223.188 169.898C222.906 169.898 222.659 169.862 222.445 169.789C222.232 169.716 222.055 169.615 221.914 169.484C221.773 169.359 221.667 169.208 221.594 169.031C221.526 168.854 221.492 168.661 221.492 168.453C221.492 168.234 221.531 168.039 221.609 167.867C221.693 167.695 221.812 167.547 221.969 167.422C222.188 167.245 222.482 167.115 222.852 167.031C223.227 166.943 223.664 166.898 224.164 166.898H225.508V168.609C225.424 168.776 225.31 168.938 225.164 169.094C225.018 169.245 224.846 169.38 224.648 169.5C224.445 169.62 224.221 169.716 223.977 169.789C223.732 169.862 223.469 169.898 223.188 169.898ZM230.023 159V160.258H232.898V169.75H230.023V171H237.102V169.75H234.344V159H230.023ZM239.633 159V160.258H242.508V169.75H239.633V171H246.711V169.75H243.953V159H239.633ZM252.75 171.156C253.573 171.156 254.263 170.992 254.82 170.664C255.383 170.331 255.805 169.951 256.086 169.523L255.203 168.836C254.938 169.18 254.604 169.456 254.203 169.664C253.802 169.872 253.344 169.977 252.828 169.977C252.438 169.977 252.081 169.904 251.758 169.758C251.435 169.612 251.159 169.411 250.93 169.156C250.706 168.917 250.529 168.641 250.398 168.328C250.273 168.016 250.193 167.654 250.156 167.242V167.188H256.195V166.539C256.195 165.951 256.12 165.404 255.969 164.898C255.823 164.393 255.599 163.953 255.297 163.578C254.995 163.208 254.615 162.919 254.156 162.711C253.703 162.497 253.172 162.391 252.562 162.391C252.078 162.391 251.604 162.49 251.141 162.688C250.682 162.885 250.273 163.169 249.914 163.539C249.549 163.914 249.258 164.372 249.039 164.914C248.82 165.451 248.711 166.06 248.711 166.742V167.07C248.711 167.659 248.81 168.203 249.008 168.703C249.206 169.203 249.482 169.635 249.836 170C250.19 170.365 250.615 170.648 251.109 170.852C251.609 171.055 252.156 171.156 252.75 171.156ZM252.562 163.578C252.932 163.578 253.25 163.646 253.516 163.781C253.786 163.917 254.01 164.094 254.188 164.312C254.365 164.531 254.503 164.792 254.602 165.094C254.701 165.391 254.75 165.669 254.75 165.93V166H250.203C250.26 165.609 250.359 165.266 250.5 164.969C250.646 164.667 250.823 164.411 251.031 164.203C251.24 164 251.474 163.846 251.734 163.742C251.995 163.633 252.271 163.578 252.562 163.578ZM264.164 162.391C263.549 162.391 263 162.526 262.516 162.797C262.036 163.062 261.625 163.427 261.281 163.891L261.273 163.68L261.211 162.547H259.836V171H261.289V165.578C261.383 165.318 261.5 165.083 261.641 164.875C261.786 164.661 261.956 164.482 262.148 164.336C262.362 164.169 262.612 164.044 262.898 163.961C263.185 163.872 263.505 163.828 263.859 163.828C264.135 163.828 264.398 163.844 264.648 163.875C264.904 163.901 265.172 163.945 265.453 164.008L265.648 162.594C265.503 162.531 265.284 162.482 264.992 162.445C264.706 162.409 264.43 162.391 264.164 162.391ZM108.477 190.984C108.023 190.984 107.643 190.896 107.336 190.719C107.034 190.536 106.792 190.299 106.609 190.008C106.422 189.721 106.286 189.398 106.203 189.039C106.125 188.674 106.086 188.307 106.086 187.938V187.609C106.086 187.245 106.125 186.883 106.203 186.523C106.286 186.164 106.422 185.839 106.609 185.547C106.797 185.26 107.042 185.029 107.344 184.852C107.651 184.669 108.029 184.578 108.477 184.578C108.768 184.578 109.039 184.628 109.289 184.727C109.544 184.826 109.763 184.961 109.945 185.133C110.128 185.305 110.271 185.505 110.375 185.734C110.484 185.958 110.542 186.198 110.547 186.453H111.914C111.914 186.026 111.828 185.625 111.656 185.25C111.484 184.875 111.247 184.549 110.945 184.273C110.638 184.003 110.273 183.789 109.852 183.633C109.435 183.471 108.977 183.391 108.477 183.391C107.836 183.391 107.276 183.505 106.797 183.734C106.318 183.964 105.919 184.271 105.602 184.656C105.279 185.047 105.036 185.497 104.875 186.008C104.714 186.518 104.633 187.052 104.633 187.609V187.938C104.633 188.5 104.714 189.036 104.875 189.547C105.036 190.052 105.279 190.497 105.602 190.883C105.919 191.273 106.318 191.583 106.797 191.812C107.276 192.042 107.836 192.156 108.477 192.156C108.924 192.156 109.354 192.081 109.766 191.93C110.177 191.773 110.542 191.565 110.859 191.305C111.177 191.049 111.43 190.753 111.617 190.414C111.81 190.07 111.909 189.711 111.914 189.336H110.547C110.542 189.57 110.479 189.789 110.359 189.992C110.245 190.19 110.091 190.362 109.898 190.508C109.706 190.659 109.484 190.776 109.234 190.859C108.99 190.943 108.737 190.984 108.477 190.984ZM120.039 192H121.547V191.875C121.453 191.641 121.38 191.367 121.328 191.055C121.276 190.737 121.25 190.438 121.25 190.156V186.227C121.25 185.753 121.164 185.339 120.992 184.984C120.82 184.63 120.586 184.333 120.289 184.094C119.987 183.859 119.63 183.685 119.219 183.57C118.807 183.451 118.362 183.391 117.883 183.391C117.357 183.391 116.885 183.464 116.469 183.609C116.057 183.755 115.708 183.945 115.422 184.18C115.13 184.419 114.906 184.688 114.75 184.984C114.599 185.281 114.521 185.583 114.516 185.891H115.969C115.969 185.714 116.01 185.544 116.094 185.383C116.182 185.216 116.305 185.073 116.461 184.953C116.617 184.833 116.807 184.737 117.031 184.664C117.26 184.591 117.518 184.555 117.805 184.555C118.112 184.555 118.388 184.594 118.633 184.672C118.883 184.75 119.094 184.859 119.266 185C119.438 185.146 119.57 185.32 119.664 185.523C119.758 185.727 119.805 185.956 119.805 186.211V186.875H118.227C117.638 186.875 117.104 186.932 116.625 187.047C116.151 187.161 115.745 187.333 115.406 187.562C115.068 187.797 114.805 188.089 114.617 188.438C114.435 188.786 114.344 189.193 114.344 189.656C114.344 190.01 114.411 190.341 114.547 190.648C114.688 190.951 114.885 191.211 115.141 191.43C115.391 191.654 115.695 191.831 116.055 191.961C116.419 192.091 116.826 192.156 117.273 192.156C117.549 192.156 117.81 192.128 118.055 192.07C118.299 192.013 118.531 191.935 118.75 191.836C118.964 191.737 119.159 191.622 119.336 191.492C119.518 191.362 119.682 191.224 119.828 191.078C119.844 191.255 119.867 191.427 119.898 191.594C119.935 191.755 119.982 191.891 120.039 192ZM117.484 190.898C117.203 190.898 116.956 190.862 116.742 190.789C116.529 190.716 116.352 190.615 116.211 190.484C116.07 190.359 115.964 190.208 115.891 190.031C115.823 189.854 115.789 189.661 115.789 189.453C115.789 189.234 115.828 189.039 115.906 188.867C115.99 188.695 116.109 188.547 116.266 188.422C116.484 188.245 116.779 188.115 117.148 188.031C117.523 187.943 117.961 187.898 118.461 187.898H119.805V189.609C119.721 189.776 119.607 189.938 119.461 190.094C119.315 190.245 119.143 190.38 118.945 190.5C118.742 190.62 118.518 190.716 118.273 190.789C118.029 190.862 117.766 190.898 117.484 190.898ZM129.633 183.391C129.018 183.391 128.469 183.526 127.984 183.797C127.505 184.062 127.094 184.427 126.75 184.891L126.742 184.68L126.68 183.547H125.305V192H126.758V186.578C126.852 186.318 126.969 186.083 127.109 185.875C127.255 185.661 127.424 185.482 127.617 185.336C127.831 185.169 128.081 185.044 128.367 184.961C128.654 184.872 128.974 184.828 129.328 184.828C129.604 184.828 129.867 184.844 130.117 184.875C130.372 184.901 130.641 184.945 130.922 185.008L131.117 183.594C130.971 183.531 130.753 183.482 130.461 183.445C130.174 183.409 129.898 183.391 129.633 183.391ZM140.867 187.867V187.703C140.867 187.26 140.831 186.841 140.758 186.445C140.685 186.044 140.578 185.68 140.438 185.352C140.302 185.06 140.146 184.797 139.969 184.562C139.792 184.323 139.591 184.12 139.367 183.953C139.117 183.776 138.839 183.638 138.531 183.539C138.224 183.44 137.888 183.391 137.523 183.391C137.232 183.391 136.961 183.419 136.711 183.477C136.461 183.534 136.232 183.617 136.023 183.727C135.857 183.815 135.701 183.922 135.555 184.047C135.409 184.167 135.276 184.302 135.156 184.453V180H133.711V192H135.039L135.109 191.039C135.203 191.159 135.302 191.268 135.406 191.367C135.51 191.466 135.62 191.557 135.734 191.641C135.974 191.807 136.242 191.935 136.539 192.023C136.841 192.112 137.174 192.156 137.539 192.156C137.857 192.156 138.151 192.117 138.422 192.039C138.698 191.961 138.951 191.852 139.18 191.711C139.497 191.508 139.768 191.253 139.992 190.945C140.221 190.633 140.406 190.281 140.547 189.891C140.651 189.594 140.729 189.276 140.781 188.938C140.839 188.594 140.867 188.237 140.867 187.867ZM139.422 187.703V187.867C139.422 188.117 139.406 188.362 139.375 188.602C139.344 188.841 139.294 189.065 139.227 189.273C139.143 189.549 139.031 189.799 138.891 190.023C138.75 190.247 138.576 190.432 138.367 190.578C138.211 190.693 138.034 190.781 137.836 190.844C137.638 190.901 137.419 190.93 137.18 190.93C136.93 190.93 136.701 190.898 136.492 190.836C136.284 190.768 136.096 190.674 135.93 190.555C135.763 190.435 135.615 190.297 135.484 190.141C135.359 189.979 135.25 189.805 135.156 189.617V185.922C135.245 185.734 135.352 185.562 135.477 185.406C135.607 185.245 135.755 185.104 135.922 184.984C136.083 184.87 136.268 184.781 136.477 184.719C136.685 184.651 136.914 184.617 137.164 184.617C137.393 184.617 137.602 184.643 137.789 184.695C137.977 184.747 138.146 184.82 138.297 184.914C138.516 185.044 138.701 185.224 138.852 185.453C139.003 185.682 139.125 185.935 139.219 186.211C139.286 186.435 139.336 186.674 139.367 186.93C139.404 187.18 139.422 187.438 139.422 187.703ZM142.906 187.695V187.867C142.906 188.477 142.995 189.042 143.172 189.562C143.349 190.083 143.604 190.536 143.938 190.922C144.266 191.307 144.667 191.609 145.141 191.828C145.62 192.047 146.159 192.156 146.758 192.156C147.352 192.156 147.885 192.047 148.359 191.828C148.833 191.609 149.237 191.307 149.57 190.922C149.898 190.536 150.151 190.083 150.328 189.562C150.505 189.042 150.594 188.477 150.594 187.867V187.695C150.594 187.086 150.505 186.521 150.328 186C150.151 185.474 149.898 185.018 149.57 184.633C149.237 184.247 148.831 183.945 148.352 183.727C147.878 183.503 147.341 183.391 146.742 183.391C146.148 183.391 145.615 183.503 145.141 183.727C144.667 183.945 144.266 184.247 143.938 184.633C143.604 185.018 143.349 185.474 143.172 186C142.995 186.521 142.906 187.086 142.906 187.695ZM144.352 187.867V187.695C144.352 187.284 144.401 186.891 144.5 186.516C144.599 186.135 144.75 185.802 144.953 185.516C145.151 185.229 145.398 185.003 145.695 184.836C145.992 184.664 146.341 184.578 146.742 184.578C147.143 184.578 147.492 184.664 147.789 184.836C148.091 185.003 148.344 185.229 148.547 185.516C148.745 185.802 148.893 186.135 148.992 186.516C149.096 186.891 149.148 187.284 149.148 187.695V187.867C149.148 188.284 149.099 188.682 149 189.062C148.901 189.438 148.753 189.768 148.555 190.055C148.352 190.341 148.099 190.568 147.797 190.734C147.5 190.901 147.154 190.984 146.758 190.984C146.357 190.984 146.005 190.901 145.703 190.734C145.401 190.568 145.151 190.341 144.953 190.055C144.75 189.768 144.599 189.438 144.5 189.062C144.401 188.682 144.352 188.284 144.352 187.867ZM152.922 192H154.367V185.938C154.466 185.755 154.581 185.589 154.711 185.438C154.846 185.286 154.992 185.154 155.148 185.039C155.341 184.909 155.552 184.807 155.781 184.734C156.01 184.656 156.258 184.617 156.523 184.617C156.831 184.617 157.102 184.654 157.336 184.727C157.576 184.799 157.779 184.917 157.945 185.078C158.107 185.24 158.229 185.451 158.312 185.711C158.396 185.971 158.438 186.289 158.438 186.664V192H159.883V186.633C159.883 186.07 159.812 185.586 159.672 185.18C159.536 184.768 159.341 184.43 159.086 184.164C158.831 183.898 158.521 183.703 158.156 183.578C157.797 183.453 157.396 183.391 156.953 183.391C156.625 183.396 156.312 183.445 156.016 183.539C155.724 183.628 155.453 183.755 155.203 183.922C155.036 184.031 154.878 184.161 154.727 184.312C154.581 184.458 154.445 184.62 154.32 184.797L154.219 183.547H152.922V192ZM174.297 192H175.75V184.664H179.008V183.547H175.75V182.953C175.75 182.599 175.794 182.289 175.883 182.023C175.977 181.758 176.112 181.542 176.289 181.375C176.456 181.214 176.664 181.094 176.914 181.016C177.169 180.932 177.461 180.891 177.789 180.891C178.112 180.891 178.414 180.919 178.695 180.977C178.982 181.029 179.232 181.091 179.445 181.164L179.617 179.969C179.482 179.932 179.349 179.901 179.219 179.875C179.089 179.844 178.958 179.815 178.828 179.789C178.63 179.753 178.43 179.724 178.227 179.703C178.023 179.677 177.818 179.664 177.609 179.664C177.109 179.664 176.656 179.734 176.25 179.875C175.844 180.016 175.497 180.224 175.211 180.5C174.919 180.776 174.693 181.12 174.531 181.531C174.375 181.938 174.297 182.411 174.297 182.953V183.547H171.969V184.664H174.297V192ZM181.344 187.695V187.867C181.344 188.477 181.432 189.042 181.609 189.562C181.786 190.083 182.042 190.536 182.375 190.922C182.703 191.307 183.104 191.609 183.578 191.828C184.057 192.047 184.596 192.156 185.195 192.156C185.789 192.156 186.323 192.047 186.797 191.828C187.271 191.609 187.674 191.307 188.008 190.922C188.336 190.536 188.589 190.083 188.766 189.562C188.943 189.042 189.031 188.477 189.031 187.867V187.695C189.031 187.086 188.943 186.521 188.766 186C188.589 185.474 188.336 185.018 188.008 184.633C187.674 184.247 187.268 183.945 186.789 183.727C186.315 183.503 185.779 183.391 185.18 183.391C184.586 183.391 184.052 183.503 183.578 183.727C183.104 183.945 182.703 184.247 182.375 184.633C182.042 185.018 181.786 185.474 181.609 186C181.432 186.521 181.344 187.086 181.344 187.695ZM182.789 187.867V187.695C182.789 187.284 182.839 186.891 182.938 186.516C183.036 186.135 183.188 185.802 183.391 185.516C183.589 185.229 183.836 185.003 184.133 184.836C184.43 184.664 184.779 184.578 185.18 184.578C185.581 184.578 185.93 184.664 186.227 184.836C186.529 185.003 186.781 185.229 186.984 185.516C187.182 185.802 187.331 186.135 187.43 186.516C187.534 186.891 187.586 187.284 187.586 187.695V187.867C187.586 188.284 187.536 188.682 187.438 189.062C187.339 189.438 187.19 189.768 186.992 190.055C186.789 190.341 186.536 190.568 186.234 190.734C185.938 190.901 185.591 190.984 185.195 190.984C184.794 190.984 184.443 190.901 184.141 190.734C183.839 190.568 183.589 190.341 183.391 190.055C183.188 189.768 183.036 189.438 182.938 189.062C182.839 188.682 182.789 188.284 182.789 187.867ZM190.953 187.695V187.867C190.953 188.477 191.042 189.042 191.219 189.562C191.396 190.083 191.651 190.536 191.984 190.922C192.312 191.307 192.714 191.609 193.188 191.828C193.667 192.047 194.206 192.156 194.805 192.156C195.398 192.156 195.932 192.047 196.406 191.828C196.88 191.609 197.284 191.307 197.617 190.922C197.945 190.536 198.198 190.083 198.375 189.562C198.552 189.042 198.641 188.477 198.641 187.867V187.695C198.641 187.086 198.552 186.521 198.375 186C198.198 185.474 197.945 185.018 197.617 184.633C197.284 184.247 196.878 183.945 196.398 183.727C195.924 183.503 195.388 183.391 194.789 183.391C194.195 183.391 193.661 183.503 193.188 183.727C192.714 183.945 192.312 184.247 191.984 184.633C191.651 185.018 191.396 185.474 191.219 186C191.042 186.521 190.953 187.086 190.953 187.695ZM192.398 187.867V187.695C192.398 187.284 192.448 186.891 192.547 186.516C192.646 186.135 192.797 185.802 193 185.516C193.198 185.229 193.445 185.003 193.742 184.836C194.039 184.664 194.388 184.578 194.789 184.578C195.19 184.578 195.539 184.664 195.836 184.836C196.138 185.003 196.391 185.229 196.594 185.516C196.792 185.802 196.94 186.135 197.039 186.516C197.143 186.891 197.195 187.284 197.195 187.695V187.867C197.195 188.284 197.146 188.682 197.047 189.062C196.948 189.438 196.799 189.768 196.602 190.055C196.398 190.341 196.146 190.568 195.844 190.734C195.547 190.901 195.201 190.984 194.805 190.984C194.404 190.984 194.052 190.901 193.75 190.734C193.448 190.568 193.198 190.341 193 190.055C192.797 189.768 192.646 189.438 192.547 189.062C192.448 188.682 192.398 188.284 192.398 187.867ZM204.391 181.5H202.938V183.547H200.719V184.664H202.938V189.258C202.938 189.779 203.005 190.224 203.141 190.594C203.281 190.958 203.471 191.255 203.711 191.484C203.951 191.719 204.232 191.891 204.555 192C204.883 192.104 205.234 192.156 205.609 192.156C205.833 192.156 206.057 192.146 206.281 192.125C206.51 192.104 206.727 192.073 206.93 192.031C207.133 191.995 207.32 191.951 207.492 191.898C207.664 191.841 207.81 191.776 207.93 191.703L207.727 190.68C207.638 190.701 207.523 190.727 207.383 190.758C207.247 190.784 207.102 190.81 206.945 190.836C206.784 190.862 206.62 190.885 206.453 190.906C206.286 190.922 206.125 190.93 205.969 190.93C205.755 190.93 205.552 190.904 205.359 190.852C205.172 190.799 205.005 190.708 204.859 190.578C204.714 190.453 204.599 190.284 204.516 190.07C204.432 189.857 204.391 189.586 204.391 189.258V184.664H207.609V183.547H204.391V181.5ZM210.57 195.25H212.016V191.188C212.12 191.302 212.232 191.409 212.352 191.508C212.471 191.602 212.599 191.688 212.734 191.766C212.958 191.891 213.208 191.987 213.484 192.055C213.766 192.122 214.068 192.156 214.391 192.156C214.922 192.156 215.393 192.047 215.805 191.828C216.221 191.609 216.57 191.307 216.852 190.922C217.133 190.536 217.346 190.083 217.492 189.562C217.638 189.036 217.711 188.471 217.711 187.867V187.703C217.711 187.073 217.638 186.495 217.492 185.969C217.346 185.438 217.133 184.982 216.852 184.602C216.57 184.221 216.221 183.924 215.805 183.711C215.388 183.497 214.909 183.391 214.367 183.391C214.06 183.391 213.771 183.424 213.5 183.492C213.234 183.555 212.992 183.648 212.773 183.773C212.617 183.857 212.471 183.958 212.336 184.078C212.201 184.193 212.076 184.323 211.961 184.469L211.891 183.547H210.57V195.25ZM216.266 187.703V187.867C216.266 188.279 216.219 188.672 216.125 189.047C216.036 189.422 215.898 189.753 215.711 190.039C215.523 190.326 215.284 190.555 214.992 190.727C214.701 190.893 214.354 190.977 213.953 190.977C213.703 190.977 213.474 190.945 213.266 190.883C213.062 190.82 212.878 190.734 212.711 190.625C212.565 190.531 212.435 190.417 212.32 190.281C212.206 190.146 212.104 190 212.016 189.844V185.773C212.115 185.596 212.229 185.435 212.359 185.289C212.49 185.143 212.638 185.021 212.805 184.922C212.956 184.823 213.125 184.747 213.312 184.695C213.505 184.643 213.714 184.617 213.938 184.617C214.344 184.617 214.693 184.701 214.984 184.867C215.276 185.034 215.518 185.258 215.711 185.539C215.898 185.826 216.036 186.156 216.125 186.531C216.219 186.901 216.266 187.292 216.266 187.703ZM225.727 183.391C225.112 183.391 224.562 183.526 224.078 183.797C223.599 184.062 223.188 184.427 222.844 184.891L222.836 184.68L222.773 183.547H221.398V192H222.852V186.578C222.945 186.318 223.062 186.083 223.203 185.875C223.349 185.661 223.518 185.482 223.711 185.336C223.924 185.169 224.174 185.044 224.461 184.961C224.747 184.872 225.068 184.828 225.422 184.828C225.698 184.828 225.961 184.844 226.211 184.875C226.466 184.901 226.734 184.945 227.016 185.008L227.211 183.594C227.065 183.531 226.846 183.482 226.555 183.445C226.268 183.409 225.992 183.391 225.727 183.391ZM230.023 183.547V184.805H232.898V190.75H230.023V192H237.102V190.75H234.344V183.547H230.023ZM232.711 181.328C232.711 181.562 232.781 181.758 232.922 181.914C233.068 182.07 233.286 182.148 233.578 182.148C233.865 182.148 234.081 182.07 234.227 181.914C234.372 181.758 234.445 181.562 234.445 181.328C234.445 181.198 234.424 181.078 234.383 180.969C234.341 180.859 234.279 180.768 234.195 180.695C234.128 180.628 234.042 180.576 233.938 180.539C233.833 180.497 233.714 180.477 233.578 180.477C233.443 180.477 233.32 180.497 233.211 180.539C233.107 180.576 233.021 180.628 232.953 180.695C232.87 180.773 232.807 180.867 232.766 180.977C232.729 181.086 232.711 181.203 232.711 181.328ZM239.406 192H240.852V185.938C240.951 185.755 241.065 185.589 241.195 185.438C241.331 185.286 241.477 185.154 241.633 185.039C241.826 184.909 242.036 184.807 242.266 184.734C242.495 184.656 242.742 184.617 243.008 184.617C243.315 184.617 243.586 184.654 243.82 184.727C244.06 184.799 244.263 184.917 244.43 185.078C244.591 185.24 244.714 185.451 244.797 185.711C244.88 185.971 244.922 186.289 244.922 186.664V192H246.367V186.633C246.367 186.07 246.297 185.586 246.156 185.18C246.021 184.768 245.826 184.43 245.57 184.164C245.315 183.898 245.005 183.703 244.641 183.578C244.281 183.453 243.88 183.391 243.438 183.391C243.109 183.396 242.797 183.445 242.5 183.539C242.208 183.628 241.938 183.755 241.688 183.922C241.521 184.031 241.362 184.161 241.211 184.312C241.065 184.458 240.93 184.62 240.805 184.797L240.703 183.547H239.406V192ZM252.438 181.5H250.984V183.547H248.766V184.664H250.984V189.258C250.984 189.779 251.052 190.224 251.188 190.594C251.328 190.958 251.518 191.255 251.758 191.484C251.997 191.719 252.279 191.891 252.602 192C252.93 192.104 253.281 192.156 253.656 192.156C253.88 192.156 254.104 192.146 254.328 192.125C254.557 192.104 254.773 192.073 254.977 192.031C255.18 191.995 255.367 191.951 255.539 191.898C255.711 191.841 255.857 191.776 255.977 191.703L255.773 190.68C255.685 190.701 255.57 190.727 255.43 190.758C255.294 190.784 255.148 190.81 254.992 190.836C254.831 190.862 254.667 190.885 254.5 190.906C254.333 190.922 254.172 190.93 254.016 190.93C253.802 190.93 253.599 190.904 253.406 190.852C253.219 190.799 253.052 190.708 252.906 190.578C252.76 190.453 252.646 190.284 252.562 190.07C252.479 189.857 252.438 189.586 252.438 189.258V184.664H255.656V183.547H252.438V181.5ZM261.141 191.062C261.141 191.365 261.234 191.622 261.422 191.836C261.615 192.044 261.898 192.148 262.273 192.148C262.643 192.148 262.927 192.044 263.125 191.836C263.323 191.628 263.422 191.37 263.422 191.062C263.422 190.75 263.323 190.487 263.125 190.273C262.932 190.055 262.648 189.945 262.273 189.945C261.893 189.945 261.609 190.055 261.422 190.273C261.234 190.492 261.141 190.755 261.141 191.062ZM271.375 180.977V179.828H269.961V181C269.961 181.448 269.898 181.865 269.773 182.25C269.654 182.635 269.471 183.013 269.227 183.383L270.016 183.945C270.234 183.758 270.427 183.544 270.594 183.305C270.76 183.065 270.904 182.812 271.023 182.547C271.138 182.286 271.224 182.021 271.281 181.75C271.344 181.479 271.375 181.221 271.375 180.977ZM273.969 180.977V179.828H272.555V181C272.555 181.448 272.492 181.865 272.367 182.25C272.247 182.635 272.065 183.013 271.82 183.383L272.609 183.945C272.828 183.758 273.021 183.544 273.188 183.305C273.354 183.065 273.497 182.812 273.617 182.547C273.732 182.286 273.818 182.021 273.875 181.75C273.938 181.479 273.969 181.221 273.969 180.977Z" fill="black"/>
</svg>
