<svg width="380" height="230" viewBox="0 0 380 230" fill="none" xmlns="http://www.w3.org/2000/svg">
<path d="M288.745 82.6327V84.7014L290.813 84.6316C336.166 83.1 371.932 122.845 365.643 167.785L365.011 172.298C362.817 187.979 354.869 202.282 342.712 212.427C331.245 221.997 316.783 227.239 301.847 227.239H89.7144L65.9815 225.02C56.856 224.166 47.9678 221.628 39.7675 217.535L34.0149 214.663C24.3935 209.86 16.4477 202.262 11.219 192.865C5.3104 182.247 3.20296 169.929 5.24516 157.95L6.02044 153.403C7.94067 142.139 13.4657 131.803 21.7647 123.95C31.5621 114.678 44.5388 109.511 58.0277 109.511H70.3045H72.3045V107.511V96.7518C72.3045 76.8433 83.4696 58.6167 101.205 49.5725C116.435 41.8062 134.477 41.8692 149.652 49.7419L154.817 52.4212L156.86 53.4812L157.624 51.3099L158.537 48.7173C165.483 28.9841 180.898 13.3963 200.552 6.2307L202.442 5.54158C208.869 3.19866 215.656 2 222.496 2C227.628 2 232.738 2.6748 237.694 4.00705L242.167 5.20937C249.188 7.0965 255.831 10.1768 261.808 14.3157L262.746 14.9653C274.761 23.2863 283.35 35.6836 286.918 49.8567C288.132 54.6761 288.745 59.6269 288.745 64.5966V82.6327Z" stroke="#C9D8DF" stroke-width="4"/>
<path d="M105.781 100.742V101.883H107.195V100.719C107.195 100.271 107.255 99.8542 107.375 99.4688C107.5 99.0833 107.685 98.7057 107.93 98.3359L107.141 97.7734C106.922 97.9609 106.729 98.1745 106.562 98.4141C106.396 98.6536 106.255 98.9036 106.141 99.1641C106.021 99.4297 105.93 99.6979 105.867 99.9688C105.81 100.24 105.781 100.497 105.781 100.742ZM108.32 100.742V101.883H109.734V100.719C109.734 100.271 109.794 99.8542 109.914 99.4688C110.039 99.0833 110.224 98.7057 110.469 98.3359L109.68 97.7734C109.461 97.9609 109.268 98.1745 109.102 98.4141C108.935 98.6536 108.794 98.9036 108.68 99.1641C108.56 99.4297 108.469 99.6979 108.406 99.9688C108.349 100.24 108.32 100.497 108.32 100.742ZM114.18 98.625V99.8828H116.844V108.75H114.18V110H121.055V108.75H118.328V99.8828H121.055V98.625H114.18ZM134.211 110H135.352L136.656 104.82L136.867 103.508L137.086 104.82L138.406 110H139.547L141.344 101.547H140.062L139.125 106.938L138.914 108.266L138.688 106.938L137.344 101.547H136.414L135.062 106.938L134.852 108.148L134.68 106.938L133.695 101.547H132.414L134.211 110ZM142.602 105.695V105.867C142.602 106.477 142.69 107.042 142.867 107.562C143.044 108.083 143.299 108.536 143.633 108.922C143.961 109.307 144.362 109.609 144.836 109.828C145.315 110.047 145.854 110.156 146.453 110.156C147.047 110.156 147.581 110.047 148.055 109.828C148.529 109.609 148.932 109.307 149.266 108.922C149.594 108.536 149.846 108.083 150.023 107.562C150.201 107.042 150.289 106.477 150.289 105.867V105.695C150.289 105.086 150.201 104.521 150.023 104C149.846 103.474 149.594 103.018 149.266 102.633C148.932 102.247 148.526 101.945 148.047 101.727C147.573 101.503 147.036 101.391 146.438 101.391C145.844 101.391 145.31 101.503 144.836 101.727C144.362 101.945 143.961 102.247 143.633 102.633C143.299 103.018 143.044 103.474 142.867 104C142.69 104.521 142.602 105.086 142.602 105.695ZM144.047 105.867V105.695C144.047 105.284 144.096 104.891 144.195 104.516C144.294 104.135 144.445 103.802 144.648 103.516C144.846 103.229 145.094 103.003 145.391 102.836C145.688 102.664 146.036 102.578 146.438 102.578C146.839 102.578 147.188 102.664 147.484 102.836C147.786 103.003 148.039 103.229 148.242 103.516C148.44 103.802 148.589 104.135 148.688 104.516C148.792 104.891 148.844 105.284 148.844 105.695V105.867C148.844 106.284 148.794 106.682 148.695 107.062C148.596 107.438 148.448 107.768 148.25 108.055C148.047 108.341 147.794 108.568 147.492 108.734C147.195 108.901 146.849 108.984 146.453 108.984C146.052 108.984 145.701 108.901 145.398 108.734C145.096 108.568 144.846 108.341 144.648 108.055C144.445 107.768 144.294 107.438 144.195 107.062C144.096 106.682 144.047 106.284 144.047 105.867ZM158.188 110H159.5V101.547H158.047V107.609C157.969 107.792 157.87 107.961 157.75 108.117C157.635 108.268 157.5 108.398 157.344 108.508C157.156 108.643 156.935 108.75 156.68 108.828C156.424 108.901 156.135 108.938 155.812 108.938C155.536 108.938 155.292 108.901 155.078 108.828C154.87 108.755 154.693 108.628 154.547 108.445C154.401 108.268 154.292 108.029 154.219 107.727C154.146 107.424 154.109 107.044 154.109 106.586V101.547H152.664V106.57C152.664 107.201 152.732 107.742 152.867 108.195C153.008 108.643 153.206 109.013 153.461 109.305C153.716 109.596 154.023 109.812 154.383 109.953C154.742 110.089 155.143 110.156 155.586 110.156C156.138 110.156 156.625 110.042 157.047 109.812C157.469 109.578 157.82 109.253 158.102 108.836L158.188 110ZM162.453 98V99.2578H165.328V108.75H162.453V110H169.531V108.75H166.773V98H162.453ZM171.562 105.703V105.867C171.562 106.471 171.643 107.036 171.805 107.562C171.966 108.083 172.193 108.536 172.484 108.922C172.776 109.307 173.128 109.609 173.539 109.828C173.956 110.047 174.419 110.156 174.93 110.156C175.451 110.156 175.906 110.068 176.297 109.891C176.688 109.714 177.023 109.453 177.305 109.109L177.367 110H178.695V98H177.25V102.383C176.974 102.06 176.646 101.815 176.266 101.648C175.891 101.477 175.451 101.391 174.945 101.391C174.43 101.391 173.964 101.497 173.547 101.711C173.13 101.924 172.776 102.221 172.484 102.602C172.188 102.982 171.958 103.438 171.797 103.969C171.641 104.495 171.562 105.073 171.562 105.703ZM173.008 105.867V105.703C173.008 105.292 173.052 104.901 173.141 104.531C173.229 104.156 173.367 103.826 173.555 103.539C173.737 103.258 173.971 103.034 174.258 102.867C174.549 102.701 174.898 102.617 175.305 102.617C175.779 102.617 176.174 102.729 176.492 102.953C176.81 103.172 177.062 103.453 177.25 103.797V107.719C177.062 108.089 176.81 108.383 176.492 108.602C176.174 108.82 175.773 108.93 175.289 108.93C174.888 108.93 174.544 108.849 174.258 108.688C173.971 108.521 173.737 108.297 173.555 108.016C173.367 107.734 173.229 107.409 173.141 107.039C173.052 106.669 173.008 106.279 173.008 105.867ZM198.219 105.867V105.703C198.219 105.26 198.182 104.841 198.109 104.445C198.036 104.044 197.93 103.68 197.789 103.352C197.654 103.06 197.497 102.797 197.32 102.562C197.143 102.323 196.943 102.12 196.719 101.953C196.469 101.776 196.19 101.638 195.883 101.539C195.576 101.44 195.24 101.391 194.875 101.391C194.583 101.391 194.312 101.419 194.062 101.477C193.812 101.534 193.583 101.617 193.375 101.727C193.208 101.815 193.052 101.922 192.906 102.047C192.76 102.167 192.628 102.302 192.508 102.453V98H191.062V110H192.391L192.461 109.039C192.555 109.159 192.654 109.268 192.758 109.367C192.862 109.466 192.971 109.557 193.086 109.641C193.326 109.807 193.594 109.935 193.891 110.023C194.193 110.112 194.526 110.156 194.891 110.156C195.208 110.156 195.503 110.117 195.773 110.039C196.049 109.961 196.302 109.852 196.531 109.711C196.849 109.508 197.12 109.253 197.344 108.945C197.573 108.633 197.758 108.281 197.898 107.891C198.003 107.594 198.081 107.276 198.133 106.938C198.19 106.594 198.219 106.237 198.219 105.867ZM196.773 105.703V105.867C196.773 106.117 196.758 106.362 196.727 106.602C196.695 106.841 196.646 107.065 196.578 107.273C196.495 107.549 196.383 107.799 196.242 108.023C196.102 108.247 195.927 108.432 195.719 108.578C195.562 108.693 195.385 108.781 195.188 108.844C194.99 108.901 194.771 108.93 194.531 108.93C194.281 108.93 194.052 108.898 193.844 108.836C193.635 108.768 193.448 108.674 193.281 108.555C193.115 108.435 192.966 108.297 192.836 108.141C192.711 107.979 192.602 107.805 192.508 107.617V103.922C192.596 103.734 192.703 103.562 192.828 103.406C192.958 103.245 193.107 103.104 193.273 102.984C193.435 102.87 193.62 102.781 193.828 102.719C194.036 102.651 194.266 102.617 194.516 102.617C194.745 102.617 194.953 102.643 195.141 102.695C195.328 102.747 195.497 102.82 195.648 102.914C195.867 103.044 196.052 103.224 196.203 103.453C196.354 103.682 196.477 103.935 196.57 104.211C196.638 104.435 196.688 104.674 196.719 104.93C196.755 105.18 196.773 105.438 196.773 105.703ZM204.398 110.156C205.221 110.156 205.911 109.992 206.469 109.664C207.031 109.331 207.453 108.951 207.734 108.523L206.852 107.836C206.586 108.18 206.253 108.456 205.852 108.664C205.451 108.872 204.992 108.977 204.477 108.977C204.086 108.977 203.729 108.904 203.406 108.758C203.083 108.612 202.807 108.411 202.578 108.156C202.354 107.917 202.177 107.641 202.047 107.328C201.922 107.016 201.841 106.654 201.805 106.242V106.188H207.844V105.539C207.844 104.951 207.768 104.404 207.617 103.898C207.471 103.393 207.247 102.953 206.945 102.578C206.643 102.208 206.263 101.919 205.805 101.711C205.352 101.497 204.82 101.391 204.211 101.391C203.727 101.391 203.253 101.49 202.789 101.688C202.331 101.885 201.922 102.169 201.562 102.539C201.198 102.914 200.906 103.372 200.688 103.914C200.469 104.451 200.359 105.06 200.359 105.742V106.07C200.359 106.659 200.458 107.203 200.656 107.703C200.854 108.203 201.13 108.635 201.484 109C201.839 109.365 202.263 109.648 202.758 109.852C203.258 110.055 203.805 110.156 204.398 110.156ZM204.211 102.578C204.581 102.578 204.898 102.646 205.164 102.781C205.435 102.917 205.659 103.094 205.836 103.312C206.013 103.531 206.151 103.792 206.25 104.094C206.349 104.391 206.398 104.669 206.398 104.93V105H201.852C201.909 104.609 202.008 104.266 202.148 103.969C202.294 103.667 202.471 103.411 202.68 103.203C202.888 103 203.122 102.846 203.383 102.742C203.643 102.633 203.919 102.578 204.211 102.578ZM220.695 110H221.836L223.141 104.82L223.352 103.508L223.57 104.82L224.891 110H226.031L227.828 101.547H226.547L225.609 106.938L225.398 108.266L225.172 106.938L223.828 101.547H222.898L221.547 106.938L221.336 108.148L221.164 106.938L220.18 101.547H218.898L220.695 110ZM229.719 101.547V102.805H232.594V108.75H229.719V110H236.797V108.75H234.039V101.547H229.719ZM232.406 99.3281C232.406 99.5625 232.477 99.7578 232.617 99.9141C232.763 100.07 232.982 100.148 233.273 100.148C233.56 100.148 233.776 100.07 233.922 99.9141C234.068 99.7578 234.141 99.5625 234.141 99.3281C234.141 99.1979 234.12 99.0781 234.078 98.9688C234.036 98.8594 233.974 98.7682 233.891 98.6953C233.823 98.6276 233.737 98.5755 233.633 98.5391C233.529 98.4974 233.409 98.4766 233.273 98.4766C233.138 98.4766 233.016 98.4974 232.906 98.5391C232.802 98.5755 232.716 98.6276 232.648 98.6953C232.565 98.7734 232.503 98.8672 232.461 98.9766C232.424 99.0859 232.406 99.2031 232.406 99.3281ZM239.328 98V99.2578H242.203V108.75H239.328V110H246.406V108.75H243.648V98H239.328ZM248.938 98V99.2578H251.812V108.75H248.938V110H256.016V108.75H253.258V98H248.938ZM258.547 101.547V102.805H261.422V108.75H258.547V110H265.625V108.75H262.867V101.547H258.547ZM261.234 99.3281C261.234 99.5625 261.305 99.7578 261.445 99.9141C261.591 100.07 261.81 100.148 262.102 100.148C262.388 100.148 262.604 100.07 262.75 99.9141C262.896 99.7578 262.969 99.5625 262.969 99.3281C262.969 99.1979 262.948 99.0781 262.906 98.9688C262.865 98.8594 262.802 98.7682 262.719 98.6953C262.651 98.6276 262.565 98.5755 262.461 98.5391C262.357 98.4974 262.237 98.4766 262.102 98.4766C261.966 98.4766 261.844 98.4974 261.734 98.5391C261.63 98.5755 261.544 98.6276 261.477 98.6953C261.393 98.7734 261.331 98.8672 261.289 98.9766C261.253 99.0859 261.234 99.2031 261.234 99.3281ZM267.93 110H269.375V103.938C269.474 103.755 269.589 103.589 269.719 103.438C269.854 103.286 270 103.154 270.156 103.039C270.349 102.909 270.56 102.807 270.789 102.734C271.018 102.656 271.266 102.617 271.531 102.617C271.839 102.617 272.109 102.654 272.344 102.727C272.583 102.799 272.786 102.917 272.953 103.078C273.115 103.24 273.237 103.451 273.32 103.711C273.404 103.971 273.445 104.289 273.445 104.664V110H274.891V104.633C274.891 104.07 274.82 103.586 274.68 103.18C274.544 102.768 274.349 102.43 274.094 102.164C273.839 101.898 273.529 101.703 273.164 101.578C272.805 101.453 272.404 101.391 271.961 101.391C271.633 101.396 271.32 101.445 271.023 101.539C270.732 101.628 270.461 101.755 270.211 101.922C270.044 102.031 269.885 102.161 269.734 102.312C269.589 102.458 269.453 102.62 269.328 102.797L269.227 101.547H267.93V110ZM277.273 105.703V105.867C277.273 106.471 277.352 107.036 277.508 107.562C277.664 108.083 277.888 108.536 278.18 108.922C278.466 109.307 278.818 109.609 279.234 109.828C279.651 110.047 280.117 110.156 280.633 110.156C280.94 110.156 281.227 110.122 281.492 110.055C281.758 109.992 282 109.901 282.219 109.781C282.359 109.703 282.49 109.612 282.609 109.508C282.734 109.404 282.852 109.289 282.961 109.164V109.891C282.961 110.255 282.909 110.578 282.805 110.859C282.701 111.141 282.552 111.375 282.359 111.562C282.161 111.755 281.924 111.901 281.648 112C281.372 112.099 281.062 112.148 280.719 112.148C280.526 112.148 280.333 112.128 280.141 112.086C279.948 112.049 279.755 111.987 279.562 111.898C279.37 111.81 279.18 111.69 278.992 111.539C278.805 111.393 278.622 111.214 278.445 111L277.695 111.867C277.888 112.143 278.117 112.375 278.383 112.562C278.654 112.75 278.935 112.898 279.227 113.008C279.513 113.122 279.797 113.203 280.078 113.25C280.359 113.302 280.609 113.328 280.828 113.328C281.359 113.328 281.844 113.25 282.281 113.094C282.719 112.938 283.096 112.708 283.414 112.406C283.727 112.104 283.969 111.737 284.141 111.305C284.318 110.872 284.406 110.378 284.406 109.82V101.547H283.094L283.023 102.469C282.924 102.344 282.818 102.229 282.703 102.125C282.594 102.021 282.477 101.93 282.352 101.852C282.122 101.701 281.865 101.586 281.578 101.508C281.297 101.43 280.987 101.391 280.648 101.391C280.122 101.391 279.651 101.497 279.234 101.711C278.818 101.924 278.464 102.221 278.172 102.602C277.88 102.982 277.656 103.438 277.5 103.969C277.349 104.495 277.273 105.073 277.273 105.703ZM278.719 105.867V105.703C278.719 105.292 278.76 104.901 278.844 104.531C278.932 104.156 279.07 103.826 279.258 103.539C279.44 103.258 279.674 103.034 279.961 102.867C280.253 102.701 280.602 102.617 281.008 102.617C281.247 102.617 281.466 102.648 281.664 102.711C281.862 102.768 282.042 102.849 282.203 102.953C282.365 103.062 282.508 103.19 282.633 103.336C282.758 103.482 282.867 103.643 282.961 103.82V107.695C282.867 107.878 282.758 108.044 282.633 108.195C282.508 108.346 282.367 108.477 282.211 108.586C282.049 108.695 281.867 108.781 281.664 108.844C281.466 108.901 281.242 108.93 280.992 108.93C280.591 108.93 280.247 108.849 279.961 108.688C279.674 108.521 279.44 108.297 279.258 108.016C279.07 107.734 278.932 107.409 278.844 107.039C278.76 106.669 278.719 106.279 278.719 105.867ZM104.828 119.188V118H101.734V133.438H104.828V132.25H103.102V119.188H104.828ZM112.797 120.5H111.344V122.547H109.125V123.664H111.344V128.258C111.344 128.779 111.411 129.224 111.547 129.594C111.688 129.958 111.878 130.255 112.117 130.484C112.357 130.719 112.638 130.891 112.961 131C113.289 131.104 113.641 131.156 114.016 131.156C114.24 131.156 114.464 131.146 114.688 131.125C114.917 131.104 115.133 131.073 115.336 131.031C115.539 130.995 115.727 130.951 115.898 130.898C116.07 130.841 116.216 130.776 116.336 130.703L116.133 129.68C116.044 129.701 115.93 129.727 115.789 129.758C115.654 129.784 115.508 129.81 115.352 129.836C115.19 129.862 115.026 129.885 114.859 129.906C114.693 129.922 114.531 129.93 114.375 129.93C114.161 129.93 113.958 129.904 113.766 129.852C113.578 129.799 113.411 129.708 113.266 129.578C113.12 129.453 113.005 129.284 112.922 129.07C112.839 128.857 112.797 128.586 112.797 128.258V123.664H116.016V122.547H112.797V120.5ZM118.578 126.695V126.867C118.578 127.477 118.667 128.042 118.844 128.562C119.021 129.083 119.276 129.536 119.609 129.922C119.938 130.307 120.339 130.609 120.812 130.828C121.292 131.047 121.831 131.156 122.43 131.156C123.023 131.156 123.557 131.047 124.031 130.828C124.505 130.609 124.909 130.307 125.242 129.922C125.57 129.536 125.823 129.083 126 128.562C126.177 128.042 126.266 127.477 126.266 126.867V126.695C126.266 126.086 126.177 125.521 126 125C125.823 124.474 125.57 124.018 125.242 123.633C124.909 123.247 124.503 122.945 124.023 122.727C123.549 122.503 123.013 122.391 122.414 122.391C121.82 122.391 121.286 122.503 120.812 122.727C120.339 122.945 119.938 123.247 119.609 123.633C119.276 124.018 119.021 124.474 118.844 125C118.667 125.521 118.578 126.086 118.578 126.695ZM120.023 126.867V126.695C120.023 126.284 120.073 125.891 120.172 125.516C120.271 125.135 120.422 124.802 120.625 124.516C120.823 124.229 121.07 124.003 121.367 123.836C121.664 123.664 122.013 123.578 122.414 123.578C122.815 123.578 123.164 123.664 123.461 123.836C123.763 124.003 124.016 124.229 124.219 124.516C124.417 124.802 124.565 125.135 124.664 125.516C124.768 125.891 124.82 126.284 124.82 126.695V126.867C124.82 127.284 124.771 127.682 124.672 128.062C124.573 128.438 124.424 128.768 124.227 129.055C124.023 129.341 123.771 129.568 123.469 129.734C123.172 129.901 122.826 129.984 122.43 129.984C122.029 129.984 121.677 129.901 121.375 129.734C121.073 129.568 120.823 129.341 120.625 129.055C120.422 128.768 120.271 128.438 120.172 128.062C120.073 127.682 120.023 127.284 120.023 126.867ZM143.773 131H145.086V122.547H143.633V128.609C143.555 128.792 143.456 128.961 143.336 129.117C143.221 129.268 143.086 129.398 142.93 129.508C142.742 129.643 142.521 129.75 142.266 129.828C142.01 129.901 141.721 129.938 141.398 129.938C141.122 129.938 140.878 129.901 140.664 129.828C140.456 129.755 140.279 129.628 140.133 129.445C139.987 129.268 139.878 129.029 139.805 128.727C139.732 128.424 139.695 128.044 139.695 127.586V122.547H138.25V127.57C138.25 128.201 138.318 128.742 138.453 129.195C138.594 129.643 138.792 130.013 139.047 130.305C139.302 130.596 139.609 130.812 139.969 130.953C140.328 131.089 140.729 131.156 141.172 131.156C141.724 131.156 142.211 131.042 142.633 130.812C143.055 130.578 143.406 130.253 143.688 129.836L143.773 131ZM153.43 128.758C153.43 128.893 153.404 129.021 153.352 129.141C153.299 129.26 153.224 129.37 153.125 129.469C152.964 129.63 152.74 129.758 152.453 129.852C152.167 129.94 151.831 129.984 151.445 129.984C151.201 129.984 150.953 129.958 150.703 129.906C150.453 129.854 150.227 129.766 150.023 129.641C149.815 129.516 149.641 129.352 149.5 129.148C149.365 128.945 149.286 128.695 149.266 128.398H147.82C147.82 128.758 147.901 129.104 148.062 129.438C148.229 129.771 148.469 130.062 148.781 130.312C149.089 130.568 149.466 130.773 149.914 130.93C150.362 131.081 150.872 131.156 151.445 131.156C151.945 131.156 152.406 131.096 152.828 130.977C153.25 130.857 153.612 130.688 153.914 130.469C154.216 130.25 154.451 129.987 154.617 129.68C154.789 129.372 154.875 129.031 154.875 128.656C154.875 128.307 154.799 128 154.648 127.734C154.503 127.469 154.289 127.234 154.008 127.031C153.727 126.833 153.38 126.664 152.969 126.523C152.557 126.378 152.091 126.25 151.57 126.141C151.174 126.062 150.846 125.982 150.586 125.898C150.331 125.815 150.128 125.721 149.977 125.617C149.82 125.513 149.711 125.396 149.648 125.266C149.586 125.135 149.555 124.987 149.555 124.82C149.555 124.659 149.594 124.503 149.672 124.352C149.75 124.201 149.867 124.068 150.023 123.953C150.174 123.839 150.365 123.747 150.594 123.68C150.828 123.612 151.099 123.578 151.406 123.578C151.703 123.578 151.969 123.62 152.203 123.703C152.443 123.786 152.646 123.896 152.812 124.031C152.979 124.167 153.109 124.323 153.203 124.5C153.297 124.672 153.344 124.849 153.344 125.031H154.789C154.789 124.661 154.708 124.318 154.547 124C154.391 123.677 154.167 123.396 153.875 123.156C153.583 122.917 153.229 122.729 152.812 122.594C152.396 122.458 151.927 122.391 151.406 122.391C150.922 122.391 150.477 122.456 150.07 122.586C149.669 122.716 149.323 122.893 149.031 123.117C148.74 123.341 148.513 123.604 148.352 123.906C148.19 124.203 148.109 124.523 148.109 124.867C148.109 125.216 148.188 125.523 148.344 125.789C148.5 126.049 148.721 126.276 149.008 126.469C149.289 126.667 149.628 126.836 150.023 126.977C150.424 127.117 150.867 127.237 151.352 127.336C151.747 127.414 152.078 127.503 152.344 127.602C152.609 127.695 152.823 127.799 152.984 127.914C153.146 128.029 153.26 128.156 153.328 128.297C153.396 128.432 153.43 128.586 153.43 128.758ZM161.156 131.156C161.979 131.156 162.669 130.992 163.227 130.664C163.789 130.331 164.211 129.951 164.492 129.523L163.609 128.836C163.344 129.18 163.01 129.456 162.609 129.664C162.208 129.872 161.75 129.977 161.234 129.977C160.844 129.977 160.487 129.904 160.164 129.758C159.841 129.612 159.565 129.411 159.336 129.156C159.112 128.917 158.935 128.641 158.805 128.328C158.68 128.016 158.599 127.654 158.562 127.242V127.188H164.602V126.539C164.602 125.951 164.526 125.404 164.375 124.898C164.229 124.393 164.005 123.953 163.703 123.578C163.401 123.208 163.021 122.919 162.562 122.711C162.109 122.497 161.578 122.391 160.969 122.391C160.484 122.391 160.01 122.49 159.547 122.688C159.089 122.885 158.68 123.169 158.32 123.539C157.956 123.914 157.664 124.372 157.445 124.914C157.227 125.451 157.117 126.06 157.117 126.742V127.07C157.117 127.659 157.216 128.203 157.414 128.703C157.612 129.203 157.888 129.635 158.242 130C158.596 130.365 159.021 130.648 159.516 130.852C160.016 131.055 160.562 131.156 161.156 131.156ZM160.969 123.578C161.339 123.578 161.656 123.646 161.922 123.781C162.193 123.917 162.417 124.094 162.594 124.312C162.771 124.531 162.909 124.792 163.008 125.094C163.107 125.391 163.156 125.669 163.156 125.93V126H158.609C158.667 125.609 158.766 125.266 158.906 124.969C159.052 124.667 159.229 124.411 159.438 124.203C159.646 124 159.88 123.846 160.141 123.742C160.401 123.633 160.677 123.578 160.969 123.578ZM182.195 131H183.703V130.875C183.609 130.641 183.536 130.367 183.484 130.055C183.432 129.737 183.406 129.438 183.406 129.156V125.227C183.406 124.753 183.32 124.339 183.148 123.984C182.977 123.63 182.742 123.333 182.445 123.094C182.143 122.859 181.786 122.685 181.375 122.57C180.964 122.451 180.518 122.391 180.039 122.391C179.513 122.391 179.042 122.464 178.625 122.609C178.214 122.755 177.865 122.945 177.578 123.18C177.286 123.419 177.062 123.688 176.906 123.984C176.755 124.281 176.677 124.583 176.672 124.891H178.125C178.125 124.714 178.167 124.544 178.25 124.383C178.339 124.216 178.461 124.073 178.617 123.953C178.773 123.833 178.964 123.737 179.188 123.664C179.417 123.591 179.674 123.555 179.961 123.555C180.268 123.555 180.544 123.594 180.789 123.672C181.039 123.75 181.25 123.859 181.422 124C181.594 124.146 181.727 124.32 181.82 124.523C181.914 124.727 181.961 124.956 181.961 125.211V125.875H180.383C179.794 125.875 179.26 125.932 178.781 126.047C178.307 126.161 177.901 126.333 177.562 126.562C177.224 126.797 176.961 127.089 176.773 127.438C176.591 127.786 176.5 128.193 176.5 128.656C176.5 129.01 176.568 129.341 176.703 129.648C176.844 129.951 177.042 130.211 177.297 130.43C177.547 130.654 177.852 130.831 178.211 130.961C178.576 131.091 178.982 131.156 179.43 131.156C179.706 131.156 179.966 131.128 180.211 131.07C180.456 131.013 180.688 130.935 180.906 130.836C181.12 130.737 181.315 130.622 181.492 130.492C181.674 130.362 181.839 130.224 181.984 130.078C182 130.255 182.023 130.427 182.055 130.594C182.091 130.755 182.138 130.891 182.195 131ZM179.641 129.898C179.359 129.898 179.112 129.862 178.898 129.789C178.685 129.716 178.508 129.615 178.367 129.484C178.227 129.359 178.12 129.208 178.047 129.031C177.979 128.854 177.945 128.661 177.945 128.453C177.945 128.234 177.984 128.039 178.062 127.867C178.146 127.695 178.266 127.547 178.422 127.422C178.641 127.245 178.935 127.115 179.305 127.031C179.68 126.943 180.117 126.898 180.617 126.898H181.961V128.609C181.878 128.776 181.763 128.938 181.617 129.094C181.471 129.245 181.299 129.38 181.102 129.5C180.898 129.62 180.674 129.716 180.43 129.789C180.185 129.862 179.922 129.898 179.641 129.898ZM186.25 131H187.695V124.938C187.794 124.755 187.909 124.589 188.039 124.438C188.174 124.286 188.32 124.154 188.477 124.039C188.669 123.909 188.88 123.807 189.109 123.734C189.339 123.656 189.586 123.617 189.852 123.617C190.159 123.617 190.43 123.654 190.664 123.727C190.904 123.799 191.107 123.917 191.273 124.078C191.435 124.24 191.557 124.451 191.641 124.711C191.724 124.971 191.766 125.289 191.766 125.664V131H193.211V125.633C193.211 125.07 193.141 124.586 193 124.18C192.865 123.768 192.669 123.43 192.414 123.164C192.159 122.898 191.849 122.703 191.484 122.578C191.125 122.453 190.724 122.391 190.281 122.391C189.953 122.396 189.641 122.445 189.344 122.539C189.052 122.628 188.781 122.755 188.531 122.922C188.365 123.031 188.206 123.161 188.055 123.312C187.909 123.458 187.773 123.62 187.648 123.797L187.547 122.547H186.25V131ZM211.023 131H212.531V130.875C212.438 130.641 212.365 130.367 212.312 130.055C212.26 129.737 212.234 129.438 212.234 129.156V125.227C212.234 124.753 212.148 124.339 211.977 123.984C211.805 123.63 211.57 123.333 211.273 123.094C210.971 122.859 210.615 122.685 210.203 122.57C209.792 122.451 209.346 122.391 208.867 122.391C208.341 122.391 207.87 122.464 207.453 122.609C207.042 122.755 206.693 122.945 206.406 123.18C206.115 123.419 205.891 123.688 205.734 123.984C205.583 124.281 205.505 124.583 205.5 124.891H206.953C206.953 124.714 206.995 124.544 207.078 124.383C207.167 124.216 207.289 124.073 207.445 123.953C207.602 123.833 207.792 123.737 208.016 123.664C208.245 123.591 208.503 123.555 208.789 123.555C209.096 123.555 209.372 123.594 209.617 123.672C209.867 123.75 210.078 123.859 210.25 124C210.422 124.146 210.555 124.32 210.648 124.523C210.742 124.727 210.789 124.956 210.789 125.211V125.875H209.211C208.622 125.875 208.089 125.932 207.609 126.047C207.135 126.161 206.729 126.333 206.391 126.562C206.052 126.797 205.789 127.089 205.602 127.438C205.419 127.786 205.328 128.193 205.328 128.656C205.328 129.01 205.396 129.341 205.531 129.648C205.672 129.951 205.87 130.211 206.125 130.43C206.375 130.654 206.68 130.831 207.039 130.961C207.404 131.091 207.81 131.156 208.258 131.156C208.534 131.156 208.794 131.128 209.039 131.07C209.284 131.013 209.516 130.935 209.734 130.836C209.948 130.737 210.143 130.622 210.32 130.492C210.503 130.362 210.667 130.224 210.812 130.078C210.828 130.255 210.852 130.427 210.883 130.594C210.919 130.755 210.966 130.891 211.023 131ZM208.469 129.898C208.188 129.898 207.94 129.862 207.727 129.789C207.513 129.716 207.336 129.615 207.195 129.484C207.055 129.359 206.948 129.208 206.875 129.031C206.807 128.854 206.773 128.661 206.773 128.453C206.773 128.234 206.812 128.039 206.891 127.867C206.974 127.695 207.094 127.547 207.25 127.422C207.469 127.245 207.763 127.115 208.133 127.031C208.508 126.943 208.945 126.898 209.445 126.898H210.789V128.609C210.706 128.776 210.591 128.938 210.445 129.094C210.299 129.245 210.128 129.38 209.93 129.5C209.727 129.62 209.503 129.716 209.258 129.789C209.013 129.862 208.75 129.898 208.469 129.898ZM215.305 119V120.258H218.18V129.75H215.305V131H222.383V129.75H219.625V119H215.305ZM228.109 120.5H226.656V122.547H224.438V123.664H226.656V128.258C226.656 128.779 226.724 129.224 226.859 129.594C227 129.958 227.19 130.255 227.43 130.484C227.669 130.719 227.951 130.891 228.273 131C228.602 131.104 228.953 131.156 229.328 131.156C229.552 131.156 229.776 131.146 230 131.125C230.229 131.104 230.445 131.073 230.648 131.031C230.852 130.995 231.039 130.951 231.211 130.898C231.383 130.841 231.529 130.776 231.648 130.703L231.445 129.68C231.357 129.701 231.242 129.727 231.102 129.758C230.966 129.784 230.82 129.81 230.664 129.836C230.503 129.862 230.339 129.885 230.172 129.906C230.005 129.922 229.844 129.93 229.688 129.93C229.474 129.93 229.271 129.904 229.078 129.852C228.891 129.799 228.724 129.708 228.578 129.578C228.432 129.453 228.318 129.284 228.234 129.07C228.151 128.857 228.109 128.586 228.109 128.258V123.664H231.328V122.547H228.109V120.5ZM238.031 131.156C238.854 131.156 239.544 130.992 240.102 130.664C240.664 130.331 241.086 129.951 241.367 129.523L240.484 128.836C240.219 129.18 239.885 129.456 239.484 129.664C239.083 129.872 238.625 129.977 238.109 129.977C237.719 129.977 237.362 129.904 237.039 129.758C236.716 129.612 236.44 129.411 236.211 129.156C235.987 128.917 235.81 128.641 235.68 128.328C235.555 128.016 235.474 127.654 235.438 127.242V127.188H241.477V126.539C241.477 125.951 241.401 125.404 241.25 124.898C241.104 124.393 240.88 123.953 240.578 123.578C240.276 123.208 239.896 122.919 239.438 122.711C238.984 122.497 238.453 122.391 237.844 122.391C237.359 122.391 236.885 122.49 236.422 122.688C235.964 122.885 235.555 123.169 235.195 123.539C234.831 123.914 234.539 124.372 234.32 124.914C234.102 125.451 233.992 126.06 233.992 126.742V127.07C233.992 127.659 234.091 128.203 234.289 128.703C234.487 129.203 234.763 129.635 235.117 130C235.471 130.365 235.896 130.648 236.391 130.852C236.891 131.055 237.438 131.156 238.031 131.156ZM237.844 123.578C238.214 123.578 238.531 123.646 238.797 123.781C239.068 123.917 239.292 124.094 239.469 124.312C239.646 124.531 239.784 124.792 239.883 125.094C239.982 125.391 240.031 125.669 240.031 125.93V126H235.484C235.542 125.609 235.641 125.266 235.781 124.969C235.927 124.667 236.104 124.411 236.312 124.203C236.521 124 236.755 123.846 237.016 123.742C237.276 123.633 237.552 123.578 237.844 123.578ZM249.445 122.391C248.831 122.391 248.281 122.526 247.797 122.797C247.318 123.062 246.906 123.427 246.562 123.891L246.555 123.68L246.492 122.547H245.117V131H246.57V125.578C246.664 125.318 246.781 125.083 246.922 124.875C247.068 124.661 247.237 124.482 247.43 124.336C247.643 124.169 247.893 124.044 248.18 123.961C248.466 123.872 248.786 123.828 249.141 123.828C249.417 123.828 249.68 123.844 249.93 123.875C250.185 123.901 250.453 123.945 250.734 124.008L250.93 122.594C250.784 122.531 250.565 122.482 250.273 122.445C249.987 122.409 249.711 122.391 249.445 122.391ZM253.516 131H254.961V124.938C255.06 124.755 255.174 124.589 255.305 124.438C255.44 124.286 255.586 124.154 255.742 124.039C255.935 123.909 256.146 123.807 256.375 123.734C256.604 123.656 256.852 123.617 257.117 123.617C257.424 123.617 257.695 123.654 257.93 123.727C258.169 123.799 258.372 123.917 258.539 124.078C258.701 124.24 258.823 124.451 258.906 124.711C258.99 124.971 259.031 125.289 259.031 125.664V131H260.477V125.633C260.477 125.07 260.406 124.586 260.266 124.18C260.13 123.768 259.935 123.43 259.68 123.164C259.424 122.898 259.115 122.703 258.75 122.578C258.391 122.453 257.99 122.391 257.547 122.391C257.219 122.396 256.906 122.445 256.609 122.539C256.318 122.628 256.047 122.755 255.797 122.922C255.63 123.031 255.471 123.161 255.32 123.312C255.174 123.458 255.039 123.62 254.914 123.797L254.812 122.547H253.516V131ZM268.68 131H270.188V130.875C270.094 130.641 270.021 130.367 269.969 130.055C269.917 129.737 269.891 129.438 269.891 129.156V125.227C269.891 124.753 269.805 124.339 269.633 123.984C269.461 123.63 269.227 123.333 268.93 123.094C268.628 122.859 268.271 122.685 267.859 122.57C267.448 122.451 267.003 122.391 266.523 122.391C265.997 122.391 265.526 122.464 265.109 122.609C264.698 122.755 264.349 122.945 264.062 123.18C263.771 123.419 263.547 123.688 263.391 123.984C263.24 124.281 263.161 124.583 263.156 124.891H264.609C264.609 124.714 264.651 124.544 264.734 124.383C264.823 124.216 264.945 124.073 265.102 123.953C265.258 123.833 265.448 123.737 265.672 123.664C265.901 123.591 266.159 123.555 266.445 123.555C266.753 123.555 267.029 123.594 267.273 123.672C267.523 123.75 267.734 123.859 267.906 124C268.078 124.146 268.211 124.32 268.305 124.523C268.398 124.727 268.445 124.956 268.445 125.211V125.875H266.867C266.279 125.875 265.745 125.932 265.266 126.047C264.792 126.161 264.385 126.333 264.047 126.562C263.708 126.797 263.445 127.089 263.258 127.438C263.076 127.786 262.984 128.193 262.984 128.656C262.984 129.01 263.052 129.341 263.188 129.648C263.328 129.951 263.526 130.211 263.781 130.43C264.031 130.654 264.336 130.831 264.695 130.961C265.06 131.091 265.466 131.156 265.914 131.156C266.19 131.156 266.451 131.128 266.695 131.07C266.94 131.013 267.172 130.935 267.391 130.836C267.604 130.737 267.799 130.622 267.977 130.492C268.159 130.362 268.323 130.224 268.469 130.078C268.484 130.255 268.508 130.427 268.539 130.594C268.576 130.755 268.622 130.891 268.68 131ZM266.125 129.898C265.844 129.898 265.596 129.862 265.383 129.789C265.169 129.716 264.992 129.615 264.852 129.484C264.711 129.359 264.604 129.208 264.531 129.031C264.464 128.854 264.43 128.661 264.43 128.453C264.43 128.234 264.469 128.039 264.547 127.867C264.63 127.695 264.75 127.547 264.906 127.422C265.125 127.245 265.419 127.115 265.789 127.031C266.164 126.943 266.602 126.898 267.102 126.898H268.445V128.609C268.362 128.776 268.247 128.938 268.102 129.094C267.956 129.245 267.784 129.38 267.586 129.5C267.383 129.62 267.159 129.716 266.914 129.789C266.669 129.862 266.406 129.898 266.125 129.898ZM276.156 120.5H274.703V122.547H272.484V123.664H274.703V128.258C274.703 128.779 274.771 129.224 274.906 129.594C275.047 129.958 275.237 130.255 275.477 130.484C275.716 130.719 275.997 130.891 276.32 131C276.648 131.104 277 131.156 277.375 131.156C277.599 131.156 277.823 131.146 278.047 131.125C278.276 131.104 278.492 131.073 278.695 131.031C278.898 130.995 279.086 130.951 279.258 130.898C279.43 130.841 279.576 130.776 279.695 130.703L279.492 129.68C279.404 129.701 279.289 129.727 279.148 129.758C279.013 129.784 278.867 129.81 278.711 129.836C278.549 129.862 278.385 129.885 278.219 129.906C278.052 129.922 277.891 129.93 277.734 129.93C277.521 129.93 277.318 129.904 277.125 129.852C276.938 129.799 276.771 129.708 276.625 129.578C276.479 129.453 276.365 129.284 276.281 129.07C276.198 128.857 276.156 128.586 276.156 128.258V123.664H279.375V122.547H276.156V120.5ZM286.078 131.156C286.901 131.156 287.591 130.992 288.148 130.664C288.711 130.331 289.133 129.951 289.414 129.523L288.531 128.836C288.266 129.18 287.932 129.456 287.531 129.664C287.13 129.872 286.672 129.977 286.156 129.977C285.766 129.977 285.409 129.904 285.086 129.758C284.763 129.612 284.487 129.411 284.258 129.156C284.034 128.917 283.857 128.641 283.727 128.328C283.602 128.016 283.521 127.654 283.484 127.242V127.188H289.523V126.539C289.523 125.951 289.448 125.404 289.297 124.898C289.151 124.393 288.927 123.953 288.625 123.578C288.323 123.208 287.943 122.919 287.484 122.711C287.031 122.497 286.5 122.391 285.891 122.391C285.406 122.391 284.932 122.49 284.469 122.688C284.01 122.885 283.602 123.169 283.242 123.539C282.878 123.914 282.586 124.372 282.367 124.914C282.148 125.451 282.039 126.06 282.039 126.742V127.07C282.039 127.659 282.138 128.203 282.336 128.703C282.534 129.203 282.81 129.635 283.164 130C283.518 130.365 283.943 130.648 284.438 130.852C284.938 131.055 285.484 131.156 286.078 131.156ZM285.891 123.578C286.26 123.578 286.578 123.646 286.844 123.781C287.115 123.917 287.339 124.094 287.516 124.312C287.693 124.531 287.831 124.792 287.93 125.094C288.029 125.391 288.078 125.669 288.078 125.93V126H283.531C283.589 125.609 283.688 125.266 283.828 124.969C283.974 124.667 284.151 124.411 284.359 124.203C284.568 124 284.802 123.846 285.062 123.742C285.323 123.633 285.599 123.578 285.891 123.578ZM114.844 143.547H113.547V152H114.922V145.273C114.953 145.19 114.992 145.112 115.039 145.039C115.091 144.966 115.151 144.901 115.219 144.844C115.307 144.771 115.414 144.716 115.539 144.68C115.669 144.638 115.82 144.617 115.992 144.617C116.148 144.617 116.284 144.638 116.398 144.68C116.518 144.716 116.617 144.776 116.695 144.859C116.779 144.948 116.839 145.06 116.875 145.195C116.917 145.331 116.938 145.487 116.938 145.664V152H118.312V145.672C118.312 145.641 118.312 145.615 118.312 145.594C118.312 145.568 118.312 145.542 118.312 145.516C118.328 145.385 118.359 145.268 118.406 145.164C118.453 145.055 118.518 144.958 118.602 144.875C118.685 144.797 118.789 144.734 118.914 144.688C119.039 144.641 119.188 144.617 119.359 144.617C119.521 144.617 119.661 144.638 119.781 144.68C119.906 144.721 120.01 144.784 120.094 144.867C120.172 144.956 120.232 145.068 120.273 145.203C120.315 145.339 120.336 145.495 120.336 145.672V152H121.711V145.688C121.711 145.281 121.664 144.93 121.57 144.633C121.477 144.331 121.341 144.086 121.164 143.898C121.003 143.732 120.805 143.607 120.57 143.523C120.336 143.435 120.073 143.391 119.781 143.391C119.568 143.396 119.37 143.424 119.188 143.477C119.01 143.529 118.849 143.599 118.703 143.688C118.589 143.766 118.482 143.857 118.383 143.961C118.284 144.065 118.198 144.177 118.125 144.297C118.068 144.167 117.997 144.049 117.914 143.945C117.836 143.841 117.747 143.753 117.648 143.68C117.513 143.586 117.354 143.516 117.172 143.469C116.995 143.417 116.794 143.391 116.57 143.391C116.174 143.396 115.836 143.482 115.555 143.648C115.279 143.815 115.055 144.047 114.883 144.344L114.844 143.547ZM127.523 152.156C128.346 152.156 129.036 151.992 129.594 151.664C130.156 151.331 130.578 150.951 130.859 150.523L129.977 149.836C129.711 150.18 129.378 150.456 128.977 150.664C128.576 150.872 128.117 150.977 127.602 150.977C127.211 150.977 126.854 150.904 126.531 150.758C126.208 150.612 125.932 150.411 125.703 150.156C125.479 149.917 125.302 149.641 125.172 149.328C125.047 149.016 124.966 148.654 124.93 148.242V148.188H130.969V147.539C130.969 146.951 130.893 146.404 130.742 145.898C130.596 145.393 130.372 144.953 130.07 144.578C129.768 144.208 129.388 143.919 128.93 143.711C128.477 143.497 127.945 143.391 127.336 143.391C126.852 143.391 126.378 143.49 125.914 143.688C125.456 143.885 125.047 144.169 124.688 144.539C124.323 144.914 124.031 145.372 123.812 145.914C123.594 146.451 123.484 147.06 123.484 147.742V148.07C123.484 148.659 123.583 149.203 123.781 149.703C123.979 150.203 124.255 150.635 124.609 151C124.964 151.365 125.388 151.648 125.883 151.852C126.383 152.055 126.93 152.156 127.523 152.156ZM127.336 144.578C127.706 144.578 128.023 144.646 128.289 144.781C128.56 144.917 128.784 145.094 128.961 145.312C129.138 145.531 129.276 145.792 129.375 146.094C129.474 146.391 129.523 146.669 129.523 146.93V147H124.977C125.034 146.609 125.133 146.266 125.273 145.969C125.419 145.667 125.596 145.411 125.805 145.203C126.013 145 126.247 144.846 126.508 144.742C126.768 144.633 127.044 144.578 127.336 144.578ZM136.82 141.5H135.367V143.547H133.148V144.664H135.367V149.258C135.367 149.779 135.435 150.224 135.57 150.594C135.711 150.958 135.901 151.255 136.141 151.484C136.38 151.719 136.661 151.891 136.984 152C137.312 152.104 137.664 152.156 138.039 152.156C138.263 152.156 138.487 152.146 138.711 152.125C138.94 152.104 139.156 152.073 139.359 152.031C139.562 151.995 139.75 151.951 139.922 151.898C140.094 151.841 140.24 151.776 140.359 151.703L140.156 150.68C140.068 150.701 139.953 150.727 139.812 150.758C139.677 150.784 139.531 150.81 139.375 150.836C139.214 150.862 139.049 150.885 138.883 150.906C138.716 150.922 138.555 150.93 138.398 150.93C138.185 150.93 137.982 150.904 137.789 150.852C137.602 150.799 137.435 150.708 137.289 150.578C137.143 150.453 137.029 150.284 136.945 150.07C136.862 149.857 136.82 149.586 136.82 149.258V144.664H140.039V143.547H136.82V141.5ZM144.453 144.805V140H143.008V152H144.453V145.859C144.557 145.693 144.674 145.542 144.805 145.406C144.94 145.266 145.086 145.143 145.242 145.039C145.44 144.904 145.656 144.799 145.891 144.727C146.125 144.654 146.372 144.617 146.633 144.617C146.951 144.612 147.232 144.656 147.477 144.75C147.721 144.839 147.924 144.974 148.086 145.156C148.237 145.323 148.352 145.534 148.43 145.789C148.508 146.039 148.547 146.331 148.547 146.664V152H149.992V146.68C149.992 146.112 149.922 145.622 149.781 145.211C149.646 144.794 149.451 144.451 149.195 144.18C148.94 143.909 148.63 143.711 148.266 143.586C147.906 143.456 147.505 143.391 147.062 143.391C146.724 143.396 146.404 143.445 146.102 143.539C145.805 143.633 145.531 143.771 145.281 143.953C145.125 144.062 144.977 144.19 144.836 144.336C144.695 144.477 144.568 144.633 144.453 144.805ZM152.211 147.695V147.867C152.211 148.477 152.299 149.042 152.477 149.562C152.654 150.083 152.909 150.536 153.242 150.922C153.57 151.307 153.971 151.609 154.445 151.828C154.924 152.047 155.464 152.156 156.062 152.156C156.656 152.156 157.19 152.047 157.664 151.828C158.138 151.609 158.542 151.307 158.875 150.922C159.203 150.536 159.456 150.083 159.633 149.562C159.81 149.042 159.898 148.477 159.898 147.867V147.695C159.898 147.086 159.81 146.521 159.633 146C159.456 145.474 159.203 145.018 158.875 144.633C158.542 144.247 158.135 143.945 157.656 143.727C157.182 143.503 156.646 143.391 156.047 143.391C155.453 143.391 154.919 143.503 154.445 143.727C153.971 143.945 153.57 144.247 153.242 144.633C152.909 145.018 152.654 145.474 152.477 146C152.299 146.521 152.211 147.086 152.211 147.695ZM153.656 147.867V147.695C153.656 147.284 153.706 146.891 153.805 146.516C153.904 146.135 154.055 145.802 154.258 145.516C154.456 145.229 154.703 145.003 155 144.836C155.297 144.664 155.646 144.578 156.047 144.578C156.448 144.578 156.797 144.664 157.094 144.836C157.396 145.003 157.648 145.229 157.852 145.516C158.049 145.802 158.198 146.135 158.297 146.516C158.401 146.891 158.453 147.284 158.453 147.695V147.867C158.453 148.284 158.404 148.682 158.305 149.062C158.206 149.438 158.057 149.768 157.859 150.055C157.656 150.341 157.404 150.568 157.102 150.734C156.805 150.901 156.458 150.984 156.062 150.984C155.661 150.984 155.31 150.901 155.008 150.734C154.706 150.568 154.456 150.341 154.258 150.055C154.055 149.768 153.904 149.438 153.805 149.062C153.706 148.682 153.656 148.284 153.656 147.867ZM161.953 147.703V147.867C161.953 148.471 162.034 149.036 162.195 149.562C162.357 150.083 162.583 150.536 162.875 150.922C163.167 151.307 163.518 151.609 163.93 151.828C164.346 152.047 164.81 152.156 165.32 152.156C165.841 152.156 166.297 152.068 166.688 151.891C167.078 151.714 167.414 151.453 167.695 151.109L167.758 152H169.086V140H167.641V144.383C167.365 144.06 167.036 143.815 166.656 143.648C166.281 143.477 165.841 143.391 165.336 143.391C164.82 143.391 164.354 143.497 163.938 143.711C163.521 143.924 163.167 144.221 162.875 144.602C162.578 144.982 162.349 145.438 162.188 145.969C162.031 146.495 161.953 147.073 161.953 147.703ZM163.398 147.867V147.703C163.398 147.292 163.443 146.901 163.531 146.531C163.62 146.156 163.758 145.826 163.945 145.539C164.128 145.258 164.362 145.034 164.648 144.867C164.94 144.701 165.289 144.617 165.695 144.617C166.169 144.617 166.565 144.729 166.883 144.953C167.201 145.172 167.453 145.453 167.641 145.797V149.719C167.453 150.089 167.201 150.383 166.883 150.602C166.565 150.82 166.164 150.93 165.68 150.93C165.279 150.93 164.935 150.849 164.648 150.688C164.362 150.521 164.128 150.297 163.945 150.016C163.758 149.734 163.62 149.409 163.531 149.039C163.443 148.669 163.398 148.279 163.398 147.867ZM181.039 147.695V147.867C181.039 148.477 181.128 149.042 181.305 149.562C181.482 150.083 181.737 150.536 182.07 150.922C182.398 151.307 182.799 151.609 183.273 151.828C183.753 152.047 184.292 152.156 184.891 152.156C185.484 152.156 186.018 152.047 186.492 151.828C186.966 151.609 187.37 151.307 187.703 150.922C188.031 150.536 188.284 150.083 188.461 149.562C188.638 149.042 188.727 148.477 188.727 147.867V147.695C188.727 147.086 188.638 146.521 188.461 146C188.284 145.474 188.031 145.018 187.703 144.633C187.37 144.247 186.964 143.945 186.484 143.727C186.01 143.503 185.474 143.391 184.875 143.391C184.281 143.391 183.747 143.503 183.273 143.727C182.799 143.945 182.398 144.247 182.07 144.633C181.737 145.018 181.482 145.474 181.305 146C181.128 146.521 181.039 147.086 181.039 147.695ZM182.484 147.867V147.695C182.484 147.284 182.534 146.891 182.633 146.516C182.732 146.135 182.883 145.802 183.086 145.516C183.284 145.229 183.531 145.003 183.828 144.836C184.125 144.664 184.474 144.578 184.875 144.578C185.276 144.578 185.625 144.664 185.922 144.836C186.224 145.003 186.477 145.229 186.68 145.516C186.878 145.802 187.026 146.135 187.125 146.516C187.229 146.891 187.281 147.284 187.281 147.695V147.867C187.281 148.284 187.232 148.682 187.133 149.062C187.034 149.438 186.885 149.768 186.688 150.055C186.484 150.341 186.232 150.568 185.93 150.734C185.633 150.901 185.286 150.984 184.891 150.984C184.49 150.984 184.138 150.901 183.836 150.734C183.534 150.568 183.284 150.341 183.086 150.055C182.883 149.768 182.732 149.438 182.633 149.062C182.534 148.682 182.484 148.284 182.484 147.867ZM193.211 152H194.664V144.664H197.922V143.547H194.664V142.953C194.664 142.599 194.708 142.289 194.797 142.023C194.891 141.758 195.026 141.542 195.203 141.375C195.37 141.214 195.578 141.094 195.828 141.016C196.083 140.932 196.375 140.891 196.703 140.891C197.026 140.891 197.328 140.919 197.609 140.977C197.896 141.029 198.146 141.091 198.359 141.164L198.531 139.969C198.396 139.932 198.263 139.901 198.133 139.875C198.003 139.844 197.872 139.815 197.742 139.789C197.544 139.753 197.344 139.724 197.141 139.703C196.938 139.677 196.732 139.664 196.523 139.664C196.023 139.664 195.57 139.734 195.164 139.875C194.758 140.016 194.411 140.224 194.125 140.5C193.833 140.776 193.607 141.12 193.445 141.531C193.289 141.938 193.211 142.411 193.211 142.953V143.547H190.883V144.664H193.211V152ZM213.695 141.5H212.242V143.547H210.023V144.664H212.242V149.258C212.242 149.779 212.31 150.224 212.445 150.594C212.586 150.958 212.776 151.255 213.016 151.484C213.255 151.719 213.536 151.891 213.859 152C214.188 152.104 214.539 152.156 214.914 152.156C215.138 152.156 215.362 152.146 215.586 152.125C215.815 152.104 216.031 152.073 216.234 152.031C216.438 151.995 216.625 151.951 216.797 151.898C216.969 151.841 217.115 151.776 217.234 151.703L217.031 150.68C216.943 150.701 216.828 150.727 216.688 150.758C216.552 150.784 216.406 150.81 216.25 150.836C216.089 150.862 215.924 150.885 215.758 150.906C215.591 150.922 215.43 150.93 215.273 150.93C215.06 150.93 214.857 150.904 214.664 150.852C214.477 150.799 214.31 150.708 214.164 150.578C214.018 150.453 213.904 150.284 213.82 150.07C213.737 149.857 213.695 149.586 213.695 149.258V144.664H216.914V143.547H213.695V141.5ZM225.422 143.391C224.807 143.391 224.258 143.526 223.773 143.797C223.294 144.062 222.883 144.427 222.539 144.891L222.531 144.68L222.469 143.547H221.094V152H222.547V146.578C222.641 146.318 222.758 146.083 222.898 145.875C223.044 145.661 223.214 145.482 223.406 145.336C223.62 145.169 223.87 145.044 224.156 144.961C224.443 144.872 224.763 144.828 225.117 144.828C225.393 144.828 225.656 144.844 225.906 144.875C226.161 144.901 226.43 144.945 226.711 145.008L226.906 143.594C226.76 143.531 226.542 143.482 226.25 143.445C225.964 143.409 225.688 143.391 225.422 143.391ZM235.047 152H236.555V151.875C236.461 151.641 236.388 151.367 236.336 151.055C236.284 150.737 236.258 150.438 236.258 150.156V146.227C236.258 145.753 236.172 145.339 236 144.984C235.828 144.63 235.594 144.333 235.297 144.094C234.995 143.859 234.638 143.685 234.227 143.57C233.815 143.451 233.37 143.391 232.891 143.391C232.365 143.391 231.893 143.464 231.477 143.609C231.065 143.755 230.716 143.945 230.43 144.18C230.138 144.419 229.914 144.688 229.758 144.984C229.607 145.281 229.529 145.583 229.523 145.891H230.977C230.977 145.714 231.018 145.544 231.102 145.383C231.19 145.216 231.312 145.073 231.469 144.953C231.625 144.833 231.815 144.737 232.039 144.664C232.268 144.591 232.526 144.555 232.812 144.555C233.12 144.555 233.396 144.594 233.641 144.672C233.891 144.75 234.102 144.859 234.273 145C234.445 145.146 234.578 145.32 234.672 145.523C234.766 145.727 234.812 145.956 234.812 146.211V146.875H233.234C232.646 146.875 232.112 146.932 231.633 147.047C231.159 147.161 230.753 147.333 230.414 147.562C230.076 147.797 229.812 148.089 229.625 148.438C229.443 148.786 229.352 149.193 229.352 149.656C229.352 150.01 229.419 150.341 229.555 150.648C229.695 150.951 229.893 151.211 230.148 151.43C230.398 151.654 230.703 151.831 231.062 151.961C231.427 152.091 231.833 152.156 232.281 152.156C232.557 152.156 232.818 152.128 233.062 152.07C233.307 152.013 233.539 151.935 233.758 151.836C233.971 151.737 234.167 151.622 234.344 151.492C234.526 151.362 234.69 151.224 234.836 151.078C234.852 151.255 234.875 151.427 234.906 151.594C234.943 151.755 234.99 151.891 235.047 152ZM232.492 150.898C232.211 150.898 231.964 150.862 231.75 150.789C231.536 150.716 231.359 150.615 231.219 150.484C231.078 150.359 230.971 150.208 230.898 150.031C230.831 149.854 230.797 149.661 230.797 149.453C230.797 149.234 230.836 149.039 230.914 148.867C230.997 148.695 231.117 148.547 231.273 148.422C231.492 148.245 231.786 148.115 232.156 148.031C232.531 147.943 232.969 147.898 233.469 147.898H234.812V149.609C234.729 149.776 234.615 149.938 234.469 150.094C234.323 150.245 234.151 150.38 233.953 150.5C233.75 150.62 233.526 150.716 233.281 150.789C233.036 150.862 232.773 150.898 232.492 150.898ZM241.984 152H243.086L246.531 143.547H245.055L242.688 149.922L242.547 150.445L242.414 149.922L239.992 143.547H238.508L241.984 152ZM252.445 152.156C253.268 152.156 253.958 151.992 254.516 151.664C255.078 151.331 255.5 150.951 255.781 150.523L254.898 149.836C254.633 150.18 254.299 150.456 253.898 150.664C253.497 150.872 253.039 150.977 252.523 150.977C252.133 150.977 251.776 150.904 251.453 150.758C251.13 150.612 250.854 150.411 250.625 150.156C250.401 149.917 250.224 149.641 250.094 149.328C249.969 149.016 249.888 148.654 249.852 148.242V148.188H255.891V147.539C255.891 146.951 255.815 146.404 255.664 145.898C255.518 145.393 255.294 144.953 254.992 144.578C254.69 144.208 254.31 143.919 253.852 143.711C253.398 143.497 252.867 143.391 252.258 143.391C251.773 143.391 251.299 143.49 250.836 143.688C250.378 143.885 249.969 144.169 249.609 144.539C249.245 144.914 248.953 145.372 248.734 145.914C248.516 146.451 248.406 147.06 248.406 147.742V148.07C248.406 148.659 248.505 149.203 248.703 149.703C248.901 150.203 249.177 150.635 249.531 151C249.885 151.365 250.31 151.648 250.805 151.852C251.305 152.055 251.852 152.156 252.445 152.156ZM252.258 144.578C252.628 144.578 252.945 144.646 253.211 144.781C253.482 144.917 253.706 145.094 253.883 145.312C254.06 145.531 254.198 145.792 254.297 146.094C254.396 146.391 254.445 146.669 254.445 146.93V147H249.898C249.956 146.609 250.055 146.266 250.195 145.969C250.341 145.667 250.518 145.411 250.727 145.203C250.935 145 251.169 144.846 251.43 144.742C251.69 144.633 251.966 144.578 252.258 144.578ZM258.547 140V141.258H261.422V150.75H258.547V152H265.625V150.75H262.867V140H258.547ZM269.734 139V140.188H271.469V153.25H269.734V154.438H272.836V139H269.734ZM134.148 173H135.656V172.875C135.562 172.641 135.49 172.367 135.438 172.055C135.385 171.737 135.359 171.438 135.359 171.156V167.227C135.359 166.753 135.273 166.339 135.102 165.984C134.93 165.63 134.695 165.333 134.398 165.094C134.096 164.859 133.74 164.685 133.328 164.57C132.917 164.451 132.471 164.391 131.992 164.391C131.466 164.391 130.995 164.464 130.578 164.609C130.167 164.755 129.818 164.945 129.531 165.18C129.24 165.419 129.016 165.688 128.859 165.984C128.708 166.281 128.63 166.583 128.625 166.891H130.078C130.078 166.714 130.12 166.544 130.203 166.383C130.292 166.216 130.414 166.073 130.57 165.953C130.727 165.833 130.917 165.737 131.141 165.664C131.37 165.591 131.628 165.555 131.914 165.555C132.221 165.555 132.497 165.594 132.742 165.672C132.992 165.75 133.203 165.859 133.375 166C133.547 166.146 133.68 166.32 133.773 166.523C133.867 166.727 133.914 166.956 133.914 167.211V167.875H132.336C131.747 167.875 131.214 167.932 130.734 168.047C130.26 168.161 129.854 168.333 129.516 168.562C129.177 168.797 128.914 169.089 128.727 169.438C128.544 169.786 128.453 170.193 128.453 170.656C128.453 171.01 128.521 171.341 128.656 171.648C128.797 171.951 128.995 172.211 129.25 172.43C129.5 172.654 129.805 172.831 130.164 172.961C130.529 173.091 130.935 173.156 131.383 173.156C131.659 173.156 131.919 173.128 132.164 173.07C132.409 173.013 132.641 172.935 132.859 172.836C133.073 172.737 133.268 172.622 133.445 172.492C133.628 172.362 133.792 172.224 133.938 172.078C133.953 172.255 133.977 172.427 134.008 172.594C134.044 172.755 134.091 172.891 134.148 173ZM131.594 171.898C131.312 171.898 131.065 171.862 130.852 171.789C130.638 171.716 130.461 171.615 130.32 171.484C130.18 171.359 130.073 171.208 130 171.031C129.932 170.854 129.898 170.661 129.898 170.453C129.898 170.234 129.938 170.039 130.016 169.867C130.099 169.695 130.219 169.547 130.375 169.422C130.594 169.245 130.888 169.115 131.258 169.031C131.633 168.943 132.07 168.898 132.57 168.898H133.914V170.609C133.831 170.776 133.716 170.938 133.57 171.094C133.424 171.245 133.253 171.38 133.055 171.5C132.852 171.62 132.628 171.716 132.383 171.789C132.138 171.862 131.875 171.898 131.594 171.898ZM138.203 173H139.648V166.938C139.747 166.755 139.862 166.589 139.992 166.438C140.128 166.286 140.273 166.154 140.43 166.039C140.622 165.909 140.833 165.807 141.062 165.734C141.292 165.656 141.539 165.617 141.805 165.617C142.112 165.617 142.383 165.654 142.617 165.727C142.857 165.799 143.06 165.917 143.227 166.078C143.388 166.24 143.51 166.451 143.594 166.711C143.677 166.971 143.719 167.289 143.719 167.664V173H145.164V167.633C145.164 167.07 145.094 166.586 144.953 166.18C144.818 165.768 144.622 165.43 144.367 165.164C144.112 164.898 143.802 164.703 143.438 164.578C143.078 164.453 142.677 164.391 142.234 164.391C141.906 164.396 141.594 164.445 141.297 164.539C141.005 164.628 140.734 164.755 140.484 164.922C140.318 165.031 140.159 165.161 140.008 165.312C139.862 165.458 139.727 165.62 139.602 165.797L139.5 164.547H138.203V173ZM147.539 168.703V168.867C147.539 169.471 147.62 170.036 147.781 170.562C147.943 171.083 148.169 171.536 148.461 171.922C148.753 172.307 149.104 172.609 149.516 172.828C149.932 173.047 150.396 173.156 150.906 173.156C151.427 173.156 151.883 173.068 152.273 172.891C152.664 172.714 153 172.453 153.281 172.109L153.344 173H154.672V161H153.227V165.383C152.951 165.06 152.622 164.815 152.242 164.648C151.867 164.477 151.427 164.391 150.922 164.391C150.406 164.391 149.94 164.497 149.523 164.711C149.107 164.924 148.753 165.221 148.461 165.602C148.164 165.982 147.935 166.438 147.773 166.969C147.617 167.495 147.539 168.073 147.539 168.703ZM148.984 168.867V168.703C148.984 168.292 149.029 167.901 149.117 167.531C149.206 167.156 149.344 166.826 149.531 166.539C149.714 166.258 149.948 166.034 150.234 165.867C150.526 165.701 150.875 165.617 151.281 165.617C151.755 165.617 152.151 165.729 152.469 165.953C152.786 166.172 153.039 166.453 153.227 166.797V170.719C153.039 171.089 152.786 171.383 152.469 171.602C152.151 171.82 151.75 171.93 151.266 171.93C150.865 171.93 150.521 171.849 150.234 171.688C149.948 171.521 149.714 171.297 149.531 171.016C149.344 170.734 149.206 170.409 149.117 170.039C149.029 169.669 148.984 169.279 148.984 168.867ZM174.195 168.867V168.703C174.195 168.26 174.159 167.841 174.086 167.445C174.013 167.044 173.906 166.68 173.766 166.352C173.63 166.06 173.474 165.797 173.297 165.562C173.12 165.323 172.919 165.12 172.695 164.953C172.445 164.776 172.167 164.638 171.859 164.539C171.552 164.44 171.216 164.391 170.852 164.391C170.56 164.391 170.289 164.419 170.039 164.477C169.789 164.534 169.56 164.617 169.352 164.727C169.185 164.815 169.029 164.922 168.883 165.047C168.737 165.167 168.604 165.302 168.484 165.453V161H167.039V173H168.367L168.438 172.039C168.531 172.159 168.63 172.268 168.734 172.367C168.839 172.466 168.948 172.557 169.062 172.641C169.302 172.807 169.57 172.935 169.867 173.023C170.169 173.112 170.503 173.156 170.867 173.156C171.185 173.156 171.479 173.117 171.75 173.039C172.026 172.961 172.279 172.852 172.508 172.711C172.826 172.508 173.096 172.253 173.32 171.945C173.549 171.633 173.734 171.281 173.875 170.891C173.979 170.594 174.057 170.276 174.109 169.938C174.167 169.594 174.195 169.237 174.195 168.867ZM172.75 168.703V168.867C172.75 169.117 172.734 169.362 172.703 169.602C172.672 169.841 172.622 170.065 172.555 170.273C172.471 170.549 172.359 170.799 172.219 171.023C172.078 171.247 171.904 171.432 171.695 171.578C171.539 171.693 171.362 171.781 171.164 171.844C170.966 171.901 170.747 171.93 170.508 171.93C170.258 171.93 170.029 171.898 169.82 171.836C169.612 171.768 169.424 171.674 169.258 171.555C169.091 171.435 168.943 171.297 168.812 171.141C168.688 170.979 168.578 170.805 168.484 170.617V166.922C168.573 166.734 168.68 166.562 168.805 166.406C168.935 166.245 169.083 166.104 169.25 165.984C169.411 165.87 169.596 165.781 169.805 165.719C170.013 165.651 170.242 165.617 170.492 165.617C170.721 165.617 170.93 165.643 171.117 165.695C171.305 165.747 171.474 165.82 171.625 165.914C171.844 166.044 172.029 166.224 172.18 166.453C172.331 166.682 172.453 166.935 172.547 167.211C172.615 167.435 172.664 167.674 172.695 167.93C172.732 168.18 172.75 168.438 172.75 168.703ZM182.211 173H183.523V164.547H182.07V170.609C181.992 170.792 181.893 170.961 181.773 171.117C181.659 171.268 181.523 171.398 181.367 171.508C181.18 171.643 180.958 171.75 180.703 171.828C180.448 171.901 180.159 171.938 179.836 171.938C179.56 171.938 179.315 171.901 179.102 171.828C178.893 171.755 178.716 171.628 178.57 171.445C178.424 171.268 178.315 171.029 178.242 170.727C178.169 170.424 178.133 170.044 178.133 169.586V164.547H176.688V169.57C176.688 170.201 176.755 170.742 176.891 171.195C177.031 171.643 177.229 172.013 177.484 172.305C177.74 172.596 178.047 172.812 178.406 172.953C178.766 173.089 179.167 173.156 179.609 173.156C180.161 173.156 180.648 173.042 181.07 172.812C181.492 172.578 181.844 172.253 182.125 171.836L182.211 173ZM186.93 176.414C187.31 176.414 187.646 176.344 187.938 176.203C188.229 176.062 188.484 175.888 188.703 175.68C188.922 175.471 189.107 175.245 189.258 175C189.414 174.755 189.542 174.523 189.641 174.305L193.93 164.547H192.312L190.133 170.031L189.734 171.023L189.359 170L187.039 164.547H185.422L189.062 172.602L188.484 173.727C188.432 173.831 188.359 173.964 188.266 174.125C188.177 174.286 188.07 174.443 187.945 174.594C187.815 174.745 187.667 174.875 187.5 174.984C187.339 175.094 187.159 175.148 186.961 175.148C186.888 175.148 186.786 175.143 186.656 175.133C186.531 175.128 186.404 175.12 186.273 175.109L186.039 176.289C186.133 176.31 186.271 176.336 186.453 176.367C186.635 176.398 186.794 176.414 186.93 176.414ZM211.023 173H212.531V172.875C212.438 172.641 212.365 172.367 212.312 172.055C212.26 171.737 212.234 171.438 212.234 171.156V167.227C212.234 166.753 212.148 166.339 211.977 165.984C211.805 165.63 211.57 165.333 211.273 165.094C210.971 164.859 210.615 164.685 210.203 164.57C209.792 164.451 209.346 164.391 208.867 164.391C208.341 164.391 207.87 164.464 207.453 164.609C207.042 164.755 206.693 164.945 206.406 165.18C206.115 165.419 205.891 165.688 205.734 165.984C205.583 166.281 205.505 166.583 205.5 166.891H206.953C206.953 166.714 206.995 166.544 207.078 166.383C207.167 166.216 207.289 166.073 207.445 165.953C207.602 165.833 207.792 165.737 208.016 165.664C208.245 165.591 208.503 165.555 208.789 165.555C209.096 165.555 209.372 165.594 209.617 165.672C209.867 165.75 210.078 165.859 210.25 166C210.422 166.146 210.555 166.32 210.648 166.523C210.742 166.727 210.789 166.956 210.789 167.211V167.875H209.211C208.622 167.875 208.089 167.932 207.609 168.047C207.135 168.161 206.729 168.333 206.391 168.562C206.052 168.797 205.789 169.089 205.602 169.438C205.419 169.786 205.328 170.193 205.328 170.656C205.328 171.01 205.396 171.341 205.531 171.648C205.672 171.951 205.87 172.211 206.125 172.43C206.375 172.654 206.68 172.831 207.039 172.961C207.404 173.091 207.81 173.156 208.258 173.156C208.534 173.156 208.794 173.128 209.039 173.07C209.284 173.013 209.516 172.935 209.734 172.836C209.948 172.737 210.143 172.622 210.32 172.492C210.503 172.362 210.667 172.224 210.812 172.078C210.828 172.255 210.852 172.427 210.883 172.594C210.919 172.755 210.966 172.891 211.023 173ZM208.469 171.898C208.188 171.898 207.94 171.862 207.727 171.789C207.513 171.716 207.336 171.615 207.195 171.484C207.055 171.359 206.948 171.208 206.875 171.031C206.807 170.854 206.773 170.661 206.773 170.453C206.773 170.234 206.812 170.039 206.891 169.867C206.974 169.695 207.094 169.547 207.25 169.422C207.469 169.245 207.763 169.115 208.133 169.031C208.508 168.943 208.945 168.898 209.445 168.898H210.789V170.609C210.706 170.776 210.591 170.938 210.445 171.094C210.299 171.245 210.128 171.38 209.93 171.5C209.727 171.62 209.503 171.716 209.258 171.789C209.013 171.862 208.75 171.898 208.469 171.898ZM225.352 164.547H224.055V173H225.43V166.273C225.461 166.19 225.5 166.112 225.547 166.039C225.599 165.966 225.659 165.901 225.727 165.844C225.815 165.771 225.922 165.716 226.047 165.68C226.177 165.638 226.328 165.617 226.5 165.617C226.656 165.617 226.792 165.638 226.906 165.68C227.026 165.716 227.125 165.776 227.203 165.859C227.286 165.948 227.346 166.06 227.383 166.195C227.424 166.331 227.445 166.487 227.445 166.664V173H228.82V166.672C228.82 166.641 228.82 166.615 228.82 166.594C228.82 166.568 228.82 166.542 228.82 166.516C228.836 166.385 228.867 166.268 228.914 166.164C228.961 166.055 229.026 165.958 229.109 165.875C229.193 165.797 229.297 165.734 229.422 165.688C229.547 165.641 229.695 165.617 229.867 165.617C230.029 165.617 230.169 165.638 230.289 165.68C230.414 165.721 230.518 165.784 230.602 165.867C230.68 165.956 230.74 166.068 230.781 166.203C230.823 166.339 230.844 166.495 230.844 166.672V173H232.219V166.688C232.219 166.281 232.172 165.93 232.078 165.633C231.984 165.331 231.849 165.086 231.672 164.898C231.51 164.732 231.312 164.607 231.078 164.523C230.844 164.435 230.581 164.391 230.289 164.391C230.076 164.396 229.878 164.424 229.695 164.477C229.518 164.529 229.357 164.599 229.211 164.688C229.096 164.766 228.99 164.857 228.891 164.961C228.792 165.065 228.706 165.177 228.633 165.297C228.576 165.167 228.505 165.049 228.422 164.945C228.344 164.841 228.255 164.753 228.156 164.68C228.021 164.586 227.862 164.516 227.68 164.469C227.503 164.417 227.302 164.391 227.078 164.391C226.682 164.396 226.344 164.482 226.062 164.648C225.786 164.815 225.562 165.047 225.391 165.344L225.352 164.547ZM233.891 168.695V168.867C233.891 169.477 233.979 170.042 234.156 170.562C234.333 171.083 234.589 171.536 234.922 171.922C235.25 172.307 235.651 172.609 236.125 172.828C236.604 173.047 237.143 173.156 237.742 173.156C238.336 173.156 238.87 173.047 239.344 172.828C239.818 172.609 240.221 172.307 240.555 171.922C240.883 171.536 241.135 171.083 241.312 170.562C241.49 170.042 241.578 169.477 241.578 168.867V168.695C241.578 168.086 241.49 167.521 241.312 167C241.135 166.474 240.883 166.018 240.555 165.633C240.221 165.247 239.815 164.945 239.336 164.727C238.862 164.503 238.326 164.391 237.727 164.391C237.133 164.391 236.599 164.503 236.125 164.727C235.651 164.945 235.25 165.247 234.922 165.633C234.589 166.018 234.333 166.474 234.156 167C233.979 167.521 233.891 168.086 233.891 168.695ZM235.336 168.867V168.695C235.336 168.284 235.385 167.891 235.484 167.516C235.583 167.135 235.734 166.802 235.938 166.516C236.135 166.229 236.383 166.003 236.68 165.836C236.977 165.664 237.326 165.578 237.727 165.578C238.128 165.578 238.477 165.664 238.773 165.836C239.076 166.003 239.328 166.229 239.531 166.516C239.729 166.802 239.878 167.135 239.977 167.516C240.081 167.891 240.133 168.284 240.133 168.695V168.867C240.133 169.284 240.083 169.682 239.984 170.062C239.885 170.438 239.737 170.768 239.539 171.055C239.336 171.341 239.083 171.568 238.781 171.734C238.484 171.901 238.138 171.984 237.742 171.984C237.341 171.984 236.99 171.901 236.688 171.734C236.385 171.568 236.135 171.341 235.938 171.055C235.734 170.768 235.583 170.438 235.484 170.062C235.385 169.682 235.336 169.284 235.336 168.867ZM249.445 164.391C248.831 164.391 248.281 164.526 247.797 164.797C247.318 165.062 246.906 165.427 246.562 165.891L246.555 165.68L246.492 164.547H245.117V173H246.57V167.578C246.664 167.318 246.781 167.083 246.922 166.875C247.068 166.661 247.237 166.482 247.43 166.336C247.643 166.169 247.893 166.044 248.18 165.961C248.466 165.872 248.786 165.828 249.141 165.828C249.417 165.828 249.68 165.844 249.93 165.875C250.185 165.901 250.453 165.945 250.734 166.008L250.93 164.594C250.784 164.531 250.565 164.482 250.273 164.445C249.987 164.409 249.711 164.391 249.445 164.391ZM257.25 173.156C258.073 173.156 258.763 172.992 259.32 172.664C259.883 172.331 260.305 171.951 260.586 171.523L259.703 170.836C259.438 171.18 259.104 171.456 258.703 171.664C258.302 171.872 257.844 171.977 257.328 171.977C256.938 171.977 256.581 171.904 256.258 171.758C255.935 171.612 255.659 171.411 255.43 171.156C255.206 170.917 255.029 170.641 254.898 170.328C254.773 170.016 254.693 169.654 254.656 169.242V169.188H260.695V168.539C260.695 167.951 260.62 167.404 260.469 166.898C260.323 166.393 260.099 165.953 259.797 165.578C259.495 165.208 259.115 164.919 258.656 164.711C258.203 164.497 257.672 164.391 257.062 164.391C256.578 164.391 256.104 164.49 255.641 164.688C255.182 164.885 254.773 165.169 254.414 165.539C254.049 165.914 253.758 166.372 253.539 166.914C253.32 167.451 253.211 168.06 253.211 168.742V169.07C253.211 169.659 253.31 170.203 253.508 170.703C253.706 171.203 253.982 171.635 254.336 172C254.69 172.365 255.115 172.648 255.609 172.852C256.109 173.055 256.656 173.156 257.25 173.156ZM257.062 165.578C257.432 165.578 257.75 165.646 258.016 165.781C258.286 165.917 258.51 166.094 258.688 166.312C258.865 166.531 259.003 166.792 259.102 167.094C259.201 167.391 259.25 167.669 259.25 167.93V168H254.703C254.76 167.609 254.859 167.266 255 166.969C255.146 166.667 255.323 166.411 255.531 166.203C255.74 166 255.974 165.846 256.234 165.742C256.495 165.633 256.771 165.578 257.062 165.578ZM108.305 194.156C109.128 194.156 109.818 193.992 110.375 193.664C110.938 193.331 111.359 192.951 111.641 192.523L110.758 191.836C110.492 192.18 110.159 192.456 109.758 192.664C109.357 192.872 108.898 192.977 108.383 192.977C107.992 192.977 107.635 192.904 107.312 192.758C106.99 192.612 106.714 192.411 106.484 192.156C106.26 191.917 106.083 191.641 105.953 191.328C105.828 191.016 105.747 190.654 105.711 190.242V190.188H111.75V189.539C111.75 188.951 111.674 188.404 111.523 187.898C111.378 187.393 111.154 186.953 110.852 186.578C110.549 186.208 110.169 185.919 109.711 185.711C109.258 185.497 108.727 185.391 108.117 185.391C107.633 185.391 107.159 185.49 106.695 185.688C106.237 185.885 105.828 186.169 105.469 186.539C105.104 186.914 104.812 187.372 104.594 187.914C104.375 188.451 104.266 189.06 104.266 189.742V190.07C104.266 190.659 104.365 191.203 104.562 191.703C104.76 192.203 105.036 192.635 105.391 193C105.745 193.365 106.169 193.648 106.664 193.852C107.164 194.055 107.711 194.156 108.305 194.156ZM108.117 186.578C108.487 186.578 108.805 186.646 109.07 186.781C109.341 186.917 109.565 187.094 109.742 187.312C109.919 187.531 110.057 187.792 110.156 188.094C110.255 188.391 110.305 188.669 110.305 188.93V189H105.758C105.815 188.609 105.914 188.266 106.055 187.969C106.201 187.667 106.378 187.411 106.586 187.203C106.794 187 107.029 186.846 107.289 186.742C107.549 186.633 107.826 186.578 108.117 186.578ZM116.336 194H117.789V186.664H121.047V185.547H117.789V184.953C117.789 184.599 117.833 184.289 117.922 184.023C118.016 183.758 118.151 183.542 118.328 183.375C118.495 183.214 118.703 183.094 118.953 183.016C119.208 182.932 119.5 182.891 119.828 182.891C120.151 182.891 120.453 182.919 120.734 182.977C121.021 183.029 121.271 183.091 121.484 183.164L121.656 181.969C121.521 181.932 121.388 181.901 121.258 181.875C121.128 181.844 120.997 181.815 120.867 181.789C120.669 181.753 120.469 181.724 120.266 181.703C120.062 181.677 119.857 181.664 119.648 181.664C119.148 181.664 118.695 181.734 118.289 181.875C117.883 182.016 117.536 182.224 117.25 182.5C116.958 182.776 116.732 183.12 116.57 183.531C116.414 183.938 116.336 184.411 116.336 184.953V185.547H114.008V186.664H116.336V194ZM125.945 194H127.398V186.664H130.656V185.547H127.398V184.953C127.398 184.599 127.443 184.289 127.531 184.023C127.625 183.758 127.76 183.542 127.938 183.375C128.104 183.214 128.312 183.094 128.562 183.016C128.818 182.932 129.109 182.891 129.438 182.891C129.76 182.891 130.062 182.919 130.344 182.977C130.63 183.029 130.88 183.091 131.094 183.164L131.266 181.969C131.13 181.932 130.997 181.901 130.867 181.875C130.737 181.844 130.607 181.815 130.477 181.789C130.279 181.753 130.078 181.724 129.875 181.703C129.672 181.677 129.466 181.664 129.258 181.664C128.758 181.664 128.305 181.734 127.898 181.875C127.492 182.016 127.146 182.224 126.859 182.5C126.568 182.776 126.341 183.12 126.18 183.531C126.023 183.938 125.945 184.411 125.945 184.953V185.547H123.617V186.664H125.945V194ZM133.625 185.547V186.805H136.5V192.75H133.625V194H140.703V192.75H137.945V185.547H133.625ZM136.312 183.328C136.312 183.562 136.383 183.758 136.523 183.914C136.669 184.07 136.888 184.148 137.18 184.148C137.466 184.148 137.682 184.07 137.828 183.914C137.974 183.758 138.047 183.562 138.047 183.328C138.047 183.198 138.026 183.078 137.984 182.969C137.943 182.859 137.88 182.768 137.797 182.695C137.729 182.628 137.643 182.576 137.539 182.539C137.435 182.497 137.315 182.477 137.18 182.477C137.044 182.477 136.922 182.497 136.812 182.539C136.708 182.576 136.622 182.628 136.555 182.695C136.471 182.773 136.409 182.867 136.367 182.977C136.331 183.086 136.312 183.203 136.312 183.328ZM146.609 192.984C146.156 192.984 145.776 192.896 145.469 192.719C145.167 192.536 144.924 192.299 144.742 192.008C144.555 191.721 144.419 191.398 144.336 191.039C144.258 190.674 144.219 190.307 144.219 189.938V189.609C144.219 189.245 144.258 188.883 144.336 188.523C144.419 188.164 144.555 187.839 144.742 187.547C144.93 187.26 145.174 187.029 145.477 186.852C145.784 186.669 146.161 186.578 146.609 186.578C146.901 186.578 147.172 186.628 147.422 186.727C147.677 186.826 147.896 186.961 148.078 187.133C148.26 187.305 148.404 187.505 148.508 187.734C148.617 187.958 148.674 188.198 148.68 188.453H150.047C150.047 188.026 149.961 187.625 149.789 187.25C149.617 186.875 149.38 186.549 149.078 186.273C148.771 186.003 148.406 185.789 147.984 185.633C147.568 185.471 147.109 185.391 146.609 185.391C145.969 185.391 145.409 185.505 144.93 185.734C144.451 185.964 144.052 186.271 143.734 186.656C143.411 187.047 143.169 187.497 143.008 188.008C142.846 188.518 142.766 189.052 142.766 189.609V189.938C142.766 190.5 142.846 191.036 143.008 191.547C143.169 192.052 143.411 192.497 143.734 192.883C144.052 193.273 144.451 193.583 144.93 193.812C145.409 194.042 145.969 194.156 146.609 194.156C147.057 194.156 147.487 194.081 147.898 193.93C148.31 193.773 148.674 193.565 148.992 193.305C149.31 193.049 149.562 192.753 149.75 192.414C149.943 192.07 150.042 191.711 150.047 191.336H148.68C148.674 191.57 148.612 191.789 148.492 191.992C148.378 192.19 148.224 192.362 148.031 192.508C147.839 192.659 147.617 192.776 147.367 192.859C147.122 192.943 146.87 192.984 146.609 192.984ZM152.844 185.547V186.805H155.719V192.75H152.844V194H159.922V192.75H157.164V185.547H152.844ZM155.531 183.328C155.531 183.562 155.602 183.758 155.742 183.914C155.888 184.07 156.107 184.148 156.398 184.148C156.685 184.148 156.901 184.07 157.047 183.914C157.193 183.758 157.266 183.562 157.266 183.328C157.266 183.198 157.245 183.078 157.203 182.969C157.161 182.859 157.099 182.768 157.016 182.695C156.948 182.628 156.862 182.576 156.758 182.539C156.654 182.497 156.534 182.477 156.398 182.477C156.263 182.477 156.141 182.497 156.031 182.539C155.927 182.576 155.841 182.628 155.773 182.695C155.69 182.773 155.628 182.867 155.586 182.977C155.549 183.086 155.531 183.203 155.531 183.328ZM165.961 194.156C166.784 194.156 167.474 193.992 168.031 193.664C168.594 193.331 169.016 192.951 169.297 192.523L168.414 191.836C168.148 192.18 167.815 192.456 167.414 192.664C167.013 192.872 166.555 192.977 166.039 192.977C165.648 192.977 165.292 192.904 164.969 192.758C164.646 192.612 164.37 192.411 164.141 192.156C163.917 191.917 163.74 191.641 163.609 191.328C163.484 191.016 163.404 190.654 163.367 190.242V190.188H169.406V189.539C169.406 188.951 169.331 188.404 169.18 187.898C169.034 187.393 168.81 186.953 168.508 186.578C168.206 186.208 167.826 185.919 167.367 185.711C166.914 185.497 166.383 185.391 165.773 185.391C165.289 185.391 164.815 185.49 164.352 185.688C163.893 185.885 163.484 186.169 163.125 186.539C162.76 186.914 162.469 187.372 162.25 187.914C162.031 188.451 161.922 189.06 161.922 189.742V190.07C161.922 190.659 162.021 191.203 162.219 191.703C162.417 192.203 162.693 192.635 163.047 193C163.401 193.365 163.826 193.648 164.32 193.852C164.82 194.055 165.367 194.156 165.961 194.156ZM165.773 186.578C166.143 186.578 166.461 186.646 166.727 186.781C166.997 186.917 167.221 187.094 167.398 187.312C167.576 187.531 167.714 187.792 167.812 188.094C167.911 188.391 167.961 188.669 167.961 188.93V189H163.414C163.471 188.609 163.57 188.266 163.711 187.969C163.857 187.667 164.034 187.411 164.242 187.203C164.451 187 164.685 186.846 164.945 186.742C165.206 186.633 165.482 186.578 165.773 186.578ZM171.836 194H173.281V187.938C173.38 187.755 173.495 187.589 173.625 187.438C173.76 187.286 173.906 187.154 174.062 187.039C174.255 186.909 174.466 186.807 174.695 186.734C174.924 186.656 175.172 186.617 175.438 186.617C175.745 186.617 176.016 186.654 176.25 186.727C176.49 186.799 176.693 186.917 176.859 187.078C177.021 187.24 177.143 187.451 177.227 187.711C177.31 187.971 177.352 188.289 177.352 188.664V194H178.797V188.633C178.797 188.07 178.727 187.586 178.586 187.18C178.451 186.768 178.255 186.43 178 186.164C177.745 185.898 177.435 185.703 177.07 185.578C176.711 185.453 176.31 185.391 175.867 185.391C175.539 185.396 175.227 185.445 174.93 185.539C174.638 185.628 174.367 185.755 174.117 185.922C173.951 186.031 173.792 186.161 173.641 186.312C173.495 186.458 173.359 186.62 173.234 186.797L173.133 185.547H171.836V194ZM184.867 183.5H183.414V185.547H181.195V186.664H183.414V191.258C183.414 191.779 183.482 192.224 183.617 192.594C183.758 192.958 183.948 193.255 184.188 193.484C184.427 193.719 184.708 193.891 185.031 194C185.359 194.104 185.711 194.156 186.086 194.156C186.31 194.156 186.534 194.146 186.758 194.125C186.987 194.104 187.203 194.073 187.406 194.031C187.609 193.995 187.797 193.951 187.969 193.898C188.141 193.841 188.286 193.776 188.406 193.703L188.203 192.68C188.115 192.701 188 192.727 187.859 192.758C187.724 192.784 187.578 192.81 187.422 192.836C187.26 192.862 187.096 192.885 186.93 192.906C186.763 192.922 186.602 192.93 186.445 192.93C186.232 192.93 186.029 192.904 185.836 192.852C185.648 192.799 185.482 192.708 185.336 192.578C185.19 192.453 185.076 192.284 184.992 192.07C184.909 191.857 184.867 191.586 184.867 191.258V186.664H188.086V185.547H184.867V183.5ZM203.547 194H204.648L208.094 185.547H206.617L204.25 191.922L204.109 192.445L203.977 191.922L201.555 185.547H200.07L203.547 194ZM214.008 194.156C214.831 194.156 215.521 193.992 216.078 193.664C216.641 193.331 217.062 192.951 217.344 192.523L216.461 191.836C216.195 192.18 215.862 192.456 215.461 192.664C215.06 192.872 214.602 192.977 214.086 192.977C213.695 192.977 213.339 192.904 213.016 192.758C212.693 192.612 212.417 192.411 212.188 192.156C211.964 191.917 211.786 191.641 211.656 191.328C211.531 191.016 211.451 190.654 211.414 190.242V190.188H217.453V189.539C217.453 188.951 217.378 188.404 217.227 187.898C217.081 187.393 216.857 186.953 216.555 186.578C216.253 186.208 215.872 185.919 215.414 185.711C214.961 185.497 214.43 185.391 213.82 185.391C213.336 185.391 212.862 185.49 212.398 185.688C211.94 185.885 211.531 186.169 211.172 186.539C210.807 186.914 210.516 187.372 210.297 187.914C210.078 188.451 209.969 189.06 209.969 189.742V190.07C209.969 190.659 210.068 191.203 210.266 191.703C210.464 192.203 210.74 192.635 211.094 193C211.448 193.365 211.872 193.648 212.367 193.852C212.867 194.055 213.414 194.156 214.008 194.156ZM213.82 186.578C214.19 186.578 214.508 186.646 214.773 186.781C215.044 186.917 215.268 187.094 215.445 187.312C215.622 187.531 215.76 187.792 215.859 188.094C215.958 188.391 216.008 188.669 216.008 188.93V189H211.461C211.518 188.609 211.617 188.266 211.758 187.969C211.904 187.667 212.081 187.411 212.289 187.203C212.497 187 212.732 186.846 212.992 186.742C213.253 186.633 213.529 186.578 213.82 186.578ZM221.328 186.805V182H219.883V194H221.328V187.859C221.432 187.693 221.549 187.542 221.68 187.406C221.815 187.266 221.961 187.143 222.117 187.039C222.315 186.904 222.531 186.799 222.766 186.727C223 186.654 223.247 186.617 223.508 186.617C223.826 186.612 224.107 186.656 224.352 186.75C224.596 186.839 224.799 186.974 224.961 187.156C225.112 187.323 225.227 187.534 225.305 187.789C225.383 188.039 225.422 188.331 225.422 188.664V194H226.867V188.68C226.867 188.112 226.797 187.622 226.656 187.211C226.521 186.794 226.326 186.451 226.07 186.18C225.815 185.909 225.505 185.711 225.141 185.586C224.781 185.456 224.38 185.391 223.938 185.391C223.599 185.396 223.279 185.445 222.977 185.539C222.68 185.633 222.406 185.771 222.156 185.953C222 186.062 221.852 186.19 221.711 186.336C221.57 186.477 221.443 186.633 221.328 186.805ZM229.719 185.547V186.805H232.594V192.75H229.719V194H236.797V192.75H234.039V185.547H229.719ZM232.406 183.328C232.406 183.562 232.477 183.758 232.617 183.914C232.763 184.07 232.982 184.148 233.273 184.148C233.56 184.148 233.776 184.07 233.922 183.914C234.068 183.758 234.141 183.562 234.141 183.328C234.141 183.198 234.12 183.078 234.078 182.969C234.036 182.859 233.974 182.768 233.891 182.695C233.823 182.628 233.737 182.576 233.633 182.539C233.529 182.497 233.409 182.477 233.273 182.477C233.138 182.477 233.016 182.497 232.906 182.539C232.802 182.576 232.716 182.628 232.648 182.695C232.565 182.773 232.503 182.867 232.461 182.977C232.424 183.086 232.406 183.203 232.406 183.328ZM242.703 192.984C242.25 192.984 241.87 192.896 241.562 192.719C241.26 192.536 241.018 192.299 240.836 192.008C240.648 191.721 240.513 191.398 240.43 191.039C240.352 190.674 240.312 190.307 240.312 189.938V189.609C240.312 189.245 240.352 188.883 240.43 188.523C240.513 188.164 240.648 187.839 240.836 187.547C241.023 187.26 241.268 187.029 241.57 186.852C241.878 186.669 242.255 186.578 242.703 186.578C242.995 186.578 243.266 186.628 243.516 186.727C243.771 186.826 243.99 186.961 244.172 187.133C244.354 187.305 244.497 187.505 244.602 187.734C244.711 187.958 244.768 188.198 244.773 188.453H246.141C246.141 188.026 246.055 187.625 245.883 187.25C245.711 186.875 245.474 186.549 245.172 186.273C244.865 186.003 244.5 185.789 244.078 185.633C243.661 185.471 243.203 185.391 242.703 185.391C242.062 185.391 241.503 185.505 241.023 185.734C240.544 185.964 240.146 186.271 239.828 186.656C239.505 187.047 239.263 187.497 239.102 188.008C238.94 188.518 238.859 189.052 238.859 189.609V189.938C238.859 190.5 238.94 191.036 239.102 191.547C239.263 192.052 239.505 192.497 239.828 192.883C240.146 193.273 240.544 193.583 241.023 193.812C241.503 194.042 242.062 194.156 242.703 194.156C243.151 194.156 243.581 194.081 243.992 193.93C244.404 193.773 244.768 193.565 245.086 193.305C245.404 193.049 245.656 192.753 245.844 192.414C246.036 192.07 246.135 191.711 246.141 191.336H244.773C244.768 191.57 244.706 191.789 244.586 191.992C244.471 192.19 244.318 192.362 244.125 192.508C243.932 192.659 243.711 192.776 243.461 192.859C243.216 192.943 242.964 192.984 242.703 192.984ZM248.938 182V183.258H251.812V192.75H248.938V194H256.016V192.75H253.258V182H248.938ZM262.055 194.156C262.878 194.156 263.568 193.992 264.125 193.664C264.688 193.331 265.109 192.951 265.391 192.523L264.508 191.836C264.242 192.18 263.909 192.456 263.508 192.664C263.107 192.872 262.648 192.977 262.133 192.977C261.742 192.977 261.385 192.904 261.062 192.758C260.74 192.612 260.464 192.411 260.234 192.156C260.01 191.917 259.833 191.641 259.703 191.328C259.578 191.016 259.497 190.654 259.461 190.242V190.188H265.5V189.539C265.5 188.951 265.424 188.404 265.273 187.898C265.128 187.393 264.904 186.953 264.602 186.578C264.299 186.208 263.919 185.919 263.461 185.711C263.008 185.497 262.477 185.391 261.867 185.391C261.383 185.391 260.909 185.49 260.445 185.688C259.987 185.885 259.578 186.169 259.219 186.539C258.854 186.914 258.562 187.372 258.344 187.914C258.125 188.451 258.016 189.06 258.016 189.742V190.07C258.016 190.659 258.115 191.203 258.312 191.703C258.51 192.203 258.786 192.635 259.141 193C259.495 193.365 259.919 193.648 260.414 193.852C260.914 194.055 261.461 194.156 262.055 194.156ZM261.867 186.578C262.237 186.578 262.555 186.646 262.82 186.781C263.091 186.917 263.315 187.094 263.492 187.312C263.669 187.531 263.807 187.792 263.906 188.094C264.005 188.391 264.055 188.669 264.055 188.93V189H259.508C259.565 188.609 259.664 188.266 259.805 187.969C259.951 187.667 260.128 187.411 260.336 187.203C260.544 187 260.779 186.846 261.039 186.742C261.299 186.633 261.576 186.578 261.867 186.578ZM270.445 193.062C270.445 193.365 270.539 193.622 270.727 193.836C270.919 194.044 271.203 194.148 271.578 194.148C271.948 194.148 272.232 194.044 272.43 193.836C272.628 193.628 272.727 193.37 272.727 193.062C272.727 192.75 272.628 192.487 272.43 192.273C272.237 192.055 271.953 191.945 271.578 191.945C271.198 191.945 270.914 192.055 270.727 192.273C270.539 192.492 270.445 192.755 270.445 193.062ZM280.68 182.977V181.828H279.266V183C279.266 183.448 279.203 183.865 279.078 184.25C278.958 184.635 278.776 185.013 278.531 185.383L279.32 185.945C279.539 185.758 279.732 185.544 279.898 185.305C280.065 185.065 280.208 184.812 280.328 184.547C280.443 184.286 280.529 184.021 280.586 183.75C280.648 183.479 280.68 183.221 280.68 182.977ZM283.273 182.977V181.828H281.859V183C281.859 183.448 281.797 183.865 281.672 184.25C281.552 184.635 281.37 185.013 281.125 185.383L281.914 185.945C282.133 185.758 282.326 185.544 282.492 185.305C282.659 185.065 282.802 184.812 282.922 184.547C283.036 184.286 283.122 184.021 283.18 183.75C283.242 183.479 283.273 183.221 283.273 182.977Z" fill="black"/>
</svg>
