<svg width="200" height="200" viewBox="0 0 200 200" fill="none" xmlns="http://www.w3.org/2000/svg">
<rect width="200" height="200" fill="white"/>
<circle cx="100" cy="100" r="98" stroke="#6176AF" stroke-width="4"/>
<path d="M83.2188 80.4375H85.4609C85.9714 80.4323 86.4531 80.3542 86.9062 80.2031C87.3646 80.0521 87.7656 79.8333 88.1094 79.5469C88.4531 79.2604 88.724 78.9089 88.9219 78.4922C89.125 78.0703 89.2266 77.5859 89.2266 77.0391C89.2266 76.4922 89.125 76.0078 88.9219 75.5859C88.724 75.1641 88.4531 74.8099 88.1094 74.5234C87.7656 74.237 87.3646 74.0182 86.9062 73.8672C86.4531 73.7161 85.9714 73.6354 85.4609 73.625H81.7734V85H83.2188V80.4375ZM83.2188 79.25V74.8125H85.4609C85.7943 74.8177 86.1016 74.8724 86.3828 74.9766C86.6693 75.0807 86.9167 75.2292 87.125 75.4219C87.3281 75.6146 87.487 75.849 87.6016 76.125C87.7214 76.401 87.7812 76.7109 87.7812 77.0547C87.7812 77.3984 87.7214 77.7057 87.6016 77.9766C87.487 78.2422 87.3255 78.4688 87.1172 78.6562C86.9089 78.8438 86.6641 78.9896 86.3828 79.0938C86.1016 79.1927 85.7943 79.2448 85.4609 79.25H83.2188ZM90.8438 80.6953V80.8672C90.8438 81.4766 90.9323 82.0417 91.1094 82.5625C91.2865 83.0833 91.5417 83.5365 91.875 83.9219C92.2031 84.3073 92.6042 84.6094 93.0781 84.8281C93.5573 85.0469 94.0964 85.1562 94.6953 85.1562C95.2891 85.1562 95.8229 85.0469 96.2969 84.8281C96.7708 84.6094 97.1745 84.3073 97.5078 83.9219C97.8359 83.5365 98.0885 83.0833 98.2656 82.5625C98.4427 82.0417 98.5312 81.4766 98.5312 80.8672V80.6953C98.5312 80.0859 98.4427 79.5208 98.2656 79C98.0885 78.474 97.8359 78.0182 97.5078 77.6328C97.1745 77.2474 96.7682 76.9453 96.2891 76.7266C95.8151 76.5026 95.2786 76.3906 94.6797 76.3906C94.0859 76.3906 93.5521 76.5026 93.0781 76.7266C92.6042 76.9453 92.2031 77.2474 91.875 77.6328C91.5417 78.0182 91.2865 78.474 91.1094 79C90.9323 79.5208 90.8438 80.0859 90.8438 80.6953ZM92.2891 80.8672V80.6953C92.2891 80.2839 92.3385 79.8906 92.4375 79.5156C92.5365 79.1354 92.6875 78.8021 92.8906 78.5156C93.0885 78.2292 93.3359 78.0026 93.6328 77.8359C93.9297 77.6641 94.2786 77.5781 94.6797 77.5781C95.0807 77.5781 95.4297 77.6641 95.7266 77.8359C96.0286 78.0026 96.2812 78.2292 96.4844 78.5156C96.6823 78.8021 96.8307 79.1354 96.9297 79.5156C97.0339 79.8906 97.0859 80.2839 97.0859 80.6953V80.8672C97.0859 81.2839 97.0365 81.6823 96.9375 82.0625C96.8385 82.4375 96.6901 82.7682 96.4922 83.0547C96.2891 83.3411 96.0365 83.5677 95.7344 83.7344C95.4375 83.901 95.0911 83.9844 94.6953 83.9844C94.2943 83.9844 93.9427 83.901 93.6406 83.7344C93.3385 83.5677 93.0885 83.3411 92.8906 83.0547C92.6875 82.7682 92.5365 82.4375 92.4375 82.0625C92.3385 81.6823 92.2891 81.2839 92.2891 80.8672ZM100.453 80.6953V80.8672C100.453 81.4766 100.542 82.0417 100.719 82.5625C100.896 83.0833 101.151 83.5365 101.484 83.9219C101.812 84.3073 102.214 84.6094 102.688 84.8281C103.167 85.0469 103.706 85.1562 104.305 85.1562C104.898 85.1562 105.432 85.0469 105.906 84.8281C106.38 84.6094 106.784 84.3073 107.117 83.9219C107.445 83.5365 107.698 83.0833 107.875 82.5625C108.052 82.0417 108.141 81.4766 108.141 80.8672V80.6953C108.141 80.0859 108.052 79.5208 107.875 79C107.698 78.474 107.445 78.0182 107.117 77.6328C106.784 77.2474 106.378 76.9453 105.898 76.7266C105.424 76.5026 104.888 76.3906 104.289 76.3906C103.695 76.3906 103.161 76.5026 102.688 76.7266C102.214 76.9453 101.812 77.2474 101.484 77.6328C101.151 78.0182 100.896 78.474 100.719 79C100.542 79.5208 100.453 80.0859 100.453 80.6953ZM101.898 80.8672V80.6953C101.898 80.2839 101.948 79.8906 102.047 79.5156C102.146 79.1354 102.297 78.8021 102.5 78.5156C102.698 78.2292 102.945 78.0026 103.242 77.8359C103.539 77.6641 103.888 77.5781 104.289 77.5781C104.69 77.5781 105.039 77.6641 105.336 77.8359C105.638 78.0026 105.891 78.2292 106.094 78.5156C106.292 78.8021 106.44 79.1354 106.539 79.5156C106.643 79.8906 106.695 80.2839 106.695 80.6953V80.8672C106.695 81.2839 106.646 81.6823 106.547 82.0625C106.448 82.4375 106.299 82.7682 106.102 83.0547C105.898 83.3411 105.646 83.5677 105.344 83.7344C105.047 83.901 104.701 83.9844 104.305 83.9844C103.904 83.9844 103.552 83.901 103.25 83.7344C102.948 83.5677 102.698 83.3411 102.5 83.0547C102.297 82.7682 102.146 82.4375 102.047 82.0625C101.948 81.6823 101.898 81.2839 101.898 80.8672ZM116.008 76.3906C115.393 76.3906 114.844 76.526 114.359 76.7969C113.88 77.0625 113.469 77.4271 113.125 77.8906L113.117 77.6797L113.055 76.5469H111.68V85H113.133V79.5781C113.227 79.3177 113.344 79.0833 113.484 78.875C113.63 78.6615 113.799 78.4818 113.992 78.3359C114.206 78.1693 114.456 78.0443 114.742 77.9609C115.029 77.8724 115.349 77.8281 115.703 77.8281C115.979 77.8281 116.242 77.8438 116.492 77.875C116.747 77.901 117.016 77.9453 117.297 78.0078L117.492 76.5938C117.346 76.5312 117.128 76.4818 116.836 76.4453C116.549 76.4089 116.273 76.3906 116.008 76.3906ZM63.0469 103.055L63.9453 106H65.3828L61.7734 94.625H60.5625L56.8906 106H58.3359L59.25 103.055H63.0469ZM59.6406 101.797L61.1641 96.8594L62.6641 101.797H59.6406ZM70.9609 106.156C71.7839 106.156 72.474 105.992 73.0312 105.664C73.5938 105.331 74.0156 104.951 74.2969 104.523L73.4141 103.836C73.1484 104.18 72.8151 104.456 72.4141 104.664C72.013 104.872 71.5547 104.977 71.0391 104.977C70.6484 104.977 70.2917 104.904 69.9688 104.758C69.6458 104.612 69.3698 104.411 69.1406 104.156C68.9167 103.917 68.7396 103.641 68.6094 103.328C68.4844 103.016 68.4036 102.654 68.3672 102.242V102.188H74.4062V101.539C74.4062 100.951 74.3307 100.404 74.1797 99.8984C74.0339 99.3932 73.8099 98.9531 73.5078 98.5781C73.2057 98.2083 72.8255 97.9193 72.3672 97.7109C71.9141 97.4974 71.3828 97.3906 70.7734 97.3906C70.2891 97.3906 69.8151 97.4896 69.3516 97.6875C68.8932 97.8854 68.4844 98.1693 68.125 98.5391C67.7604 98.9141 67.4688 99.3724 67.25 99.9141C67.0312 100.451 66.9219 101.06 66.9219 101.742V102.07C66.9219 102.659 67.0208 103.203 67.2188 103.703C67.4167 104.203 67.6927 104.635 68.0469 105C68.401 105.365 68.8255 105.648 69.3203 105.852C69.8203 106.055 70.3672 106.156 70.9609 106.156ZM70.7734 98.5781C71.1432 98.5781 71.4609 98.6458 71.7266 98.7812C71.9974 98.9167 72.2214 99.0938 72.3984 99.3125C72.5755 99.5312 72.7135 99.7917 72.8125 100.094C72.9115 100.391 72.9609 100.669 72.9609 100.93V101H68.4141C68.4714 100.609 68.5703 100.266 68.7109 99.9688C68.8568 99.6667 69.0339 99.4115 69.2422 99.2031C69.4505 99 69.6849 98.8464 69.9453 98.7422C70.2057 98.6328 70.4818 98.5781 70.7734 98.5781ZM82.4531 103.758C82.4531 103.893 82.4271 104.021 82.375 104.141C82.3229 104.26 82.2474 104.37 82.1484 104.469C81.987 104.63 81.763 104.758 81.4766 104.852C81.1901 104.94 80.8542 104.984 80.4688 104.984C80.224 104.984 79.9766 104.958 79.7266 104.906C79.4766 104.854 79.25 104.766 79.0469 104.641C78.8385 104.516 78.6641 104.352 78.5234 104.148C78.388 103.945 78.3099 103.695 78.2891 103.398H76.8438C76.8438 103.758 76.9245 104.104 77.0859 104.438C77.2526 104.771 77.4922 105.062 77.8047 105.312C78.112 105.568 78.4896 105.773 78.9375 105.93C79.3854 106.081 79.8958 106.156 80.4688 106.156C80.9688 106.156 81.4297 106.096 81.8516 105.977C82.2734 105.857 82.6354 105.688 82.9375 105.469C83.2396 105.25 83.474 104.987 83.6406 104.68C83.8125 104.372 83.8984 104.031 83.8984 103.656C83.8984 103.307 83.8229 103 83.6719 102.734C83.526 102.469 83.3125 102.234 83.0312 102.031C82.75 101.833 82.4036 101.664 81.9922 101.523C81.5807 101.378 81.1146 101.25 80.5938 101.141C80.1979 101.062 79.8698 100.982 79.6094 100.898C79.3542 100.815 79.151 100.721 79 100.617C78.8438 100.513 78.7344 100.396 78.6719 100.266C78.6094 100.135 78.5781 99.987 78.5781 99.8203C78.5781 99.6589 78.6172 99.5026 78.6953 99.3516C78.7734 99.2005 78.8906 99.0677 79.0469 98.9531C79.1979 98.8385 79.388 98.7474 79.6172 98.6797C79.8516 98.612 80.1224 98.5781 80.4297 98.5781C80.7266 98.5781 80.9922 98.6198 81.2266 98.7031C81.4661 98.7865 81.6693 98.8958 81.8359 99.0312C82.0026 99.1667 82.1328 99.3229 82.2266 99.5C82.3203 99.6719 82.3672 99.849 82.3672 100.031H83.8125C83.8125 99.6615 83.7318 99.3177 83.5703 99C83.4141 98.6771 83.1901 98.3958 82.8984 98.1562C82.6068 97.9167 82.2526 97.7292 81.8359 97.5938C81.4193 97.4583 80.9505 97.3906 80.4297 97.3906C79.9453 97.3906 79.5 97.4557 79.0938 97.5859C78.6927 97.7161 78.3464 97.8932 78.0547 98.1172C77.763 98.3411 77.5365 98.6042 77.375 98.9062C77.2135 99.2031 77.1328 99.5234 77.1328 99.8672C77.1328 100.216 77.2109 100.523 77.3672 100.789C77.5234 101.049 77.7448 101.276 78.0312 101.469C78.3125 101.667 78.651 101.836 79.0469 101.977C79.4479 102.117 79.8906 102.237 80.375 102.336C80.7708 102.414 81.1016 102.503 81.3672 102.602C81.6328 102.695 81.8464 102.799 82.0078 102.914C82.1693 103.029 82.2839 103.156 82.3516 103.297C82.4193 103.432 82.4531 103.586 82.4531 103.758ZM89.8672 95.5H88.4141V97.5469H86.1953V98.6641H88.4141V103.258C88.4141 103.779 88.4818 104.224 88.6172 104.594C88.7578 104.958 88.9479 105.255 89.1875 105.484C89.4271 105.719 89.7083 105.891 90.0312 106C90.3594 106.104 90.7109 106.156 91.0859 106.156C91.3099 106.156 91.5339 106.146 91.7578 106.125C91.987 106.104 92.2031 106.073 92.4062 106.031C92.6094 105.995 92.7969 105.951 92.9688 105.898C93.1406 105.841 93.2865 105.776 93.4062 105.703L93.2031 104.68C93.1146 104.701 93 104.727 92.8594 104.758C92.724 104.784 92.5781 104.81 92.4219 104.836C92.2604 104.862 92.0964 104.885 91.9297 104.906C91.763 104.922 91.6016 104.93 91.4453 104.93C91.2318 104.93 91.0286 104.904 90.8359 104.852C90.6484 104.799 90.4818 104.708 90.3359 104.578C90.1901 104.453 90.0755 104.284 89.9922 104.07C89.9089 103.857 89.8672 103.586 89.8672 103.258V98.6641H93.0859V97.5469H89.8672V95.5ZM97.5 98.8047V94H96.0547V106H97.5V99.8594C97.6042 99.6927 97.7214 99.5417 97.8516 99.4062C97.987 99.2656 98.1328 99.1432 98.2891 99.0391C98.487 98.9036 98.7031 98.7995 98.9375 98.7266C99.1719 98.6536 99.4193 98.6172 99.6797 98.6172C99.9974 98.612 100.279 98.6562 100.523 98.75C100.768 98.8385 100.971 98.974 101.133 99.1562C101.284 99.3229 101.398 99.5339 101.477 99.7891C101.555 100.039 101.594 100.331 101.594 100.664V106H103.039V100.68C103.039 100.112 102.969 99.6224 102.828 99.2109C102.693 98.7943 102.497 98.4505 102.242 98.1797C101.987 97.9089 101.677 97.7109 101.312 97.5859C100.953 97.4557 100.552 97.3906 100.109 97.3906C99.7708 97.3958 99.4505 97.4453 99.1484 97.5391C98.8516 97.6328 98.5781 97.7708 98.3281 97.9531C98.1719 98.0625 98.0234 98.1901 97.8828 98.3359C97.7422 98.4766 97.6146 98.6328 97.5 98.8047ZM109.398 106.156C110.221 106.156 110.911 105.992 111.469 105.664C112.031 105.331 112.453 104.951 112.734 104.523L111.852 103.836C111.586 104.18 111.253 104.456 110.852 104.664C110.451 104.872 109.992 104.977 109.477 104.977C109.086 104.977 108.729 104.904 108.406 104.758C108.083 104.612 107.807 104.411 107.578 104.156C107.354 103.917 107.177 103.641 107.047 103.328C106.922 103.016 106.841 102.654 106.805 102.242V102.188H112.844V101.539C112.844 100.951 112.768 100.404 112.617 99.8984C112.471 99.3932 112.247 98.9531 111.945 98.5781C111.643 98.2083 111.263 97.9193 110.805 97.7109C110.352 97.4974 109.82 97.3906 109.211 97.3906C108.727 97.3906 108.253 97.4896 107.789 97.6875C107.331 97.8854 106.922 98.1693 106.562 98.5391C106.198 98.9141 105.906 99.3724 105.688 99.9141C105.469 100.451 105.359 101.06 105.359 101.742V102.07C105.359 102.659 105.458 103.203 105.656 103.703C105.854 104.203 106.13 104.635 106.484 105C106.839 105.365 107.263 105.648 107.758 105.852C108.258 106.055 108.805 106.156 109.398 106.156ZM109.211 98.5781C109.581 98.5781 109.898 98.6458 110.164 98.7812C110.435 98.9167 110.659 99.0938 110.836 99.3125C111.013 99.5312 111.151 99.7917 111.25 100.094C111.349 100.391 111.398 100.669 111.398 100.93V101H106.852C106.909 100.609 107.008 100.266 107.148 99.9688C107.294 99.6667 107.471 99.4115 107.68 99.2031C107.888 99 108.122 98.8464 108.383 98.7422C108.643 98.6328 108.919 98.5781 109.211 98.5781ZM118.695 95.5H117.242V97.5469H115.023V98.6641H117.242V103.258C117.242 103.779 117.31 104.224 117.445 104.594C117.586 104.958 117.776 105.255 118.016 105.484C118.255 105.719 118.536 105.891 118.859 106C119.188 106.104 119.539 106.156 119.914 106.156C120.138 106.156 120.362 106.146 120.586 106.125C120.815 106.104 121.031 106.073 121.234 106.031C121.438 105.995 121.625 105.951 121.797 105.898C121.969 105.841 122.115 105.776 122.234 105.703L122.031 104.68C121.943 104.701 121.828 104.727 121.688 104.758C121.552 104.784 121.406 104.81 121.25 104.836C121.089 104.862 120.924 104.885 120.758 104.906C120.591 104.922 120.43 104.93 120.273 104.93C120.06 104.93 119.857 104.904 119.664 104.852C119.477 104.799 119.31 104.708 119.164 104.578C119.018 104.453 118.904 104.284 118.82 104.07C118.737 103.857 118.695 103.586 118.695 103.258V98.6641H121.914V97.5469H118.695V95.5ZM125.109 97.5469V98.8047H127.984V104.75H125.109V106H132.188V104.75H129.43V97.5469H125.109ZM127.797 95.3281C127.797 95.5625 127.867 95.7578 128.008 95.9141C128.154 96.0703 128.372 96.1484 128.664 96.1484C128.951 96.1484 129.167 96.0703 129.312 95.9141C129.458 95.7578 129.531 95.5625 129.531 95.3281C129.531 95.1979 129.51 95.0781 129.469 94.9688C129.427 94.8594 129.365 94.7682 129.281 94.6953C129.214 94.6276 129.128 94.5755 129.023 94.5391C128.919 94.4974 128.799 94.4766 128.664 94.4766C128.529 94.4766 128.406 94.4974 128.297 94.5391C128.193 94.5755 128.107 94.6276 128.039 94.6953C127.956 94.7734 127.893 94.8672 127.852 94.9766C127.815 95.0859 127.797 95.2031 127.797 95.3281ZM138.094 104.984C137.641 104.984 137.26 104.896 136.953 104.719C136.651 104.536 136.409 104.299 136.227 104.008C136.039 103.721 135.904 103.398 135.82 103.039C135.742 102.674 135.703 102.307 135.703 101.938V101.609C135.703 101.245 135.742 100.883 135.82 100.523C135.904 100.164 136.039 99.8385 136.227 99.5469C136.414 99.2604 136.659 99.0286 136.961 98.8516C137.268 98.6693 137.646 98.5781 138.094 98.5781C138.385 98.5781 138.656 98.6276 138.906 98.7266C139.161 98.8255 139.38 98.9609 139.562 99.1328C139.745 99.3047 139.888 99.5052 139.992 99.7344C140.102 99.9583 140.159 100.198 140.164 100.453H141.531C141.531 100.026 141.445 99.625 141.273 99.25C141.102 98.875 140.865 98.5495 140.562 98.2734C140.255 98.0026 139.891 97.7891 139.469 97.6328C139.052 97.4714 138.594 97.3906 138.094 97.3906C137.453 97.3906 136.893 97.5052 136.414 97.7344C135.935 97.9635 135.536 98.2708 135.219 98.6562C134.896 99.0469 134.654 99.4974 134.492 100.008C134.331 100.518 134.25 101.052 134.25 101.609V101.938C134.25 102.5 134.331 103.036 134.492 103.547C134.654 104.052 134.896 104.497 135.219 104.883C135.536 105.273 135.935 105.583 136.414 105.812C136.893 106.042 137.453 106.156 138.094 106.156C138.542 106.156 138.971 106.081 139.383 105.93C139.794 105.773 140.159 105.565 140.477 105.305C140.794 105.049 141.047 104.753 141.234 104.414C141.427 104.07 141.526 103.711 141.531 103.336H140.164C140.159 103.57 140.096 103.789 139.977 103.992C139.862 104.19 139.708 104.362 139.516 104.508C139.323 104.659 139.102 104.776 138.852 104.859C138.607 104.943 138.354 104.984 138.094 104.984ZM74.5938 123.578H73.1484C73.1016 123.922 73.0208 124.242 72.9062 124.539C72.7917 124.831 72.638 125.083 72.4453 125.297C72.2526 125.516 72.0156 125.685 71.7344 125.805C71.4583 125.924 71.1302 125.984 70.75 125.984C70.401 125.984 70.0964 125.93 69.8359 125.82C69.5755 125.706 69.349 125.549 69.1562 125.352C68.9635 125.159 68.8047 124.935 68.6797 124.68C68.5547 124.424 68.4531 124.151 68.375 123.859C68.2969 123.573 68.2396 123.281 68.2031 122.984C68.1719 122.682 68.1562 122.391 68.1562 122.109V120.508C68.1562 120.227 68.1719 119.938 68.2031 119.641C68.2396 119.339 68.2969 119.044 68.375 118.758C68.4531 118.471 68.5547 118.201 68.6797 117.945C68.8099 117.69 68.9714 117.466 69.1641 117.273C69.3516 117.081 69.5755 116.93 69.8359 116.82C70.1016 116.706 70.4062 116.648 70.75 116.648C71.1302 116.648 71.4583 116.714 71.7344 116.844C72.0156 116.969 72.2526 117.143 72.4453 117.367C72.638 117.591 72.7917 117.852 72.9062 118.148C73.0208 118.445 73.1016 118.766 73.1484 119.109H74.5938C74.5312 118.568 74.401 118.073 74.2031 117.625C74.0104 117.177 73.7526 116.792 73.4297 116.469C73.1068 116.151 72.7214 115.906 72.2734 115.734C71.8255 115.557 71.3177 115.469 70.75 115.469C70.276 115.469 69.849 115.536 69.4688 115.672C69.0885 115.802 68.75 115.984 68.4531 116.219C68.151 116.453 67.8906 116.732 67.6719 117.055C67.4583 117.372 67.2812 117.719 67.1406 118.094C66.9948 118.469 66.8854 118.862 66.8125 119.273C66.7448 119.685 66.7083 120.102 66.7031 120.523V122.109C66.7083 122.531 66.7448 122.948 66.8125 123.359C66.8854 123.771 66.9948 124.164 67.1406 124.539C67.2812 124.914 67.4583 125.26 67.6719 125.578C67.8906 125.896 68.151 126.172 68.4531 126.406C68.75 126.641 69.0885 126.826 69.4688 126.961C69.8542 127.091 70.2812 127.156 70.75 127.156C71.2969 127.156 71.7917 127.07 72.2344 126.898C72.6823 126.721 73.0703 126.474 73.3984 126.156C73.7214 125.844 73.9844 125.469 74.1875 125.031C74.3906 124.589 74.526 124.104 74.5938 123.578ZM78.2812 119.805V115H76.8359V127H78.2812V120.859C78.3854 120.693 78.5026 120.542 78.6328 120.406C78.7682 120.266 78.9141 120.143 79.0703 120.039C79.2682 119.904 79.4844 119.799 79.7188 119.727C79.9531 119.654 80.2005 119.617 80.4609 119.617C80.7786 119.612 81.0599 119.656 81.3047 119.75C81.5495 119.839 81.7526 119.974 81.9141 120.156C82.0651 120.323 82.1797 120.534 82.2578 120.789C82.3359 121.039 82.375 121.331 82.375 121.664V127H83.8203V121.68C83.8203 121.112 83.75 120.622 83.6094 120.211C83.474 119.794 83.2786 119.451 83.0234 119.18C82.7682 118.909 82.4583 118.711 82.0938 118.586C81.7344 118.456 81.3333 118.391 80.8906 118.391C80.5521 118.396 80.2318 118.445 79.9297 118.539C79.6328 118.633 79.3594 118.771 79.1094 118.953C78.9531 119.062 78.8047 119.19 78.6641 119.336C78.5234 119.477 78.3958 119.633 78.2812 119.805ZM86.0391 122.695V122.867C86.0391 123.477 86.1276 124.042 86.3047 124.562C86.4818 125.083 86.737 125.536 87.0703 125.922C87.3984 126.307 87.7995 126.609 88.2734 126.828C88.7526 127.047 89.2917 127.156 89.8906 127.156C90.4844 127.156 91.0182 127.047 91.4922 126.828C91.9661 126.609 92.3698 126.307 92.7031 125.922C93.0312 125.536 93.2839 125.083 93.4609 124.562C93.638 124.042 93.7266 123.477 93.7266 122.867V122.695C93.7266 122.086 93.638 121.521 93.4609 121C93.2839 120.474 93.0312 120.018 92.7031 119.633C92.3698 119.247 91.9635 118.945 91.4844 118.727C91.0104 118.503 90.474 118.391 89.875 118.391C89.2812 118.391 88.7474 118.503 88.2734 118.727C87.7995 118.945 87.3984 119.247 87.0703 119.633C86.737 120.018 86.4818 120.474 86.3047 121C86.1276 121.521 86.0391 122.086 86.0391 122.695ZM87.4844 122.867V122.695C87.4844 122.284 87.5339 121.891 87.6328 121.516C87.7318 121.135 87.8828 120.802 88.0859 120.516C88.2839 120.229 88.5312 120.003 88.8281 119.836C89.125 119.664 89.474 119.578 89.875 119.578C90.276 119.578 90.625 119.664 90.9219 119.836C91.224 120.003 91.4766 120.229 91.6797 120.516C91.8776 120.802 92.026 121.135 92.125 121.516C92.2292 121.891 92.2812 122.284 92.2812 122.695V122.867C92.2812 123.284 92.2318 123.682 92.1328 124.062C92.0339 124.438 91.8854 124.768 91.6875 125.055C91.4844 125.341 91.2318 125.568 90.9297 125.734C90.6328 125.901 90.2865 125.984 89.8906 125.984C89.4896 125.984 89.138 125.901 88.8359 125.734C88.5339 125.568 88.2839 125.341 88.0859 125.055C87.8828 124.768 87.7318 124.438 87.6328 124.062C87.5339 123.682 87.4844 123.284 87.4844 122.867ZM96.2812 118.547V119.805H99.1562V125.75H96.2812V127H103.359V125.75H100.602V118.547H96.2812ZM98.9688 116.328C98.9688 116.562 99.0391 116.758 99.1797 116.914C99.3255 117.07 99.5443 117.148 99.8359 117.148C100.122 117.148 100.339 117.07 100.484 116.914C100.63 116.758 100.703 116.562 100.703 116.328C100.703 116.198 100.682 116.078 100.641 115.969C100.599 115.859 100.536 115.768 100.453 115.695C100.385 115.628 100.299 115.576 100.195 115.539C100.091 115.497 99.9714 115.477 99.8359 115.477C99.7005 115.477 99.5781 115.497 99.4688 115.539C99.3646 115.576 99.2786 115.628 99.2109 115.695C99.1276 115.773 99.0651 115.867 99.0234 115.977C98.987 116.086 98.9688 116.203 98.9688 116.328ZM109.266 125.984C108.812 125.984 108.432 125.896 108.125 125.719C107.823 125.536 107.581 125.299 107.398 125.008C107.211 124.721 107.076 124.398 106.992 124.039C106.914 123.674 106.875 123.307 106.875 122.938V122.609C106.875 122.245 106.914 121.883 106.992 121.523C107.076 121.164 107.211 120.839 107.398 120.547C107.586 120.26 107.831 120.029 108.133 119.852C108.44 119.669 108.818 119.578 109.266 119.578C109.557 119.578 109.828 119.628 110.078 119.727C110.333 119.826 110.552 119.961 110.734 120.133C110.917 120.305 111.06 120.505 111.164 120.734C111.273 120.958 111.331 121.198 111.336 121.453H112.703C112.703 121.026 112.617 120.625 112.445 120.25C112.273 119.875 112.036 119.549 111.734 119.273C111.427 119.003 111.062 118.789 110.641 118.633C110.224 118.471 109.766 118.391 109.266 118.391C108.625 118.391 108.065 118.505 107.586 118.734C107.107 118.964 106.708 119.271 106.391 119.656C106.068 120.047 105.826 120.497 105.664 121.008C105.503 121.518 105.422 122.052 105.422 122.609V122.938C105.422 123.5 105.503 124.036 105.664 124.547C105.826 125.052 106.068 125.497 106.391 125.883C106.708 126.273 107.107 126.583 107.586 126.812C108.065 127.042 108.625 127.156 109.266 127.156C109.714 127.156 110.143 127.081 110.555 126.93C110.966 126.773 111.331 126.565 111.648 126.305C111.966 126.049 112.219 125.753 112.406 125.414C112.599 125.07 112.698 124.711 112.703 124.336H111.336C111.331 124.57 111.268 124.789 111.148 124.992C111.034 125.19 110.88 125.362 110.688 125.508C110.495 125.659 110.273 125.776 110.023 125.859C109.779 125.943 109.526 125.984 109.266 125.984ZM119.008 127.156C119.831 127.156 120.521 126.992 121.078 126.664C121.641 126.331 122.062 125.951 122.344 125.523L121.461 124.836C121.195 125.18 120.862 125.456 120.461 125.664C120.06 125.872 119.602 125.977 119.086 125.977C118.695 125.977 118.339 125.904 118.016 125.758C117.693 125.612 117.417 125.411 117.188 125.156C116.964 124.917 116.786 124.641 116.656 124.328C116.531 124.016 116.451 123.654 116.414 123.242V123.188H122.453V122.539C122.453 121.951 122.378 121.404 122.227 120.898C122.081 120.393 121.857 119.953 121.555 119.578C121.253 119.208 120.872 118.919 120.414 118.711C119.961 118.497 119.43 118.391 118.82 118.391C118.336 118.391 117.862 118.49 117.398 118.688C116.94 118.885 116.531 119.169 116.172 119.539C115.807 119.914 115.516 120.372 115.297 120.914C115.078 121.451 114.969 122.06 114.969 122.742V123.07C114.969 123.659 115.068 124.203 115.266 124.703C115.464 125.203 115.74 125.635 116.094 126C116.448 126.365 116.872 126.648 117.367 126.852C117.867 127.055 118.414 127.156 119.008 127.156ZM118.82 119.578C119.19 119.578 119.508 119.646 119.773 119.781C120.044 119.917 120.268 120.094 120.445 120.312C120.622 120.531 120.76 120.792 120.859 121.094C120.958 121.391 121.008 121.669 121.008 121.93V122H116.461C116.518 121.609 116.617 121.266 116.758 120.969C116.904 120.667 117.081 120.411 117.289 120.203C117.497 120 117.732 119.846 117.992 119.742C118.253 119.633 118.529 119.578 118.82 119.578ZM130.5 124.758C130.5 124.893 130.474 125.021 130.422 125.141C130.37 125.26 130.294 125.37 130.195 125.469C130.034 125.63 129.81 125.758 129.523 125.852C129.237 125.94 128.901 125.984 128.516 125.984C128.271 125.984 128.023 125.958 127.773 125.906C127.523 125.854 127.297 125.766 127.094 125.641C126.885 125.516 126.711 125.352 126.57 125.148C126.435 124.945 126.357 124.695 126.336 124.398H124.891C124.891 124.758 124.971 125.104 125.133 125.438C125.299 125.771 125.539 126.062 125.852 126.312C126.159 126.568 126.536 126.773 126.984 126.93C127.432 127.081 127.943 127.156 128.516 127.156C129.016 127.156 129.477 127.096 129.898 126.977C130.32 126.857 130.682 126.688 130.984 126.469C131.286 126.25 131.521 125.987 131.688 125.68C131.859 125.372 131.945 125.031 131.945 124.656C131.945 124.307 131.87 124 131.719 123.734C131.573 123.469 131.359 123.234 131.078 123.031C130.797 122.833 130.451 122.664 130.039 122.523C129.628 122.378 129.161 122.25 128.641 122.141C128.245 122.062 127.917 121.982 127.656 121.898C127.401 121.815 127.198 121.721 127.047 121.617C126.891 121.513 126.781 121.396 126.719 121.266C126.656 121.135 126.625 120.987 126.625 120.82C126.625 120.659 126.664 120.503 126.742 120.352C126.82 120.201 126.938 120.068 127.094 119.953C127.245 119.839 127.435 119.747 127.664 119.68C127.898 119.612 128.169 119.578 128.477 119.578C128.773 119.578 129.039 119.62 129.273 119.703C129.513 119.786 129.716 119.896 129.883 120.031C130.049 120.167 130.18 120.323 130.273 120.5C130.367 120.672 130.414 120.849 130.414 121.031H131.859C131.859 120.661 131.779 120.318 131.617 120C131.461 119.677 131.237 119.396 130.945 119.156C130.654 118.917 130.299 118.729 129.883 118.594C129.466 118.458 128.997 118.391 128.477 118.391C127.992 118.391 127.547 118.456 127.141 118.586C126.74 118.716 126.393 118.893 126.102 119.117C125.81 119.341 125.583 119.604 125.422 119.906C125.26 120.203 125.18 120.523 125.18 120.867C125.18 121.216 125.258 121.523 125.414 121.789C125.57 122.049 125.792 122.276 126.078 122.469C126.359 122.667 126.698 122.836 127.094 122.977C127.495 123.117 127.938 123.237 128.422 123.336C128.818 123.414 129.148 123.503 129.414 123.602C129.68 123.695 129.893 123.799 130.055 123.914C130.216 124.029 130.331 124.156 130.398 124.297C130.466 124.432 130.5 124.586 130.5 124.758Z" fill="black"/>
</svg>
