<svg width="200" height="200" viewBox="0 0 200 200" fill="none" xmlns="http://www.w3.org/2000/svg">
<rect width="200" height="200" fill="white"/>
<circle cx="100" cy="100" r="98" stroke="#6176AF" stroke-width="4"/>
<path d="M31.6562 86.8594V85.625H23.2188V86.8594H26.7344V97H28.1406V86.8594H31.6562ZM33.1875 92.6953V92.8672C33.1875 93.4766 33.276 94.0417 33.4531 94.5625C33.6302 95.0833 33.8854 95.5365 34.2188 95.9219C34.5469 96.3073 34.9479 96.6094 35.4219 96.8281C35.901 97.0469 36.4401 97.1562 37.0391 97.1562C37.6328 97.1562 38.1667 97.0469 38.6406 96.8281C39.1146 96.6094 39.5182 96.3073 39.8516 95.9219C40.1797 95.5365 40.4323 95.0833 40.6094 94.5625C40.7865 94.0417 40.875 93.4766 40.875 92.8672V92.6953C40.875 92.0859 40.7865 91.5208 40.6094 91C40.4323 90.474 40.1797 90.0182 39.8516 89.6328C39.5182 89.2474 39.112 88.9453 38.6328 88.7266C38.1589 88.5026 37.6224 88.3906 37.0234 88.3906C36.4297 88.3906 35.8958 88.5026 35.4219 88.7266C34.9479 88.9453 34.5469 89.2474 34.2188 89.6328C33.8854 90.0182 33.6302 90.474 33.4531 91C33.276 91.5208 33.1875 92.0859 33.1875 92.6953ZM34.6328 92.8672V92.6953C34.6328 92.2839 34.6823 91.8906 34.7812 91.5156C34.8802 91.1354 35.0312 90.8021 35.2344 90.5156C35.4323 90.2292 35.6797 90.0026 35.9766 89.8359C36.2734 89.6641 36.6224 89.5781 37.0234 89.5781C37.4245 89.5781 37.7734 89.6641 38.0703 89.8359C38.3724 90.0026 38.625 90.2292 38.8281 90.5156C39.026 90.8021 39.1745 91.1354 39.2734 91.5156C39.3776 91.8906 39.4297 92.2839 39.4297 92.6953V92.8672C39.4297 93.2839 39.3802 93.6823 39.2812 94.0625C39.1823 94.4375 39.0339 94.7682 38.8359 95.0547C38.6328 95.3411 38.3802 95.5677 38.0781 95.7344C37.7812 95.901 37.4349 95.9844 37.0391 95.9844C36.638 95.9844 36.2865 95.901 35.9844 95.7344C35.6823 95.5677 35.4323 95.3411 35.2344 95.0547C35.0312 94.7682 34.8802 94.4375 34.7812 94.0625C34.6823 93.6823 34.6328 93.2839 34.6328 92.8672ZM42.7969 92.6953V92.8672C42.7969 93.4766 42.8854 94.0417 43.0625 94.5625C43.2396 95.0833 43.4948 95.5365 43.8281 95.9219C44.1562 96.3073 44.5573 96.6094 45.0312 96.8281C45.5104 97.0469 46.0495 97.1562 46.6484 97.1562C47.2422 97.1562 47.776 97.0469 48.25 96.8281C48.724 96.6094 49.1276 96.3073 49.4609 95.9219C49.7891 95.5365 50.0417 95.0833 50.2188 94.5625C50.3958 94.0417 50.4844 93.4766 50.4844 92.8672V92.6953C50.4844 92.0859 50.3958 91.5208 50.2188 91C50.0417 90.474 49.7891 90.0182 49.4609 89.6328C49.1276 89.2474 48.7214 88.9453 48.2422 88.7266C47.7682 88.5026 47.2318 88.3906 46.6328 88.3906C46.0391 88.3906 45.5052 88.5026 45.0312 88.7266C44.5573 88.9453 44.1562 89.2474 43.8281 89.6328C43.4948 90.0182 43.2396 90.474 43.0625 91C42.8854 91.5208 42.7969 92.0859 42.7969 92.6953ZM44.2422 92.8672V92.6953C44.2422 92.2839 44.2917 91.8906 44.3906 91.5156C44.4896 91.1354 44.6406 90.8021 44.8438 90.5156C45.0417 90.2292 45.2891 90.0026 45.5859 89.8359C45.8828 89.6641 46.2318 89.5781 46.6328 89.5781C47.0339 89.5781 47.3828 89.6641 47.6797 89.8359C47.9818 90.0026 48.2344 90.2292 48.4375 90.5156C48.6354 90.8021 48.7839 91.1354 48.8828 91.5156C48.987 91.8906 49.0391 92.2839 49.0391 92.6953V92.8672C49.0391 93.2839 48.9896 93.6823 48.8906 94.0625C48.7917 94.4375 48.6432 94.7682 48.4453 95.0547C48.2422 95.3411 47.9896 95.5677 47.6875 95.7344C47.3906 95.901 47.0443 95.9844 46.6484 95.9844C46.2474 95.9844 45.8958 95.901 45.5938 95.7344C45.2917 95.5677 45.0417 95.3411 44.8438 95.0547C44.6406 94.7682 44.4896 94.4375 44.3906 94.0625C44.2917 93.6823 44.2422 93.2839 44.2422 92.8672ZM64.0078 85.625H62.2188V97H63.625V92.4609L63.5078 87.875L65.4375 93.8359H66.2656L68.3672 87.7109L68.25 92.4609V97H69.6562V85.625H67.8594L65.8594 91.3125L64.0078 85.625ZM77.5859 97H79.0938V96.875C79 96.6406 78.9271 96.3672 78.875 96.0547C78.8229 95.737 78.7969 95.4375 78.7969 95.1562V91.2266C78.7969 90.7526 78.7109 90.3385 78.5391 89.9844C78.3672 89.6302 78.1328 89.3333 77.8359 89.0938C77.5339 88.8594 77.1771 88.6849 76.7656 88.5703C76.3542 88.4505 75.9089 88.3906 75.4297 88.3906C74.9036 88.3906 74.4323 88.4635 74.0156 88.6094C73.6042 88.7552 73.2552 88.9453 72.9688 89.1797C72.6771 89.4193 72.4531 89.6875 72.2969 89.9844C72.1458 90.2812 72.0677 90.5833 72.0625 90.8906H73.5156C73.5156 90.7135 73.5573 90.5443 73.6406 90.3828C73.7292 90.2161 73.8516 90.0729 74.0078 89.9531C74.1641 89.8333 74.3542 89.737 74.5781 89.6641C74.8073 89.5911 75.0651 89.5547 75.3516 89.5547C75.6589 89.5547 75.9349 89.5938 76.1797 89.6719C76.4297 89.75 76.6406 89.8594 76.8125 90C76.9844 90.1458 77.1172 90.3203 77.2109 90.5234C77.3047 90.7266 77.3516 90.9557 77.3516 91.2109V91.875H75.7734C75.1849 91.875 74.651 91.9323 74.1719 92.0469C73.6979 92.1615 73.2917 92.3333 72.9531 92.5625C72.6146 92.7969 72.3516 93.0885 72.1641 93.4375C71.9818 93.7865 71.8906 94.1927 71.8906 94.6562C71.8906 95.0104 71.9583 95.3411 72.0938 95.6484C72.2344 95.9505 72.4323 96.2109 72.6875 96.4297C72.9375 96.6536 73.2422 96.8307 73.6016 96.9609C73.9661 97.0911 74.3724 97.1562 74.8203 97.1562C75.0964 97.1562 75.3568 97.1276 75.6016 97.0703C75.8464 97.013 76.0781 96.9349 76.2969 96.8359C76.5104 96.737 76.7057 96.6224 76.8828 96.4922C77.0651 96.362 77.2292 96.224 77.375 96.0781C77.3906 96.2552 77.4141 96.4271 77.4453 96.5938C77.4818 96.7552 77.5286 96.8906 77.5859 97ZM75.0312 95.8984C74.75 95.8984 74.5026 95.862 74.2891 95.7891C74.0755 95.7161 73.8984 95.6146 73.7578 95.4844C73.6172 95.3594 73.5104 95.2083 73.4375 95.0312C73.3698 94.8542 73.3359 94.6615 73.3359 94.4531C73.3359 94.2344 73.375 94.0391 73.4531 93.8672C73.5365 93.6953 73.6562 93.5469 73.8125 93.4219C74.0312 93.2448 74.3255 93.1146 74.6953 93.0312C75.0703 92.9427 75.5078 92.8984 76.0078 92.8984H77.3516V94.6094C77.2682 94.776 77.1536 94.9375 77.0078 95.0938C76.862 95.2448 76.6901 95.3802 76.4922 95.5C76.2891 95.6198 76.0651 95.7161 75.8203 95.7891C75.5755 95.862 75.3125 95.8984 75.0312 95.8984ZM81.6406 97H83.0859V90.9375C83.1849 90.7552 83.2995 90.5885 83.4297 90.4375C83.5651 90.2865 83.7109 90.1536 83.8672 90.0391C84.0599 89.9089 84.2708 89.8073 84.5 89.7344C84.7292 89.6562 84.9766 89.6172 85.2422 89.6172C85.5495 89.6172 85.8203 89.6536 86.0547 89.7266C86.2943 89.7995 86.4974 89.9167 86.6641 90.0781C86.8255 90.2396 86.9479 90.4505 87.0312 90.7109C87.1146 90.9714 87.1562 91.2891 87.1562 91.6641V97H88.6016V91.6328C88.6016 91.0703 88.5312 90.5859 88.3906 90.1797C88.2552 89.7682 88.0599 89.4297 87.8047 89.1641C87.5495 88.8984 87.2396 88.7031 86.875 88.5781C86.5156 88.4531 86.1146 88.3906 85.6719 88.3906C85.3438 88.3958 85.0312 88.4453 84.7344 88.5391C84.4427 88.6276 84.1719 88.7552 83.9219 88.9219C83.7552 89.0312 83.5964 89.1615 83.4453 89.3125C83.2995 89.4583 83.1641 89.6198 83.0391 89.7969L82.9375 88.5469H81.6406V97ZM91.9297 100.414C92.3099 100.414 92.6458 100.344 92.9375 100.203C93.2292 100.062 93.4844 99.888 93.7031 99.6797C93.9219 99.4714 94.1068 99.2448 94.2578 99C94.4141 98.7552 94.5417 98.5234 94.6406 98.3047L98.9297 88.5469H97.3125L95.1328 94.0312L94.7344 95.0234L94.3594 94L92.0391 88.5469H90.4219L94.0625 96.6016L93.4844 97.7266C93.4323 97.8307 93.3594 97.9635 93.2656 98.125C93.1771 98.2865 93.0703 98.4427 92.9453 98.5938C92.8151 98.7448 92.6667 98.875 92.5 98.9844C92.3385 99.0938 92.1589 99.1484 91.9609 99.1484C91.888 99.1484 91.7865 99.1432 91.6562 99.1328C91.5312 99.1276 91.4036 99.1198 91.2734 99.1094L91.0391 100.289C91.1328 100.31 91.2708 100.336 91.4531 100.367C91.6354 100.398 91.7943 100.414 91.9297 100.414ZM110.453 97H114.094C114.578 96.9948 115.047 96.9193 115.5 96.7734C115.958 96.6276 116.362 96.4167 116.711 96.1406C117.06 95.8698 117.339 95.5312 117.547 95.125C117.755 94.7188 117.857 94.25 117.852 93.7188C117.852 93.3802 117.799 93.0651 117.695 92.7734C117.596 92.4818 117.456 92.2188 117.273 91.9844C117.102 91.7708 116.883 91.5755 116.617 91.3984C116.352 91.2214 116.076 91.099 115.789 91.0312V91.0078C116.065 90.888 116.299 90.7604 116.492 90.625C116.69 90.4896 116.87 90.3229 117.031 90.125C117.188 89.9323 117.31 89.7135 117.398 89.4688C117.492 89.224 117.542 88.9531 117.547 88.6562C117.552 88.125 117.451 87.6693 117.242 87.2891C117.034 86.9089 116.755 86.5964 116.406 86.3516C116.057 86.1068 115.659 85.9271 115.211 85.8125C114.763 85.6927 114.305 85.6302 113.836 85.625H110.453V97ZM111.906 91.6797H114.211C114.518 91.6901 114.805 91.7422 115.07 91.8359C115.336 91.9297 115.568 92.0625 115.766 92.2344C115.964 92.4115 116.117 92.625 116.227 92.875C116.341 93.125 116.396 93.4115 116.391 93.7344C116.391 94.0521 116.328 94.3359 116.203 94.5859C116.083 94.8359 115.919 95.0469 115.711 95.2188C115.503 95.3906 115.263 95.526 114.992 95.625C114.721 95.7188 114.435 95.7682 114.133 95.7734H111.906V91.6797ZM111.906 90.4766V86.8594H113.883C114.164 86.8646 114.438 86.901 114.703 86.9688C114.974 87.0365 115.214 87.1406 115.422 87.2812C115.625 87.4271 115.786 87.612 115.906 87.8359C116.031 88.0599 116.094 88.3307 116.094 88.6484C116.094 88.9453 116.031 89.2057 115.906 89.4297C115.781 89.6536 115.617 89.8411 115.414 89.9922C115.211 90.1484 114.979 90.2682 114.719 90.3516C114.458 90.4297 114.193 90.4714 113.922 90.4766H111.906ZM125.648 97H126.961V88.5469H125.508V94.6094C125.43 94.7917 125.331 94.9609 125.211 95.1172C125.096 95.2682 124.961 95.3984 124.805 95.5078C124.617 95.6432 124.396 95.75 124.141 95.8281C123.885 95.901 123.596 95.9375 123.273 95.9375C122.997 95.9375 122.753 95.901 122.539 95.8281C122.331 95.7552 122.154 95.6276 122.008 95.4453C121.862 95.2682 121.753 95.0286 121.68 94.7266C121.607 94.4245 121.57 94.0443 121.57 93.5859V88.5469H120.125V93.5703C120.125 94.2005 120.193 94.7422 120.328 95.1953C120.469 95.6432 120.667 96.013 120.922 96.3047C121.177 96.5964 121.484 96.8125 121.844 96.9531C122.203 97.0885 122.604 97.1562 123.047 97.1562C123.599 97.1562 124.086 97.0417 124.508 96.8125C124.93 96.5781 125.281 96.2526 125.562 95.8359L125.648 97ZM133.109 86.5H131.656V88.5469H129.438V89.6641H131.656V94.2578C131.656 94.7786 131.724 95.224 131.859 95.5938C132 95.9583 132.19 96.2552 132.43 96.4844C132.669 96.7188 132.951 96.8906 133.273 97C133.602 97.1042 133.953 97.1562 134.328 97.1562C134.552 97.1562 134.776 97.1458 135 97.125C135.229 97.1042 135.445 97.0729 135.648 97.0312C135.852 96.9948 136.039 96.9505 136.211 96.8984C136.383 96.8411 136.529 96.776 136.648 96.7031L136.445 95.6797C136.357 95.7005 136.242 95.7266 136.102 95.7578C135.966 95.7839 135.82 95.8099 135.664 95.8359C135.503 95.862 135.339 95.8854 135.172 95.9062C135.005 95.9219 134.844 95.9297 134.688 95.9297C134.474 95.9297 134.271 95.9036 134.078 95.8516C133.891 95.7995 133.724 95.7083 133.578 95.5781C133.432 95.4531 133.318 95.2839 133.234 95.0703C133.151 94.8568 133.109 94.5859 133.109 94.2578V89.6641H136.328V88.5469H133.109V86.5ZM142.719 86.5H141.266V88.5469H139.047V89.6641H141.266V94.2578C141.266 94.7786 141.333 95.224 141.469 95.5938C141.609 95.9583 141.799 96.2552 142.039 96.4844C142.279 96.7188 142.56 96.8906 142.883 97C143.211 97.1042 143.562 97.1562 143.938 97.1562C144.161 97.1562 144.385 97.1458 144.609 97.125C144.839 97.1042 145.055 97.0729 145.258 97.0312C145.461 96.9948 145.648 96.9505 145.82 96.8984C145.992 96.8411 146.138 96.776 146.258 96.7031L146.055 95.6797C145.966 95.7005 145.852 95.7266 145.711 95.7578C145.576 95.7839 145.43 95.8099 145.273 95.8359C145.112 95.862 144.948 95.8854 144.781 95.9062C144.615 95.9219 144.453 95.9297 144.297 95.9297C144.083 95.9297 143.88 95.9036 143.688 95.8516C143.5 95.7995 143.333 95.7083 143.188 95.5781C143.042 95.4531 142.927 95.2839 142.844 95.0703C142.76 94.8568 142.719 94.5859 142.719 94.2578V89.6641H145.938V88.5469H142.719V86.5ZM148.5 92.6953V92.8672C148.5 93.4766 148.589 94.0417 148.766 94.5625C148.943 95.0833 149.198 95.5365 149.531 95.9219C149.859 96.3073 150.26 96.6094 150.734 96.8281C151.214 97.0469 151.753 97.1562 152.352 97.1562C152.945 97.1562 153.479 97.0469 153.953 96.8281C154.427 96.6094 154.831 96.3073 155.164 95.9219C155.492 95.5365 155.745 95.0833 155.922 94.5625C156.099 94.0417 156.188 93.4766 156.188 92.8672V92.6953C156.188 92.0859 156.099 91.5208 155.922 91C155.745 90.474 155.492 90.0182 155.164 89.6328C154.831 89.2474 154.424 88.9453 153.945 88.7266C153.471 88.5026 152.935 88.3906 152.336 88.3906C151.742 88.3906 151.208 88.5026 150.734 88.7266C150.26 88.9453 149.859 89.2474 149.531 89.6328C149.198 90.0182 148.943 90.474 148.766 91C148.589 91.5208 148.5 92.0859 148.5 92.6953ZM149.945 92.8672V92.6953C149.945 92.2839 149.995 91.8906 150.094 91.5156C150.193 91.1354 150.344 90.8021 150.547 90.5156C150.745 90.2292 150.992 90.0026 151.289 89.8359C151.586 89.6641 151.935 89.5781 152.336 89.5781C152.737 89.5781 153.086 89.6641 153.383 89.8359C153.685 90.0026 153.938 90.2292 154.141 90.5156C154.339 90.8021 154.487 91.1354 154.586 91.5156C154.69 91.8906 154.742 92.2839 154.742 92.6953V92.8672C154.742 93.2839 154.693 93.6823 154.594 94.0625C154.495 94.4375 154.346 94.7682 154.148 95.0547C153.945 95.3411 153.693 95.5677 153.391 95.7344C153.094 95.901 152.747 95.9844 152.352 95.9844C151.951 95.9844 151.599 95.901 151.297 95.7344C150.995 95.5677 150.745 95.3411 150.547 95.0547C150.344 94.7682 150.193 94.4375 150.094 94.0625C149.995 93.6823 149.945 93.2839 149.945 92.8672ZM158.516 97H159.961V90.9375C160.06 90.7552 160.174 90.5885 160.305 90.4375C160.44 90.2865 160.586 90.1536 160.742 90.0391C160.935 89.9089 161.146 89.8073 161.375 89.7344C161.604 89.6562 161.852 89.6172 162.117 89.6172C162.424 89.6172 162.695 89.6536 162.93 89.7266C163.169 89.7995 163.372 89.9167 163.539 90.0781C163.701 90.2396 163.823 90.4505 163.906 90.7109C163.99 90.9714 164.031 91.2891 164.031 91.6641V97H165.477V91.6328C165.477 91.0703 165.406 90.5859 165.266 90.1797C165.13 89.7682 164.935 89.4297 164.68 89.1641C164.424 88.8984 164.115 88.7031 163.75 88.5781C163.391 88.4531 162.99 88.3906 162.547 88.3906C162.219 88.3958 161.906 88.4453 161.609 88.5391C161.318 88.6276 161.047 88.7552 160.797 88.9219C160.63 89.0312 160.471 89.1615 160.32 89.3125C160.174 89.4583 160.039 89.6198 159.914 89.7969L159.812 88.5469H158.516V97ZM173.742 94.7578C173.742 94.8932 173.716 95.0208 173.664 95.1406C173.612 95.2604 173.536 95.3698 173.438 95.4688C173.276 95.6302 173.052 95.7578 172.766 95.8516C172.479 95.9401 172.143 95.9844 171.758 95.9844C171.513 95.9844 171.266 95.9583 171.016 95.9062C170.766 95.8542 170.539 95.7656 170.336 95.6406C170.128 95.5156 169.953 95.3516 169.812 95.1484C169.677 94.9453 169.599 94.6953 169.578 94.3984H168.133C168.133 94.7578 168.214 95.1042 168.375 95.4375C168.542 95.7708 168.781 96.0625 169.094 96.3125C169.401 96.5677 169.779 96.7734 170.227 96.9297C170.674 97.0807 171.185 97.1562 171.758 97.1562C172.258 97.1562 172.719 97.0964 173.141 96.9766C173.562 96.8568 173.924 96.6875 174.227 96.4688C174.529 96.25 174.763 95.987 174.93 95.6797C175.102 95.3724 175.188 95.0312 175.188 94.6562C175.188 94.3073 175.112 94 174.961 93.7344C174.815 93.4688 174.602 93.2344 174.32 93.0312C174.039 92.8333 173.693 92.6641 173.281 92.5234C172.87 92.3776 172.404 92.25 171.883 92.1406C171.487 92.0625 171.159 91.9818 170.898 91.8984C170.643 91.8151 170.44 91.7214 170.289 91.6172C170.133 91.513 170.023 91.3958 169.961 91.2656C169.898 91.1354 169.867 90.987 169.867 90.8203C169.867 90.6589 169.906 90.5026 169.984 90.3516C170.062 90.2005 170.18 90.0677 170.336 89.9531C170.487 89.8385 170.677 89.7474 170.906 89.6797C171.141 89.612 171.411 89.5781 171.719 89.5781C172.016 89.5781 172.281 89.6198 172.516 89.7031C172.755 89.7865 172.958 89.8958 173.125 90.0312C173.292 90.1667 173.422 90.3229 173.516 90.5C173.609 90.6719 173.656 90.849 173.656 91.0312H175.102C175.102 90.6615 175.021 90.3177 174.859 90C174.703 89.6771 174.479 89.3958 174.188 89.1562C173.896 88.9167 173.542 88.7292 173.125 88.5938C172.708 88.4583 172.24 88.3906 171.719 88.3906C171.234 88.3906 170.789 88.4557 170.383 88.5859C169.982 88.7161 169.635 88.8932 169.344 89.1172C169.052 89.3411 168.826 89.6042 168.664 89.9062C168.503 90.2031 168.422 90.5234 168.422 90.8672C168.422 91.2161 168.5 91.5234 168.656 91.7891C168.812 92.0495 169.034 92.276 169.32 92.4688C169.602 92.6667 169.94 92.8359 170.336 92.9766C170.737 93.1172 171.18 93.237 171.664 93.3359C172.06 93.4141 172.391 93.5026 172.656 93.6016C172.922 93.6953 173.135 93.7995 173.297 93.9141C173.458 94.0286 173.573 94.1562 173.641 94.2969C173.708 94.4323 173.742 94.5859 173.742 94.7578ZM63.1719 118H64.6797V117.875C64.5859 117.641 64.513 117.367 64.4609 117.055C64.4089 116.737 64.3828 116.438 64.3828 116.156V112.227C64.3828 111.753 64.2969 111.339 64.125 110.984C63.9531 110.63 63.7188 110.333 63.4219 110.094C63.1198 109.859 62.763 109.685 62.3516 109.57C61.9401 109.451 61.4948 109.391 61.0156 109.391C60.4896 109.391 60.0182 109.464 59.6016 109.609C59.1901 109.755 58.8411 109.945 58.5547 110.18C58.263 110.419 58.0391 110.688 57.8828 110.984C57.7318 111.281 57.6536 111.583 57.6484 111.891H59.1016C59.1016 111.714 59.1432 111.544 59.2266 111.383C59.3151 111.216 59.4375 111.073 59.5938 110.953C59.75 110.833 59.9401 110.737 60.1641 110.664C60.3932 110.591 60.651 110.555 60.9375 110.555C61.2448 110.555 61.5208 110.594 61.7656 110.672C62.0156 110.75 62.2266 110.859 62.3984 111C62.5703 111.146 62.7031 111.32 62.7969 111.523C62.8906 111.727 62.9375 111.956 62.9375 112.211V112.875H61.3594C60.7708 112.875 60.237 112.932 59.7578 113.047C59.2839 113.161 58.8776 113.333 58.5391 113.562C58.2005 113.797 57.9375 114.089 57.75 114.438C57.5677 114.786 57.4766 115.193 57.4766 115.656C57.4766 116.01 57.5443 116.341 57.6797 116.648C57.8203 116.951 58.0182 117.211 58.2734 117.43C58.5234 117.654 58.8281 117.831 59.1875 117.961C59.5521 118.091 59.9583 118.156 60.4062 118.156C60.6823 118.156 60.9427 118.128 61.1875 118.07C61.4323 118.013 61.6641 117.935 61.8828 117.836C62.0964 117.737 62.2917 117.622 62.4688 117.492C62.651 117.362 62.8151 117.224 62.9609 117.078C62.9766 117.255 63 117.427 63.0312 117.594C63.0677 117.755 63.1146 117.891 63.1719 118ZM60.6172 116.898C60.3359 116.898 60.0885 116.862 59.875 116.789C59.6615 116.716 59.4844 116.615 59.3438 116.484C59.2031 116.359 59.0964 116.208 59.0234 116.031C58.9557 115.854 58.9219 115.661 58.9219 115.453C58.9219 115.234 58.9609 115.039 59.0391 114.867C59.1224 114.695 59.2422 114.547 59.3984 114.422C59.6172 114.245 59.9115 114.115 60.2812 114.031C60.6562 113.943 61.0938 113.898 61.5938 113.898H62.9375V115.609C62.8542 115.776 62.7396 115.938 62.5938 116.094C62.4479 116.245 62.276 116.38 62.0781 116.5C61.875 116.62 61.651 116.716 61.4062 116.789C61.1615 116.862 60.8984 116.898 60.6172 116.898ZM67.2266 118H68.6719V111.938C68.7708 111.755 68.8854 111.589 69.0156 111.438C69.151 111.286 69.2969 111.154 69.4531 111.039C69.6458 110.909 69.8568 110.807 70.0859 110.734C70.3151 110.656 70.5625 110.617 70.8281 110.617C71.1354 110.617 71.4062 110.654 71.6406 110.727C71.8802 110.799 72.0833 110.917 72.25 111.078C72.4115 111.24 72.5339 111.451 72.6172 111.711C72.7005 111.971 72.7422 112.289 72.7422 112.664V118H74.1875V112.633C74.1875 112.07 74.1172 111.586 73.9766 111.18C73.8411 110.768 73.6458 110.43 73.3906 110.164C73.1354 109.898 72.8255 109.703 72.4609 109.578C72.1016 109.453 71.7005 109.391 71.2578 109.391C70.9297 109.396 70.6172 109.445 70.3203 109.539C70.0286 109.628 69.7578 109.755 69.5078 109.922C69.3411 110.031 69.1823 110.161 69.0312 110.312C68.8854 110.458 68.75 110.62 68.625 110.797L68.5234 109.547H67.2266V118ZM76.5625 113.703V113.867C76.5625 114.471 76.6432 115.036 76.8047 115.562C76.9661 116.083 77.1927 116.536 77.4844 116.922C77.776 117.307 78.1276 117.609 78.5391 117.828C78.9557 118.047 79.4193 118.156 79.9297 118.156C80.4505 118.156 80.9062 118.068 81.2969 117.891C81.6875 117.714 82.0234 117.453 82.3047 117.109L82.3672 118H83.6953V106H82.25V110.383C81.974 110.06 81.6458 109.815 81.2656 109.648C80.8906 109.477 80.4505 109.391 79.9453 109.391C79.4297 109.391 78.9635 109.497 78.5469 109.711C78.1302 109.924 77.776 110.221 77.4844 110.602C77.1875 110.982 76.9583 111.438 76.7969 111.969C76.6406 112.495 76.5625 113.073 76.5625 113.703ZM78.0078 113.867V113.703C78.0078 113.292 78.0521 112.901 78.1406 112.531C78.2292 112.156 78.3672 111.826 78.5547 111.539C78.737 111.258 78.9714 111.034 79.2578 110.867C79.5495 110.701 79.8984 110.617 80.3047 110.617C80.7786 110.617 81.1745 110.729 81.4922 110.953C81.8099 111.172 82.0625 111.453 82.25 111.797V115.719C82.0625 116.089 81.8099 116.383 81.4922 116.602C81.1745 116.82 80.7734 116.93 80.2891 116.93C79.888 116.93 79.5443 116.849 79.2578 116.688C78.9714 116.521 78.737 116.297 78.5547 116.016C78.3672 115.734 78.2292 115.409 78.1406 115.039C78.0521 114.669 78.0078 114.279 78.0078 113.867ZM97.6875 116.773V106.625H96.2422V118H103.25V116.773H97.6875ZM105.891 109.547V110.805H108.766V116.75H105.891V118H112.969V116.75H110.211V109.547H105.891ZM108.578 107.328C108.578 107.562 108.648 107.758 108.789 107.914C108.935 108.07 109.154 108.148 109.445 108.148C109.732 108.148 109.948 108.07 110.094 107.914C110.24 107.758 110.312 107.562 110.312 107.328C110.312 107.198 110.292 107.078 110.25 106.969C110.208 106.859 110.146 106.768 110.062 106.695C109.995 106.628 109.909 106.576 109.805 106.539C109.701 106.497 109.581 106.477 109.445 106.477C109.31 106.477 109.188 106.497 109.078 106.539C108.974 106.576 108.888 106.628 108.82 106.695C108.737 106.773 108.674 106.867 108.633 106.977C108.596 107.086 108.578 107.203 108.578 107.328ZM115.273 118H116.719V111.938C116.818 111.755 116.932 111.589 117.062 111.438C117.198 111.286 117.344 111.154 117.5 111.039C117.693 110.909 117.904 110.807 118.133 110.734C118.362 110.656 118.609 110.617 118.875 110.617C119.182 110.617 119.453 110.654 119.688 110.727C119.927 110.799 120.13 110.917 120.297 111.078C120.458 111.24 120.581 111.451 120.664 111.711C120.747 111.971 120.789 112.289 120.789 112.664V118H122.234V112.633C122.234 112.07 122.164 111.586 122.023 111.18C121.888 110.768 121.693 110.43 121.438 110.164C121.182 109.898 120.872 109.703 120.508 109.578C120.148 109.453 119.747 109.391 119.305 109.391C118.977 109.396 118.664 109.445 118.367 109.539C118.076 109.628 117.805 109.755 117.555 109.922C117.388 110.031 117.229 110.161 117.078 110.312C116.932 110.458 116.797 110.62 116.672 110.797L116.57 109.547H115.273V118ZM127.414 114.055L130.516 118H132.352L128.406 113.07L131.828 109.547H130.07L127.297 112.328L126.352 113.344V106H124.898V118H126.352V115.078L127.414 114.055ZM140.109 115.758C140.109 115.893 140.083 116.021 140.031 116.141C139.979 116.26 139.904 116.37 139.805 116.469C139.643 116.63 139.419 116.758 139.133 116.852C138.846 116.94 138.51 116.984 138.125 116.984C137.88 116.984 137.633 116.958 137.383 116.906C137.133 116.854 136.906 116.766 136.703 116.641C136.495 116.516 136.32 116.352 136.18 116.148C136.044 115.945 135.966 115.695 135.945 115.398H134.5C134.5 115.758 134.581 116.104 134.742 116.438C134.909 116.771 135.148 117.062 135.461 117.312C135.768 117.568 136.146 117.773 136.594 117.93C137.042 118.081 137.552 118.156 138.125 118.156C138.625 118.156 139.086 118.096 139.508 117.977C139.93 117.857 140.292 117.688 140.594 117.469C140.896 117.25 141.13 116.987 141.297 116.68C141.469 116.372 141.555 116.031 141.555 115.656C141.555 115.307 141.479 115 141.328 114.734C141.182 114.469 140.969 114.234 140.688 114.031C140.406 113.833 140.06 113.664 139.648 113.523C139.237 113.378 138.771 113.25 138.25 113.141C137.854 113.062 137.526 112.982 137.266 112.898C137.01 112.815 136.807 112.721 136.656 112.617C136.5 112.513 136.391 112.396 136.328 112.266C136.266 112.135 136.234 111.987 136.234 111.82C136.234 111.659 136.273 111.503 136.352 111.352C136.43 111.201 136.547 111.068 136.703 110.953C136.854 110.839 137.044 110.747 137.273 110.68C137.508 110.612 137.779 110.578 138.086 110.578C138.383 110.578 138.648 110.62 138.883 110.703C139.122 110.786 139.326 110.896 139.492 111.031C139.659 111.167 139.789 111.323 139.883 111.5C139.977 111.672 140.023 111.849 140.023 112.031H141.469C141.469 111.661 141.388 111.318 141.227 111C141.07 110.677 140.846 110.396 140.555 110.156C140.263 109.917 139.909 109.729 139.492 109.594C139.076 109.458 138.607 109.391 138.086 109.391C137.602 109.391 137.156 109.456 136.75 109.586C136.349 109.716 136.003 109.893 135.711 110.117C135.419 110.341 135.193 110.604 135.031 110.906C134.87 111.203 134.789 111.523 134.789 111.867C134.789 112.216 134.867 112.523 135.023 112.789C135.18 113.049 135.401 113.276 135.688 113.469C135.969 113.667 136.307 113.836 136.703 113.977C137.104 114.117 137.547 114.237 138.031 114.336C138.427 114.414 138.758 114.503 139.023 114.602C139.289 114.695 139.503 114.799 139.664 114.914C139.826 115.029 139.94 115.156 140.008 115.297C140.076 115.432 140.109 115.586 140.109 115.758Z" fill="black"/>
</svg>
