<svg width="200" height="200" viewBox="0 0 200 200" fill="none" xmlns="http://www.w3.org/2000/svg">
<rect width="200" height="200" fill="white"/>
<circle cx="100" cy="100" r="98" stroke="#6176AF" stroke-width="4"/>
<path d="M50.6016 93.9688V92.6719C50.5964 92.2656 50.5599 91.8542 50.4922 91.4375C50.4297 91.0208 50.3307 90.6198 50.1953 90.2344C50.0547 89.849 49.8776 89.4896 49.6641 89.1562C49.4557 88.8177 49.2057 88.5234 48.9141 88.2734C48.6224 88.0234 48.2865 87.8281 47.9062 87.6875C47.526 87.5417 47.1016 87.4688 46.6328 87.4688C46.1641 87.4688 45.7396 87.5417 45.3594 87.6875C44.9844 87.8281 44.651 88.0234 44.3594 88.2734C44.0677 88.5286 43.8151 88.8255 43.6016 89.1641C43.3932 89.4974 43.2214 89.8568 43.0859 90.2422C42.9453 90.6276 42.8411 91.0286 42.7734 91.4453C42.7109 91.8568 42.6771 92.2656 42.6719 92.6719V93.9688C42.6771 94.375 42.7135 94.7839 42.7812 95.1953C42.849 95.6068 42.9531 96.0052 43.0938 96.3906C43.2292 96.776 43.4036 97.138 43.6172 97.4766C43.8307 97.8099 44.0833 98.1016 44.375 98.3516C44.6667 98.6016 45 98.7995 45.375 98.9453C45.7552 99.0859 46.1797 99.1562 46.6484 99.1562C47.1172 99.1562 47.5391 99.0859 47.9141 98.9453C48.2943 98.7995 48.6302 98.6016 48.9219 98.3516C49.2135 98.1016 49.4635 97.8099 49.6719 97.4766C49.8854 97.1432 50.0599 96.7839 50.1953 96.3984C50.3307 96.013 50.4297 95.6146 50.4922 95.2031C50.5599 94.7865 50.5964 94.375 50.6016 93.9688ZM49.1719 92.6562V93.9688C49.1667 94.2396 49.1484 94.5234 49.1172 94.8203C49.0911 95.1172 49.0417 95.4089 48.9688 95.6953C48.8906 95.987 48.7891 96.2656 48.6641 96.5312C48.5443 96.7917 48.3932 97.0208 48.2109 97.2188C48.0234 97.4219 47.7995 97.5833 47.5391 97.7031C47.2839 97.8229 46.987 97.8828 46.6484 97.8828C46.3099 97.8828 46.013 97.8229 45.7578 97.7031C45.5026 97.5833 45.2812 97.4219 45.0938 97.2188C44.9062 97.0208 44.75 96.7891 44.625 96.5234C44.5 96.2578 44.3984 95.9792 44.3203 95.6875C44.2422 95.401 44.1849 95.1094 44.1484 94.8125C44.1172 94.5156 44.099 94.2344 44.0938 93.9688V92.6562C44.099 92.3906 44.1172 92.112 44.1484 91.8203C44.1849 91.5234 44.2422 91.2292 44.3203 90.9375C44.3932 90.651 44.4922 90.3776 44.6172 90.1172C44.7422 89.8516 44.8984 89.6172 45.0859 89.4141C45.2734 89.2161 45.4948 89.0573 45.75 88.9375C46.0052 88.8177 46.2995 88.7578 46.6328 88.7578C46.9714 88.7578 47.2682 88.8177 47.5234 88.9375C47.7786 89.0521 48 89.2083 48.1875 89.4062C48.375 89.6094 48.5312 89.8438 48.6562 90.1094C48.7812 90.3698 48.8828 90.6432 48.9609 90.9297C49.0339 91.2214 49.0859 91.5156 49.1172 91.8125C49.1484 92.1042 49.1667 92.3854 49.1719 92.6562ZM55.6953 99H56.7969L60.2422 90.5469H58.7656L56.3984 96.9219L56.2578 97.4453L56.125 96.9219L53.7031 90.5469H52.2188L55.6953 99ZM66.1562 99.1562C66.9792 99.1562 67.6693 98.9922 68.2266 98.6641C68.7891 98.3307 69.2109 97.9505 69.4922 97.5234L68.6094 96.8359C68.3438 97.1797 68.0104 97.4557 67.6094 97.6641C67.2083 97.8724 66.75 97.9766 66.2344 97.9766C65.8438 97.9766 65.487 97.9036 65.1641 97.7578C64.8411 97.612 64.5651 97.4115 64.3359 97.1562C64.112 96.9167 63.9349 96.6406 63.8047 96.3281C63.6797 96.0156 63.599 95.6536 63.5625 95.2422V95.1875H69.6016V94.5391C69.6016 93.9505 69.526 93.4036 69.375 92.8984C69.2292 92.3932 69.0052 91.9531 68.7031 91.5781C68.401 91.2083 68.0208 90.9193 67.5625 90.7109C67.1094 90.4974 66.5781 90.3906 65.9688 90.3906C65.4844 90.3906 65.0104 90.4896 64.5469 90.6875C64.0885 90.8854 63.6797 91.1693 63.3203 91.5391C62.9557 91.9141 62.6641 92.3724 62.4453 92.9141C62.2266 93.4505 62.1172 94.0599 62.1172 94.7422V95.0703C62.1172 95.6589 62.2161 96.2031 62.4141 96.7031C62.612 97.2031 62.888 97.6354 63.2422 98C63.5964 98.3646 64.0208 98.6484 64.5156 98.8516C65.0156 99.0547 65.5625 99.1562 66.1562 99.1562ZM65.9688 91.5781C66.3385 91.5781 66.6562 91.6458 66.9219 91.7812C67.1927 91.9167 67.4167 92.0938 67.5938 92.3125C67.7708 92.5312 67.9089 92.7917 68.0078 93.0938C68.1068 93.3906 68.1562 93.6693 68.1562 93.9297V94H63.6094C63.6667 93.6094 63.7656 93.2656 63.9062 92.9688C64.0521 92.6667 64.2292 92.4115 64.4375 92.2031C64.6458 92 64.8802 91.8464 65.1406 91.7422C65.401 91.6328 65.6771 91.5781 65.9688 91.5781ZM77.5703 90.3906C76.9557 90.3906 76.4062 90.526 75.9219 90.7969C75.4427 91.0625 75.0312 91.4271 74.6875 91.8906L74.6797 91.6797L74.6172 90.5469H73.2422V99H74.6953V93.5781C74.7891 93.3177 74.9062 93.0833 75.0469 92.875C75.1927 92.6615 75.362 92.4818 75.5547 92.3359C75.7682 92.1693 76.0182 92.0443 76.3047 91.9609C76.5911 91.8724 76.9115 91.8281 77.2656 91.8281C77.5417 91.8281 77.8047 91.8438 78.0547 91.875C78.3099 91.901 78.5781 91.9453 78.8594 92.0078L79.0547 90.5938C78.9089 90.5312 78.6901 90.4818 78.3984 90.4453C78.112 90.4089 77.8359 90.3906 77.5703 90.3906ZM82.4531 99H83.5938L84.8984 93.8203L85.1094 92.5078L85.3281 93.8203L86.6484 99H87.7891L89.5859 90.5469H88.3047L87.3672 95.9375L87.1562 97.2656L86.9297 95.9375L85.5859 90.5469H84.6562L83.3047 95.9375L83.0938 97.1484L82.9219 95.9375L81.9375 90.5469H80.6562L82.4531 99ZM92.6953 91.8047V87H91.25V99H92.6953V92.8594C92.7995 92.6927 92.9167 92.5417 93.0469 92.4062C93.1823 92.2656 93.3281 92.1432 93.4844 92.0391C93.6823 91.9036 93.8984 91.7995 94.1328 91.7266C94.3672 91.6536 94.6146 91.6172 94.875 91.6172C95.1927 91.612 95.474 91.6562 95.7188 91.75C95.9635 91.8385 96.1667 91.974 96.3281 92.1562C96.4792 92.3229 96.5938 92.5339 96.6719 92.7891C96.75 93.0391 96.7891 93.3307 96.7891 93.6641V99H98.2344V93.6797C98.2344 93.112 98.1641 92.6224 98.0234 92.2109C97.888 91.7943 97.6927 91.4505 97.4375 91.1797C97.1823 90.9089 96.8724 90.7109 96.5078 90.5859C96.1484 90.4557 95.7474 90.3906 95.3047 90.3906C94.9661 90.3958 94.6458 90.4453 94.3438 90.5391C94.0469 90.6328 93.7734 90.7708 93.5234 90.9531C93.3672 91.0625 93.2188 91.1901 93.0781 91.3359C92.9375 91.4766 92.8099 91.6328 92.6953 91.8047ZM104.594 99.1562C105.417 99.1562 106.107 98.9922 106.664 98.6641C107.227 98.3307 107.648 97.9505 107.93 97.5234L107.047 96.8359C106.781 97.1797 106.448 97.4557 106.047 97.6641C105.646 97.8724 105.188 97.9766 104.672 97.9766C104.281 97.9766 103.924 97.9036 103.602 97.7578C103.279 97.612 103.003 97.4115 102.773 97.1562C102.549 96.9167 102.372 96.6406 102.242 96.3281C102.117 96.0156 102.036 95.6536 102 95.2422V95.1875H108.039V94.5391C108.039 93.9505 107.964 93.4036 107.812 92.8984C107.667 92.3932 107.443 91.9531 107.141 91.5781C106.839 91.2083 106.458 90.9193 106 90.7109C105.547 90.4974 105.016 90.3906 104.406 90.3906C103.922 90.3906 103.448 90.4896 102.984 90.6875C102.526 90.8854 102.117 91.1693 101.758 91.5391C101.393 91.9141 101.102 92.3724 100.883 92.9141C100.664 93.4505 100.555 94.0599 100.555 94.7422V95.0703C100.555 95.6589 100.654 96.2031 100.852 96.7031C101.049 97.2031 101.326 97.6354 101.68 98C102.034 98.3646 102.458 98.6484 102.953 98.8516C103.453 99.0547 104 99.1562 104.594 99.1562ZM104.406 91.5781C104.776 91.5781 105.094 91.6458 105.359 91.7812C105.63 91.9167 105.854 92.0938 106.031 92.3125C106.208 92.5312 106.346 92.7917 106.445 93.0938C106.544 93.3906 106.594 93.6693 106.594 93.9297V94H102.047C102.104 93.6094 102.203 93.2656 102.344 92.9688C102.49 92.6667 102.667 92.4115 102.875 92.2031C103.083 92 103.318 91.8464 103.578 91.7422C103.839 91.6328 104.115 91.5781 104.406 91.5781ZM110.695 87V88.2578H113.57V97.75H110.695V99H117.773V97.75H115.016V87H110.695ZM120.742 90.5469H119.445V99H120.82V92.2734C120.852 92.1901 120.891 92.112 120.938 92.0391C120.99 91.9661 121.049 91.901 121.117 91.8438C121.206 91.7708 121.312 91.7161 121.438 91.6797C121.568 91.638 121.719 91.6172 121.891 91.6172C122.047 91.6172 122.182 91.638 122.297 91.6797C122.417 91.7161 122.516 91.776 122.594 91.8594C122.677 91.9479 122.737 92.0599 122.773 92.1953C122.815 92.3307 122.836 92.487 122.836 92.6641V99H124.211V92.6719C124.211 92.6406 124.211 92.6146 124.211 92.5938C124.211 92.5677 124.211 92.5417 124.211 92.5156C124.227 92.3854 124.258 92.2682 124.305 92.1641C124.352 92.0547 124.417 91.9583 124.5 91.875C124.583 91.7969 124.688 91.7344 124.812 91.6875C124.938 91.6406 125.086 91.6172 125.258 91.6172C125.419 91.6172 125.56 91.638 125.68 91.6797C125.805 91.7214 125.909 91.7839 125.992 91.8672C126.07 91.9557 126.13 92.0677 126.172 92.2031C126.214 92.3385 126.234 92.4948 126.234 92.6719V99H127.609V92.6875C127.609 92.2812 127.562 91.9297 127.469 91.6328C127.375 91.3307 127.24 91.0859 127.062 90.8984C126.901 90.7318 126.703 90.6068 126.469 90.5234C126.234 90.4349 125.971 90.3906 125.68 90.3906C125.466 90.3958 125.268 90.4245 125.086 90.4766C124.909 90.5286 124.747 90.599 124.602 90.6875C124.487 90.7656 124.38 90.8568 124.281 90.9609C124.182 91.0651 124.096 91.1771 124.023 91.2969C123.966 91.1667 123.896 91.0495 123.812 90.9453C123.734 90.8411 123.646 90.7526 123.547 90.6797C123.411 90.5859 123.253 90.5156 123.07 90.4688C122.893 90.4167 122.693 90.3906 122.469 90.3906C122.073 90.3958 121.734 90.4818 121.453 90.6484C121.177 90.8151 120.953 91.0469 120.781 91.3438L120.742 90.5469ZM129.914 90.5469V91.8047H132.789V97.75H129.914V99H136.992V97.75H134.234V90.5469H129.914ZM132.602 88.3281C132.602 88.5625 132.672 88.7578 132.812 88.9141C132.958 89.0703 133.177 89.1484 133.469 89.1484C133.755 89.1484 133.971 89.0703 134.117 88.9141C134.263 88.7578 134.336 88.5625 134.336 88.3281C134.336 88.1979 134.315 88.0781 134.273 87.9688C134.232 87.8594 134.169 87.7682 134.086 87.6953C134.018 87.6276 133.932 87.5755 133.828 87.5391C133.724 87.4974 133.604 87.4766 133.469 87.4766C133.333 87.4766 133.211 87.4974 133.102 87.5391C132.997 87.5755 132.911 87.6276 132.844 87.6953C132.76 87.7734 132.698 87.8672 132.656 87.9766C132.62 88.0859 132.602 88.2031 132.602 88.3281ZM139.297 99H140.742V92.9375C140.841 92.7552 140.956 92.5885 141.086 92.4375C141.221 92.2865 141.367 92.1536 141.523 92.0391C141.716 91.9089 141.927 91.8073 142.156 91.7344C142.385 91.6562 142.633 91.6172 142.898 91.6172C143.206 91.6172 143.477 91.6536 143.711 91.7266C143.951 91.7995 144.154 91.9167 144.32 92.0781C144.482 92.2396 144.604 92.4505 144.688 92.7109C144.771 92.9714 144.812 93.2891 144.812 93.6641V99H146.258V93.6328C146.258 93.0703 146.188 92.5859 146.047 92.1797C145.911 91.7682 145.716 91.4297 145.461 91.1641C145.206 90.8984 144.896 90.7031 144.531 90.5781C144.172 90.4531 143.771 90.3906 143.328 90.3906C143 90.3958 142.688 90.4453 142.391 90.5391C142.099 90.6276 141.828 90.7552 141.578 90.9219C141.411 91.0312 141.253 91.1615 141.102 91.3125C140.956 91.4583 140.82 91.6198 140.695 91.7969L140.594 90.5469H139.297V99ZM148.641 94.7031V94.8672C148.641 95.4714 148.719 96.0365 148.875 96.5625C149.031 97.0833 149.255 97.5365 149.547 97.9219C149.833 98.3073 150.185 98.6094 150.602 98.8281C151.018 99.0469 151.484 99.1562 152 99.1562C152.307 99.1562 152.594 99.1224 152.859 99.0547C153.125 98.9922 153.367 98.901 153.586 98.7812C153.727 98.7031 153.857 98.612 153.977 98.5078C154.102 98.4036 154.219 98.2891 154.328 98.1641V98.8906C154.328 99.2552 154.276 99.5781 154.172 99.8594C154.068 100.141 153.919 100.375 153.727 100.562C153.529 100.755 153.292 100.901 153.016 101C152.74 101.099 152.43 101.148 152.086 101.148C151.893 101.148 151.701 101.128 151.508 101.086C151.315 101.049 151.122 100.987 150.93 100.898C150.737 100.81 150.547 100.69 150.359 100.539C150.172 100.393 149.99 100.214 149.812 100L149.062 100.867C149.255 101.143 149.484 101.375 149.75 101.562C150.021 101.75 150.302 101.898 150.594 102.008C150.88 102.122 151.164 102.203 151.445 102.25C151.727 102.302 151.977 102.328 152.195 102.328C152.727 102.328 153.211 102.25 153.648 102.094C154.086 101.938 154.464 101.708 154.781 101.406C155.094 101.104 155.336 100.737 155.508 100.305C155.685 99.8724 155.773 99.3776 155.773 98.8203V90.5469H154.461L154.391 91.4688C154.292 91.3438 154.185 91.2292 154.07 91.125C153.961 91.0208 153.844 90.9297 153.719 90.8516C153.49 90.7005 153.232 90.5859 152.945 90.5078C152.664 90.4297 152.354 90.3906 152.016 90.3906C151.49 90.3906 151.018 90.4974 150.602 90.7109C150.185 90.9245 149.831 91.2214 149.539 91.6016C149.247 91.9818 149.023 92.4375 148.867 92.9688C148.716 93.4948 148.641 94.0729 148.641 94.7031ZM150.086 94.8672V94.7031C150.086 94.2917 150.128 93.901 150.211 93.5312C150.299 93.1562 150.438 92.8255 150.625 92.5391C150.807 92.2578 151.042 92.0339 151.328 91.8672C151.62 91.7005 151.969 91.6172 152.375 91.6172C152.615 91.6172 152.833 91.6484 153.031 91.7109C153.229 91.7682 153.409 91.849 153.57 91.9531C153.732 92.0625 153.875 92.1901 154 92.3359C154.125 92.4818 154.234 92.6432 154.328 92.8203V96.6953C154.234 96.8776 154.125 97.0443 154 97.1953C153.875 97.3464 153.734 97.4766 153.578 97.5859C153.417 97.6953 153.234 97.7812 153.031 97.8438C152.833 97.901 152.609 97.9297 152.359 97.9297C151.958 97.9297 151.615 97.849 151.328 97.6875C151.042 97.5208 150.807 97.2969 150.625 97.0156C150.438 96.7344 150.299 96.4089 150.211 96.0391C150.128 95.6693 150.086 95.2786 150.086 94.8672ZM39.0234 117.055L39.9219 120H41.3594L37.75 108.625H36.5391L32.8672 120H34.3125L35.2266 117.055H39.0234ZM35.6172 115.797L37.1406 110.859L38.6406 115.797H35.6172ZM43.8672 111.547H42.5703V120H43.9453V113.273C43.9766 113.19 44.0156 113.112 44.0625 113.039C44.1146 112.966 44.1745 112.901 44.2422 112.844C44.3307 112.771 44.4375 112.716 44.5625 112.68C44.6927 112.638 44.8438 112.617 45.0156 112.617C45.1719 112.617 45.3073 112.638 45.4219 112.68C45.5417 112.716 45.6406 112.776 45.7188 112.859C45.8021 112.948 45.862 113.06 45.8984 113.195C45.9401 113.331 45.9609 113.487 45.9609 113.664V120H47.3359V113.672C47.3359 113.641 47.3359 113.615 47.3359 113.594C47.3359 113.568 47.3359 113.542 47.3359 113.516C47.3516 113.385 47.3828 113.268 47.4297 113.164C47.4766 113.055 47.5417 112.958 47.625 112.875C47.7083 112.797 47.8125 112.734 47.9375 112.688C48.0625 112.641 48.2109 112.617 48.3828 112.617C48.5443 112.617 48.6849 112.638 48.8047 112.68C48.9297 112.721 49.0339 112.784 49.1172 112.867C49.1953 112.956 49.2552 113.068 49.2969 113.203C49.3385 113.339 49.3594 113.495 49.3594 113.672V120H50.7344V113.688C50.7344 113.281 50.6875 112.93 50.5938 112.633C50.5 112.331 50.3646 112.086 50.1875 111.898C50.026 111.732 49.8281 111.607 49.5938 111.523C49.3594 111.435 49.0964 111.391 48.8047 111.391C48.5911 111.396 48.3932 111.424 48.2109 111.477C48.0339 111.529 47.8724 111.599 47.7266 111.688C47.612 111.766 47.5052 111.857 47.4062 111.961C47.3073 112.065 47.2214 112.177 47.1484 112.297C47.0911 112.167 47.0208 112.049 46.9375 111.945C46.8594 111.841 46.7708 111.753 46.6719 111.68C46.5365 111.586 46.3776 111.516 46.1953 111.469C46.0182 111.417 45.8177 111.391 45.5938 111.391C45.1979 111.396 44.8594 111.482 44.5781 111.648C44.3021 111.815 44.0781 112.047 43.9062 112.344L43.8672 111.547ZM52.4062 115.695V115.867C52.4062 116.477 52.4948 117.042 52.6719 117.562C52.849 118.083 53.1042 118.536 53.4375 118.922C53.7656 119.307 54.1667 119.609 54.6406 119.828C55.1198 120.047 55.6589 120.156 56.2578 120.156C56.8516 120.156 57.3854 120.047 57.8594 119.828C58.3333 119.609 58.737 119.307 59.0703 118.922C59.3984 118.536 59.651 118.083 59.8281 117.562C60.0052 117.042 60.0938 116.477 60.0938 115.867V115.695C60.0938 115.086 60.0052 114.521 59.8281 114C59.651 113.474 59.3984 113.018 59.0703 112.633C58.737 112.247 58.3307 111.945 57.8516 111.727C57.3776 111.503 56.8411 111.391 56.2422 111.391C55.6484 111.391 55.1146 111.503 54.6406 111.727C54.1667 111.945 53.7656 112.247 53.4375 112.633C53.1042 113.018 52.849 113.474 52.6719 114C52.4948 114.521 52.4062 115.086 52.4062 115.695ZM53.8516 115.867V115.695C53.8516 115.284 53.901 114.891 54 114.516C54.099 114.135 54.25 113.802 54.4531 113.516C54.651 113.229 54.8984 113.003 55.1953 112.836C55.4922 112.664 55.8411 112.578 56.2422 112.578C56.6432 112.578 56.9922 112.664 57.2891 112.836C57.5911 113.003 57.8438 113.229 58.0469 113.516C58.2448 113.802 58.3932 114.135 58.4922 114.516C58.5964 114.891 58.6484 115.284 58.6484 115.695V115.867C58.6484 116.284 58.599 116.682 58.5 117.062C58.401 117.438 58.2526 117.768 58.0547 118.055C57.8516 118.341 57.599 118.568 57.2969 118.734C57 118.901 56.6536 118.984 56.2578 118.984C55.8568 118.984 55.5052 118.901 55.2031 118.734C54.901 118.568 54.651 118.341 54.4531 118.055C54.25 117.768 54.099 117.438 54 117.062C53.901 116.682 53.8516 116.284 53.8516 115.867ZM67.9922 120H69.3047V111.547H67.8516V117.609C67.7734 117.792 67.6745 117.961 67.5547 118.117C67.4401 118.268 67.3047 118.398 67.1484 118.508C66.9609 118.643 66.7396 118.75 66.4844 118.828C66.2292 118.901 65.9401 118.938 65.6172 118.938C65.3411 118.938 65.0964 118.901 64.8828 118.828C64.6745 118.755 64.4974 118.628 64.3516 118.445C64.2057 118.268 64.0964 118.029 64.0234 117.727C63.9505 117.424 63.9141 117.044 63.9141 116.586V111.547H62.4688V116.57C62.4688 117.201 62.5365 117.742 62.6719 118.195C62.8125 118.643 63.0104 119.013 63.2656 119.305C63.5208 119.596 63.8281 119.812 64.1875 119.953C64.5469 120.089 64.9479 120.156 65.3906 120.156C65.9427 120.156 66.4297 120.042 66.8516 119.812C67.2734 119.578 67.625 119.253 67.9062 118.836L67.9922 120ZM72.0312 120H73.4766V113.938C73.5755 113.755 73.6901 113.589 73.8203 113.438C73.9557 113.286 74.1016 113.154 74.2578 113.039C74.4505 112.909 74.6615 112.807 74.8906 112.734C75.1198 112.656 75.3672 112.617 75.6328 112.617C75.9401 112.617 76.2109 112.654 76.4453 112.727C76.6849 112.799 76.888 112.917 77.0547 113.078C77.2161 113.24 77.3385 113.451 77.4219 113.711C77.5052 113.971 77.5469 114.289 77.5469 114.664V120H78.9922V114.633C78.9922 114.07 78.9219 113.586 78.7812 113.18C78.6458 112.768 78.4505 112.43 78.1953 112.164C77.9401 111.898 77.6302 111.703 77.2656 111.578C76.9062 111.453 76.5052 111.391 76.0625 111.391C75.7344 111.396 75.4219 111.445 75.125 111.539C74.8333 111.628 74.5625 111.755 74.3125 111.922C74.1458 112.031 73.987 112.161 73.8359 112.312C73.6901 112.458 73.5547 112.62 73.4297 112.797L73.3281 111.547H72.0312V120ZM85.0625 109.5H83.6094V111.547H81.3906V112.664H83.6094V117.258C83.6094 117.779 83.6771 118.224 83.8125 118.594C83.9531 118.958 84.1432 119.255 84.3828 119.484C84.6224 119.719 84.9036 119.891 85.2266 120C85.5547 120.104 85.9062 120.156 86.2812 120.156C86.5052 120.156 86.7292 120.146 86.9531 120.125C87.1823 120.104 87.3984 120.073 87.6016 120.031C87.8047 119.995 87.9922 119.951 88.1641 119.898C88.3359 119.841 88.4818 119.776 88.6016 119.703L88.3984 118.68C88.3099 118.701 88.1953 118.727 88.0547 118.758C87.9193 118.784 87.7734 118.81 87.6172 118.836C87.4557 118.862 87.2917 118.885 87.125 118.906C86.9583 118.922 86.7969 118.93 86.6406 118.93C86.4271 118.93 86.224 118.904 86.0312 118.852C85.8438 118.799 85.6771 118.708 85.5312 118.578C85.3854 118.453 85.2708 118.284 85.1875 118.07C85.1042 117.857 85.0625 117.586 85.0625 117.258V112.664H88.2812V111.547H85.0625V109.5ZM100.453 115.695V115.867C100.453 116.477 100.542 117.042 100.719 117.562C100.896 118.083 101.151 118.536 101.484 118.922C101.812 119.307 102.214 119.609 102.688 119.828C103.167 120.047 103.706 120.156 104.305 120.156C104.898 120.156 105.432 120.047 105.906 119.828C106.38 119.609 106.784 119.307 107.117 118.922C107.445 118.536 107.698 118.083 107.875 117.562C108.052 117.042 108.141 116.477 108.141 115.867V115.695C108.141 115.086 108.052 114.521 107.875 114C107.698 113.474 107.445 113.018 107.117 112.633C106.784 112.247 106.378 111.945 105.898 111.727C105.424 111.503 104.888 111.391 104.289 111.391C103.695 111.391 103.161 111.503 102.688 111.727C102.214 111.945 101.812 112.247 101.484 112.633C101.151 113.018 100.896 113.474 100.719 114C100.542 114.521 100.453 115.086 100.453 115.695ZM101.898 115.867V115.695C101.898 115.284 101.948 114.891 102.047 114.516C102.146 114.135 102.297 113.802 102.5 113.516C102.698 113.229 102.945 113.003 103.242 112.836C103.539 112.664 103.888 112.578 104.289 112.578C104.69 112.578 105.039 112.664 105.336 112.836C105.638 113.003 105.891 113.229 106.094 113.516C106.292 113.802 106.44 114.135 106.539 114.516C106.643 114.891 106.695 115.284 106.695 115.695V115.867C106.695 116.284 106.646 116.682 106.547 117.062C106.448 117.438 106.299 117.768 106.102 118.055C105.898 118.341 105.646 118.568 105.344 118.734C105.047 118.901 104.701 118.984 104.305 118.984C103.904 118.984 103.552 118.901 103.25 118.734C102.948 118.568 102.698 118.341 102.5 118.055C102.297 117.768 102.146 117.438 102.047 117.062C101.948 116.682 101.898 116.284 101.898 115.867ZM112.625 120H114.078V112.664H117.336V111.547H114.078V110.953C114.078 110.599 114.122 110.289 114.211 110.023C114.305 109.758 114.44 109.542 114.617 109.375C114.784 109.214 114.992 109.094 115.242 109.016C115.497 108.932 115.789 108.891 116.117 108.891C116.44 108.891 116.742 108.919 117.023 108.977C117.31 109.029 117.56 109.091 117.773 109.164L117.945 107.969C117.81 107.932 117.677 107.901 117.547 107.875C117.417 107.844 117.286 107.815 117.156 107.789C116.958 107.753 116.758 107.724 116.555 107.703C116.352 107.677 116.146 107.664 115.938 107.664C115.438 107.664 114.984 107.734 114.578 107.875C114.172 108.016 113.826 108.224 113.539 108.5C113.247 108.776 113.021 109.12 112.859 109.531C112.703 109.938 112.625 110.411 112.625 110.953V111.547H110.297V112.664H112.625V120ZM137.359 109.859V108.625H128.922V109.859H132.438V120H133.844V109.859H137.359ZM143.031 120.156C143.854 120.156 144.544 119.992 145.102 119.664C145.664 119.331 146.086 118.951 146.367 118.523L145.484 117.836C145.219 118.18 144.885 118.456 144.484 118.664C144.083 118.872 143.625 118.977 143.109 118.977C142.719 118.977 142.362 118.904 142.039 118.758C141.716 118.612 141.44 118.411 141.211 118.156C140.987 117.917 140.81 117.641 140.68 117.328C140.555 117.016 140.474 116.654 140.438 116.242V116.188H146.477V115.539C146.477 114.951 146.401 114.404 146.25 113.898C146.104 113.393 145.88 112.953 145.578 112.578C145.276 112.208 144.896 111.919 144.438 111.711C143.984 111.497 143.453 111.391 142.844 111.391C142.359 111.391 141.885 111.49 141.422 111.688C140.964 111.885 140.555 112.169 140.195 112.539C139.831 112.914 139.539 113.372 139.32 113.914C139.102 114.451 138.992 115.06 138.992 115.742V116.07C138.992 116.659 139.091 117.203 139.289 117.703C139.487 118.203 139.763 118.635 140.117 119C140.471 119.365 140.896 119.648 141.391 119.852C141.891 120.055 142.438 120.156 143.031 120.156ZM142.844 112.578C143.214 112.578 143.531 112.646 143.797 112.781C144.068 112.917 144.292 113.094 144.469 113.312C144.646 113.531 144.784 113.792 144.883 114.094C144.982 114.391 145.031 114.669 145.031 114.93V115H140.484C140.542 114.609 140.641 114.266 140.781 113.969C140.927 113.667 141.104 113.411 141.312 113.203C141.521 113 141.755 112.846 142.016 112.742C142.276 112.633 142.552 112.578 142.844 112.578ZM152.398 114.68L150.164 111.547H148.492L151.641 115.727L148.406 120H150.094L152.43 116.781L154.766 120H156.438L153.203 115.727L156.352 111.547H154.656L152.398 114.68ZM161.938 109.5H160.484V111.547H158.266V112.664H160.484V117.258C160.484 117.779 160.552 118.224 160.688 118.594C160.828 118.958 161.018 119.255 161.258 119.484C161.497 119.719 161.779 119.891 162.102 120C162.43 120.104 162.781 120.156 163.156 120.156C163.38 120.156 163.604 120.146 163.828 120.125C164.057 120.104 164.273 120.073 164.477 120.031C164.68 119.995 164.867 119.951 165.039 119.898C165.211 119.841 165.357 119.776 165.477 119.703L165.273 118.68C165.185 118.701 165.07 118.727 164.93 118.758C164.794 118.784 164.648 118.81 164.492 118.836C164.331 118.862 164.167 118.885 164 118.906C163.833 118.922 163.672 118.93 163.516 118.93C163.302 118.93 163.099 118.904 162.906 118.852C162.719 118.799 162.552 118.708 162.406 118.578C162.26 118.453 162.146 118.284 162.062 118.07C161.979 117.857 161.938 117.586 161.938 117.258V112.664H165.156V111.547H161.938V109.5Z" fill="black"/>
</svg>
