<svg width="200" height="200" viewBox="0 0 200 200" fill="none" xmlns="http://www.w3.org/2000/svg">
<rect width="200" height="200" fill="white"/>
<circle cx="100" cy="100" r="98" stroke="#6176AF" stroke-width="4"/>
<path d="M43.0547 97H45.6875C46.2344 96.9948 46.7422 96.9297 47.2109 96.8047C47.6849 96.6797 48.1094 96.5 48.4844 96.2656C48.8385 96.0417 49.1589 95.7708 49.4453 95.4531C49.7318 95.1354 49.9688 94.7812 50.1562 94.3906C50.3385 94.0156 50.4766 93.6042 50.5703 93.1562C50.6693 92.7083 50.7188 92.2344 50.7188 91.7344V90.8984C50.7135 90.3776 50.6589 89.888 50.5547 89.4297C50.4557 88.9714 50.3099 88.5495 50.1172 88.1641C49.9036 87.7109 49.6172 87.3125 49.2578 86.9688C48.9036 86.6198 48.4948 86.3385 48.0312 86.125C47.6979 85.9688 47.3333 85.849 46.9375 85.7656C46.5469 85.6771 46.1302 85.6302 45.6875 85.625H43.0547V97ZM44.5234 86.8125H45.6875C46.0469 86.8177 46.3776 86.8594 46.6797 86.9375C46.9818 87.0104 47.2552 87.1146 47.5 87.25C47.8438 87.4323 48.1328 87.6719 48.3672 87.9688C48.6068 88.2604 48.7969 88.5885 48.9375 88.9531C49.0469 89.2344 49.1276 89.5391 49.1797 89.8672C49.237 90.1901 49.2682 90.5286 49.2734 90.8828V91.7344C49.2682 92.0833 49.2396 92.4193 49.1875 92.7422C49.1354 93.0599 49.0573 93.3568 48.9531 93.6328C48.8333 93.9714 48.6693 94.2786 48.4609 94.5547C48.2578 94.8255 48.0156 95.0547 47.7344 95.2422C47.4688 95.4245 47.1641 95.5651 46.8203 95.6641C46.4818 95.763 46.1042 95.8151 45.6875 95.8203H44.5234V86.8125ZM53.0391 88.5469V89.8047H55.9141V95.75H53.0391V97H60.1172V95.75H57.3594V88.5469H53.0391ZM55.7266 86.3281C55.7266 86.5625 55.7969 86.7578 55.9375 86.9141C56.0833 87.0703 56.3021 87.1484 56.5938 87.1484C56.8802 87.1484 57.0964 87.0703 57.2422 86.9141C57.388 86.7578 57.4609 86.5625 57.4609 86.3281C57.4609 86.1979 57.4401 86.0781 57.3984 85.9688C57.3568 85.8594 57.2943 85.7682 57.2109 85.6953C57.1432 85.6276 57.0573 85.5755 56.9531 85.5391C56.849 85.4974 56.7292 85.4766 56.5938 85.4766C56.4583 85.4766 56.3359 85.4974 56.2266 85.5391C56.1224 85.5755 56.0365 85.6276 55.9688 85.6953C55.8854 85.7734 55.8229 85.8672 55.7812 85.9766C55.7448 86.0859 55.7266 86.2031 55.7266 86.3281ZM64.5781 97H66.0312V89.6641H69.2891V88.5469H66.0312V87.9531C66.0312 87.599 66.0755 87.2891 66.1641 87.0234C66.2578 86.7578 66.3932 86.5417 66.5703 86.375C66.737 86.2135 66.9453 86.0938 67.1953 86.0156C67.4505 85.9323 67.7422 85.8906 68.0703 85.8906C68.3932 85.8906 68.6953 85.9193 68.9766 85.9766C69.263 86.0286 69.513 86.0911 69.7266 86.1641L69.8984 84.9688C69.763 84.9323 69.6302 84.901 69.5 84.875C69.3698 84.8438 69.2396 84.8151 69.1094 84.7891C68.9115 84.7526 68.7109 84.724 68.5078 84.7031C68.3047 84.6771 68.099 84.6641 67.8906 84.6641C67.3906 84.6641 66.9375 84.7344 66.5312 84.875C66.125 85.0156 65.7786 85.224 65.4922 85.5C65.2005 85.776 64.974 86.1198 64.8125 86.5312C64.6562 86.9375 64.5781 87.4115 64.5781 87.9531V88.5469H62.25V89.6641H64.5781V97ZM74.1875 97H75.6406V89.6641H78.8984V88.5469H75.6406V87.9531C75.6406 87.599 75.6849 87.2891 75.7734 87.0234C75.8672 86.7578 76.0026 86.5417 76.1797 86.375C76.3464 86.2135 76.5547 86.0938 76.8047 86.0156C77.0599 85.9323 77.3516 85.8906 77.6797 85.8906C78.0026 85.8906 78.3047 85.9193 78.5859 85.9766C78.8724 86.0286 79.1224 86.0911 79.3359 86.1641L79.5078 84.9688C79.3724 84.9323 79.2396 84.901 79.1094 84.875C78.9792 84.8438 78.849 84.8151 78.7188 84.7891C78.5208 84.7526 78.3203 84.724 78.1172 84.7031C77.9141 84.6771 77.7083 84.6641 77.5 84.6641C77 84.6641 76.5469 84.7344 76.1406 84.875C75.7344 85.0156 75.388 85.224 75.1016 85.5C74.8099 85.776 74.5833 86.1198 74.4219 86.5312C74.2656 86.9375 74.1875 87.4115 74.1875 87.9531V88.5469H71.8594V89.6641H74.1875V97ZM81.8672 88.5469V89.8047H84.7422V95.75H81.8672V97H88.9453V95.75H86.1875V88.5469H81.8672ZM84.5547 86.3281C84.5547 86.5625 84.625 86.7578 84.7656 86.9141C84.9115 87.0703 85.1302 87.1484 85.4219 87.1484C85.7083 87.1484 85.9245 87.0703 86.0703 86.9141C86.2161 86.7578 86.2891 86.5625 86.2891 86.3281C86.2891 86.1979 86.2682 86.0781 86.2266 85.9688C86.1849 85.8594 86.1224 85.7682 86.0391 85.6953C85.9714 85.6276 85.8854 85.5755 85.7812 85.5391C85.6771 85.4974 85.5573 85.4766 85.4219 85.4766C85.2865 85.4766 85.1641 85.4974 85.0547 85.5391C84.9505 85.5755 84.8646 85.6276 84.7969 85.6953C84.7135 85.7734 84.651 85.8672 84.6094 85.9766C84.5729 86.0859 84.5547 86.2031 84.5547 86.3281ZM94.8516 95.9844C94.3984 95.9844 94.0182 95.8958 93.7109 95.7188C93.4089 95.5365 93.1667 95.2995 92.9844 95.0078C92.7969 94.7214 92.6615 94.3984 92.5781 94.0391C92.5 93.6745 92.4609 93.3073 92.4609 92.9375V92.6094C92.4609 92.2448 92.5 91.8828 92.5781 91.5234C92.6615 91.1641 92.7969 90.8385 92.9844 90.5469C93.1719 90.2604 93.4167 90.0286 93.7188 89.8516C94.026 89.6693 94.4036 89.5781 94.8516 89.5781C95.1432 89.5781 95.4141 89.6276 95.6641 89.7266C95.9193 89.8255 96.138 89.9609 96.3203 90.1328C96.5026 90.3047 96.6458 90.5052 96.75 90.7344C96.8594 90.9583 96.9167 91.1979 96.9219 91.4531H98.2891C98.2891 91.026 98.2031 90.625 98.0312 90.25C97.8594 89.875 97.6224 89.5495 97.3203 89.2734C97.013 89.0026 96.6484 88.7891 96.2266 88.6328C95.8099 88.4714 95.3516 88.3906 94.8516 88.3906C94.2109 88.3906 93.651 88.5052 93.1719 88.7344C92.6927 88.9635 92.2943 89.2708 91.9766 89.6562C91.6536 90.0469 91.4115 90.4974 91.25 91.0078C91.0885 91.5182 91.0078 92.0521 91.0078 92.6094V92.9375C91.0078 93.5 91.0885 94.0365 91.25 94.5469C91.4115 95.0521 91.6536 95.4974 91.9766 95.8828C92.2943 96.2734 92.6927 96.5833 93.1719 96.8125C93.651 97.0417 94.2109 97.1562 94.8516 97.1562C95.2995 97.1562 95.7292 97.0807 96.1406 96.9297C96.5521 96.7734 96.9167 96.5651 97.2344 96.3047C97.5521 96.0495 97.8047 95.7526 97.9922 95.4141C98.1849 95.0703 98.2839 94.7109 98.2891 94.3359H96.9219C96.9167 94.5703 96.8542 94.7891 96.7344 94.9922C96.6198 95.1901 96.4661 95.362 96.2734 95.5078C96.0807 95.6589 95.8594 95.776 95.6094 95.8594C95.3646 95.9427 95.112 95.9844 94.8516 95.9844ZM106.43 97H107.742V88.5469H106.289V94.6094C106.211 94.7917 106.112 94.9609 105.992 95.1172C105.878 95.2682 105.742 95.3984 105.586 95.5078C105.398 95.6432 105.177 95.75 104.922 95.8281C104.667 95.901 104.378 95.9375 104.055 95.9375C103.779 95.9375 103.534 95.901 103.32 95.8281C103.112 95.7552 102.935 95.6276 102.789 95.4453C102.643 95.2682 102.534 95.0286 102.461 94.7266C102.388 94.4245 102.352 94.0443 102.352 93.5859V88.5469H100.906V93.5703C100.906 94.2005 100.974 94.7422 101.109 95.1953C101.25 95.6432 101.448 96.013 101.703 96.3047C101.958 96.5964 102.266 96.8125 102.625 96.9531C102.984 97.0885 103.385 97.1562 103.828 97.1562C104.38 97.1562 104.867 97.0417 105.289 96.8125C105.711 96.5781 106.062 96.2526 106.344 95.8359L106.43 97ZM110.695 85V86.2578H113.57V95.75H110.695V97H117.773V95.75H115.016V85H110.695ZM123.5 86.5H122.047V88.5469H119.828V89.6641H122.047V94.2578C122.047 94.7786 122.115 95.224 122.25 95.5938C122.391 95.9583 122.581 96.2552 122.82 96.4844C123.06 96.7188 123.341 96.8906 123.664 97C123.992 97.1042 124.344 97.1562 124.719 97.1562C124.943 97.1562 125.167 97.1458 125.391 97.125C125.62 97.1042 125.836 97.0729 126.039 97.0312C126.242 96.9948 126.43 96.9505 126.602 96.8984C126.773 96.8411 126.919 96.776 127.039 96.7031L126.836 95.6797C126.747 95.7005 126.633 95.7266 126.492 95.7578C126.357 95.7839 126.211 95.8099 126.055 95.8359C125.893 95.862 125.729 95.8854 125.562 95.9062C125.396 95.9219 125.234 95.9297 125.078 95.9297C124.865 95.9297 124.661 95.9036 124.469 95.8516C124.281 95.7995 124.115 95.7083 123.969 95.5781C123.823 95.4531 123.708 95.2839 123.625 95.0703C123.542 94.8568 123.5 94.5859 123.5 94.2578V89.6641H126.719V88.5469H123.5V86.5ZM142.719 86.5H141.266V88.5469H139.047V89.6641H141.266V94.2578C141.266 94.7786 141.333 95.224 141.469 95.5938C141.609 95.9583 141.799 96.2552 142.039 96.4844C142.279 96.7188 142.56 96.8906 142.883 97C143.211 97.1042 143.562 97.1562 143.938 97.1562C144.161 97.1562 144.385 97.1458 144.609 97.125C144.839 97.1042 145.055 97.0729 145.258 97.0312C145.461 96.9948 145.648 96.9505 145.82 96.8984C145.992 96.8411 146.138 96.776 146.258 96.7031L146.055 95.6797C145.966 95.7005 145.852 95.7266 145.711 95.7578C145.576 95.7839 145.43 95.8099 145.273 95.8359C145.112 95.862 144.948 95.8854 144.781 95.9062C144.615 95.9219 144.453 95.9297 144.297 95.9297C144.083 95.9297 143.88 95.9036 143.688 95.8516C143.5 95.7995 143.333 95.7083 143.188 95.5781C143.042 95.4531 142.927 95.2839 142.844 95.0703C142.76 94.8568 142.719 94.5859 142.719 94.2578V89.6641H145.938V88.5469H142.719V86.5ZM148.5 92.6953V92.8672C148.5 93.4766 148.589 94.0417 148.766 94.5625C148.943 95.0833 149.198 95.5365 149.531 95.9219C149.859 96.3073 150.26 96.6094 150.734 96.8281C151.214 97.0469 151.753 97.1562 152.352 97.1562C152.945 97.1562 153.479 97.0469 153.953 96.8281C154.427 96.6094 154.831 96.3073 155.164 95.9219C155.492 95.5365 155.745 95.0833 155.922 94.5625C156.099 94.0417 156.188 93.4766 156.188 92.8672V92.6953C156.188 92.0859 156.099 91.5208 155.922 91C155.745 90.474 155.492 90.0182 155.164 89.6328C154.831 89.2474 154.424 88.9453 153.945 88.7266C153.471 88.5026 152.935 88.3906 152.336 88.3906C151.742 88.3906 151.208 88.5026 150.734 88.7266C150.26 88.9453 149.859 89.2474 149.531 89.6328C149.198 90.0182 148.943 90.474 148.766 91C148.589 91.5208 148.5 92.0859 148.5 92.6953ZM149.945 92.8672V92.6953C149.945 92.2839 149.995 91.8906 150.094 91.5156C150.193 91.1354 150.344 90.8021 150.547 90.5156C150.745 90.2292 150.992 90.0026 151.289 89.8359C151.586 89.6641 151.935 89.5781 152.336 89.5781C152.737 89.5781 153.086 89.6641 153.383 89.8359C153.685 90.0026 153.938 90.2292 154.141 90.5156C154.339 90.8021 154.487 91.1354 154.586 91.5156C154.69 91.8906 154.742 92.2839 154.742 92.6953V92.8672C154.742 93.2839 154.693 93.6823 154.594 94.0625C154.495 94.4375 154.346 94.7682 154.148 95.0547C153.945 95.3411 153.693 95.5677 153.391 95.7344C153.094 95.901 152.747 95.9844 152.352 95.9844C151.951 95.9844 151.599 95.901 151.297 95.7344C150.995 95.5677 150.745 95.3411 150.547 95.0547C150.344 94.7682 150.193 94.4375 150.094 94.0625C149.995 93.6823 149.945 93.2839 149.945 92.8672ZM87.5938 115.125C87.5938 115.438 87.526 115.708 87.3906 115.938C87.2552 116.161 87.0807 116.346 86.8672 116.492C86.6536 116.643 86.4089 116.755 86.1328 116.828C85.862 116.896 85.5859 116.93 85.3047 116.93C84.9505 116.93 84.6224 116.883 84.3203 116.789C84.0234 116.69 83.7604 116.544 83.5312 116.352C83.3021 116.164 83.1146 115.935 82.9688 115.664C82.8229 115.388 82.7266 115.073 82.6797 114.719H81.2031C81.2188 115.208 81.3255 115.654 81.5234 116.055C81.7266 116.451 82 116.797 82.3438 117.094C82.7292 117.438 83.1823 117.701 83.7031 117.883C84.2292 118.065 84.763 118.156 85.3047 118.156C85.7578 118.156 86.2109 118.094 86.6641 117.969C87.1172 117.839 87.5234 117.646 87.8828 117.391C88.2422 117.141 88.5339 116.826 88.7578 116.445C88.987 116.065 89.1016 115.62 89.1016 115.109C89.1016 114.604 88.9948 114.159 88.7812 113.773C88.5729 113.388 88.2969 113.062 87.9531 112.797C87.6042 112.51 87.2188 112.276 86.7969 112.094C86.375 111.906 85.9531 111.747 85.5312 111.617C85.276 111.539 85.0026 111.448 84.7109 111.344C84.4245 111.24 84.1589 111.109 83.9141 110.953C83.6641 110.797 83.4583 110.607 83.2969 110.383C83.1354 110.154 83.0521 109.875 83.0469 109.547C83.0469 109.245 83.1068 108.979 83.2266 108.75C83.3516 108.521 83.5182 108.328 83.7266 108.172C83.9297 108.016 84.1615 107.898 84.4219 107.82C84.6875 107.742 84.9583 107.703 85.2344 107.703C85.5781 107.703 85.8854 107.758 86.1562 107.867C86.4323 107.971 86.6693 108.12 86.8672 108.312C87.0651 108.505 87.224 108.737 87.3438 109.008C87.4635 109.273 87.5443 109.57 87.5859 109.898H89.0703C89.0599 109.378 88.9479 108.906 88.7344 108.484C88.5208 108.062 88.237 107.703 87.8828 107.406C87.5286 107.109 87.1224 106.88 86.6641 106.719C86.2057 106.552 85.7292 106.469 85.2344 106.469C84.7865 106.469 84.3411 106.539 83.8984 106.68C83.4557 106.815 83.0599 107.016 82.7109 107.281C82.362 107.547 82.0781 107.872 81.8594 108.258C81.6458 108.643 81.5391 109.081 81.5391 109.57C81.5391 110.06 81.6458 110.487 81.8594 110.852C82.0781 111.211 82.3594 111.523 82.7031 111.789C83.0417 112.049 83.4167 112.273 83.8281 112.461C84.2448 112.643 84.6536 112.799 85.0547 112.93C85.3307 113.018 85.6172 113.117 85.9141 113.227C86.2161 113.336 86.4922 113.471 86.7422 113.633C86.9922 113.799 87.1953 114.003 87.3516 114.242C87.513 114.482 87.5938 114.776 87.5938 115.125ZM94.8516 116.984C94.3984 116.984 94.0182 116.896 93.7109 116.719C93.4089 116.536 93.1667 116.299 92.9844 116.008C92.7969 115.721 92.6615 115.398 92.5781 115.039C92.5 114.674 92.4609 114.307 92.4609 113.938V113.609C92.4609 113.245 92.5 112.883 92.5781 112.523C92.6615 112.164 92.7969 111.839 92.9844 111.547C93.1719 111.26 93.4167 111.029 93.7188 110.852C94.026 110.669 94.4036 110.578 94.8516 110.578C95.1432 110.578 95.4141 110.628 95.6641 110.727C95.9193 110.826 96.138 110.961 96.3203 111.133C96.5026 111.305 96.6458 111.505 96.75 111.734C96.8594 111.958 96.9167 112.198 96.9219 112.453H98.2891C98.2891 112.026 98.2031 111.625 98.0312 111.25C97.8594 110.875 97.6224 110.549 97.3203 110.273C97.013 110.003 96.6484 109.789 96.2266 109.633C95.8099 109.471 95.3516 109.391 94.8516 109.391C94.2109 109.391 93.651 109.505 93.1719 109.734C92.6927 109.964 92.2943 110.271 91.9766 110.656C91.6536 111.047 91.4115 111.497 91.25 112.008C91.0885 112.518 91.0078 113.052 91.0078 113.609V113.938C91.0078 114.5 91.0885 115.036 91.25 115.547C91.4115 116.052 91.6536 116.497 91.9766 116.883C92.2943 117.273 92.6927 117.583 93.1719 117.812C93.651 118.042 94.2109 118.156 94.8516 118.156C95.2995 118.156 95.7292 118.081 96.1406 117.93C96.5521 117.773 96.9167 117.565 97.2344 117.305C97.5521 117.049 97.8047 116.753 97.9922 116.414C98.1849 116.07 98.2839 115.711 98.2891 115.336H96.9219C96.9167 115.57 96.8542 115.789 96.7344 115.992C96.6198 116.19 96.4661 116.362 96.2734 116.508C96.0807 116.659 95.8594 116.776 95.6094 116.859C95.3646 116.943 95.112 116.984 94.8516 116.984ZM106.414 118H107.922V117.875C107.828 117.641 107.755 117.367 107.703 117.055C107.651 116.737 107.625 116.438 107.625 116.156V112.227C107.625 111.753 107.539 111.339 107.367 110.984C107.195 110.63 106.961 110.333 106.664 110.094C106.362 109.859 106.005 109.685 105.594 109.57C105.182 109.451 104.737 109.391 104.258 109.391C103.732 109.391 103.26 109.464 102.844 109.609C102.432 109.755 102.083 109.945 101.797 110.18C101.505 110.419 101.281 110.688 101.125 110.984C100.974 111.281 100.896 111.583 100.891 111.891H102.344C102.344 111.714 102.385 111.544 102.469 111.383C102.557 111.216 102.68 111.073 102.836 110.953C102.992 110.833 103.182 110.737 103.406 110.664C103.635 110.591 103.893 110.555 104.18 110.555C104.487 110.555 104.763 110.594 105.008 110.672C105.258 110.75 105.469 110.859 105.641 111C105.812 111.146 105.945 111.32 106.039 111.523C106.133 111.727 106.18 111.956 106.18 112.211V112.875H104.602C104.013 112.875 103.479 112.932 103 113.047C102.526 113.161 102.12 113.333 101.781 113.562C101.443 113.797 101.18 114.089 100.992 114.438C100.81 114.786 100.719 115.193 100.719 115.656C100.719 116.01 100.786 116.341 100.922 116.648C101.062 116.951 101.26 117.211 101.516 117.43C101.766 117.654 102.07 117.831 102.43 117.961C102.794 118.091 103.201 118.156 103.648 118.156C103.924 118.156 104.185 118.128 104.43 118.07C104.674 118.013 104.906 117.935 105.125 117.836C105.339 117.737 105.534 117.622 105.711 117.492C105.893 117.362 106.057 117.224 106.203 117.078C106.219 117.255 106.242 117.427 106.273 117.594C106.31 117.755 106.357 117.891 106.414 118ZM103.859 116.898C103.578 116.898 103.331 116.862 103.117 116.789C102.904 116.716 102.727 116.615 102.586 116.484C102.445 116.359 102.339 116.208 102.266 116.031C102.198 115.854 102.164 115.661 102.164 115.453C102.164 115.234 102.203 115.039 102.281 114.867C102.365 114.695 102.484 114.547 102.641 114.422C102.859 114.245 103.154 114.115 103.523 114.031C103.898 113.943 104.336 113.898 104.836 113.898H106.18V115.609C106.096 115.776 105.982 115.938 105.836 116.094C105.69 116.245 105.518 116.38 105.32 116.5C105.117 116.62 104.893 116.716 104.648 116.789C104.404 116.862 104.141 116.898 103.859 116.898ZM110.469 118H111.914V111.938C112.013 111.755 112.128 111.589 112.258 111.438C112.393 111.286 112.539 111.154 112.695 111.039C112.888 110.909 113.099 110.807 113.328 110.734C113.557 110.656 113.805 110.617 114.07 110.617C114.378 110.617 114.648 110.654 114.883 110.727C115.122 110.799 115.326 110.917 115.492 111.078C115.654 111.24 115.776 111.451 115.859 111.711C115.943 111.971 115.984 112.289 115.984 112.664V118H117.43V112.633C117.43 112.07 117.359 111.586 117.219 111.18C117.083 110.768 116.888 110.43 116.633 110.164C116.378 109.898 116.068 109.703 115.703 109.578C115.344 109.453 114.943 109.391 114.5 109.391C114.172 109.396 113.859 109.445 113.562 109.539C113.271 109.628 113 109.755 112.75 109.922C112.583 110.031 112.424 110.161 112.273 110.312C112.128 110.458 111.992 110.62 111.867 110.797L111.766 109.547H110.469V118Z" fill="black"/>
</svg>
