<svg width="1404" height="933" viewBox="0 0 1404 933" fill="none" xmlns="http://www.w3.org/2000/svg">
<rect width="1404" height="930" fill="white"/>
<rect x="88.6367" y="349.974" width="177.273" height="508.026" fill="#FBA91E"/>
<rect x="1131" y="312.342" width="177.273" height="545.658" fill="#6176AF"/>
<rect x="436.091" y="669.842" width="177.273" height="188.158" fill="#6176AF"/>
<rect x="783.545" y="594.579" width="177.273" height="263.421" fill="#FBA91E"/>
<path d="M111.852 875.188V874H108.758V889.438H111.852V888.25H110.125V875.188H111.852ZM117.211 887H118.352L119.656 881.82L119.867 880.508L120.086 881.82L121.406 887H122.547L124.344 878.547H123.062L122.125 883.938L121.914 885.266L121.688 883.938L120.344 878.547H119.414L118.062 883.938L117.852 885.148L117.68 883.938L116.695 878.547H115.414L117.211 887ZM125.602 882.695V882.867C125.602 883.477 125.69 884.042 125.867 884.562C126.044 885.083 126.299 885.536 126.633 885.922C126.961 886.307 127.362 886.609 127.836 886.828C128.315 887.047 128.854 887.156 129.453 887.156C130.047 887.156 130.581 887.047 131.055 886.828C131.529 886.609 131.932 886.307 132.266 885.922C132.594 885.536 132.846 885.083 133.023 884.562C133.201 884.042 133.289 883.477 133.289 882.867V882.695C133.289 882.086 133.201 881.521 133.023 881C132.846 880.474 132.594 880.018 132.266 879.633C131.932 879.247 131.526 878.945 131.047 878.727C130.573 878.503 130.036 878.391 129.438 878.391C128.844 878.391 128.31 878.503 127.836 878.727C127.362 878.945 126.961 879.247 126.633 879.633C126.299 880.018 126.044 880.474 125.867 881C125.69 881.521 125.602 882.086 125.602 882.695ZM127.047 882.867V882.695C127.047 882.284 127.096 881.891 127.195 881.516C127.294 881.135 127.445 880.802 127.648 880.516C127.846 880.229 128.094 880.003 128.391 879.836C128.688 879.664 129.036 879.578 129.438 879.578C129.839 879.578 130.188 879.664 130.484 879.836C130.786 880.003 131.039 880.229 131.242 880.516C131.44 880.802 131.589 881.135 131.688 881.516C131.792 881.891 131.844 882.284 131.844 882.695V882.867C131.844 883.284 131.794 883.682 131.695 884.062C131.596 884.438 131.448 884.768 131.25 885.055C131.047 885.341 130.794 885.568 130.492 885.734C130.195 885.901 129.849 885.984 129.453 885.984C129.052 885.984 128.701 885.901 128.398 885.734C128.096 885.568 127.846 885.341 127.648 885.055C127.445 884.768 127.294 884.438 127.195 884.062C127.096 883.682 127.047 883.284 127.047 882.867ZM141.156 878.391C140.542 878.391 139.992 878.526 139.508 878.797C139.029 879.062 138.617 879.427 138.273 879.891L138.266 879.68L138.203 878.547H136.828V887H138.281V881.578C138.375 881.318 138.492 881.083 138.633 880.875C138.779 880.661 138.948 880.482 139.141 880.336C139.354 880.169 139.604 880.044 139.891 879.961C140.177 879.872 140.497 879.828 140.852 879.828C141.128 879.828 141.391 879.844 141.641 879.875C141.896 879.901 142.164 879.945 142.445 880.008L142.641 878.594C142.495 878.531 142.276 878.482 141.984 878.445C141.698 878.409 141.422 878.391 141.156 878.391ZM144.953 882.703V882.867C144.953 883.471 145.034 884.036 145.195 884.562C145.357 885.083 145.583 885.536 145.875 885.922C146.167 886.307 146.518 886.609 146.93 886.828C147.346 887.047 147.81 887.156 148.32 887.156C148.841 887.156 149.297 887.068 149.688 886.891C150.078 886.714 150.414 886.453 150.695 886.109L150.758 887H152.086V875H150.641V879.383C150.365 879.06 150.036 878.815 149.656 878.648C149.281 878.477 148.841 878.391 148.336 878.391C147.82 878.391 147.354 878.497 146.938 878.711C146.521 878.924 146.167 879.221 145.875 879.602C145.578 879.982 145.349 880.438 145.188 880.969C145.031 881.495 144.953 882.073 144.953 882.703ZM146.398 882.867V882.703C146.398 882.292 146.443 881.901 146.531 881.531C146.62 881.156 146.758 880.826 146.945 880.539C147.128 880.258 147.362 880.034 147.648 879.867C147.94 879.701 148.289 879.617 148.695 879.617C149.169 879.617 149.565 879.729 149.883 879.953C150.201 880.172 150.453 880.453 150.641 880.797V884.719C150.453 885.089 150.201 885.383 149.883 885.602C149.565 885.82 149.164 885.93 148.68 885.93C148.279 885.93 147.935 885.849 147.648 885.688C147.362 885.521 147.128 885.297 146.945 885.016C146.758 884.734 146.62 884.409 146.531 884.039C146.443 883.669 146.398 883.279 146.398 882.867ZM164.039 882.695V882.867C164.039 883.477 164.128 884.042 164.305 884.562C164.482 885.083 164.737 885.536 165.07 885.922C165.398 886.307 165.799 886.609 166.273 886.828C166.753 887.047 167.292 887.156 167.891 887.156C168.484 887.156 169.018 887.047 169.492 886.828C169.966 886.609 170.37 886.307 170.703 885.922C171.031 885.536 171.284 885.083 171.461 884.562C171.638 884.042 171.727 883.477 171.727 882.867V882.695C171.727 882.086 171.638 881.521 171.461 881C171.284 880.474 171.031 880.018 170.703 879.633C170.37 879.247 169.964 878.945 169.484 878.727C169.01 878.503 168.474 878.391 167.875 878.391C167.281 878.391 166.747 878.503 166.273 878.727C165.799 878.945 165.398 879.247 165.07 879.633C164.737 880.018 164.482 880.474 164.305 881C164.128 881.521 164.039 882.086 164.039 882.695ZM165.484 882.867V882.695C165.484 882.284 165.534 881.891 165.633 881.516C165.732 881.135 165.883 880.802 166.086 880.516C166.284 880.229 166.531 880.003 166.828 879.836C167.125 879.664 167.474 879.578 167.875 879.578C168.276 879.578 168.625 879.664 168.922 879.836C169.224 880.003 169.477 880.229 169.68 880.516C169.878 880.802 170.026 881.135 170.125 881.516C170.229 881.891 170.281 882.284 170.281 882.695V882.867C170.281 883.284 170.232 883.682 170.133 884.062C170.034 884.438 169.885 884.768 169.688 885.055C169.484 885.341 169.232 885.568 168.93 885.734C168.633 885.901 168.286 885.984 167.891 885.984C167.49 885.984 167.138 885.901 166.836 885.734C166.534 885.568 166.284 885.341 166.086 885.055C165.883 884.768 165.732 884.438 165.633 884.062C165.534 883.682 165.484 883.284 165.484 882.867ZM176.211 887H177.664V879.664H180.922V878.547H177.664V877.953C177.664 877.599 177.708 877.289 177.797 877.023C177.891 876.758 178.026 876.542 178.203 876.375C178.37 876.214 178.578 876.094 178.828 876.016C179.083 875.932 179.375 875.891 179.703 875.891C180.026 875.891 180.328 875.919 180.609 875.977C180.896 876.029 181.146 876.091 181.359 876.164L181.531 874.969C181.396 874.932 181.263 874.901 181.133 874.875C181.003 874.844 180.872 874.815 180.742 874.789C180.544 874.753 180.344 874.724 180.141 874.703C179.938 874.677 179.732 874.664 179.523 874.664C179.023 874.664 178.57 874.734 178.164 874.875C177.758 875.016 177.411 875.224 177.125 875.5C176.833 875.776 176.607 876.12 176.445 876.531C176.289 876.938 176.211 877.411 176.211 877.953V878.547H173.883V879.664H176.211V887ZM193.938 878.547H192.641V887H194.016V880.273C194.047 880.19 194.086 880.112 194.133 880.039C194.185 879.966 194.245 879.901 194.312 879.844C194.401 879.771 194.508 879.716 194.633 879.68C194.763 879.638 194.914 879.617 195.086 879.617C195.242 879.617 195.378 879.638 195.492 879.68C195.612 879.716 195.711 879.776 195.789 879.859C195.872 879.948 195.932 880.06 195.969 880.195C196.01 880.331 196.031 880.487 196.031 880.664V887H197.406V880.672C197.406 880.641 197.406 880.615 197.406 880.594C197.406 880.568 197.406 880.542 197.406 880.516C197.422 880.385 197.453 880.268 197.5 880.164C197.547 880.055 197.612 879.958 197.695 879.875C197.779 879.797 197.883 879.734 198.008 879.688C198.133 879.641 198.281 879.617 198.453 879.617C198.615 879.617 198.755 879.638 198.875 879.68C199 879.721 199.104 879.784 199.188 879.867C199.266 879.956 199.326 880.068 199.367 880.203C199.409 880.339 199.43 880.495 199.43 880.672V887H200.805V880.688C200.805 880.281 200.758 879.93 200.664 879.633C200.57 879.331 200.435 879.086 200.258 878.898C200.096 878.732 199.898 878.607 199.664 878.523C199.43 878.435 199.167 878.391 198.875 878.391C198.661 878.396 198.464 878.424 198.281 878.477C198.104 878.529 197.943 878.599 197.797 878.688C197.682 878.766 197.576 878.857 197.477 878.961C197.378 879.065 197.292 879.177 197.219 879.297C197.161 879.167 197.091 879.049 197.008 878.945C196.93 878.841 196.841 878.753 196.742 878.68C196.607 878.586 196.448 878.516 196.266 878.469C196.089 878.417 195.888 878.391 195.664 878.391C195.268 878.396 194.93 878.482 194.648 878.648C194.372 878.815 194.148 879.047 193.977 879.344L193.938 878.547ZM202.477 882.695V882.867C202.477 883.477 202.565 884.042 202.742 884.562C202.919 885.083 203.174 885.536 203.508 885.922C203.836 886.307 204.237 886.609 204.711 886.828C205.19 887.047 205.729 887.156 206.328 887.156C206.922 887.156 207.456 887.047 207.93 886.828C208.404 886.609 208.807 886.307 209.141 885.922C209.469 885.536 209.721 885.083 209.898 884.562C210.076 884.042 210.164 883.477 210.164 882.867V882.695C210.164 882.086 210.076 881.521 209.898 881C209.721 880.474 209.469 880.018 209.141 879.633C208.807 879.247 208.401 878.945 207.922 878.727C207.448 878.503 206.911 878.391 206.312 878.391C205.719 878.391 205.185 878.503 204.711 878.727C204.237 878.945 203.836 879.247 203.508 879.633C203.174 880.018 202.919 880.474 202.742 881C202.565 881.521 202.477 882.086 202.477 882.695ZM203.922 882.867V882.695C203.922 882.284 203.971 881.891 204.07 881.516C204.169 881.135 204.32 880.802 204.523 880.516C204.721 880.229 204.969 880.003 205.266 879.836C205.562 879.664 205.911 879.578 206.312 879.578C206.714 879.578 207.062 879.664 207.359 879.836C207.661 880.003 207.914 880.229 208.117 880.516C208.315 880.802 208.464 881.135 208.562 881.516C208.667 881.891 208.719 882.284 208.719 882.695V882.867C208.719 883.284 208.669 883.682 208.57 884.062C208.471 884.438 208.323 884.768 208.125 885.055C207.922 885.341 207.669 885.568 207.367 885.734C207.07 885.901 206.724 885.984 206.328 885.984C205.927 885.984 205.576 885.901 205.273 885.734C204.971 885.568 204.721 885.341 204.523 885.055C204.32 884.768 204.169 884.438 204.07 884.062C203.971 883.682 203.922 883.284 203.922 882.867ZM218.062 887H219.375V878.547H217.922V884.609C217.844 884.792 217.745 884.961 217.625 885.117C217.51 885.268 217.375 885.398 217.219 885.508C217.031 885.643 216.81 885.75 216.555 885.828C216.299 885.901 216.01 885.938 215.688 885.938C215.411 885.938 215.167 885.901 214.953 885.828C214.745 885.755 214.568 885.628 214.422 885.445C214.276 885.268 214.167 885.029 214.094 884.727C214.021 884.424 213.984 884.044 213.984 883.586V878.547H212.539V883.57C212.539 884.201 212.607 884.742 212.742 885.195C212.883 885.643 213.081 886.013 213.336 886.305C213.591 886.596 213.898 886.812 214.258 886.953C214.617 887.089 215.018 887.156 215.461 887.156C216.013 887.156 216.5 887.042 216.922 886.812C217.344 886.578 217.695 886.253 217.977 885.836L218.062 887ZM225.523 876.5H224.07V878.547H221.852V879.664H224.07V884.258C224.07 884.779 224.138 885.224 224.273 885.594C224.414 885.958 224.604 886.255 224.844 886.484C225.083 886.719 225.365 886.891 225.688 887C226.016 887.104 226.367 887.156 226.742 887.156C226.966 887.156 227.19 887.146 227.414 887.125C227.643 887.104 227.859 887.073 228.062 887.031C228.266 886.995 228.453 886.951 228.625 886.898C228.797 886.841 228.943 886.776 229.062 886.703L228.859 885.68C228.771 885.701 228.656 885.727 228.516 885.758C228.38 885.784 228.234 885.81 228.078 885.836C227.917 885.862 227.753 885.885 227.586 885.906C227.419 885.922 227.258 885.93 227.102 885.93C226.888 885.93 226.685 885.904 226.492 885.852C226.305 885.799 226.138 885.708 225.992 885.578C225.846 885.453 225.732 885.284 225.648 885.07C225.565 884.857 225.523 884.586 225.523 884.258V879.664H228.742V878.547H225.523V876.5ZM233.156 879.805V875H231.711V887H233.156V880.859C233.26 880.693 233.378 880.542 233.508 880.406C233.643 880.266 233.789 880.143 233.945 880.039C234.143 879.904 234.359 879.799 234.594 879.727C234.828 879.654 235.076 879.617 235.336 879.617C235.654 879.612 235.935 879.656 236.18 879.75C236.424 879.839 236.628 879.974 236.789 880.156C236.94 880.323 237.055 880.534 237.133 880.789C237.211 881.039 237.25 881.331 237.25 881.664V887H238.695V881.68C238.695 881.112 238.625 880.622 238.484 880.211C238.349 879.794 238.154 879.451 237.898 879.18C237.643 878.909 237.333 878.711 236.969 878.586C236.609 878.456 236.208 878.391 235.766 878.391C235.427 878.396 235.107 878.445 234.805 878.539C234.508 878.633 234.234 878.771 233.984 878.953C233.828 879.062 233.68 879.19 233.539 879.336C233.398 879.477 233.271 879.633 233.156 879.805ZM243.125 874V875.188H244.859V888.25H243.125V889.438H246.227V874H243.125Z" fill="black"/>
<path d="M458.852 875.188V874H455.758V889.438H458.852V888.25H457.125V875.188H458.852ZM462.992 882.695V882.867C462.992 883.477 463.081 884.042 463.258 884.562C463.435 885.083 463.69 885.536 464.023 885.922C464.352 886.307 464.753 886.609 465.227 886.828C465.706 887.047 466.245 887.156 466.844 887.156C467.438 887.156 467.971 887.047 468.445 886.828C468.919 886.609 469.323 886.307 469.656 885.922C469.984 885.536 470.237 885.083 470.414 884.562C470.591 884.042 470.68 883.477 470.68 882.867V882.695C470.68 882.086 470.591 881.521 470.414 881C470.237 880.474 469.984 880.018 469.656 879.633C469.323 879.247 468.917 878.945 468.438 878.727C467.964 878.503 467.427 878.391 466.828 878.391C466.234 878.391 465.701 878.503 465.227 878.727C464.753 878.945 464.352 879.247 464.023 879.633C463.69 880.018 463.435 880.474 463.258 881C463.081 881.521 462.992 882.086 462.992 882.695ZM464.438 882.867V882.695C464.438 882.284 464.487 881.891 464.586 881.516C464.685 881.135 464.836 880.802 465.039 880.516C465.237 880.229 465.484 880.003 465.781 879.836C466.078 879.664 466.427 879.578 466.828 879.578C467.229 879.578 467.578 879.664 467.875 879.836C468.177 880.003 468.43 880.229 468.633 880.516C468.831 880.802 468.979 881.135 469.078 881.516C469.182 881.891 469.234 882.284 469.234 882.695V882.867C469.234 883.284 469.185 883.682 469.086 884.062C468.987 884.438 468.839 884.768 468.641 885.055C468.438 885.341 468.185 885.568 467.883 885.734C467.586 885.901 467.24 885.984 466.844 885.984C466.443 885.984 466.091 885.901 465.789 885.734C465.487 885.568 465.237 885.341 465.039 885.055C464.836 884.768 464.685 884.438 464.586 884.062C464.487 883.682 464.438 883.284 464.438 882.867ZM473.008 887H474.453V880.938C474.552 880.755 474.667 880.589 474.797 880.438C474.932 880.286 475.078 880.154 475.234 880.039C475.427 879.909 475.638 879.807 475.867 879.734C476.096 879.656 476.344 879.617 476.609 879.617C476.917 879.617 477.188 879.654 477.422 879.727C477.661 879.799 477.865 879.917 478.031 880.078C478.193 880.24 478.315 880.451 478.398 880.711C478.482 880.971 478.523 881.289 478.523 881.664V887H479.969V881.633C479.969 881.07 479.898 880.586 479.758 880.18C479.622 879.768 479.427 879.43 479.172 879.164C478.917 878.898 478.607 878.703 478.242 878.578C477.883 878.453 477.482 878.391 477.039 878.391C476.711 878.396 476.398 878.445 476.102 878.539C475.81 878.628 475.539 878.755 475.289 878.922C475.122 879.031 474.964 879.161 474.812 879.312C474.667 879.458 474.531 879.62 474.406 879.797L474.305 878.547H473.008V887ZM482.844 875V876.258H485.719V885.75H482.844V887H489.922V885.75H487.164V875H482.844ZM492.453 878.547V879.805H495.328V885.75H492.453V887H499.531V885.75H496.773V878.547H492.453ZM495.141 876.328C495.141 876.562 495.211 876.758 495.352 876.914C495.497 877.07 495.716 877.148 496.008 877.148C496.294 877.148 496.51 877.07 496.656 876.914C496.802 876.758 496.875 876.562 496.875 876.328C496.875 876.198 496.854 876.078 496.812 875.969C496.771 875.859 496.708 875.768 496.625 875.695C496.557 875.628 496.471 875.576 496.367 875.539C496.263 875.497 496.143 875.477 496.008 875.477C495.872 875.477 495.75 875.497 495.641 875.539C495.536 875.576 495.451 875.628 495.383 875.695C495.299 875.773 495.237 875.867 495.195 875.977C495.159 876.086 495.141 876.203 495.141 876.328ZM501.836 887H503.281V880.938C503.38 880.755 503.495 880.589 503.625 880.438C503.76 880.286 503.906 880.154 504.062 880.039C504.255 879.909 504.466 879.807 504.695 879.734C504.924 879.656 505.172 879.617 505.438 879.617C505.745 879.617 506.016 879.654 506.25 879.727C506.49 879.799 506.693 879.917 506.859 880.078C507.021 880.24 507.143 880.451 507.227 880.711C507.31 880.971 507.352 881.289 507.352 881.664V887H508.797V881.633C508.797 881.07 508.727 880.586 508.586 880.18C508.451 879.768 508.255 879.43 508 879.164C507.745 878.898 507.435 878.703 507.07 878.578C506.711 878.453 506.31 878.391 505.867 878.391C505.539 878.396 505.227 878.445 504.93 878.539C504.638 878.628 504.367 878.755 504.117 878.922C503.951 879.031 503.792 879.161 503.641 879.312C503.495 879.458 503.359 879.62 503.234 879.797L503.133 878.547H501.836V887ZM515.18 887.156C516.003 887.156 516.693 886.992 517.25 886.664C517.812 886.331 518.234 885.951 518.516 885.523L517.633 884.836C517.367 885.18 517.034 885.456 516.633 885.664C516.232 885.872 515.773 885.977 515.258 885.977C514.867 885.977 514.51 885.904 514.188 885.758C513.865 885.612 513.589 885.411 513.359 885.156C513.135 884.917 512.958 884.641 512.828 884.328C512.703 884.016 512.622 883.654 512.586 883.242V883.188H518.625V882.539C518.625 881.951 518.549 881.404 518.398 880.898C518.253 880.393 518.029 879.953 517.727 879.578C517.424 879.208 517.044 878.919 516.586 878.711C516.133 878.497 515.602 878.391 514.992 878.391C514.508 878.391 514.034 878.49 513.57 878.688C513.112 878.885 512.703 879.169 512.344 879.539C511.979 879.914 511.688 880.372 511.469 880.914C511.25 881.451 511.141 882.06 511.141 882.742V883.07C511.141 883.659 511.24 884.203 511.438 884.703C511.635 885.203 511.911 885.635 512.266 886C512.62 886.365 513.044 886.648 513.539 886.852C514.039 887.055 514.586 887.156 515.18 887.156ZM514.992 879.578C515.362 879.578 515.68 879.646 515.945 879.781C516.216 879.917 516.44 880.094 516.617 880.312C516.794 880.531 516.932 880.792 517.031 881.094C517.13 881.391 517.18 881.669 517.18 881.93V882H512.633C512.69 881.609 512.789 881.266 512.93 880.969C513.076 880.667 513.253 880.411 513.461 880.203C513.669 880 513.904 879.846 514.164 879.742C514.424 879.633 514.701 879.578 514.992 879.578ZM536.281 884.758C536.281 884.893 536.255 885.021 536.203 885.141C536.151 885.26 536.076 885.37 535.977 885.469C535.815 885.63 535.591 885.758 535.305 885.852C535.018 885.94 534.682 885.984 534.297 885.984C534.052 885.984 533.805 885.958 533.555 885.906C533.305 885.854 533.078 885.766 532.875 885.641C532.667 885.516 532.492 885.352 532.352 885.148C532.216 884.945 532.138 884.695 532.117 884.398H530.672C530.672 884.758 530.753 885.104 530.914 885.438C531.081 885.771 531.32 886.062 531.633 886.312C531.94 886.568 532.318 886.773 532.766 886.93C533.214 887.081 533.724 887.156 534.297 887.156C534.797 887.156 535.258 887.096 535.68 886.977C536.102 886.857 536.464 886.688 536.766 886.469C537.068 886.25 537.302 885.987 537.469 885.68C537.641 885.372 537.727 885.031 537.727 884.656C537.727 884.307 537.651 884 537.5 883.734C537.354 883.469 537.141 883.234 536.859 883.031C536.578 882.833 536.232 882.664 535.82 882.523C535.409 882.378 534.943 882.25 534.422 882.141C534.026 882.062 533.698 881.982 533.438 881.898C533.182 881.815 532.979 881.721 532.828 881.617C532.672 881.513 532.562 881.396 532.5 881.266C532.438 881.135 532.406 880.987 532.406 880.82C532.406 880.659 532.445 880.503 532.523 880.352C532.602 880.201 532.719 880.068 532.875 879.953C533.026 879.839 533.216 879.747 533.445 879.68C533.68 879.612 533.951 879.578 534.258 879.578C534.555 879.578 534.82 879.62 535.055 879.703C535.294 879.786 535.497 879.896 535.664 880.031C535.831 880.167 535.961 880.323 536.055 880.5C536.148 880.672 536.195 880.849 536.195 881.031H537.641C537.641 880.661 537.56 880.318 537.398 880C537.242 879.677 537.018 879.396 536.727 879.156C536.435 878.917 536.081 878.729 535.664 878.594C535.247 878.458 534.779 878.391 534.258 878.391C533.773 878.391 533.328 878.456 532.922 878.586C532.521 878.716 532.174 878.893 531.883 879.117C531.591 879.341 531.365 879.604 531.203 879.906C531.042 880.203 530.961 880.523 530.961 880.867C530.961 881.216 531.039 881.523 531.195 881.789C531.352 882.049 531.573 882.276 531.859 882.469C532.141 882.667 532.479 882.836 532.875 882.977C533.276 883.117 533.719 883.237 534.203 883.336C534.599 883.414 534.93 883.503 535.195 883.602C535.461 883.695 535.674 883.799 535.836 883.914C535.997 884.029 536.112 884.156 536.18 884.297C536.247 884.432 536.281 884.586 536.281 884.758ZM544.008 887.156C544.831 887.156 545.521 886.992 546.078 886.664C546.641 886.331 547.062 885.951 547.344 885.523L546.461 884.836C546.195 885.18 545.862 885.456 545.461 885.664C545.06 885.872 544.602 885.977 544.086 885.977C543.695 885.977 543.339 885.904 543.016 885.758C542.693 885.612 542.417 885.411 542.188 885.156C541.964 884.917 541.786 884.641 541.656 884.328C541.531 884.016 541.451 883.654 541.414 883.242V883.188H547.453V882.539C547.453 881.951 547.378 881.404 547.227 880.898C547.081 880.393 546.857 879.953 546.555 879.578C546.253 879.208 545.872 878.919 545.414 878.711C544.961 878.497 544.43 878.391 543.82 878.391C543.336 878.391 542.862 878.49 542.398 878.688C541.94 878.885 541.531 879.169 541.172 879.539C540.807 879.914 540.516 880.372 540.297 880.914C540.078 881.451 539.969 882.06 539.969 882.742V883.07C539.969 883.659 540.068 884.203 540.266 884.703C540.464 885.203 540.74 885.635 541.094 886C541.448 886.365 541.872 886.648 542.367 886.852C542.867 887.055 543.414 887.156 544.008 887.156ZM543.82 879.578C544.19 879.578 544.508 879.646 544.773 879.781C545.044 879.917 545.268 880.094 545.445 880.312C545.622 880.531 545.76 880.792 545.859 881.094C545.958 881.391 546.008 881.669 546.008 881.93V882H541.461C541.518 881.609 541.617 881.266 541.758 880.969C541.904 880.667 542.081 880.411 542.289 880.203C542.497 880 542.732 879.846 542.992 879.742C543.253 879.633 543.529 879.578 543.82 879.578ZM555.438 887H556.945V886.875C556.852 886.641 556.779 886.367 556.727 886.055C556.674 885.737 556.648 885.438 556.648 885.156V881.227C556.648 880.753 556.562 880.339 556.391 879.984C556.219 879.63 555.984 879.333 555.688 879.094C555.385 878.859 555.029 878.685 554.617 878.57C554.206 878.451 553.76 878.391 553.281 878.391C552.755 878.391 552.284 878.464 551.867 878.609C551.456 878.755 551.107 878.945 550.82 879.18C550.529 879.419 550.305 879.688 550.148 879.984C549.997 880.281 549.919 880.583 549.914 880.891H551.367C551.367 880.714 551.409 880.544 551.492 880.383C551.581 880.216 551.703 880.073 551.859 879.953C552.016 879.833 552.206 879.737 552.43 879.664C552.659 879.591 552.917 879.555 553.203 879.555C553.51 879.555 553.786 879.594 554.031 879.672C554.281 879.75 554.492 879.859 554.664 880C554.836 880.146 554.969 880.32 555.062 880.523C555.156 880.727 555.203 880.956 555.203 881.211V881.875H553.625C553.036 881.875 552.503 881.932 552.023 882.047C551.549 882.161 551.143 882.333 550.805 882.562C550.466 882.797 550.203 883.089 550.016 883.438C549.833 883.786 549.742 884.193 549.742 884.656C549.742 885.01 549.81 885.341 549.945 885.648C550.086 885.951 550.284 886.211 550.539 886.43C550.789 886.654 551.094 886.831 551.453 886.961C551.818 887.091 552.224 887.156 552.672 887.156C552.948 887.156 553.208 887.128 553.453 887.07C553.698 887.013 553.93 886.935 554.148 886.836C554.362 886.737 554.557 886.622 554.734 886.492C554.917 886.362 555.081 886.224 555.227 886.078C555.242 886.255 555.266 886.427 555.297 886.594C555.333 886.755 555.38 886.891 555.438 887ZM552.883 885.898C552.602 885.898 552.354 885.862 552.141 885.789C551.927 885.716 551.75 885.615 551.609 885.484C551.469 885.359 551.362 885.208 551.289 885.031C551.221 884.854 551.188 884.661 551.188 884.453C551.188 884.234 551.227 884.039 551.305 883.867C551.388 883.695 551.508 883.547 551.664 883.422C551.883 883.245 552.177 883.115 552.547 883.031C552.922 882.943 553.359 882.898 553.859 882.898H555.203V884.609C555.12 884.776 555.005 884.938 554.859 885.094C554.714 885.245 554.542 885.38 554.344 885.5C554.141 885.62 553.917 885.716 553.672 885.789C553.427 885.862 553.164 885.898 552.883 885.898ZM565.031 878.391C564.417 878.391 563.867 878.526 563.383 878.797C562.904 879.062 562.492 879.427 562.148 879.891L562.141 879.68L562.078 878.547H560.703V887H562.156V881.578C562.25 881.318 562.367 881.083 562.508 880.875C562.654 880.661 562.823 880.482 563.016 880.336C563.229 880.169 563.479 880.044 563.766 879.961C564.052 879.872 564.372 879.828 564.727 879.828C565.003 879.828 565.266 879.844 565.516 879.875C565.771 879.901 566.039 879.945 566.32 880.008L566.516 878.594C566.37 878.531 566.151 878.482 565.859 878.445C565.573 878.409 565.297 878.391 565.031 878.391ZM572.703 885.984C572.25 885.984 571.87 885.896 571.562 885.719C571.26 885.536 571.018 885.299 570.836 885.008C570.648 884.721 570.513 884.398 570.43 884.039C570.352 883.674 570.312 883.307 570.312 882.938V882.609C570.312 882.245 570.352 881.883 570.43 881.523C570.513 881.164 570.648 880.839 570.836 880.547C571.023 880.26 571.268 880.029 571.57 879.852C571.878 879.669 572.255 879.578 572.703 879.578C572.995 879.578 573.266 879.628 573.516 879.727C573.771 879.826 573.99 879.961 574.172 880.133C574.354 880.305 574.497 880.505 574.602 880.734C574.711 880.958 574.768 881.198 574.773 881.453H576.141C576.141 881.026 576.055 880.625 575.883 880.25C575.711 879.875 575.474 879.549 575.172 879.273C574.865 879.003 574.5 878.789 574.078 878.633C573.661 878.471 573.203 878.391 572.703 878.391C572.062 878.391 571.503 878.505 571.023 878.734C570.544 878.964 570.146 879.271 569.828 879.656C569.505 880.047 569.263 880.497 569.102 881.008C568.94 881.518 568.859 882.052 568.859 882.609V882.938C568.859 883.5 568.94 884.036 569.102 884.547C569.263 885.052 569.505 885.497 569.828 885.883C570.146 886.273 570.544 886.583 571.023 886.812C571.503 887.042 572.062 887.156 572.703 887.156C573.151 887.156 573.581 887.081 573.992 886.93C574.404 886.773 574.768 886.565 575.086 886.305C575.404 886.049 575.656 885.753 575.844 885.414C576.036 885.07 576.135 884.711 576.141 884.336H574.773C574.768 884.57 574.706 884.789 574.586 884.992C574.471 885.19 574.318 885.362 574.125 885.508C573.932 885.659 573.711 885.776 573.461 885.859C573.216 885.943 572.964 885.984 572.703 885.984ZM580.156 879.805V875H578.711V887H580.156V880.859C580.26 880.693 580.378 880.542 580.508 880.406C580.643 880.266 580.789 880.143 580.945 880.039C581.143 879.904 581.359 879.799 581.594 879.727C581.828 879.654 582.076 879.617 582.336 879.617C582.654 879.612 582.935 879.656 583.18 879.75C583.424 879.839 583.628 879.974 583.789 880.156C583.94 880.323 584.055 880.534 584.133 880.789C584.211 881.039 584.25 881.331 584.25 881.664V887H585.695V881.68C585.695 881.112 585.625 880.622 585.484 880.211C585.349 879.794 585.154 879.451 584.898 879.18C584.643 878.909 584.333 878.711 583.969 878.586C583.609 878.456 583.208 878.391 582.766 878.391C582.427 878.396 582.107 878.445 581.805 878.539C581.508 878.633 581.234 878.771 580.984 878.953C580.828 879.062 580.68 879.19 580.539 879.336C580.398 879.477 580.271 879.633 580.156 879.805ZM590.125 874V875.188H591.859V888.25H590.125V889.438H593.227V874H590.125Z" fill="black"/>
<path d="M850.094 875.188V874H847V889.438H850.094V888.25H848.367V875.188H850.094ZM855.453 887H856.594L857.898 881.82L858.109 880.508L858.328 881.82L859.648 887H860.789L862.586 878.547H861.305L860.367 883.938L860.156 885.266L859.93 883.938L858.586 878.547H857.656L856.305 883.938L856.094 885.148L855.922 883.938L854.938 878.547H853.656L855.453 887ZM863.844 882.695V882.867C863.844 883.477 863.932 884.042 864.109 884.562C864.286 885.083 864.542 885.536 864.875 885.922C865.203 886.307 865.604 886.609 866.078 886.828C866.557 887.047 867.096 887.156 867.695 887.156C868.289 887.156 868.823 887.047 869.297 886.828C869.771 886.609 870.174 886.307 870.508 885.922C870.836 885.536 871.089 885.083 871.266 884.562C871.443 884.042 871.531 883.477 871.531 882.867V882.695C871.531 882.086 871.443 881.521 871.266 881C871.089 880.474 870.836 880.018 870.508 879.633C870.174 879.247 869.768 878.945 869.289 878.727C868.815 878.503 868.279 878.391 867.68 878.391C867.086 878.391 866.552 878.503 866.078 878.727C865.604 878.945 865.203 879.247 864.875 879.633C864.542 880.018 864.286 880.474 864.109 881C863.932 881.521 863.844 882.086 863.844 882.695ZM865.289 882.867V882.695C865.289 882.284 865.339 881.891 865.438 881.516C865.536 881.135 865.688 880.802 865.891 880.516C866.089 880.229 866.336 880.003 866.633 879.836C866.93 879.664 867.279 879.578 867.68 879.578C868.081 879.578 868.43 879.664 868.727 879.836C869.029 880.003 869.281 880.229 869.484 880.516C869.682 880.802 869.831 881.135 869.93 881.516C870.034 881.891 870.086 882.284 870.086 882.695V882.867C870.086 883.284 870.036 883.682 869.938 884.062C869.839 884.438 869.69 884.768 869.492 885.055C869.289 885.341 869.036 885.568 868.734 885.734C868.438 885.901 868.091 885.984 867.695 885.984C867.294 885.984 866.943 885.901 866.641 885.734C866.339 885.568 866.089 885.341 865.891 885.055C865.688 884.768 865.536 884.438 865.438 884.062C865.339 883.682 865.289 883.284 865.289 882.867ZM879.398 878.391C878.784 878.391 878.234 878.526 877.75 878.797C877.271 879.062 876.859 879.427 876.516 879.891L876.508 879.68L876.445 878.547H875.07V887H876.523V881.578C876.617 881.318 876.734 881.083 876.875 880.875C877.021 880.661 877.19 880.482 877.383 880.336C877.596 880.169 877.846 880.044 878.133 879.961C878.419 879.872 878.74 879.828 879.094 879.828C879.37 879.828 879.633 879.844 879.883 879.875C880.138 879.901 880.406 879.945 880.688 880.008L880.883 878.594C880.737 878.531 880.518 878.482 880.227 878.445C879.94 878.409 879.664 878.391 879.398 878.391ZM886 883.055L889.102 887H890.938L886.992 882.07L890.414 878.547H888.656L885.883 881.328L884.938 882.344V875H883.484V887H884.938V884.078L886 883.055ZM894.883 874V875.188H896.617V888.25H894.883V889.438H897.984V874H894.883Z" fill="black"/>
<path d="M1144.24 875.188V874H1141.15V889.438H1144.24V888.25H1142.52V875.188H1144.24ZM1152.39 885.984C1151.94 885.984 1151.56 885.896 1151.25 885.719C1150.95 885.536 1150.71 885.299 1150.52 885.008C1150.34 884.721 1150.2 884.398 1150.12 884.039C1150.04 883.674 1150 883.307 1150 882.938V882.609C1150 882.245 1150.04 881.883 1150.12 881.523C1150.2 881.164 1150.34 880.839 1150.52 880.547C1150.71 880.26 1150.96 880.029 1151.26 879.852C1151.57 879.669 1151.94 879.578 1152.39 879.578C1152.68 879.578 1152.95 879.628 1153.2 879.727C1153.46 879.826 1153.68 879.961 1153.86 880.133C1154.04 880.305 1154.18 880.505 1154.29 880.734C1154.4 880.958 1154.46 881.198 1154.46 881.453H1155.83C1155.83 881.026 1155.74 880.625 1155.57 880.25C1155.4 879.875 1155.16 879.549 1154.86 879.273C1154.55 879.003 1154.19 878.789 1153.77 878.633C1153.35 878.471 1152.89 878.391 1152.39 878.391C1151.75 878.391 1151.19 878.505 1150.71 878.734C1150.23 878.964 1149.83 879.271 1149.52 879.656C1149.19 880.047 1148.95 880.497 1148.79 881.008C1148.63 881.518 1148.55 882.052 1148.55 882.609V882.938C1148.55 883.5 1148.63 884.036 1148.79 884.547C1148.95 885.052 1149.19 885.497 1149.52 885.883C1149.83 886.273 1150.23 886.583 1150.71 886.812C1151.19 887.042 1151.75 887.156 1152.39 887.156C1152.84 887.156 1153.27 887.081 1153.68 886.93C1154.09 886.773 1154.46 886.565 1154.77 886.305C1155.09 886.049 1155.34 885.753 1155.53 885.414C1155.72 885.07 1155.82 884.711 1155.83 884.336H1154.46C1154.46 884.57 1154.39 884.789 1154.27 884.992C1154.16 885.19 1154.01 885.362 1153.81 885.508C1153.62 885.659 1153.4 885.776 1153.15 885.859C1152.9 885.943 1152.65 885.984 1152.39 885.984ZM1157.99 882.695V882.867C1157.99 883.477 1158.08 884.042 1158.26 884.562C1158.43 885.083 1158.69 885.536 1159.02 885.922C1159.35 886.307 1159.75 886.609 1160.23 886.828C1160.71 887.047 1161.24 887.156 1161.84 887.156C1162.44 887.156 1162.97 887.047 1163.45 886.828C1163.92 886.609 1164.32 886.307 1164.66 885.922C1164.98 885.536 1165.24 885.083 1165.41 884.562C1165.59 884.042 1165.68 883.477 1165.68 882.867V882.695C1165.68 882.086 1165.59 881.521 1165.41 881C1165.24 880.474 1164.98 880.018 1164.66 879.633C1164.32 879.247 1163.92 878.945 1163.44 878.727C1162.96 878.503 1162.43 878.391 1161.83 878.391C1161.23 878.391 1160.7 878.503 1160.23 878.727C1159.75 878.945 1159.35 879.247 1159.02 879.633C1158.69 880.018 1158.43 880.474 1158.26 881C1158.08 881.521 1157.99 882.086 1157.99 882.695ZM1159.44 882.867V882.695C1159.44 882.284 1159.49 881.891 1159.59 881.516C1159.68 881.135 1159.84 880.802 1160.04 880.516C1160.24 880.229 1160.48 880.003 1160.78 879.836C1161.08 879.664 1161.43 879.578 1161.83 879.578C1162.23 879.578 1162.58 879.664 1162.88 879.836C1163.18 880.003 1163.43 880.229 1163.63 880.516C1163.83 880.802 1163.98 881.135 1164.08 881.516C1164.18 881.891 1164.23 882.284 1164.23 882.695V882.867C1164.23 883.284 1164.18 883.682 1164.09 884.062C1163.99 884.438 1163.84 884.768 1163.64 885.055C1163.44 885.341 1163.18 885.568 1162.88 885.734C1162.59 885.901 1162.24 885.984 1161.84 885.984C1161.44 885.984 1161.09 885.901 1160.79 885.734C1160.49 885.568 1160.24 885.341 1160.04 885.055C1159.84 884.768 1159.68 884.438 1159.59 884.062C1159.49 883.682 1159.44 883.284 1159.44 882.867ZM1168.67 878.547H1167.38V887H1168.75V880.273C1168.78 880.19 1168.82 880.112 1168.87 880.039C1168.92 879.966 1168.98 879.901 1169.05 879.844C1169.14 879.771 1169.24 879.716 1169.37 879.68C1169.5 879.638 1169.65 879.617 1169.82 879.617C1169.98 879.617 1170.11 879.638 1170.23 879.68C1170.35 879.716 1170.45 879.776 1170.52 879.859C1170.61 879.948 1170.67 880.06 1170.7 880.195C1170.74 880.331 1170.77 880.487 1170.77 880.664V887H1172.14V880.672C1172.14 880.641 1172.14 880.615 1172.14 880.594C1172.14 880.568 1172.14 880.542 1172.14 880.516C1172.16 880.385 1172.19 880.268 1172.23 880.164C1172.28 880.055 1172.35 879.958 1172.43 879.875C1172.51 879.797 1172.62 879.734 1172.74 879.688C1172.87 879.641 1173.02 879.617 1173.19 879.617C1173.35 879.617 1173.49 879.638 1173.61 879.68C1173.73 879.721 1173.84 879.784 1173.92 879.867C1174 879.956 1174.06 880.068 1174.1 880.203C1174.14 880.339 1174.16 880.495 1174.16 880.672V887H1175.54V880.688C1175.54 880.281 1175.49 879.93 1175.4 879.633C1175.3 879.331 1175.17 879.086 1174.99 878.898C1174.83 878.732 1174.63 878.607 1174.4 878.523C1174.16 878.435 1173.9 878.391 1173.61 878.391C1173.4 878.396 1173.2 878.424 1173.02 878.477C1172.84 878.529 1172.68 878.599 1172.53 878.688C1172.42 878.766 1172.31 878.857 1172.21 878.961C1172.11 879.065 1172.03 879.177 1171.95 879.297C1171.9 879.167 1171.83 879.049 1171.74 878.945C1171.66 878.841 1171.58 878.753 1171.48 878.68C1171.34 878.586 1171.18 878.516 1171 878.469C1170.82 878.417 1170.62 878.391 1170.4 878.391C1170 878.396 1169.66 878.482 1169.38 878.648C1169.11 878.815 1168.88 879.047 1168.71 879.344L1168.67 878.547ZM1178.28 878.547H1176.98V887H1178.36V880.273C1178.39 880.19 1178.43 880.112 1178.48 880.039C1178.53 879.966 1178.59 879.901 1178.66 879.844C1178.74 879.771 1178.85 879.716 1178.98 879.68C1179.11 879.638 1179.26 879.617 1179.43 879.617C1179.59 879.617 1179.72 879.638 1179.84 879.68C1179.96 879.716 1180.05 879.776 1180.13 879.859C1180.22 879.948 1180.28 880.06 1180.31 880.195C1180.35 880.331 1180.38 880.487 1180.38 880.664V887H1181.75V880.672C1181.75 880.641 1181.75 880.615 1181.75 880.594C1181.75 880.568 1181.75 880.542 1181.75 880.516C1181.77 880.385 1181.8 880.268 1181.84 880.164C1181.89 880.055 1181.96 879.958 1182.04 879.875C1182.12 879.797 1182.23 879.734 1182.35 879.688C1182.48 879.641 1182.62 879.617 1182.8 879.617C1182.96 879.617 1183.1 879.638 1183.22 879.68C1183.34 879.721 1183.45 879.784 1183.53 879.867C1183.61 879.956 1183.67 880.068 1183.71 880.203C1183.75 880.339 1183.77 880.495 1183.77 880.672V887H1185.15V880.688C1185.15 880.281 1185.1 879.93 1185.01 879.633C1184.91 879.331 1184.78 879.086 1184.6 878.898C1184.44 878.732 1184.24 878.607 1184.01 878.523C1183.77 878.435 1183.51 878.391 1183.22 878.391C1183.01 878.396 1182.81 878.424 1182.62 878.477C1182.45 878.529 1182.29 878.599 1182.14 878.688C1182.03 878.766 1181.92 878.857 1181.82 878.961C1181.72 879.065 1181.64 879.177 1181.56 879.297C1181.51 879.167 1181.43 879.049 1181.35 878.945C1181.27 878.841 1181.18 878.753 1181.09 878.68C1180.95 878.586 1180.79 878.516 1180.61 878.469C1180.43 878.417 1180.23 878.391 1180.01 878.391C1179.61 878.396 1179.27 878.482 1178.99 878.648C1178.72 878.815 1178.49 879.047 1178.32 879.344L1178.28 878.547ZM1192.8 887H1194.11V878.547H1192.66V884.609C1192.58 884.792 1192.48 884.961 1192.36 885.117C1192.24 885.268 1192.11 885.398 1191.95 885.508C1191.77 885.643 1191.54 885.75 1191.29 885.828C1191.03 885.901 1190.74 885.938 1190.42 885.938C1190.15 885.938 1189.9 885.901 1189.69 885.828C1189.48 885.755 1189.3 885.628 1189.16 885.445C1189.01 885.268 1188.9 885.029 1188.83 884.727C1188.76 884.424 1188.72 884.044 1188.72 883.586V878.547H1187.27V883.57C1187.27 884.201 1187.34 884.742 1187.48 885.195C1187.62 885.643 1187.82 886.013 1188.07 886.305C1188.33 886.596 1188.63 886.812 1188.99 886.953C1189.35 887.089 1189.75 887.156 1190.2 887.156C1190.75 887.156 1191.23 887.042 1191.66 886.812C1192.08 886.578 1192.43 886.253 1192.71 885.836L1192.8 887ZM1196.84 887H1198.28V880.938C1198.38 880.755 1198.49 880.589 1198.62 880.438C1198.76 880.286 1198.91 880.154 1199.06 880.039C1199.26 879.909 1199.47 879.807 1199.7 879.734C1199.92 879.656 1200.17 879.617 1200.44 879.617C1200.74 879.617 1201.02 879.654 1201.25 879.727C1201.49 879.799 1201.69 879.917 1201.86 880.078C1202.02 880.24 1202.14 880.451 1202.23 880.711C1202.31 880.971 1202.35 881.289 1202.35 881.664V887H1203.8V881.633C1203.8 881.07 1203.73 880.586 1203.59 880.18C1203.45 879.768 1203.26 879.43 1203 879.164C1202.74 878.898 1202.43 878.703 1202.07 878.578C1201.71 878.453 1201.31 878.391 1200.87 878.391C1200.54 878.396 1200.23 878.445 1199.93 878.539C1199.64 878.628 1199.37 878.755 1199.12 878.922C1198.95 879.031 1198.79 879.161 1198.64 879.312C1198.49 879.458 1198.36 879.62 1198.23 879.797L1198.13 878.547H1196.84V887ZM1206.67 878.547V879.805H1209.55V885.75H1206.67V887H1213.75V885.75H1210.99V878.547H1206.67ZM1209.36 876.328C1209.36 876.562 1209.43 876.758 1209.57 876.914C1209.72 877.07 1209.93 877.148 1210.23 877.148C1210.51 877.148 1210.73 877.07 1210.88 876.914C1211.02 876.758 1211.09 876.562 1211.09 876.328C1211.09 876.198 1211.07 876.078 1211.03 875.969C1210.99 875.859 1210.93 875.768 1210.84 875.695C1210.78 875.628 1210.69 875.576 1210.59 875.539C1210.48 875.497 1210.36 875.477 1210.23 875.477C1210.09 875.477 1209.97 875.497 1209.86 875.539C1209.76 875.576 1209.67 875.628 1209.6 875.695C1209.52 875.773 1209.46 875.867 1209.41 875.977C1209.38 876.086 1209.36 876.203 1209.36 876.328ZM1219.48 876.5H1218.02V878.547H1215.8V879.664H1218.02V884.258C1218.02 884.779 1218.09 885.224 1218.23 885.594C1218.37 885.958 1218.56 886.255 1218.8 886.484C1219.04 886.719 1219.32 886.891 1219.64 887C1219.97 887.104 1220.32 887.156 1220.7 887.156C1220.92 887.156 1221.14 887.146 1221.37 887.125C1221.6 887.104 1221.81 887.073 1222.02 887.031C1222.22 886.995 1222.41 886.951 1222.58 886.898C1222.75 886.841 1222.9 886.776 1223.02 886.703L1222.81 885.68C1222.72 885.701 1222.61 885.727 1222.47 885.758C1222.33 885.784 1222.19 885.81 1222.03 885.836C1221.87 885.862 1221.71 885.885 1221.54 885.906C1221.37 885.922 1221.21 885.93 1221.05 885.93C1220.84 885.93 1220.64 885.904 1220.45 885.852C1220.26 885.799 1220.09 885.708 1219.95 885.578C1219.8 885.453 1219.68 885.284 1219.6 885.07C1219.52 884.857 1219.48 884.586 1219.48 884.258V879.664H1222.7V878.547H1219.48V876.5ZM1226.34 890.414C1226.72 890.414 1227.06 890.344 1227.35 890.203C1227.64 890.062 1227.9 889.888 1228.12 889.68C1228.34 889.471 1228.52 889.245 1228.67 889C1228.83 888.755 1228.96 888.523 1229.05 888.305L1233.34 878.547H1231.73L1229.55 884.031L1229.15 885.023L1228.77 884L1226.45 878.547H1224.84L1228.48 886.602L1227.9 887.727C1227.85 887.831 1227.77 887.964 1227.68 888.125C1227.59 888.286 1227.48 888.443 1227.36 888.594C1227.23 888.745 1227.08 888.875 1226.91 888.984C1226.75 889.094 1226.57 889.148 1226.38 889.148C1226.3 889.148 1226.2 889.143 1226.07 889.133C1225.95 889.128 1225.82 889.12 1225.69 889.109L1225.45 890.289C1225.55 890.31 1225.68 890.336 1225.87 890.367C1226.05 890.398 1226.21 890.414 1226.34 890.414ZM1244.62 882.703V882.867C1244.62 883.471 1244.7 884.036 1244.85 884.562C1245.01 885.083 1245.23 885.536 1245.52 885.922C1245.81 886.307 1246.16 886.609 1246.58 886.828C1246.99 887.047 1247.46 887.156 1247.98 887.156C1248.28 887.156 1248.57 887.122 1248.84 887.055C1249.1 886.992 1249.34 886.901 1249.56 886.781C1249.7 886.703 1249.83 886.612 1249.95 886.508C1250.08 886.404 1250.2 886.289 1250.3 886.164V886.891C1250.3 887.255 1250.25 887.578 1250.15 887.859C1250.04 888.141 1249.9 888.375 1249.7 888.562C1249.51 888.755 1249.27 888.901 1248.99 889C1248.72 889.099 1248.41 889.148 1248.06 889.148C1247.87 889.148 1247.68 889.128 1247.48 889.086C1247.29 889.049 1247.1 888.987 1246.91 888.898C1246.71 888.81 1246.52 888.69 1246.34 888.539C1246.15 888.393 1245.97 888.214 1245.79 888L1245.04 888.867C1245.23 889.143 1245.46 889.375 1245.73 889.562C1246 889.75 1246.28 889.898 1246.57 890.008C1246.86 890.122 1247.14 890.203 1247.42 890.25C1247.7 890.302 1247.95 890.328 1248.17 890.328C1248.7 890.328 1249.19 890.25 1249.62 890.094C1250.06 889.938 1250.44 889.708 1250.76 889.406C1251.07 889.104 1251.31 888.737 1251.48 888.305C1251.66 887.872 1251.75 887.378 1251.75 886.82V878.547H1250.44L1250.37 879.469C1250.27 879.344 1250.16 879.229 1250.05 879.125C1249.94 879.021 1249.82 878.93 1249.7 878.852C1249.47 878.701 1249.21 878.586 1248.92 878.508C1248.64 878.43 1248.33 878.391 1247.99 878.391C1247.47 878.391 1246.99 878.497 1246.58 878.711C1246.16 878.924 1245.81 879.221 1245.52 879.602C1245.22 879.982 1245 880.438 1244.84 880.969C1244.69 881.495 1244.62 882.073 1244.62 882.703ZM1246.06 882.867V882.703C1246.06 882.292 1246.1 881.901 1246.19 881.531C1246.28 881.156 1246.41 880.826 1246.6 880.539C1246.78 880.258 1247.02 880.034 1247.3 879.867C1247.6 879.701 1247.95 879.617 1248.35 879.617C1248.59 879.617 1248.81 879.648 1249.01 879.711C1249.21 879.768 1249.39 879.849 1249.55 879.953C1249.71 880.062 1249.85 880.19 1249.98 880.336C1250.1 880.482 1250.21 880.643 1250.3 880.82V884.695C1250.21 884.878 1250.1 885.044 1249.98 885.195C1249.85 885.346 1249.71 885.477 1249.55 885.586C1249.39 885.695 1249.21 885.781 1249.01 885.844C1248.81 885.901 1248.59 885.93 1248.34 885.93C1247.93 885.93 1247.59 885.849 1247.3 885.688C1247.02 885.521 1246.78 885.297 1246.6 885.016C1246.41 884.734 1246.28 884.409 1246.19 884.039C1246.1 883.669 1246.06 883.279 1246.06 882.867ZM1260.03 878.391C1259.42 878.391 1258.87 878.526 1258.38 878.797C1257.9 879.062 1257.49 879.427 1257.15 879.891L1257.14 879.68L1257.08 878.547H1255.7V887H1257.16V881.578C1257.25 881.318 1257.37 881.083 1257.51 880.875C1257.65 880.661 1257.82 880.482 1258.02 880.336C1258.23 880.169 1258.48 880.044 1258.77 879.961C1259.05 879.872 1259.37 879.828 1259.73 879.828C1260 879.828 1260.27 879.844 1260.52 879.875C1260.77 879.901 1261.04 879.945 1261.32 880.008L1261.52 878.594C1261.37 878.531 1261.15 878.482 1260.86 878.445C1260.57 878.409 1260.3 878.391 1260.03 878.391ZM1263.7 882.695V882.867C1263.7 883.477 1263.78 884.042 1263.96 884.562C1264.14 885.083 1264.39 885.536 1264.73 885.922C1265.05 886.307 1265.46 886.609 1265.93 886.828C1266.41 887.047 1266.95 887.156 1267.55 887.156C1268.14 887.156 1268.67 887.047 1269.15 886.828C1269.62 886.609 1270.03 886.307 1270.36 885.922C1270.69 885.536 1270.94 885.083 1271.12 884.562C1271.29 884.042 1271.38 883.477 1271.38 882.867V882.695C1271.38 882.086 1271.29 881.521 1271.12 881C1270.94 880.474 1270.69 880.018 1270.36 879.633C1270.03 879.247 1269.62 878.945 1269.14 878.727C1268.67 878.503 1268.13 878.391 1267.53 878.391C1266.94 878.391 1266.4 878.503 1265.93 878.727C1265.46 878.945 1265.05 879.247 1264.73 879.633C1264.39 880.018 1264.14 880.474 1263.96 881C1263.78 881.521 1263.7 882.086 1263.7 882.695ZM1265.14 882.867V882.695C1265.14 882.284 1265.19 881.891 1265.29 881.516C1265.39 881.135 1265.54 880.802 1265.74 880.516C1265.94 880.229 1266.19 880.003 1266.48 879.836C1266.78 879.664 1267.13 879.578 1267.53 879.578C1267.93 879.578 1268.28 879.664 1268.58 879.836C1268.88 880.003 1269.13 880.229 1269.34 880.516C1269.53 880.802 1269.68 881.135 1269.78 881.516C1269.89 881.891 1269.94 882.284 1269.94 882.695V882.867C1269.94 883.284 1269.89 883.682 1269.79 884.062C1269.69 884.438 1269.54 884.768 1269.34 885.055C1269.14 885.341 1268.89 885.568 1268.59 885.734C1268.29 885.901 1267.94 885.984 1267.55 885.984C1267.15 885.984 1266.79 885.901 1266.49 885.734C1266.19 885.568 1265.94 885.341 1265.74 885.055C1265.54 884.768 1265.39 884.438 1265.29 884.062C1265.19 883.682 1265.14 883.284 1265.14 882.867ZM1279.28 887H1280.59V878.547H1279.14V884.609C1279.06 884.792 1278.96 884.961 1278.84 885.117C1278.73 885.268 1278.59 885.398 1278.44 885.508C1278.25 885.643 1278.03 885.75 1277.77 885.828C1277.52 885.901 1277.23 885.938 1276.91 885.938C1276.63 885.938 1276.39 885.901 1276.17 885.828C1275.96 885.755 1275.79 885.628 1275.64 885.445C1275.49 885.268 1275.39 885.029 1275.31 884.727C1275.24 884.424 1275.2 884.044 1275.2 883.586V878.547H1273.76V883.57C1273.76 884.201 1273.83 884.742 1273.96 885.195C1274.1 885.643 1274.3 886.013 1274.55 886.305C1274.81 886.596 1275.12 886.812 1275.48 886.953C1275.84 887.089 1276.24 887.156 1276.68 887.156C1277.23 887.156 1277.72 887.042 1278.14 886.812C1278.56 886.578 1278.91 886.253 1279.2 885.836L1279.28 887ZM1283.31 890.25H1284.76V886.188C1284.86 886.302 1284.97 886.409 1285.09 886.508C1285.21 886.602 1285.34 886.688 1285.48 886.766C1285.7 886.891 1285.95 886.987 1286.23 887.055C1286.51 887.122 1286.81 887.156 1287.13 887.156C1287.66 887.156 1288.14 887.047 1288.55 886.828C1288.96 886.609 1289.31 886.307 1289.59 885.922C1289.88 885.536 1290.09 885.083 1290.23 884.562C1290.38 884.036 1290.45 883.471 1290.45 882.867V882.703C1290.45 882.073 1290.38 881.495 1290.23 880.969C1290.09 880.438 1289.88 879.982 1289.59 879.602C1289.31 879.221 1288.96 878.924 1288.55 878.711C1288.13 878.497 1287.65 878.391 1287.11 878.391C1286.8 878.391 1286.51 878.424 1286.24 878.492C1285.98 878.555 1285.73 878.648 1285.52 878.773C1285.36 878.857 1285.21 878.958 1285.08 879.078C1284.94 879.193 1284.82 879.323 1284.7 879.469L1284.63 878.547H1283.31V890.25ZM1289.01 882.703V882.867C1289.01 883.279 1288.96 883.672 1288.87 884.047C1288.78 884.422 1288.64 884.753 1288.45 885.039C1288.27 885.326 1288.03 885.555 1287.73 885.727C1287.44 885.893 1287.1 885.977 1286.7 885.977C1286.45 885.977 1286.22 885.945 1286.01 885.883C1285.8 885.82 1285.62 885.734 1285.45 885.625C1285.31 885.531 1285.18 885.417 1285.06 885.281C1284.95 885.146 1284.85 885 1284.76 884.844V880.773C1284.86 880.596 1284.97 880.435 1285.1 880.289C1285.23 880.143 1285.38 880.021 1285.55 879.922C1285.7 879.823 1285.87 879.747 1286.05 879.695C1286.25 879.643 1286.46 879.617 1286.68 879.617C1287.09 879.617 1287.43 879.701 1287.73 879.867C1288.02 880.034 1288.26 880.258 1288.45 880.539C1288.64 880.826 1288.78 881.156 1288.87 881.531C1288.96 881.901 1289.01 882.292 1289.01 882.703ZM1294.73 874V875.188H1296.47V888.25H1294.73V889.438H1297.84V874H1294.73Z" fill="black"/>
</svg>
