<svg width="600" height="700" viewBox="0 0 600 700" fill="none" xmlns="http://www.w3.org/2000/svg">
<rect width="600" height="700" fill="white"/>
<path d="M600 300C600 348.538 588.223 396.351 565.679 439.337C543.135 482.322 510.498 519.195 470.569 546.792C430.639 574.389 384.61 591.885 336.431 597.78C288.252 603.674 239.362 597.79 193.958 580.633C148.553 563.476 107.989 535.558 75.7475 499.276C43.5059 462.993 20.5494 419.429 8.84806 372.323C-2.85328 325.216 -2.94997 275.974 8.56629 228.821C20.0825 181.669 42.8678 138.015 74.9667 101.606L300 300H600Z" fill="#F05426"/>
<path d="M176.195 640.188V639H173.102V654.438H176.195V653.25H174.469V640.188H176.195ZM180.969 643.547V644.805H183.844V650.75H180.969V652H188.047V650.75H185.289V643.547H180.969ZM183.656 641.328C183.656 641.562 183.727 641.758 183.867 641.914C184.013 642.07 184.232 642.148 184.523 642.148C184.81 642.148 185.026 642.07 185.172 641.914C185.318 641.758 185.391 641.562 185.391 641.328C185.391 641.198 185.37 641.078 185.328 640.969C185.286 640.859 185.224 640.768 185.141 640.695C185.073 640.628 184.987 640.576 184.883 640.539C184.779 640.497 184.659 640.477 184.523 640.477C184.388 640.477 184.266 640.497 184.156 640.539C184.052 640.576 183.966 640.628 183.898 640.695C183.815 640.773 183.753 640.867 183.711 640.977C183.674 641.086 183.656 641.203 183.656 641.328ZM190.352 652H191.797V645.938C191.896 645.755 192.01 645.589 192.141 645.438C192.276 645.286 192.422 645.154 192.578 645.039C192.771 644.909 192.982 644.807 193.211 644.734C193.44 644.656 193.688 644.617 193.953 644.617C194.26 644.617 194.531 644.654 194.766 644.727C195.005 644.799 195.208 644.917 195.375 645.078C195.536 645.24 195.659 645.451 195.742 645.711C195.826 645.971 195.867 646.289 195.867 646.664V652H197.312V646.633C197.312 646.07 197.242 645.586 197.102 645.18C196.966 644.768 196.771 644.43 196.516 644.164C196.26 643.898 195.951 643.703 195.586 643.578C195.227 643.453 194.826 643.391 194.383 643.391C194.055 643.396 193.742 643.445 193.445 643.539C193.154 643.628 192.883 643.755 192.633 643.922C192.466 644.031 192.307 644.161 192.156 644.312C192.01 644.458 191.875 644.62 191.75 644.797L191.648 643.547H190.352V652ZM199.688 647.703V647.867C199.688 648.471 199.768 649.036 199.93 649.562C200.091 650.083 200.318 650.536 200.609 650.922C200.901 651.307 201.253 651.609 201.664 651.828C202.081 652.047 202.544 652.156 203.055 652.156C203.576 652.156 204.031 652.068 204.422 651.891C204.812 651.714 205.148 651.453 205.43 651.109L205.492 652H206.82V640H205.375V644.383C205.099 644.06 204.771 643.815 204.391 643.648C204.016 643.477 203.576 643.391 203.07 643.391C202.555 643.391 202.089 643.497 201.672 643.711C201.255 643.924 200.901 644.221 200.609 644.602C200.312 644.982 200.083 645.438 199.922 645.969C199.766 646.495 199.688 647.073 199.688 647.703ZM201.133 647.867V647.703C201.133 647.292 201.177 646.901 201.266 646.531C201.354 646.156 201.492 645.826 201.68 645.539C201.862 645.258 202.096 645.034 202.383 644.867C202.674 644.701 203.023 644.617 203.43 644.617C203.904 644.617 204.299 644.729 204.617 644.953C204.935 645.172 205.188 645.453 205.375 645.797V649.719C205.188 650.089 204.935 650.383 204.617 650.602C204.299 650.82 203.898 650.93 203.414 650.93C203.013 650.93 202.669 650.849 202.383 650.688C202.096 650.521 201.862 650.297 201.68 650.016C201.492 649.734 201.354 649.409 201.266 649.039C201.177 648.669 201.133 648.279 201.133 647.867ZM209.797 643.547V644.805H212.672V650.75H209.797V652H216.875V650.75H214.117V643.547H209.797ZM212.484 641.328C212.484 641.562 212.555 641.758 212.695 641.914C212.841 642.07 213.06 642.148 213.352 642.148C213.638 642.148 213.854 642.07 214 641.914C214.146 641.758 214.219 641.562 214.219 641.328C214.219 641.198 214.198 641.078 214.156 640.969C214.115 640.859 214.052 640.768 213.969 640.695C213.901 640.628 213.815 640.576 213.711 640.539C213.607 640.497 213.487 640.477 213.352 640.477C213.216 640.477 213.094 640.497 212.984 640.539C212.88 640.576 212.794 640.628 212.727 640.695C212.643 640.773 212.581 640.867 212.539 640.977C212.503 641.086 212.484 641.203 212.484 641.328ZM222.062 652H223.164L226.609 643.547H225.133L222.766 649.922L222.625 650.445L222.492 649.922L220.07 643.547H218.586L222.062 652ZM229.016 643.547V644.805H231.891V650.75H229.016V652H236.094V650.75H233.336V643.547H229.016ZM231.703 641.328C231.703 641.562 231.773 641.758 231.914 641.914C232.06 642.07 232.279 642.148 232.57 642.148C232.857 642.148 233.073 642.07 233.219 641.914C233.365 641.758 233.438 641.562 233.438 641.328C233.438 641.198 233.417 641.078 233.375 640.969C233.333 640.859 233.271 640.768 233.188 640.695C233.12 640.628 233.034 640.576 232.93 640.539C232.826 640.497 232.706 640.477 232.57 640.477C232.435 640.477 232.312 640.497 232.203 640.539C232.099 640.576 232.013 640.628 231.945 640.695C231.862 640.773 231.799 640.867 231.758 640.977C231.721 641.086 231.703 641.203 231.703 641.328ZM238.125 647.703V647.867C238.125 648.471 238.206 649.036 238.367 649.562C238.529 650.083 238.755 650.536 239.047 650.922C239.339 651.307 239.69 651.609 240.102 651.828C240.518 652.047 240.982 652.156 241.492 652.156C242.013 652.156 242.469 652.068 242.859 651.891C243.25 651.714 243.586 651.453 243.867 651.109L243.93 652H245.258V640H243.812V644.383C243.536 644.06 243.208 643.815 242.828 643.648C242.453 643.477 242.013 643.391 241.508 643.391C240.992 643.391 240.526 643.497 240.109 643.711C239.693 643.924 239.339 644.221 239.047 644.602C238.75 644.982 238.521 645.438 238.359 645.969C238.203 646.495 238.125 647.073 238.125 647.703ZM239.57 647.867V647.703C239.57 647.292 239.615 646.901 239.703 646.531C239.792 646.156 239.93 645.826 240.117 645.539C240.299 645.258 240.534 645.034 240.82 644.867C241.112 644.701 241.461 644.617 241.867 644.617C242.341 644.617 242.737 644.729 243.055 644.953C243.372 645.172 243.625 645.453 243.812 645.797V649.719C243.625 650.089 243.372 650.383 243.055 650.602C242.737 650.82 242.336 650.93 241.852 650.93C241.451 650.93 241.107 650.849 240.82 650.688C240.534 650.521 240.299 650.297 240.117 650.016C239.93 649.734 239.792 649.409 239.703 649.039C239.615 648.669 239.57 648.279 239.57 647.867ZM253.578 652H254.891V643.547H253.438V649.609C253.359 649.792 253.26 649.961 253.141 650.117C253.026 650.268 252.891 650.398 252.734 650.508C252.547 650.643 252.326 650.75 252.07 650.828C251.815 650.901 251.526 650.938 251.203 650.938C250.927 650.938 250.682 650.901 250.469 650.828C250.26 650.755 250.083 650.628 249.938 650.445C249.792 650.268 249.682 650.029 249.609 649.727C249.536 649.424 249.5 649.044 249.5 648.586V643.547H248.055V648.57C248.055 649.201 248.122 649.742 248.258 650.195C248.398 650.643 248.596 651.013 248.852 651.305C249.107 651.596 249.414 651.812 249.773 651.953C250.133 652.089 250.534 652.156 250.977 652.156C251.529 652.156 252.016 652.042 252.438 651.812C252.859 651.578 253.211 651.253 253.492 650.836L253.578 652ZM263.172 652H264.68V651.875C264.586 651.641 264.513 651.367 264.461 651.055C264.409 650.737 264.383 650.438 264.383 650.156V646.227C264.383 645.753 264.297 645.339 264.125 644.984C263.953 644.63 263.719 644.333 263.422 644.094C263.12 643.859 262.763 643.685 262.352 643.57C261.94 643.451 261.495 643.391 261.016 643.391C260.49 643.391 260.018 643.464 259.602 643.609C259.19 643.755 258.841 643.945 258.555 644.18C258.263 644.419 258.039 644.688 257.883 644.984C257.732 645.281 257.654 645.583 257.648 645.891H259.102C259.102 645.714 259.143 645.544 259.227 645.383C259.315 645.216 259.438 645.073 259.594 644.953C259.75 644.833 259.94 644.737 260.164 644.664C260.393 644.591 260.651 644.555 260.938 644.555C261.245 644.555 261.521 644.594 261.766 644.672C262.016 644.75 262.227 644.859 262.398 645C262.57 645.146 262.703 645.32 262.797 645.523C262.891 645.727 262.938 645.956 262.938 646.211V646.875H261.359C260.771 646.875 260.237 646.932 259.758 647.047C259.284 647.161 258.878 647.333 258.539 647.562C258.201 647.797 257.938 648.089 257.75 648.438C257.568 648.786 257.477 649.193 257.477 649.656C257.477 650.01 257.544 650.341 257.68 650.648C257.82 650.951 258.018 651.211 258.273 651.43C258.523 651.654 258.828 651.831 259.188 651.961C259.552 652.091 259.958 652.156 260.406 652.156C260.682 652.156 260.943 652.128 261.188 652.07C261.432 652.013 261.664 651.935 261.883 651.836C262.096 651.737 262.292 651.622 262.469 651.492C262.651 651.362 262.815 651.224 262.961 651.078C262.977 651.255 263 651.427 263.031 651.594C263.068 651.755 263.115 651.891 263.172 652ZM260.617 650.898C260.336 650.898 260.089 650.862 259.875 650.789C259.661 650.716 259.484 650.615 259.344 650.484C259.203 650.359 259.096 650.208 259.023 650.031C258.956 649.854 258.922 649.661 258.922 649.453C258.922 649.234 258.961 649.039 259.039 648.867C259.122 648.695 259.242 648.547 259.398 648.422C259.617 648.245 259.911 648.115 260.281 648.031C260.656 647.943 261.094 647.898 261.594 647.898H262.938V649.609C262.854 649.776 262.74 649.938 262.594 650.094C262.448 650.245 262.276 650.38 262.078 650.5C261.875 650.62 261.651 650.716 261.406 650.789C261.161 650.862 260.898 650.898 260.617 650.898ZM267.453 640V641.258H270.328V650.75H267.453V652H274.531V650.75H271.773V640H267.453ZM282.453 649.758C282.453 649.893 282.427 650.021 282.375 650.141C282.323 650.26 282.247 650.37 282.148 650.469C281.987 650.63 281.763 650.758 281.477 650.852C281.19 650.94 280.854 650.984 280.469 650.984C280.224 650.984 279.977 650.958 279.727 650.906C279.477 650.854 279.25 650.766 279.047 650.641C278.839 650.516 278.664 650.352 278.523 650.148C278.388 649.945 278.31 649.695 278.289 649.398H276.844C276.844 649.758 276.924 650.104 277.086 650.438C277.253 650.771 277.492 651.062 277.805 651.312C278.112 651.568 278.49 651.773 278.938 651.93C279.385 652.081 279.896 652.156 280.469 652.156C280.969 652.156 281.43 652.096 281.852 651.977C282.273 651.857 282.635 651.688 282.938 651.469C283.24 651.25 283.474 650.987 283.641 650.68C283.812 650.372 283.898 650.031 283.898 649.656C283.898 649.307 283.823 649 283.672 648.734C283.526 648.469 283.312 648.234 283.031 648.031C282.75 647.833 282.404 647.664 281.992 647.523C281.581 647.378 281.115 647.25 280.594 647.141C280.198 647.062 279.87 646.982 279.609 646.898C279.354 646.815 279.151 646.721 279 646.617C278.844 646.513 278.734 646.396 278.672 646.266C278.609 646.135 278.578 645.987 278.578 645.82C278.578 645.659 278.617 645.503 278.695 645.352C278.773 645.201 278.891 645.068 279.047 644.953C279.198 644.839 279.388 644.747 279.617 644.68C279.852 644.612 280.122 644.578 280.43 644.578C280.727 644.578 280.992 644.62 281.227 644.703C281.466 644.786 281.669 644.896 281.836 645.031C282.003 645.167 282.133 645.323 282.227 645.5C282.32 645.672 282.367 645.849 282.367 646.031H283.812C283.812 645.661 283.732 645.318 283.57 645C283.414 644.677 283.19 644.396 282.898 644.156C282.607 643.917 282.253 643.729 281.836 643.594C281.419 643.458 280.951 643.391 280.43 643.391C279.945 643.391 279.5 643.456 279.094 643.586C278.693 643.716 278.346 643.893 278.055 644.117C277.763 644.341 277.536 644.604 277.375 644.906C277.214 645.203 277.133 645.523 277.133 645.867C277.133 646.216 277.211 646.523 277.367 646.789C277.523 647.049 277.745 647.276 278.031 647.469C278.312 647.667 278.651 647.836 279.047 647.977C279.448 648.117 279.891 648.237 280.375 648.336C280.771 648.414 281.102 648.503 281.367 648.602C281.633 648.695 281.846 648.799 282.008 648.914C282.169 649.029 282.284 649.156 282.352 649.297C282.419 649.432 282.453 649.586 282.453 649.758ZM296.867 652H298.008L299.312 646.82L299.523 645.508L299.742 646.82L301.062 652H302.203L304 643.547H302.719L301.781 648.938L301.57 650.266L301.344 648.938L300 643.547H299.07L297.719 648.938L297.508 650.148L297.336 648.938L296.352 643.547H295.07L296.867 652ZM307.109 644.805V640H305.664V652H307.109V645.859C307.214 645.693 307.331 645.542 307.461 645.406C307.596 645.266 307.742 645.143 307.898 645.039C308.096 644.904 308.312 644.799 308.547 644.727C308.781 644.654 309.029 644.617 309.289 644.617C309.607 644.612 309.888 644.656 310.133 644.75C310.378 644.839 310.581 644.974 310.742 645.156C310.893 645.323 311.008 645.534 311.086 645.789C311.164 646.039 311.203 646.331 311.203 646.664V652H312.648V646.68C312.648 646.112 312.578 645.622 312.438 645.211C312.302 644.794 312.107 644.451 311.852 644.18C311.596 643.909 311.286 643.711 310.922 643.586C310.562 643.456 310.161 643.391 309.719 643.391C309.38 643.396 309.06 643.445 308.758 643.539C308.461 643.633 308.188 643.771 307.938 643.953C307.781 644.062 307.633 644.19 307.492 644.336C307.352 644.477 307.224 644.633 307.109 644.805ZM314.867 647.695V647.867C314.867 648.477 314.956 649.042 315.133 649.562C315.31 650.083 315.565 650.536 315.898 650.922C316.227 651.307 316.628 651.609 317.102 651.828C317.581 652.047 318.12 652.156 318.719 652.156C319.312 652.156 319.846 652.047 320.32 651.828C320.794 651.609 321.198 651.307 321.531 650.922C321.859 650.536 322.112 650.083 322.289 649.562C322.466 649.042 322.555 648.477 322.555 647.867V647.695C322.555 647.086 322.466 646.521 322.289 646C322.112 645.474 321.859 645.018 321.531 644.633C321.198 644.247 320.792 643.945 320.312 643.727C319.839 643.503 319.302 643.391 318.703 643.391C318.109 643.391 317.576 643.503 317.102 643.727C316.628 643.945 316.227 644.247 315.898 644.633C315.565 645.018 315.31 645.474 315.133 646C314.956 646.521 314.867 647.086 314.867 647.695ZM316.312 647.867V647.695C316.312 647.284 316.362 646.891 316.461 646.516C316.56 646.135 316.711 645.802 316.914 645.516C317.112 645.229 317.359 645.003 317.656 644.836C317.953 644.664 318.302 644.578 318.703 644.578C319.104 644.578 319.453 644.664 319.75 644.836C320.052 645.003 320.305 645.229 320.508 645.516C320.706 645.802 320.854 646.135 320.953 646.516C321.057 646.891 321.109 647.284 321.109 647.695V647.867C321.109 648.284 321.06 648.682 320.961 649.062C320.862 649.438 320.714 649.768 320.516 650.055C320.312 650.341 320.06 650.568 319.758 650.734C319.461 650.901 319.115 650.984 318.719 650.984C318.318 650.984 317.966 650.901 317.664 650.734C317.362 650.568 317.112 650.341 316.914 650.055C316.711 649.768 316.56 649.438 316.461 649.062C316.362 648.682 316.312 648.284 316.312 647.867ZM337.375 652H338.477L341.922 643.547H340.445L338.078 649.922L337.938 650.445L337.805 649.922L335.383 643.547H333.898L337.375 652ZM343.695 647.695V647.867C343.695 648.477 343.784 649.042 343.961 649.562C344.138 650.083 344.393 650.536 344.727 650.922C345.055 651.307 345.456 651.609 345.93 651.828C346.409 652.047 346.948 652.156 347.547 652.156C348.141 652.156 348.674 652.047 349.148 651.828C349.622 651.609 350.026 651.307 350.359 650.922C350.688 650.536 350.94 650.083 351.117 649.562C351.294 649.042 351.383 648.477 351.383 647.867V647.695C351.383 647.086 351.294 646.521 351.117 646C350.94 645.474 350.688 645.018 350.359 644.633C350.026 644.247 349.62 643.945 349.141 643.727C348.667 643.503 348.13 643.391 347.531 643.391C346.938 643.391 346.404 643.503 345.93 643.727C345.456 643.945 345.055 644.247 344.727 644.633C344.393 645.018 344.138 645.474 343.961 646C343.784 646.521 343.695 647.086 343.695 647.695ZM345.141 647.867V647.695C345.141 647.284 345.19 646.891 345.289 646.516C345.388 646.135 345.539 645.802 345.742 645.516C345.94 645.229 346.188 645.003 346.484 644.836C346.781 644.664 347.13 644.578 347.531 644.578C347.932 644.578 348.281 644.664 348.578 644.836C348.88 645.003 349.133 645.229 349.336 645.516C349.534 645.802 349.682 646.135 349.781 646.516C349.885 646.891 349.938 647.284 349.938 647.695V647.867C349.938 648.284 349.888 648.682 349.789 649.062C349.69 649.438 349.542 649.768 349.344 650.055C349.141 650.341 348.888 650.568 348.586 650.734C348.289 650.901 347.943 650.984 347.547 650.984C347.146 650.984 346.794 650.901 346.492 650.734C346.19 650.568 345.94 650.341 345.742 650.055C345.539 649.768 345.388 649.438 345.289 649.062C345.19 648.682 345.141 648.284 345.141 647.867ZM353.938 640V641.258H356.812V650.75H353.938V652H361.016V650.75H358.258V640H353.938ZM368.891 652H370.203V643.547H368.75V649.609C368.672 649.792 368.573 649.961 368.453 650.117C368.339 650.268 368.203 650.398 368.047 650.508C367.859 650.643 367.638 650.75 367.383 650.828C367.128 650.901 366.839 650.938 366.516 650.938C366.24 650.938 365.995 650.901 365.781 650.828C365.573 650.755 365.396 650.628 365.25 650.445C365.104 650.268 364.995 650.029 364.922 649.727C364.849 649.424 364.812 649.044 364.812 648.586V643.547H363.367V648.57C363.367 649.201 363.435 649.742 363.57 650.195C363.711 650.643 363.909 651.013 364.164 651.305C364.419 651.596 364.727 651.812 365.086 651.953C365.445 652.089 365.846 652.156 366.289 652.156C366.841 652.156 367.328 652.042 367.75 651.812C368.172 651.578 368.523 651.253 368.805 650.836L368.891 652ZM372.93 652H374.375V645.938C374.474 645.755 374.589 645.589 374.719 645.438C374.854 645.286 375 645.154 375.156 645.039C375.349 644.909 375.56 644.807 375.789 644.734C376.018 644.656 376.266 644.617 376.531 644.617C376.839 644.617 377.109 644.654 377.344 644.727C377.583 644.799 377.786 644.917 377.953 645.078C378.115 645.24 378.237 645.451 378.32 645.711C378.404 645.971 378.445 646.289 378.445 646.664V652H379.891V646.633C379.891 646.07 379.82 645.586 379.68 645.18C379.544 644.768 379.349 644.43 379.094 644.164C378.839 643.898 378.529 643.703 378.164 643.578C377.805 643.453 377.404 643.391 376.961 643.391C376.633 643.396 376.32 643.445 376.023 643.539C375.732 643.628 375.461 643.755 375.211 643.922C375.044 644.031 374.885 644.161 374.734 644.312C374.589 644.458 374.453 644.62 374.328 644.797L374.227 643.547H372.93V652ZM385.961 641.5H384.508V643.547H382.289V644.664H384.508V649.258C384.508 649.779 384.576 650.224 384.711 650.594C384.852 650.958 385.042 651.255 385.281 651.484C385.521 651.719 385.802 651.891 386.125 652C386.453 652.104 386.805 652.156 387.18 652.156C387.404 652.156 387.628 652.146 387.852 652.125C388.081 652.104 388.297 652.073 388.5 652.031C388.703 651.995 388.891 651.951 389.062 651.898C389.234 651.841 389.38 651.776 389.5 651.703L389.297 650.68C389.208 650.701 389.094 650.727 388.953 650.758C388.818 650.784 388.672 650.81 388.516 650.836C388.354 650.862 388.19 650.885 388.023 650.906C387.857 650.922 387.695 650.93 387.539 650.93C387.326 650.93 387.122 650.904 386.93 650.852C386.742 650.799 386.576 650.708 386.43 650.578C386.284 650.453 386.169 650.284 386.086 650.07C386.003 649.857 385.961 649.586 385.961 649.258V644.664H389.18V643.547H385.961V641.5ZM395.883 652.156C396.706 652.156 397.396 651.992 397.953 651.664C398.516 651.331 398.938 650.951 399.219 650.523L398.336 649.836C398.07 650.18 397.737 650.456 397.336 650.664C396.935 650.872 396.477 650.977 395.961 650.977C395.57 650.977 395.214 650.904 394.891 650.758C394.568 650.612 394.292 650.411 394.062 650.156C393.839 649.917 393.661 649.641 393.531 649.328C393.406 649.016 393.326 648.654 393.289 648.242V648.188H399.328V647.539C399.328 646.951 399.253 646.404 399.102 645.898C398.956 645.393 398.732 644.953 398.43 644.578C398.128 644.208 397.747 643.919 397.289 643.711C396.836 643.497 396.305 643.391 395.695 643.391C395.211 643.391 394.737 643.49 394.273 643.688C393.815 643.885 393.406 644.169 393.047 644.539C392.682 644.914 392.391 645.372 392.172 645.914C391.953 646.451 391.844 647.06 391.844 647.742V648.07C391.844 648.659 391.943 649.203 392.141 649.703C392.339 650.203 392.615 650.635 392.969 651C393.323 651.365 393.747 651.648 394.242 651.852C394.742 652.055 395.289 652.156 395.883 652.156ZM395.695 644.578C396.065 644.578 396.383 644.646 396.648 644.781C396.919 644.917 397.143 645.094 397.32 645.312C397.497 645.531 397.635 645.792 397.734 646.094C397.833 646.391 397.883 646.669 397.883 646.93V647H393.336C393.393 646.609 393.492 646.266 393.633 645.969C393.779 645.667 393.956 645.411 394.164 645.203C394.372 645 394.607 644.846 394.867 644.742C395.128 644.633 395.404 644.578 395.695 644.578ZM405.492 652.156C406.315 652.156 407.005 651.992 407.562 651.664C408.125 651.331 408.547 650.951 408.828 650.523L407.945 649.836C407.68 650.18 407.346 650.456 406.945 650.664C406.544 650.872 406.086 650.977 405.57 650.977C405.18 650.977 404.823 650.904 404.5 650.758C404.177 650.612 403.901 650.411 403.672 650.156C403.448 649.917 403.271 649.641 403.141 649.328C403.016 649.016 402.935 648.654 402.898 648.242V648.188H408.938V647.539C408.938 646.951 408.862 646.404 408.711 645.898C408.565 645.393 408.341 644.953 408.039 644.578C407.737 644.208 407.357 643.919 406.898 643.711C406.445 643.497 405.914 643.391 405.305 643.391C404.82 643.391 404.346 643.49 403.883 643.688C403.424 643.885 403.016 644.169 402.656 644.539C402.292 644.914 402 645.372 401.781 645.914C401.562 646.451 401.453 647.06 401.453 647.742V648.07C401.453 648.659 401.552 649.203 401.75 649.703C401.948 650.203 402.224 650.635 402.578 651C402.932 651.365 403.357 651.648 403.852 651.852C404.352 652.055 404.898 652.156 405.492 652.156ZM405.305 644.578C405.674 644.578 405.992 644.646 406.258 644.781C406.529 644.917 406.753 645.094 406.93 645.312C407.107 645.531 407.245 645.792 407.344 646.094C407.443 646.391 407.492 646.669 407.492 646.93V647H402.945C403.003 646.609 403.102 646.266 403.242 645.969C403.388 645.667 403.565 645.411 403.773 645.203C403.982 645 404.216 644.846 404.477 644.742C404.737 644.633 405.013 644.578 405.305 644.578ZM416.906 643.391C416.292 643.391 415.742 643.526 415.258 643.797C414.779 644.062 414.367 644.427 414.023 644.891L414.016 644.68L413.953 643.547H412.578V652H414.031V646.578C414.125 646.318 414.242 646.083 414.383 645.875C414.529 645.661 414.698 645.482 414.891 645.336C415.104 645.169 415.354 645.044 415.641 644.961C415.927 644.872 416.247 644.828 416.602 644.828C416.878 644.828 417.141 644.844 417.391 644.875C417.646 644.901 417.914 644.945 418.195 645.008L418.391 643.594C418.245 643.531 418.026 643.482 417.734 643.445C417.448 643.409 417.172 643.391 416.906 643.391ZM422.781 639V640.188H424.516V653.25H422.781V654.438H425.883V639H422.781Z" fill="black"/>
</svg>
