<svg width="200" height="200" viewBox="0 0 200 200" fill="none" xmlns="http://www.w3.org/2000/svg">
<rect width="200" height="200" fill="white"/>
<circle cx="100" cy="100" r="98" stroke="#CADFDA" stroke-width="4"/>
<path d="M77.1426 82.2969H79.9453C80.5833 82.2904 81.1855 82.1927 81.752 82.0039C82.3249 81.8151 82.8262 81.5417 83.2559 81.1836C83.6855 80.8255 84.0241 80.3861 84.2715 79.8652C84.5254 79.3379 84.6523 78.7324 84.6523 78.0488C84.6523 77.3652 84.5254 76.7598 84.2715 76.2324C84.0241 75.7051 83.6855 75.2624 83.2559 74.9043C82.8262 74.5462 82.3249 74.2728 81.752 74.084C81.1855 73.8952 80.5833 73.7943 79.9453 73.7812H75.3359V88H77.1426V82.2969ZM77.1426 80.8125V75.2656H79.9453C80.362 75.2721 80.7461 75.3405 81.0977 75.4707C81.4557 75.6009 81.765 75.7865 82.0254 76.0273C82.2793 76.2682 82.4779 76.5612 82.6211 76.9062C82.7708 77.2513 82.8457 77.6387 82.8457 78.0684C82.8457 78.498 82.7708 78.8822 82.6211 79.2207C82.4779 79.5527 82.276 79.8359 82.0156 80.0703C81.7552 80.3047 81.4492 80.487 81.0977 80.6172C80.7461 80.7409 80.362 80.806 79.9453 80.8125H77.1426ZM86.6738 82.6191V82.834C86.6738 83.5957 86.7845 84.3021 87.0059 84.9531C87.2272 85.6042 87.5462 86.1706 87.9629 86.6523C88.373 87.1341 88.8743 87.5117 89.4668 87.7852C90.0658 88.0586 90.7396 88.1953 91.4883 88.1953C92.2305 88.1953 92.8978 88.0586 93.4902 87.7852C94.0827 87.5117 94.5872 87.1341 95.0039 86.6523C95.4141 86.1706 95.7298 85.6042 95.9512 84.9531C96.1725 84.3021 96.2832 83.5957 96.2832 82.834V82.6191C96.2832 81.8574 96.1725 81.151 95.9512 80.5C95.7298 79.8424 95.4141 79.2728 95.0039 78.791C94.5872 78.3092 94.0794 77.9316 93.4805 77.6582C92.888 77.3783 92.2174 77.2383 91.4688 77.2383C90.7266 77.2383 90.0592 77.3783 89.4668 77.6582C88.8743 77.9316 88.373 78.3092 87.9629 78.791C87.5462 79.2728 87.2272 79.8424 87.0059 80.5C86.7845 81.151 86.6738 81.8574 86.6738 82.6191ZM88.4805 82.834V82.6191C88.4805 82.1048 88.5423 81.6133 88.666 81.1445C88.7897 80.6693 88.9785 80.2526 89.2324 79.8945C89.4798 79.5365 89.7891 79.2533 90.1602 79.0449C90.5312 78.8301 90.9674 78.7227 91.4688 78.7227C91.9701 78.7227 92.4062 78.8301 92.7773 79.0449C93.1549 79.2533 93.4707 79.5365 93.7246 79.8945C93.972 80.2526 94.1576 80.6693 94.2812 81.1445C94.4115 81.6133 94.4766 82.1048 94.4766 82.6191V82.834C94.4766 83.3548 94.4147 83.8529 94.291 84.3281C94.1673 84.7969 93.9818 85.2103 93.7344 85.5684C93.4805 85.9264 93.1647 86.2096 92.7871 86.418C92.416 86.6263 91.9831 86.7305 91.4883 86.7305C90.987 86.7305 90.5475 86.6263 90.1699 86.418C89.7923 86.2096 89.4798 85.9264 89.2324 85.5684C88.9785 85.2103 88.7897 84.7969 88.666 84.3281C88.5423 83.8529 88.4805 83.3548 88.4805 82.834ZM98.6855 82.6191V82.834C98.6855 83.5957 98.7962 84.3021 99.0176 84.9531C99.2389 85.6042 99.5579 86.1706 99.9746 86.6523C100.385 87.1341 100.886 87.5117 101.479 87.7852C102.077 88.0586 102.751 88.1953 103.5 88.1953C104.242 88.1953 104.91 88.0586 105.502 87.7852C106.094 87.5117 106.599 87.1341 107.016 86.6523C107.426 86.1706 107.742 85.6042 107.963 84.9531C108.184 84.3021 108.295 83.5957 108.295 82.834V82.6191C108.295 81.8574 108.184 81.151 107.963 80.5C107.742 79.8424 107.426 79.2728 107.016 78.791C106.599 78.3092 106.091 77.9316 105.492 77.6582C104.9 77.3783 104.229 77.2383 103.48 77.2383C102.738 77.2383 102.071 77.3783 101.479 77.6582C100.886 77.9316 100.385 78.3092 99.9746 78.791C99.5579 79.2728 99.2389 79.8424 99.0176 80.5C98.7962 81.151 98.6855 81.8574 98.6855 82.6191ZM100.492 82.834V82.6191C100.492 82.1048 100.554 81.6133 100.678 81.1445C100.801 80.6693 100.99 80.2526 101.244 79.8945C101.492 79.5365 101.801 79.2533 102.172 79.0449C102.543 78.8301 102.979 78.7227 103.48 78.7227C103.982 78.7227 104.418 78.8301 104.789 79.0449C105.167 79.2533 105.482 79.5365 105.736 79.8945C105.984 80.2526 106.169 80.6693 106.293 81.1445C106.423 81.6133 106.488 82.1048 106.488 82.6191V82.834C106.488 83.3548 106.426 83.8529 106.303 84.3281C106.179 84.7969 105.993 85.2103 105.746 85.5684C105.492 85.9264 105.176 86.2096 104.799 86.418C104.428 86.6263 103.995 86.7305 103.5 86.7305C102.999 86.7305 102.559 86.6263 102.182 86.418C101.804 86.2096 101.492 85.9264 101.244 85.5684C100.99 85.2103 100.801 84.7969 100.678 84.3281C100.554 83.8529 100.492 83.3548 100.492 82.834ZM118.129 77.2383C117.361 77.2383 116.674 77.4076 116.068 77.7461C115.469 78.0781 114.955 78.5339 114.525 79.1133L114.516 78.8496L114.438 77.4336H112.719V88H114.535V81.2227C114.652 80.8971 114.799 80.6042 114.975 80.3438C115.157 80.0768 115.368 79.8522 115.609 79.6699C115.876 79.4616 116.189 79.3053 116.547 79.2012C116.905 79.0905 117.305 79.0352 117.748 79.0352C118.093 79.0352 118.422 79.0547 118.734 79.0938C119.053 79.1263 119.389 79.1816 119.74 79.2598L119.984 77.4922C119.802 77.4141 119.529 77.3522 119.164 77.3066C118.806 77.2611 118.461 77.2383 118.129 77.2383ZM42.377 107.711V106.09C42.3704 105.582 42.3249 105.068 42.2402 104.547C42.1621 104.026 42.0384 103.525 41.8691 103.043C41.6934 102.561 41.472 102.112 41.2051 101.695C40.9447 101.272 40.6322 100.904 40.2676 100.592C39.903 100.279 39.4831 100.035 39.0078 99.8594C38.5326 99.6771 38.002 99.5859 37.416 99.5859C36.8301 99.5859 36.2995 99.6771 35.8242 99.8594C35.3555 100.035 34.9388 100.279 34.5742 100.592C34.2096 100.911 33.8939 101.282 33.627 101.705C33.3665 102.122 33.1517 102.571 32.9824 103.053C32.8066 103.535 32.6764 104.036 32.5918 104.557C32.5137 105.071 32.4714 105.582 32.4648 106.09V107.711C32.4714 108.219 32.5169 108.73 32.6016 109.244C32.6862 109.758 32.8164 110.257 32.9922 110.738C33.1615 111.22 33.3796 111.673 33.6465 112.096C33.9134 112.512 34.2292 112.877 34.5938 113.189C34.9583 113.502 35.375 113.749 35.8438 113.932C36.319 114.107 36.8496 114.195 37.4355 114.195C38.0215 114.195 38.5488 114.107 39.0176 113.932C39.4928 113.749 39.9128 113.502 40.2773 113.189C40.6419 112.877 40.9544 112.512 41.2148 112.096C41.4818 111.679 41.6999 111.23 41.8691 110.748C42.0384 110.266 42.1621 109.768 42.2402 109.254C42.3249 108.733 42.3704 108.219 42.377 107.711ZM40.5898 106.07V107.711C40.5833 108.049 40.5605 108.404 40.5215 108.775C40.4889 109.146 40.4271 109.511 40.3359 109.869C40.2383 110.234 40.1113 110.582 39.9551 110.914C39.8053 111.24 39.6165 111.526 39.3887 111.773C39.1543 112.027 38.8743 112.229 38.5488 112.379C38.2298 112.529 37.8587 112.604 37.4355 112.604C37.0124 112.604 36.6413 112.529 36.3223 112.379C36.0033 112.229 35.7266 112.027 35.4922 111.773C35.2578 111.526 35.0625 111.236 34.9062 110.904C34.75 110.572 34.623 110.224 34.5254 109.859C34.4277 109.501 34.3561 109.137 34.3105 108.766C34.2715 108.395 34.2487 108.043 34.2422 107.711V106.07C34.2487 105.738 34.2715 105.39 34.3105 105.025C34.3561 104.654 34.4277 104.286 34.5254 103.922C34.6165 103.564 34.7402 103.222 34.8965 102.896C35.0527 102.564 35.248 102.271 35.4824 102.018C35.7168 101.77 35.9935 101.572 36.3125 101.422C36.6315 101.272 36.9993 101.197 37.416 101.197C37.8392 101.197 38.2103 101.272 38.5293 101.422C38.8483 101.565 39.125 101.76 39.3594 102.008C39.5938 102.262 39.7891 102.555 39.9453 102.887C40.1016 103.212 40.2285 103.554 40.3262 103.912C40.4173 104.277 40.4824 104.645 40.5215 105.016C40.5605 105.38 40.5833 105.732 40.5898 106.07ZM52.0645 103.238C51.2962 103.238 50.6094 103.408 50.0039 103.746C49.4049 104.078 48.8906 104.534 48.4609 105.113L48.4512 104.85L48.373 103.434H46.6543V114H48.4707V107.223C48.5879 106.897 48.7344 106.604 48.9102 106.344C49.0924 106.077 49.304 105.852 49.5449 105.67C49.8118 105.462 50.1243 105.305 50.4824 105.201C50.8405 105.09 51.2409 105.035 51.6836 105.035C52.0286 105.035 52.3574 105.055 52.6699 105.094C52.9889 105.126 53.3242 105.182 53.6758 105.26L53.9199 103.492C53.7376 103.414 53.4642 103.352 53.0996 103.307C52.7415 103.261 52.3965 103.238 52.0645 103.238ZM56.8203 108.629V108.834C56.8203 109.589 56.918 110.296 57.1133 110.953C57.3086 111.604 57.5885 112.171 57.9531 112.652C58.3112 113.134 58.7507 113.512 59.2715 113.785C59.7923 114.059 60.375 114.195 61.0195 114.195C61.4036 114.195 61.7617 114.153 62.0938 114.068C62.4258 113.99 62.7285 113.876 63.002 113.727C63.1777 113.629 63.3405 113.515 63.4902 113.385C63.6465 113.255 63.793 113.111 63.9297 112.955V113.863C63.9297 114.319 63.8646 114.723 63.7344 115.074C63.6042 115.426 63.4186 115.719 63.1777 115.953C62.9303 116.194 62.6341 116.376 62.2891 116.5C61.944 116.624 61.5566 116.686 61.127 116.686C60.8861 116.686 60.6452 116.66 60.4043 116.607C60.1634 116.562 59.9225 116.484 59.6816 116.373C59.4408 116.262 59.2031 116.113 58.9688 115.924C58.7344 115.742 58.5065 115.517 58.2852 115.25L57.3477 116.334C57.5885 116.679 57.875 116.969 58.207 117.203C58.5456 117.438 58.8971 117.623 59.2617 117.76C59.6198 117.903 59.9746 118.004 60.3262 118.062C60.6777 118.128 60.9902 118.16 61.2637 118.16C61.9277 118.16 62.5332 118.062 63.0801 117.867C63.627 117.672 64.099 117.385 64.4961 117.008C64.8867 116.63 65.1895 116.171 65.4043 115.631C65.6257 115.09 65.7363 114.472 65.7363 113.775V103.434H64.0957L64.0078 104.586C63.8841 104.43 63.7507 104.286 63.6074 104.156C63.4707 104.026 63.3242 103.912 63.168 103.814C62.8815 103.626 62.5592 103.482 62.2012 103.385C61.8496 103.287 61.4622 103.238 61.0391 103.238C60.3815 103.238 59.7923 103.372 59.2715 103.639C58.7507 103.906 58.3079 104.277 57.9434 104.752C57.5788 105.227 57.2988 105.797 57.1035 106.461C56.9147 107.118 56.8203 107.841 56.8203 108.629ZM58.627 108.834V108.629C58.627 108.115 58.679 107.626 58.7832 107.164C58.8939 106.695 59.0664 106.282 59.3008 105.924C59.5286 105.572 59.8216 105.292 60.1797 105.084C60.5443 104.876 60.9805 104.771 61.4883 104.771C61.7878 104.771 62.0612 104.811 62.3086 104.889C62.556 104.96 62.7806 105.061 62.9824 105.191C63.1842 105.328 63.3633 105.488 63.5195 105.67C63.6758 105.852 63.8125 106.054 63.9297 106.275V111.119C63.8125 111.347 63.6758 111.555 63.5195 111.744C63.3633 111.933 63.1875 112.096 62.9922 112.232C62.7904 112.369 62.5625 112.477 62.3086 112.555C62.0612 112.626 61.7812 112.662 61.4688 112.662C60.9674 112.662 60.5378 112.561 60.1797 112.359C59.8216 112.151 59.5286 111.871 59.3008 111.52C59.0664 111.168 58.8939 110.761 58.7832 110.299C58.679 109.837 58.627 109.348 58.627 108.834ZM76.1074 114H77.9922V113.844C77.875 113.551 77.7839 113.209 77.7188 112.818C77.6536 112.421 77.6211 112.047 77.6211 111.695V106.783C77.6211 106.191 77.5137 105.673 77.2988 105.23C77.084 104.788 76.791 104.417 76.4199 104.117C76.0423 103.824 75.5964 103.606 75.082 103.463C74.5677 103.313 74.0111 103.238 73.4121 103.238C72.7546 103.238 72.1654 103.329 71.6445 103.512C71.1302 103.694 70.694 103.932 70.3359 104.225C69.9714 104.524 69.6914 104.859 69.4961 105.23C69.3073 105.602 69.2096 105.979 69.2031 106.363H71.0195C71.0195 106.142 71.0716 105.93 71.1758 105.729C71.2865 105.52 71.4395 105.341 71.6348 105.191C71.8301 105.042 72.0677 104.921 72.3477 104.83C72.6341 104.739 72.9564 104.693 73.3145 104.693C73.6986 104.693 74.0436 104.742 74.3496 104.84C74.6621 104.938 74.9258 105.074 75.1406 105.25C75.3555 105.432 75.5215 105.65 75.6387 105.904C75.7559 106.158 75.8145 106.445 75.8145 106.764V107.594H73.8418C73.1061 107.594 72.4388 107.665 71.8398 107.809C71.2474 107.952 70.7396 108.167 70.3164 108.453C69.8932 108.746 69.5645 109.111 69.3301 109.547C69.1022 109.983 68.9883 110.491 68.9883 111.07C68.9883 111.513 69.0729 111.926 69.2422 112.311C69.418 112.688 69.6654 113.014 69.9844 113.287C70.2969 113.567 70.6777 113.788 71.127 113.951C71.5827 114.114 72.0905 114.195 72.6504 114.195C72.9954 114.195 73.321 114.16 73.627 114.088C73.9329 114.016 74.2227 113.919 74.4961 113.795C74.763 113.671 75.0072 113.528 75.2285 113.365C75.4564 113.202 75.6615 113.03 75.8438 112.848C75.8633 113.069 75.8926 113.284 75.9316 113.492C75.9772 113.694 76.0358 113.863 76.1074 114ZM72.9141 112.623C72.5625 112.623 72.2533 112.577 71.9863 112.486C71.7194 112.395 71.498 112.268 71.3223 112.105C71.1465 111.949 71.013 111.76 70.9219 111.539C70.8372 111.318 70.7949 111.077 70.7949 110.816C70.7949 110.543 70.8438 110.299 70.9414 110.084C71.0456 109.869 71.1953 109.684 71.3906 109.527C71.6641 109.306 72.0319 109.143 72.4941 109.039C72.9629 108.928 73.5098 108.873 74.1348 108.873H75.8145V111.012C75.7103 111.22 75.5671 111.422 75.3848 111.617C75.2025 111.806 74.9876 111.975 74.7402 112.125C74.4863 112.275 74.2064 112.395 73.9004 112.486C73.5944 112.577 73.2656 112.623 72.9141 112.623ZM81.1758 114H82.9824V106.422C83.1061 106.194 83.2493 105.986 83.4121 105.797C83.5814 105.608 83.7637 105.442 83.959 105.299C84.1999 105.136 84.4635 105.009 84.75 104.918C85.0365 104.82 85.3457 104.771 85.6777 104.771C86.0618 104.771 86.4004 104.817 86.6934 104.908C86.9928 104.999 87.2467 105.146 87.4551 105.348C87.6569 105.549 87.8099 105.813 87.9141 106.139C88.0182 106.464 88.0703 106.861 88.0703 107.33V114H89.877V107.291C89.877 106.588 89.7891 105.982 89.6133 105.475C89.444 104.96 89.1999 104.537 88.8809 104.205C88.5618 103.873 88.1745 103.629 87.7188 103.473C87.2695 103.316 86.7682 103.238 86.2148 103.238C85.8047 103.245 85.4141 103.307 85.043 103.424C84.6784 103.535 84.3398 103.694 84.0273 103.902C83.819 104.039 83.6204 104.202 83.4316 104.391C83.2493 104.573 83.0801 104.775 82.9238 104.996L82.7969 103.434H81.1758V114ZM93.4707 103.434V105.006H97.0645V112.438H93.4707V114H102.318V112.438H98.8711V103.434H93.4707ZM96.8301 100.66C96.8301 100.953 96.918 101.197 97.0938 101.393C97.276 101.588 97.5495 101.686 97.9141 101.686C98.2721 101.686 98.5423 101.588 98.7246 101.393C98.9069 101.197 98.998 100.953 98.998 100.66C98.998 100.497 98.972 100.348 98.9199 100.211C98.8678 100.074 98.7897 99.9603 98.6855 99.8691C98.6009 99.7845 98.4935 99.7194 98.3633 99.6738C98.2331 99.6217 98.0833 99.5957 97.9141 99.5957C97.7448 99.5957 97.5918 99.6217 97.4551 99.6738C97.3249 99.7194 97.2174 99.7845 97.1328 99.8691C97.0286 99.9668 96.9505 100.084 96.8984 100.221C96.8529 100.357 96.8301 100.504 96.8301 100.66ZM107.367 112.525L113.744 104.713V103.434H105.15V104.928H111.371L105.062 112.672V114H114.096V112.525H107.367ZM124.154 114H126.039V113.844C125.922 113.551 125.831 113.209 125.766 112.818C125.701 112.421 125.668 112.047 125.668 111.695V106.783C125.668 106.191 125.561 105.673 125.346 105.23C125.131 104.788 124.838 104.417 124.467 104.117C124.089 103.824 123.643 103.606 123.129 103.463C122.615 103.313 122.058 103.238 121.459 103.238C120.801 103.238 120.212 103.329 119.691 103.512C119.177 103.694 118.741 103.932 118.383 104.225C118.018 104.524 117.738 104.859 117.543 105.23C117.354 105.602 117.257 105.979 117.25 106.363H119.066C119.066 106.142 119.118 105.93 119.223 105.729C119.333 105.52 119.486 105.341 119.682 105.191C119.877 105.042 120.115 104.921 120.395 104.83C120.681 104.739 121.003 104.693 121.361 104.693C121.745 104.693 122.09 104.742 122.396 104.84C122.709 104.938 122.973 105.074 123.188 105.25C123.402 105.432 123.568 105.65 123.686 105.904C123.803 106.158 123.861 106.445 123.861 106.764V107.594H121.889C121.153 107.594 120.486 107.665 119.887 107.809C119.294 107.952 118.786 108.167 118.363 108.453C117.94 108.746 117.611 109.111 117.377 109.547C117.149 109.983 117.035 110.491 117.035 111.07C117.035 111.513 117.12 111.926 117.289 112.311C117.465 112.688 117.712 113.014 118.031 113.287C118.344 113.567 118.725 113.788 119.174 113.951C119.63 114.114 120.137 114.195 120.697 114.195C121.042 114.195 121.368 114.16 121.674 114.088C121.98 114.016 122.27 113.919 122.543 113.795C122.81 113.671 123.054 113.528 123.275 113.365C123.503 113.202 123.708 113.03 123.891 112.848C123.91 113.069 123.939 113.284 123.979 113.492C124.024 113.694 124.083 113.863 124.154 114ZM120.961 112.623C120.609 112.623 120.3 112.577 120.033 112.486C119.766 112.395 119.545 112.268 119.369 112.105C119.193 111.949 119.06 111.76 118.969 111.539C118.884 111.318 118.842 111.077 118.842 110.816C118.842 110.543 118.891 110.299 118.988 110.084C119.092 109.869 119.242 109.684 119.438 109.527C119.711 109.306 120.079 109.143 120.541 109.039C121.01 108.928 121.557 108.873 122.182 108.873H123.861V111.012C123.757 111.22 123.614 111.422 123.432 111.617C123.249 111.806 123.035 111.975 122.787 112.125C122.533 112.275 122.253 112.395 121.947 112.486C121.641 112.577 121.312 112.623 120.961 112.623ZM133.5 100.875H131.684V103.434H128.91V104.83H131.684V110.572C131.684 111.223 131.768 111.78 131.938 112.242C132.113 112.698 132.351 113.069 132.65 113.355C132.95 113.648 133.301 113.863 133.705 114C134.115 114.13 134.555 114.195 135.023 114.195C135.303 114.195 135.583 114.182 135.863 114.156C136.15 114.13 136.42 114.091 136.674 114.039C136.928 113.993 137.162 113.938 137.377 113.873C137.592 113.801 137.774 113.72 137.924 113.629L137.67 112.35C137.559 112.376 137.416 112.408 137.24 112.447C137.071 112.48 136.889 112.512 136.693 112.545C136.492 112.577 136.286 112.607 136.078 112.633C135.87 112.652 135.668 112.662 135.473 112.662C135.206 112.662 134.952 112.63 134.711 112.564C134.477 112.499 134.268 112.385 134.086 112.223C133.904 112.066 133.76 111.855 133.656 111.588C133.552 111.321 133.5 110.982 133.5 110.572V104.83H137.523V103.434H133.5V100.875ZM141.518 103.434V105.006H145.111V112.438H141.518V114H150.365V112.438H146.918V103.434H141.518ZM144.877 100.66C144.877 100.953 144.965 101.197 145.141 101.393C145.323 101.588 145.596 101.686 145.961 101.686C146.319 101.686 146.589 101.588 146.771 101.393C146.954 101.197 147.045 100.953 147.045 100.66C147.045 100.497 147.019 100.348 146.967 100.211C146.915 100.074 146.837 99.9603 146.732 99.8691C146.648 99.7845 146.54 99.7194 146.41 99.6738C146.28 99.6217 146.13 99.5957 145.961 99.5957C145.792 99.5957 145.639 99.6217 145.502 99.6738C145.372 99.7194 145.264 99.7845 145.18 99.8691C145.076 99.9668 144.997 100.084 144.945 100.221C144.9 100.357 144.877 100.504 144.877 100.66ZM152.738 108.619V108.834C152.738 109.596 152.849 110.302 153.07 110.953C153.292 111.604 153.611 112.171 154.027 112.652C154.438 113.134 154.939 113.512 155.531 113.785C156.13 114.059 156.804 114.195 157.553 114.195C158.295 114.195 158.962 114.059 159.555 113.785C160.147 113.512 160.652 113.134 161.068 112.652C161.479 112.171 161.794 111.604 162.016 110.953C162.237 110.302 162.348 109.596 162.348 108.834V108.619C162.348 107.857 162.237 107.151 162.016 106.5C161.794 105.842 161.479 105.273 161.068 104.791C160.652 104.309 160.144 103.932 159.545 103.658C158.952 103.378 158.282 103.238 157.533 103.238C156.791 103.238 156.124 103.378 155.531 103.658C154.939 103.932 154.438 104.309 154.027 104.791C153.611 105.273 153.292 105.842 153.07 106.5C152.849 107.151 152.738 107.857 152.738 108.619ZM154.545 108.834V108.619C154.545 108.105 154.607 107.613 154.73 107.145C154.854 106.669 155.043 106.253 155.297 105.895C155.544 105.536 155.854 105.253 156.225 105.045C156.596 104.83 157.032 104.723 157.533 104.723C158.035 104.723 158.471 104.83 158.842 105.045C159.219 105.253 159.535 105.536 159.789 105.895C160.036 106.253 160.222 106.669 160.346 107.145C160.476 107.613 160.541 108.105 160.541 108.619V108.834C160.541 109.355 160.479 109.853 160.355 110.328C160.232 110.797 160.046 111.21 159.799 111.568C159.545 111.926 159.229 112.21 158.852 112.418C158.48 112.626 158.048 112.73 157.553 112.73C157.051 112.73 156.612 112.626 156.234 112.418C155.857 112.21 155.544 111.926 155.297 111.568C155.043 111.21 154.854 110.797 154.73 110.328C154.607 109.853 154.545 109.355 154.545 108.834ZM165.258 114H167.064V106.422C167.188 106.194 167.331 105.986 167.494 105.797C167.663 105.608 167.846 105.442 168.041 105.299C168.282 105.136 168.546 105.009 168.832 104.918C169.118 104.82 169.428 104.771 169.76 104.771C170.144 104.771 170.482 104.817 170.775 104.908C171.075 104.999 171.329 105.146 171.537 105.348C171.739 105.549 171.892 105.813 171.996 106.139C172.1 106.464 172.152 106.861 172.152 107.33V114H173.959V107.291C173.959 106.588 173.871 105.982 173.695 105.475C173.526 104.96 173.282 104.537 172.963 104.205C172.644 103.873 172.257 103.629 171.801 103.473C171.352 103.316 170.85 103.238 170.297 103.238C169.887 103.245 169.496 103.307 169.125 103.424C168.76 103.535 168.422 103.694 168.109 103.902C167.901 104.039 167.702 104.202 167.514 104.391C167.331 104.573 167.162 104.775 167.006 104.996L166.879 103.434H165.258V114Z" fill="black"/>
</svg>
