<svg width="200" height="200" viewBox="0 0 200 200" fill="none" xmlns="http://www.w3.org/2000/svg">
<rect width="200" height="200" fill="white"/>
<circle cx="100" cy="100" r="98" stroke="#F34C1B" stroke-width="4"/>
<path d="M79.1582 68.7812H76.9219V83H78.6797V77.3262L78.5332 71.5938L80.9453 79.0449H81.9805L84.6074 71.3887L84.4609 77.3262V83H86.2188V68.7812H83.9727L81.4727 75.8906L79.1582 68.7812ZM96.1309 83H98.0156V82.8438C97.8984 82.5508 97.8073 82.209 97.7422 81.8184C97.6771 81.4212 97.6445 81.0469 97.6445 80.6953V75.7832C97.6445 75.1908 97.5371 74.6732 97.3223 74.2305C97.1074 73.7878 96.8145 73.4167 96.4434 73.1172C96.0658 72.8242 95.6198 72.6061 95.1055 72.4629C94.5911 72.3132 94.0345 72.2383 93.4355 72.2383C92.778 72.2383 92.1888 72.3294 91.668 72.5117C91.1536 72.694 90.7174 72.9316 90.3594 73.2246C89.9948 73.5241 89.7148 73.8594 89.5195 74.2305C89.3307 74.6016 89.2331 74.9792 89.2266 75.3633H91.043C91.043 75.1419 91.0951 74.9303 91.1992 74.7285C91.3099 74.5202 91.4629 74.3411 91.6582 74.1914C91.8535 74.0417 92.0911 73.9212 92.3711 73.8301C92.6576 73.7389 92.9798 73.6934 93.3379 73.6934C93.722 73.6934 94.0671 73.7422 94.373 73.8398C94.6855 73.9375 94.9492 74.0742 95.1641 74.25C95.3789 74.4323 95.5449 74.6504 95.6621 74.9043C95.7793 75.1582 95.8379 75.4447 95.8379 75.7637V76.5938H93.8652C93.1296 76.5938 92.4622 76.6654 91.8633 76.8086C91.2708 76.9518 90.763 77.1667 90.3398 77.4531C89.9167 77.7461 89.5879 78.1107 89.3535 78.5469C89.1257 78.9831 89.0117 79.4909 89.0117 80.0703C89.0117 80.513 89.0964 80.9264 89.2656 81.3105C89.4414 81.6882 89.6888 82.0137 90.0078 82.2871C90.3203 82.5671 90.7012 82.7884 91.1504 82.9512C91.6061 83.1139 92.1139 83.1953 92.6738 83.1953C93.0189 83.1953 93.3444 83.1595 93.6504 83.0879C93.9564 83.0163 94.2461 82.9186 94.5195 82.7949C94.7865 82.6712 95.0306 82.528 95.252 82.3652C95.4798 82.2025 95.6849 82.0299 95.8672 81.8477C95.8867 82.069 95.916 82.2839 95.9551 82.4922C96.0007 82.694 96.0592 82.8633 96.1309 83ZM92.9375 81.623C92.5859 81.623 92.2767 81.5775 92.0098 81.4863C91.7428 81.3952 91.5215 81.2682 91.3457 81.1055C91.1699 80.9492 91.0365 80.7604 90.9453 80.5391C90.8607 80.3177 90.8184 80.0768 90.8184 79.8164C90.8184 79.543 90.8672 79.2988 90.9648 79.084C91.069 78.8691 91.2188 78.6836 91.4141 78.5273C91.6875 78.306 92.0553 78.1432 92.5176 78.0391C92.9863 77.9284 93.5332 77.873 94.1582 77.873H95.8379V80.0117C95.7337 80.2201 95.5905 80.4219 95.4082 80.6172C95.2259 80.806 95.0111 80.9753 94.7637 81.125C94.5098 81.2747 94.2298 81.3952 93.9238 81.4863C93.6178 81.5775 93.2891 81.623 92.9375 81.623ZM101.199 83H103.006V75.4219C103.13 75.194 103.273 74.9857 103.436 74.7969C103.605 74.6081 103.787 74.4421 103.982 74.2988C104.223 74.1361 104.487 74.0091 104.773 73.918C105.06 73.8203 105.369 73.7715 105.701 73.7715C106.085 73.7715 106.424 73.8171 106.717 73.9082C107.016 73.9993 107.27 74.1458 107.479 74.3477C107.68 74.5495 107.833 74.8132 107.938 75.1387C108.042 75.4642 108.094 75.8613 108.094 76.3301V83H109.9V76.291C109.9 75.5879 109.812 74.9824 109.637 74.4746C109.467 73.9603 109.223 73.5371 108.904 73.2051C108.585 72.873 108.198 72.6289 107.742 72.4727C107.293 72.3164 106.792 72.2383 106.238 72.2383C105.828 72.2448 105.438 72.3066 105.066 72.4238C104.702 72.5345 104.363 72.694 104.051 72.9023C103.842 73.0391 103.644 73.2018 103.455 73.3906C103.273 73.5729 103.104 73.7747 102.947 73.9961L102.82 72.4336H101.199V83ZM114.061 87.2676C114.536 87.2676 114.956 87.1797 115.32 87.0039C115.685 86.8281 116.004 86.61 116.277 86.3496C116.551 86.0892 116.782 85.806 116.971 85.5C117.166 85.194 117.326 84.9043 117.449 84.6309L122.811 72.4336H120.789L118.064 79.2891L117.566 80.5293L117.098 79.25L114.197 72.4336H112.176L116.727 82.502L116.004 83.9082C115.939 84.0384 115.848 84.2044 115.73 84.4062C115.62 84.6081 115.486 84.8034 115.33 84.9922C115.167 85.181 114.982 85.3438 114.773 85.4805C114.572 85.6172 114.347 85.6855 114.1 85.6855C114.008 85.6855 113.882 85.679 113.719 85.666C113.562 85.6595 113.403 85.6497 113.24 85.6367L112.947 87.1113C113.064 87.1374 113.237 87.1699 113.465 87.209C113.693 87.248 113.891 87.2676 114.061 87.2676ZM65.1445 109H69.6953C70.3008 108.993 70.8867 108.899 71.4531 108.717C72.026 108.535 72.5306 108.271 72.9668 107.926C73.403 107.587 73.7513 107.164 74.0117 106.656C74.2721 106.148 74.3991 105.562 74.3926 104.898C74.3926 104.475 74.3275 104.081 74.1973 103.717C74.0736 103.352 73.8978 103.023 73.6699 102.73C73.4551 102.464 73.1816 102.219 72.8496 101.998C72.5176 101.777 72.1725 101.624 71.8145 101.539V101.51C72.1595 101.36 72.4525 101.201 72.6934 101.031C72.9408 100.862 73.1654 100.654 73.3672 100.406C73.5625 100.165 73.7155 99.8919 73.8262 99.5859C73.9434 99.2799 74.0052 98.9414 74.0117 98.5703C74.0182 97.9062 73.8913 97.3366 73.6309 96.8613C73.3704 96.3861 73.0221 95.9954 72.5859 95.6895C72.1497 95.3835 71.6517 95.1589 71.0918 95.0156C70.5319 94.8659 69.959 94.7878 69.373 94.7812H65.1445V109ZM66.9609 102.35H69.8418C70.2259 102.363 70.584 102.428 70.916 102.545C71.248 102.662 71.5378 102.828 71.7852 103.043C72.0326 103.264 72.2246 103.531 72.3613 103.844C72.5046 104.156 72.5729 104.514 72.5664 104.918C72.5664 105.315 72.4883 105.67 72.332 105.982C72.1823 106.295 71.9772 106.559 71.7168 106.773C71.4564 106.988 71.1569 107.158 70.8184 107.281C70.4798 107.398 70.1217 107.46 69.7441 107.467H66.9609V102.35ZM66.9609 100.846V96.3242H69.4316C69.7832 96.3307 70.125 96.3763 70.457 96.4609C70.7956 96.5456 71.0951 96.6758 71.3555 96.8516C71.6094 97.0339 71.8112 97.265 71.9609 97.5449C72.1172 97.8249 72.1953 98.1634 72.1953 98.5605C72.1953 98.9316 72.1172 99.2572 71.9609 99.5371C71.8047 99.8171 71.5996 100.051 71.3457 100.24C71.0918 100.436 70.8021 100.585 70.4766 100.689C70.151 100.787 69.819 100.839 69.4805 100.846H66.9609ZM84.0996 98.2383C83.3314 98.2383 82.6445 98.4076 82.0391 98.7461C81.4401 99.0781 80.9258 99.5339 80.4961 100.113L80.4863 99.8496L80.4082 98.4336H78.6895V109H80.5059V102.223C80.623 101.897 80.7695 101.604 80.9453 101.344C81.1276 101.077 81.3392 100.852 81.5801 100.67C81.847 100.462 82.1595 100.305 82.5176 100.201C82.8757 100.09 83.276 100.035 83.7188 100.035C84.0638 100.035 84.3926 100.055 84.7051 100.094C85.0241 100.126 85.3594 100.182 85.7109 100.26L85.9551 98.4922C85.7728 98.4141 85.4993 98.3522 85.1348 98.3066C84.7767 98.2611 84.4316 98.2383 84.0996 98.2383ZM88.6797 103.619V103.834C88.6797 104.596 88.7904 105.302 89.0117 105.953C89.2331 106.604 89.5521 107.171 89.9688 107.652C90.3789 108.134 90.8802 108.512 91.4727 108.785C92.0716 109.059 92.7454 109.195 93.4941 109.195C94.2363 109.195 94.9036 109.059 95.4961 108.785C96.0885 108.512 96.5931 108.134 97.0098 107.652C97.4199 107.171 97.7357 106.604 97.957 105.953C98.1784 105.302 98.2891 104.596 98.2891 103.834V103.619C98.2891 102.857 98.1784 102.151 97.957 101.5C97.7357 100.842 97.4199 100.273 97.0098 99.791C96.5931 99.3092 96.0853 98.9316 95.4863 98.6582C94.8939 98.3783 94.2233 98.2383 93.4746 98.2383C92.7324 98.2383 92.0651 98.3783 91.4727 98.6582C90.8802 98.9316 90.3789 99.3092 89.9688 99.791C89.5521 100.273 89.2331 100.842 89.0117 101.5C88.7904 102.151 88.6797 102.857 88.6797 103.619ZM90.4863 103.834V103.619C90.4863 103.105 90.5482 102.613 90.6719 102.145C90.7956 101.669 90.9844 101.253 91.2383 100.895C91.4857 100.536 91.7949 100.253 92.166 100.045C92.5371 99.8301 92.9733 99.7227 93.4746 99.7227C93.9759 99.7227 94.4121 99.8301 94.7832 100.045C95.1608 100.253 95.4766 100.536 95.7305 100.895C95.9779 101.253 96.1634 101.669 96.2871 102.145C96.4173 102.613 96.4824 103.105 96.4824 103.619V103.834C96.4824 104.355 96.4206 104.853 96.2969 105.328C96.1732 105.797 95.9876 106.21 95.7402 106.568C95.4863 106.926 95.1706 107.21 94.793 107.418C94.4219 107.626 93.9889 107.73 93.4941 107.73C92.9928 107.73 92.5534 107.626 92.1758 107.418C91.7982 107.21 91.4857 106.926 91.2383 106.568C90.9844 106.21 90.7956 105.797 90.6719 105.328C90.5482 104.853 90.4863 104.355 90.4863 103.834ZM104.363 104.068L108.24 109H110.535L105.604 102.838L109.881 98.4336H107.684L104.217 101.91L103.035 103.18V94H101.219V109H103.035V105.348L104.363 104.068ZM117.879 109.195C118.908 109.195 119.77 108.99 120.467 108.58C121.17 108.163 121.697 107.688 122.049 107.154L120.945 106.295C120.613 106.725 120.197 107.07 119.695 107.33C119.194 107.59 118.621 107.721 117.977 107.721C117.488 107.721 117.042 107.63 116.639 107.447C116.235 107.265 115.89 107.014 115.604 106.695C115.324 106.396 115.102 106.051 114.939 105.66C114.783 105.27 114.682 104.817 114.637 104.303V104.234H122.186V103.424C122.186 102.688 122.091 102.005 121.902 101.373C121.72 100.742 121.44 100.191 121.062 99.7227C120.685 99.2604 120.21 98.8991 119.637 98.6387C119.07 98.3717 118.406 98.2383 117.645 98.2383C117.039 98.2383 116.447 98.362 115.867 98.6094C115.294 98.8568 114.783 99.2116 114.334 99.6738C113.878 100.143 113.514 100.715 113.24 101.393C112.967 102.063 112.83 102.825 112.83 103.678V104.088C112.83 104.824 112.954 105.504 113.201 106.129C113.449 106.754 113.794 107.294 114.236 107.75C114.679 108.206 115.21 108.561 115.828 108.814C116.453 109.068 117.137 109.195 117.879 109.195ZM117.645 99.7227C118.107 99.7227 118.504 99.8073 118.836 99.9766C119.174 100.146 119.454 100.367 119.676 100.641C119.897 100.914 120.07 101.24 120.193 101.617C120.317 101.988 120.379 102.337 120.379 102.662V102.75H114.695C114.767 102.262 114.891 101.832 115.066 101.461C115.249 101.083 115.47 100.764 115.73 100.504C115.991 100.25 116.284 100.058 116.609 99.9277C116.935 99.791 117.28 99.7227 117.645 99.7227ZM125.223 109H127.029V101.422C127.153 101.194 127.296 100.986 127.459 100.797C127.628 100.608 127.811 100.442 128.006 100.299C128.247 100.136 128.51 100.009 128.797 99.918C129.083 99.8203 129.393 99.7715 129.725 99.7715C130.109 99.7715 130.447 99.8171 130.74 99.9082C131.04 99.9993 131.294 100.146 131.502 100.348C131.704 100.549 131.857 100.813 131.961 101.139C132.065 101.464 132.117 101.861 132.117 102.33V109H133.924V102.291C133.924 101.588 133.836 100.982 133.66 100.475C133.491 99.9603 133.247 99.5371 132.928 99.2051C132.609 98.873 132.221 98.6289 131.766 98.4727C131.316 98.3164 130.815 98.2383 130.262 98.2383C129.852 98.2448 129.461 98.3066 129.09 98.4238C128.725 98.5345 128.387 98.694 128.074 98.9023C127.866 99.0391 127.667 99.2018 127.479 99.3906C127.296 99.5729 127.127 99.7747 126.971 99.9961L126.844 98.4336H125.223V109ZM73.2109 133.467V120.781H71.4043V135H80.1641V133.467H73.2109ZM83.4648 124.434V126.006H87.0586V133.438H83.4648V135H92.3125V133.438H88.8652V124.434H83.4648ZM86.8242 121.66C86.8242 121.953 86.9121 122.197 87.0879 122.393C87.2702 122.588 87.5436 122.686 87.9082 122.686C88.2663 122.686 88.5365 122.588 88.7188 122.393C88.901 122.197 88.9922 121.953 88.9922 121.66C88.9922 121.497 88.9661 121.348 88.9141 121.211C88.862 121.074 88.7839 120.96 88.6797 120.869C88.5951 120.785 88.4876 120.719 88.3574 120.674C88.2272 120.622 88.0775 120.596 87.9082 120.596C87.7389 120.596 87.5859 120.622 87.4492 120.674C87.319 120.719 87.2116 120.785 87.127 120.869C87.0228 120.967 86.9447 121.084 86.8926 121.221C86.847 121.357 86.8242 121.504 86.8242 121.66ZM95.1934 135H97V127.422C97.1237 127.194 97.2669 126.986 97.4297 126.797C97.599 126.608 97.7812 126.442 97.9766 126.299C98.2174 126.136 98.4811 126.009 98.7676 125.918C99.054 125.82 99.3633 125.771 99.6953 125.771C100.079 125.771 100.418 125.817 100.711 125.908C101.01 125.999 101.264 126.146 101.473 126.348C101.674 126.549 101.827 126.813 101.932 127.139C102.036 127.464 102.088 127.861 102.088 128.33V135H103.895V128.291C103.895 127.588 103.807 126.982 103.631 126.475C103.462 125.96 103.217 125.537 102.898 125.205C102.579 124.873 102.192 124.629 101.736 124.473C101.287 124.316 100.786 124.238 100.232 124.238C99.8223 124.245 99.4316 124.307 99.0605 124.424C98.696 124.535 98.3574 124.694 98.0449 124.902C97.8366 125.039 97.638 125.202 97.4492 125.391C97.2669 125.573 97.0977 125.775 96.9414 125.996L96.8145 124.434H95.1934V135ZM110.369 130.068L114.246 135H116.541L111.609 128.838L115.887 124.434H113.689L110.223 127.91L109.041 129.18V120H107.225V135H109.041V131.348L110.369 130.068ZM126.238 132.197C126.238 132.367 126.206 132.526 126.141 132.676C126.076 132.826 125.981 132.962 125.857 133.086C125.656 133.288 125.376 133.447 125.018 133.564C124.66 133.675 124.24 133.73 123.758 133.73C123.452 133.73 123.143 133.698 122.83 133.633C122.518 133.568 122.234 133.457 121.98 133.301C121.72 133.145 121.502 132.939 121.326 132.686C121.157 132.432 121.059 132.119 121.033 131.748H119.227C119.227 132.197 119.327 132.63 119.529 133.047C119.738 133.464 120.037 133.828 120.428 134.141C120.812 134.46 121.284 134.717 121.844 134.912C122.404 135.101 123.042 135.195 123.758 135.195C124.383 135.195 124.959 135.12 125.486 134.971C126.014 134.821 126.466 134.609 126.844 134.336C127.221 134.062 127.514 133.734 127.723 133.35C127.938 132.965 128.045 132.539 128.045 132.07C128.045 131.634 127.951 131.25 127.762 130.918C127.579 130.586 127.312 130.293 126.961 130.039C126.609 129.792 126.176 129.58 125.662 129.404C125.148 129.222 124.565 129.062 123.914 128.926C123.419 128.828 123.009 128.727 122.684 128.623C122.365 128.519 122.111 128.402 121.922 128.271C121.727 128.141 121.59 127.995 121.512 127.832C121.434 127.669 121.395 127.484 121.395 127.275C121.395 127.074 121.443 126.878 121.541 126.689C121.639 126.501 121.785 126.335 121.98 126.191C122.169 126.048 122.407 125.934 122.693 125.85C122.986 125.765 123.325 125.723 123.709 125.723C124.08 125.723 124.412 125.775 124.705 125.879C125.005 125.983 125.258 126.12 125.467 126.289C125.675 126.458 125.838 126.654 125.955 126.875C126.072 127.09 126.131 127.311 126.131 127.539H127.938C127.938 127.077 127.837 126.647 127.635 126.25C127.439 125.846 127.16 125.495 126.795 125.195C126.43 124.896 125.988 124.661 125.467 124.492C124.946 124.323 124.36 124.238 123.709 124.238C123.104 124.238 122.547 124.32 122.039 124.482C121.538 124.645 121.105 124.867 120.74 125.146C120.376 125.426 120.092 125.755 119.891 126.133C119.689 126.504 119.588 126.904 119.588 127.334C119.588 127.77 119.686 128.154 119.881 128.486C120.076 128.812 120.353 129.095 120.711 129.336C121.062 129.583 121.486 129.795 121.98 129.971C122.482 130.146 123.035 130.296 123.641 130.42C124.135 130.518 124.549 130.628 124.881 130.752C125.213 130.869 125.48 130.999 125.682 131.143C125.883 131.286 126.027 131.445 126.111 131.621C126.196 131.79 126.238 131.982 126.238 132.197Z" fill="black"/>
</svg>
