<svg width="200" height="200" viewBox="0 0 200 200" fill="none" xmlns="http://www.w3.org/2000/svg">
<rect width="200" height="200" fill="white"/>
<circle cx="100" cy="100" r="98" stroke="#E7DC9F" stroke-width="4"/>
<path d="M45.1133 77.2969H47.916C48.554 77.2904 49.1562 77.1927 49.7227 77.0039C50.2956 76.8151 50.7969 76.5417 51.2266 76.1836C51.6562 75.8255 51.9948 75.3861 52.2422 74.8652C52.4961 74.3379 52.623 73.7324 52.623 73.0488C52.623 72.3652 52.4961 71.7598 52.2422 71.2324C51.9948 70.7051 51.6562 70.2624 51.2266 69.9043C50.7969 69.5462 50.2956 69.2728 49.7227 69.084C49.1562 68.8952 48.554 68.7943 47.916 68.7812H43.3066V83H45.1133V77.2969ZM45.1133 75.8125V70.2656H47.916C48.3327 70.2721 48.7168 70.3405 49.0684 70.4707C49.4264 70.6009 49.7357 70.7865 49.9961 71.0273C50.25 71.2682 50.4486 71.5612 50.5918 71.9062C50.7415 72.2513 50.8164 72.6387 50.8164 73.0684C50.8164 73.498 50.7415 73.8822 50.5918 74.2207C50.4486 74.5527 50.2467 74.8359 49.9863 75.0703C49.7259 75.3047 49.4199 75.487 49.0684 75.6172C48.7168 75.7409 48.3327 75.806 47.916 75.8125H45.1133ZM62.1152 83H63.7559V72.4336H61.9395V80.0117C61.8418 80.2396 61.7181 80.4512 61.5684 80.6465C61.4251 80.8353 61.2559 80.998 61.0605 81.1348C60.8262 81.304 60.5495 81.4375 60.2305 81.5352C59.9115 81.6263 59.5501 81.6719 59.1465 81.6719C58.8014 81.6719 58.4954 81.6263 58.2285 81.5352C57.9681 81.444 57.7467 81.2845 57.5645 81.0566C57.3822 80.8353 57.2454 80.5358 57.1543 80.1582C57.0632 79.7806 57.0176 79.3053 57.0176 78.7324V72.4336H55.2109V78.7129C55.2109 79.5007 55.2956 80.1777 55.4648 80.7441C55.6406 81.304 55.888 81.7663 56.207 82.1309C56.526 82.4954 56.9102 82.7656 57.3594 82.9414C57.8086 83.1107 58.3099 83.1953 58.8633 83.1953C59.5534 83.1953 60.1621 83.0521 60.6895 82.7656C61.2168 82.4727 61.6562 82.0658 62.0078 81.5449L62.1152 83ZM74.0879 72.2383C73.3197 72.2383 72.6328 72.4076 72.0273 72.7461C71.4284 73.0781 70.9141 73.5339 70.4844 74.1133L70.4746 73.8496L70.3965 72.4336H68.6777V83H70.4941V76.2227C70.6113 75.8971 70.7578 75.6042 70.9336 75.3438C71.1159 75.0768 71.3275 74.8522 71.5684 74.6699C71.8353 74.4616 72.1478 74.3053 72.5059 74.2012C72.8639 74.0905 73.2643 74.0352 73.707 74.0352C74.0521 74.0352 74.3809 74.0547 74.6934 74.0938C75.0124 74.1263 75.3477 74.1816 75.6992 74.2598L75.9434 72.4922C75.7611 72.4141 75.4876 72.3522 75.123 72.3066C74.765 72.2611 74.4199 72.2383 74.0879 72.2383ZM79.166 87.0625H80.9727V81.9844C81.1029 82.1276 81.2428 82.2611 81.3926 82.3848C81.5423 82.502 81.7018 82.6094 81.8711 82.707C82.151 82.8633 82.4635 82.9837 82.8086 83.0684C83.1602 83.153 83.5378 83.1953 83.9414 83.1953C84.6055 83.1953 85.1947 83.0586 85.709 82.7852C86.2298 82.5117 86.666 82.1341 87.0176 81.6523C87.3691 81.1706 87.6361 80.6042 87.8184 79.9531C88.0007 79.2956 88.0918 78.5892 88.0918 77.834V77.6289C88.0918 76.8411 88.0007 76.1185 87.8184 75.4609C87.6361 74.7969 87.3691 74.2272 87.0176 73.752C86.666 73.2767 86.2298 72.9056 85.709 72.6387C85.1882 72.3717 84.5892 72.2383 83.9121 72.2383C83.528 72.2383 83.1667 72.2806 82.8281 72.3652C82.4961 72.4434 82.1934 72.5605 81.9199 72.7168C81.7246 72.821 81.5423 72.9479 81.373 73.0977C81.2038 73.2409 81.0475 73.4036 80.9043 73.5859L80.8164 72.4336H79.166V87.0625ZM86.2852 77.6289V77.834C86.2852 78.3483 86.2266 78.8398 86.1094 79.3086C85.9987 79.7773 85.8262 80.1908 85.5918 80.5488C85.3574 80.9069 85.0579 81.1934 84.6934 81.4082C84.3288 81.6165 83.8958 81.7207 83.3945 81.7207C83.082 81.7207 82.7956 81.6816 82.5352 81.6035C82.2812 81.5254 82.0501 81.418 81.8418 81.2812C81.6595 81.1641 81.4967 81.0208 81.3535 80.8516C81.2103 80.6823 81.0833 80.5 80.9727 80.3047V75.2168C81.0964 74.9954 81.2396 74.7936 81.4023 74.6113C81.5651 74.429 81.7507 74.276 81.959 74.1523C82.1478 74.0286 82.3594 73.9342 82.5938 73.8691C82.8346 73.804 83.0951 73.7715 83.375 73.7715C83.8828 73.7715 84.319 73.8757 84.6836 74.084C85.0482 74.2923 85.3509 74.5723 85.5918 74.9238C85.8262 75.2819 85.9987 75.6953 86.1094 76.1641C86.2266 76.6263 86.2852 77.1146 86.2852 77.6289ZM90.6797 77.6191V77.834C90.6797 78.5957 90.7904 79.3021 91.0117 79.9531C91.2331 80.6042 91.5521 81.1706 91.9688 81.6523C92.3789 82.1341 92.8802 82.5117 93.4727 82.7852C94.0716 83.0586 94.7454 83.1953 95.4941 83.1953C96.2363 83.1953 96.9036 83.0586 97.4961 82.7852C98.0885 82.5117 98.5931 82.1341 99.0098 81.6523C99.4199 81.1706 99.7357 80.6042 99.957 79.9531C100.178 79.3021 100.289 78.5957 100.289 77.834V77.6191C100.289 76.8574 100.178 76.151 99.957 75.5C99.7357 74.8424 99.4199 74.2728 99.0098 73.791C98.5931 73.3092 98.0853 72.9316 97.4863 72.6582C96.8939 72.3783 96.2233 72.2383 95.4746 72.2383C94.7324 72.2383 94.0651 72.3783 93.4727 72.6582C92.8802 72.9316 92.3789 73.3092 91.9688 73.791C91.5521 74.2728 91.2331 74.8424 91.0117 75.5C90.7904 76.151 90.6797 76.8574 90.6797 77.6191ZM92.4863 77.834V77.6191C92.4863 77.1048 92.5482 76.6133 92.6719 76.1445C92.7956 75.6693 92.9844 75.2526 93.2383 74.8945C93.4857 74.5365 93.7949 74.2533 94.166 74.0449C94.5371 73.8301 94.9733 73.7227 95.4746 73.7227C95.9759 73.7227 96.4121 73.8301 96.7832 74.0449C97.1608 74.2533 97.4766 74.5365 97.7305 74.8945C97.9779 75.2526 98.1634 75.6693 98.2871 76.1445C98.4173 76.6133 98.4824 77.1048 98.4824 77.6191V77.834C98.4824 78.3548 98.4206 78.8529 98.2969 79.3281C98.1732 79.7969 97.9876 80.2103 97.7402 80.5684C97.4863 80.9264 97.1706 81.2096 96.793 81.418C96.4219 81.6263 95.9889 81.7305 95.4941 81.7305C94.9928 81.7305 94.5534 81.6263 94.1758 81.418C93.7982 81.2096 93.4857 80.9264 93.2383 80.5684C92.9844 80.2103 92.7956 79.7969 92.6719 79.3281C92.5482 78.8529 92.4863 78.3548 92.4863 77.834ZM110.221 80.1973C110.221 80.3665 110.188 80.526 110.123 80.6758C110.058 80.8255 109.964 80.9622 109.84 81.0859C109.638 81.2878 109.358 81.4473 109 81.5645C108.642 81.6751 108.222 81.7305 107.74 81.7305C107.434 81.7305 107.125 81.6979 106.812 81.6328C106.5 81.5677 106.217 81.457 105.963 81.3008C105.702 81.1445 105.484 80.9395 105.309 80.6855C105.139 80.4316 105.042 80.1191 105.016 79.748H103.209C103.209 80.1973 103.31 80.6302 103.512 81.0469C103.72 81.4635 104.02 81.8281 104.41 82.1406C104.794 82.4596 105.266 82.7168 105.826 82.9121C106.386 83.1009 107.024 83.1953 107.74 83.1953C108.365 83.1953 108.941 83.1204 109.469 82.9707C109.996 82.821 110.449 82.6094 110.826 82.3359C111.204 82.0625 111.497 81.7337 111.705 81.3496C111.92 80.9655 112.027 80.5391 112.027 80.0703C112.027 79.6341 111.933 79.25 111.744 78.918C111.562 78.5859 111.295 78.293 110.943 78.0391C110.592 77.7917 110.159 77.5801 109.645 77.4043C109.13 77.222 108.548 77.0625 107.896 76.9258C107.402 76.8281 106.992 76.7272 106.666 76.623C106.347 76.5189 106.093 76.4017 105.904 76.2715C105.709 76.1413 105.572 75.9948 105.494 75.832C105.416 75.6693 105.377 75.4837 105.377 75.2754C105.377 75.0736 105.426 74.8783 105.523 74.6895C105.621 74.5007 105.768 74.3346 105.963 74.1914C106.152 74.0482 106.389 73.9342 106.676 73.8496C106.969 73.765 107.307 73.7227 107.691 73.7227C108.062 73.7227 108.395 73.7747 108.688 73.8789C108.987 73.9831 109.241 74.1198 109.449 74.2891C109.658 74.4583 109.82 74.6536 109.938 74.875C110.055 75.0898 110.113 75.3112 110.113 75.5391H111.92C111.92 75.0768 111.819 74.6471 111.617 74.25C111.422 73.8464 111.142 73.4948 110.777 73.1953C110.413 72.8958 109.97 72.6615 109.449 72.4922C108.928 72.3229 108.342 72.2383 107.691 72.2383C107.086 72.2383 106.529 72.3197 106.021 72.4824C105.52 72.6452 105.087 72.8665 104.723 73.1465C104.358 73.4264 104.075 73.7552 103.873 74.1328C103.671 74.5039 103.57 74.9043 103.57 75.334C103.57 75.7702 103.668 76.1543 103.863 76.4863C104.059 76.8118 104.335 77.0951 104.693 77.3359C105.045 77.5833 105.468 77.7949 105.963 77.9707C106.464 78.1465 107.018 78.2962 107.623 78.4199C108.118 78.5176 108.531 78.6283 108.863 78.752C109.195 78.8691 109.462 78.9993 109.664 79.1426C109.866 79.2858 110.009 79.4453 110.094 79.6211C110.178 79.7904 110.221 79.9824 110.221 80.1973ZM119.879 83.1953C120.908 83.1953 121.77 82.9902 122.467 82.5801C123.17 82.1634 123.697 81.6882 124.049 81.1543L122.945 80.2949C122.613 80.7246 122.197 81.0697 121.695 81.3301C121.194 81.5905 120.621 81.7207 119.977 81.7207C119.488 81.7207 119.042 81.6296 118.639 81.4473C118.235 81.265 117.89 81.0143 117.604 80.6953C117.324 80.3958 117.102 80.0508 116.939 79.6602C116.783 79.2695 116.682 78.8171 116.637 78.3027V78.2344H124.186V77.4238C124.186 76.6882 124.091 76.0046 123.902 75.373C123.72 74.7415 123.44 74.1914 123.062 73.7227C122.685 73.2604 122.21 72.8991 121.637 72.6387C121.07 72.3717 120.406 72.2383 119.645 72.2383C119.039 72.2383 118.447 72.362 117.867 72.6094C117.294 72.8568 116.783 73.2116 116.334 73.6738C115.878 74.1426 115.514 74.7155 115.24 75.3926C114.967 76.0632 114.83 76.8249 114.83 77.6777V78.0879C114.83 78.8236 114.954 79.5039 115.201 80.1289C115.449 80.7539 115.794 81.2943 116.236 81.75C116.679 82.2057 117.21 82.5605 117.828 82.8145C118.453 83.0684 119.137 83.1953 119.879 83.1953ZM119.645 73.7227C120.107 73.7227 120.504 73.8073 120.836 73.9766C121.174 74.1458 121.454 74.3672 121.676 74.6406C121.897 74.9141 122.07 75.2396 122.193 75.6172C122.317 75.9883 122.379 76.3366 122.379 76.6621V76.75H116.695C116.767 76.2617 116.891 75.832 117.066 75.4609C117.249 75.0833 117.47 74.7643 117.73 74.5039C117.991 74.25 118.284 74.0579 118.609 73.9277C118.935 73.791 119.28 73.7227 119.645 73.7227ZM138.727 77.6191V77.834C138.727 78.5957 138.837 79.3021 139.059 79.9531C139.28 80.6042 139.599 81.1706 140.016 81.6523C140.426 82.1341 140.927 82.5117 141.52 82.7852C142.118 83.0586 142.792 83.1953 143.541 83.1953C144.283 83.1953 144.951 83.0586 145.543 82.7852C146.135 82.5117 146.64 82.1341 147.057 81.6523C147.467 81.1706 147.783 80.6042 148.004 79.9531C148.225 79.3021 148.336 78.5957 148.336 77.834V77.6191C148.336 76.8574 148.225 76.151 148.004 75.5C147.783 74.8424 147.467 74.2728 147.057 73.791C146.64 73.3092 146.132 72.9316 145.533 72.6582C144.941 72.3783 144.27 72.2383 143.521 72.2383C142.779 72.2383 142.112 72.3783 141.52 72.6582C140.927 72.9316 140.426 73.3092 140.016 73.791C139.599 74.2728 139.28 74.8424 139.059 75.5C138.837 76.151 138.727 76.8574 138.727 77.6191ZM140.533 77.834V77.6191C140.533 77.1048 140.595 76.6133 140.719 76.1445C140.842 75.6693 141.031 75.2526 141.285 74.8945C141.533 74.5365 141.842 74.2533 142.213 74.0449C142.584 73.8301 143.02 73.7227 143.521 73.7227C144.023 73.7227 144.459 73.8301 144.83 74.0449C145.208 74.2533 145.523 74.5365 145.777 74.8945C146.025 75.2526 146.21 75.6693 146.334 76.1445C146.464 76.6133 146.529 77.1048 146.529 77.6191V77.834C146.529 78.3548 146.467 78.8529 146.344 79.3281C146.22 79.7969 146.035 80.2103 145.787 80.5684C145.533 80.9264 145.217 81.2096 144.84 81.418C144.469 81.6263 144.036 81.7305 143.541 81.7305C143.04 81.7305 142.6 81.6263 142.223 81.418C141.845 81.2096 141.533 80.9264 141.285 80.5684C141.031 80.2103 140.842 79.7969 140.719 79.3281C140.595 78.8529 140.533 78.3548 140.533 77.834ZM153.941 83H155.758V73.8301H159.83V72.4336H155.758V71.6914C155.758 71.2487 155.813 70.8613 155.924 70.5293C156.041 70.1973 156.21 69.9271 156.432 69.7188C156.64 69.5169 156.9 69.3672 157.213 69.2695C157.532 69.1654 157.896 69.1133 158.307 69.1133C158.71 69.1133 159.088 69.1491 159.439 69.2207C159.798 69.2858 160.11 69.3639 160.377 69.4551L160.592 67.9609C160.423 67.9154 160.257 67.8763 160.094 67.8438C159.931 67.8047 159.768 67.7689 159.605 67.7363C159.358 67.6908 159.107 67.6549 158.854 67.6289C158.6 67.5964 158.342 67.5801 158.082 67.5801C157.457 67.5801 156.891 67.668 156.383 67.8438C155.875 68.0195 155.442 68.2799 155.084 68.625C154.719 68.9701 154.436 69.3997 154.234 69.9141C154.039 70.4219 153.941 71.0143 153.941 71.6914V72.4336H151.031V73.8301H153.941V83ZM42.9551 109H46.2461C46.9297 108.993 47.5645 108.912 48.1504 108.756C48.7428 108.6 49.2734 108.375 49.7422 108.082C50.1849 107.802 50.5853 107.464 50.9434 107.066C51.3014 106.669 51.5977 106.227 51.832 105.738C52.0599 105.27 52.2324 104.755 52.3496 104.195C52.4733 103.635 52.5352 103.043 52.5352 102.418V101.373C52.5286 100.722 52.4603 100.11 52.3301 99.5371C52.2064 98.9642 52.0241 98.4368 51.7832 97.9551C51.5163 97.3887 51.1582 96.8906 50.709 96.4609C50.2663 96.0247 49.7552 95.6732 49.1758 95.4062C48.7591 95.2109 48.3034 95.0612 47.8086 94.957C47.3203 94.8464 46.7995 94.7878 46.2461 94.7812H42.9551V109ZM44.791 96.2656H46.2461C46.6953 96.2721 47.1087 96.3242 47.4863 96.4219C47.8639 96.513 48.2057 96.6432 48.5117 96.8125C48.9414 97.0404 49.3027 97.3398 49.5957 97.7109C49.8952 98.0755 50.1328 98.4857 50.3086 98.9414C50.4453 99.293 50.5462 99.6738 50.6113 100.084C50.6829 100.488 50.722 100.911 50.7285 101.354V102.418C50.722 102.854 50.6862 103.274 50.6211 103.678C50.556 104.075 50.4583 104.446 50.3281 104.791C50.1784 105.214 49.9733 105.598 49.7129 105.943C49.459 106.282 49.1562 106.568 48.8047 106.803C48.4727 107.031 48.0918 107.206 47.6621 107.33C47.2389 107.454 46.7669 107.519 46.2461 107.525H44.791V96.2656ZM59.8203 109.195C60.849 109.195 61.7116 108.99 62.4082 108.58C63.1113 108.163 63.6387 107.688 63.9902 107.154L62.8867 106.295C62.5547 106.725 62.138 107.07 61.6367 107.33C61.1354 107.59 60.5625 107.721 59.918 107.721C59.4297 107.721 58.9837 107.63 58.5801 107.447C58.1764 107.265 57.8314 107.014 57.5449 106.695C57.265 106.396 57.0436 106.051 56.8809 105.66C56.7246 105.27 56.6237 104.817 56.5781 104.303V104.234H64.127V103.424C64.127 102.688 64.0326 102.005 63.8438 101.373C63.6615 100.742 63.3815 100.191 63.0039 99.7227C62.6263 99.2604 62.151 98.8991 61.5781 98.6387C61.0117 98.3717 60.3477 98.2383 59.5859 98.2383C58.9805 98.2383 58.388 98.362 57.8086 98.6094C57.2357 98.8568 56.7246 99.2116 56.2754 99.6738C55.8197 100.143 55.4551 100.715 55.1816 101.393C54.9082 102.063 54.7715 102.825 54.7715 103.678V104.088C54.7715 104.824 54.8952 105.504 55.1426 106.129C55.39 106.754 55.735 107.294 56.1777 107.75C56.6204 108.206 57.151 108.561 57.7695 108.814C58.3945 109.068 59.0781 109.195 59.8203 109.195ZM59.5859 99.7227C60.0482 99.7227 60.4453 99.8073 60.7773 99.9766C61.1159 100.146 61.3958 100.367 61.6172 100.641C61.8385 100.914 62.0111 101.24 62.1348 101.617C62.2585 101.988 62.3203 102.337 62.3203 102.662V102.75H56.6367C56.7083 102.262 56.832 101.832 57.0078 101.461C57.1901 101.083 57.4115 100.764 57.6719 100.504C57.9323 100.25 58.2253 100.058 58.5508 99.9277C58.8763 99.791 59.2214 99.7227 59.5859 99.7227ZM67.1543 113.062H68.9609V107.984C69.0911 108.128 69.2311 108.261 69.3809 108.385C69.5306 108.502 69.6901 108.609 69.8594 108.707C70.1393 108.863 70.4518 108.984 70.7969 109.068C71.1484 109.153 71.526 109.195 71.9297 109.195C72.5938 109.195 73.1829 109.059 73.6973 108.785C74.2181 108.512 74.6543 108.134 75.0059 107.652C75.3574 107.171 75.6243 106.604 75.8066 105.953C75.9889 105.296 76.0801 104.589 76.0801 103.834V103.629C76.0801 102.841 75.9889 102.118 75.8066 101.461C75.6243 100.797 75.3574 100.227 75.0059 99.752C74.6543 99.2767 74.2181 98.9056 73.6973 98.6387C73.1764 98.3717 72.5775 98.2383 71.9004 98.2383C71.5163 98.2383 71.1549 98.2806 70.8164 98.3652C70.4844 98.4434 70.1816 98.5605 69.9082 98.7168C69.7129 98.821 69.5306 98.9479 69.3613 99.0977C69.1921 99.2409 69.0358 99.4036 68.8926 99.5859L68.8047 98.4336H67.1543V113.062ZM74.2734 103.629V103.834C74.2734 104.348 74.2148 104.84 74.0977 105.309C73.987 105.777 73.8145 106.191 73.5801 106.549C73.3457 106.907 73.0462 107.193 72.6816 107.408C72.3171 107.617 71.8841 107.721 71.3828 107.721C71.0703 107.721 70.7839 107.682 70.5234 107.604C70.2695 107.525 70.0384 107.418 69.8301 107.281C69.6478 107.164 69.485 107.021 69.3418 106.852C69.1986 106.682 69.0716 106.5 68.9609 106.305V101.217C69.0846 100.995 69.2279 100.794 69.3906 100.611C69.5534 100.429 69.7389 100.276 69.9473 100.152C70.1361 100.029 70.3477 99.9342 70.582 99.8691C70.8229 99.804 71.0833 99.7715 71.3633 99.7715C71.8711 99.7715 72.3073 99.8757 72.6719 100.084C73.0365 100.292 73.3392 100.572 73.5801 100.924C73.8145 101.282 73.987 101.695 74.0977 102.164C74.2148 102.626 74.2734 103.115 74.2734 103.629ZM86.1191 109H88.0039V108.844C87.8867 108.551 87.7956 108.209 87.7305 107.818C87.6654 107.421 87.6328 107.047 87.6328 106.695V101.783C87.6328 101.191 87.5254 100.673 87.3105 100.23C87.0957 99.7878 86.8027 99.4167 86.4316 99.1172C86.054 98.8242 85.6081 98.6061 85.0938 98.4629C84.5794 98.3132 84.0228 98.2383 83.4238 98.2383C82.7663 98.2383 82.1771 98.3294 81.6562 98.5117C81.1419 98.694 80.7057 98.9316 80.3477 99.2246C79.9831 99.5241 79.7031 99.8594 79.5078 100.23C79.319 100.602 79.2214 100.979 79.2148 101.363H81.0312C81.0312 101.142 81.0833 100.93 81.1875 100.729C81.2982 100.52 81.4512 100.341 81.6465 100.191C81.8418 100.042 82.0794 99.9212 82.3594 99.8301C82.6458 99.7389 82.9681 99.6934 83.3262 99.6934C83.7103 99.6934 84.0553 99.7422 84.3613 99.8398C84.6738 99.9375 84.9375 100.074 85.1523 100.25C85.3672 100.432 85.5332 100.65 85.6504 100.904C85.7676 101.158 85.8262 101.445 85.8262 101.764V102.594H83.8535C83.1178 102.594 82.4505 102.665 81.8516 102.809C81.2591 102.952 80.7513 103.167 80.3281 103.453C79.9049 103.746 79.5762 104.111 79.3418 104.547C79.1139 104.983 79 105.491 79 106.07C79 106.513 79.0846 106.926 79.2539 107.311C79.4297 107.688 79.6771 108.014 79.9961 108.287C80.3086 108.567 80.6895 108.788 81.1387 108.951C81.5944 109.114 82.1022 109.195 82.6621 109.195C83.0072 109.195 83.3327 109.16 83.6387 109.088C83.9447 109.016 84.2344 108.919 84.5078 108.795C84.7747 108.671 85.0189 108.528 85.2402 108.365C85.4681 108.202 85.6732 108.03 85.8555 107.848C85.875 108.069 85.9043 108.284 85.9434 108.492C85.9889 108.694 86.0475 108.863 86.1191 109ZM82.9258 107.623C82.5742 107.623 82.265 107.577 81.998 107.486C81.7311 107.395 81.5098 107.268 81.334 107.105C81.1582 106.949 81.0247 106.76 80.9336 106.539C80.849 106.318 80.8066 106.077 80.8066 105.816C80.8066 105.543 80.8555 105.299 80.9531 105.084C81.0573 104.869 81.207 104.684 81.4023 104.527C81.6758 104.306 82.0436 104.143 82.5059 104.039C82.9746 103.928 83.5215 103.873 84.1465 103.873H85.8262V106.012C85.722 106.22 85.5788 106.422 85.3965 106.617C85.2142 106.806 84.9993 106.975 84.752 107.125C84.498 107.275 84.2181 107.395 83.9121 107.486C83.6061 107.577 83.2773 107.623 82.9258 107.623ZM98.1113 98.2383C97.3431 98.2383 96.6562 98.4076 96.0508 98.7461C95.4518 99.0781 94.9375 99.5339 94.5078 100.113L94.498 99.8496L94.4199 98.4336H92.7012V109H94.5176V102.223C94.6348 101.897 94.7812 101.604 94.957 101.344C95.1393 101.077 95.3509 100.852 95.5918 100.67C95.8587 100.462 96.1712 100.305 96.5293 100.201C96.8874 100.09 97.2878 100.035 97.7305 100.035C98.0755 100.035 98.4043 100.055 98.7168 100.094C99.0358 100.126 99.3711 100.182 99.7227 100.26L99.9668 98.4922C99.7845 98.4141 99.5111 98.3522 99.1465 98.3066C98.7884 98.2611 98.4434 98.2383 98.1113 98.2383ZM107.477 95.875H105.66V98.4336H102.887V99.8301H105.66V105.572C105.66 106.223 105.745 106.78 105.914 107.242C106.09 107.698 106.327 108.069 106.627 108.355C106.926 108.648 107.278 108.863 107.682 109C108.092 109.13 108.531 109.195 109 109.195C109.28 109.195 109.56 109.182 109.84 109.156C110.126 109.13 110.396 109.091 110.65 109.039C110.904 108.993 111.139 108.938 111.354 108.873C111.568 108.801 111.751 108.72 111.9 108.629L111.646 107.35C111.536 107.376 111.393 107.408 111.217 107.447C111.048 107.48 110.865 107.512 110.67 107.545C110.468 107.577 110.263 107.607 110.055 107.633C109.846 107.652 109.645 107.662 109.449 107.662C109.182 107.662 108.928 107.63 108.688 107.564C108.453 107.499 108.245 107.385 108.062 107.223C107.88 107.066 107.737 106.855 107.633 106.588C107.529 106.321 107.477 105.982 107.477 105.572V99.8301H111.5V98.4336H107.477V95.875ZM116.041 98.4336H114.42V109H116.139V100.592C116.178 100.488 116.227 100.39 116.285 100.299C116.35 100.208 116.425 100.126 116.51 100.055C116.62 99.9635 116.754 99.8952 116.91 99.8496C117.073 99.7975 117.262 99.7715 117.477 99.7715C117.672 99.7715 117.841 99.7975 117.984 99.8496C118.134 99.8952 118.258 99.9701 118.355 100.074C118.46 100.185 118.535 100.325 118.58 100.494C118.632 100.663 118.658 100.859 118.658 101.08V109H120.377V101.09C120.377 101.051 120.377 101.018 120.377 100.992C120.377 100.96 120.377 100.927 120.377 100.895C120.396 100.732 120.436 100.585 120.494 100.455C120.553 100.318 120.634 100.198 120.738 100.094C120.842 99.9961 120.973 99.918 121.129 99.8594C121.285 99.8008 121.471 99.7715 121.686 99.7715C121.887 99.7715 122.063 99.7975 122.213 99.8496C122.369 99.9017 122.499 99.9798 122.604 100.084C122.701 100.195 122.776 100.335 122.828 100.504C122.88 100.673 122.906 100.868 122.906 101.09V109H124.625V101.109C124.625 100.602 124.566 100.162 124.449 99.791C124.332 99.4134 124.163 99.1074 123.941 98.873C123.74 98.6647 123.492 98.5085 123.199 98.4043C122.906 98.2936 122.577 98.2383 122.213 98.2383C121.946 98.2448 121.699 98.2806 121.471 98.3457C121.249 98.4108 121.048 98.4987 120.865 98.6094C120.722 98.707 120.589 98.821 120.465 98.9512C120.341 99.0814 120.234 99.2214 120.143 99.3711C120.071 99.2083 119.983 99.0618 119.879 98.9316C119.781 98.8014 119.671 98.6908 119.547 98.5996C119.378 98.4824 119.179 98.3945 118.951 98.3359C118.73 98.2708 118.479 98.2383 118.199 98.2383C117.704 98.2448 117.281 98.3522 116.93 98.5605C116.585 98.7689 116.305 99.0586 116.09 99.4297L116.041 98.4336ZM131.891 109.195C132.919 109.195 133.782 108.99 134.479 108.58C135.182 108.163 135.709 107.688 136.061 107.154L134.957 106.295C134.625 106.725 134.208 107.07 133.707 107.33C133.206 107.59 132.633 107.721 131.988 107.721C131.5 107.721 131.054 107.63 130.65 107.447C130.247 107.265 129.902 107.014 129.615 106.695C129.335 106.396 129.114 106.051 128.951 105.66C128.795 105.27 128.694 104.817 128.648 104.303V104.234H136.197V103.424C136.197 102.688 136.103 102.005 135.914 101.373C135.732 100.742 135.452 100.191 135.074 99.7227C134.697 99.2604 134.221 98.8991 133.648 98.6387C133.082 98.3717 132.418 98.2383 131.656 98.2383C131.051 98.2383 130.458 98.362 129.879 98.6094C129.306 98.8568 128.795 99.2116 128.346 99.6738C127.89 100.143 127.525 100.715 127.252 101.393C126.979 102.063 126.842 102.825 126.842 103.678V104.088C126.842 104.824 126.965 105.504 127.213 106.129C127.46 106.754 127.805 107.294 128.248 107.75C128.691 108.206 129.221 108.561 129.84 108.814C130.465 109.068 131.148 109.195 131.891 109.195ZM131.656 99.7227C132.118 99.7227 132.516 99.8073 132.848 99.9766C133.186 100.146 133.466 100.367 133.688 100.641C133.909 100.914 134.081 101.24 134.205 101.617C134.329 101.988 134.391 102.337 134.391 102.662V102.75H128.707C128.779 102.262 128.902 101.832 129.078 101.461C129.26 101.083 129.482 100.764 129.742 100.504C130.003 100.25 130.296 100.058 130.621 99.9277C130.947 99.791 131.292 99.7227 131.656 99.7227ZM139.234 109H141.041V101.422C141.165 101.194 141.308 100.986 141.471 100.797C141.64 100.608 141.822 100.442 142.018 100.299C142.258 100.136 142.522 100.009 142.809 99.918C143.095 99.8203 143.404 99.7715 143.736 99.7715C144.12 99.7715 144.459 99.8171 144.752 99.9082C145.051 99.9993 145.305 100.146 145.514 100.348C145.715 100.549 145.868 100.813 145.973 101.139C146.077 101.464 146.129 101.861 146.129 102.33V109H147.936V102.291C147.936 101.588 147.848 100.982 147.672 100.475C147.503 99.9603 147.258 99.5371 146.939 99.2051C146.62 98.873 146.233 98.6289 145.777 98.4727C145.328 98.3164 144.827 98.2383 144.273 98.2383C143.863 98.2448 143.473 98.3066 143.102 98.4238C142.737 98.5345 142.398 98.694 142.086 98.9023C141.878 99.0391 141.679 99.2018 141.49 99.3906C141.308 99.5729 141.139 99.7747 140.982 99.9961L140.855 98.4336H139.234V109ZM155.523 95.875H153.707V98.4336H150.934V99.8301H153.707V105.572C153.707 106.223 153.792 106.78 153.961 107.242C154.137 107.698 154.374 108.069 154.674 108.355C154.973 108.648 155.325 108.863 155.729 109C156.139 109.13 156.578 109.195 157.047 109.195C157.327 109.195 157.607 109.182 157.887 109.156C158.173 109.13 158.443 109.091 158.697 109.039C158.951 108.993 159.186 108.938 159.4 108.873C159.615 108.801 159.798 108.72 159.947 108.629L159.693 107.35C159.583 107.376 159.439 107.408 159.264 107.447C159.094 107.48 158.912 107.512 158.717 107.545C158.515 107.577 158.31 107.607 158.102 107.633C157.893 107.652 157.691 107.662 157.496 107.662C157.229 107.662 156.975 107.63 156.734 107.564C156.5 107.499 156.292 107.385 156.109 107.223C155.927 107.066 155.784 106.855 155.68 106.588C155.576 106.321 155.523 105.982 155.523 105.572V99.8301H159.547V98.4336H155.523V95.875ZM70.084 120.781H68.3359L68.3066 130.41C68.2936 130.833 68.2253 131.24 68.1016 131.631C67.9779 132.021 67.7988 132.367 67.5645 132.666C67.3236 132.972 67.0273 133.216 66.6758 133.398C66.3242 133.574 65.9173 133.662 65.4551 133.662C64.9928 133.662 64.5827 133.571 64.2246 133.389C63.873 133.206 63.5801 132.965 63.3457 132.666C63.1048 132.367 62.9193 132.021 62.7891 131.631C62.6654 131.24 62.6003 130.833 62.5938 130.41L62.5547 120.781H60.8359L60.8164 130.41C60.8229 131.074 60.9401 131.699 61.168 132.285C61.3958 132.865 61.7116 133.369 62.1152 133.799C62.5189 134.235 63.0039 134.577 63.5703 134.824C64.1367 135.072 64.765 135.195 65.4551 135.195C66.1322 135.195 66.7539 135.072 67.3203 134.824C67.8867 134.57 68.375 134.225 68.7852 133.789C69.1953 133.359 69.5176 132.855 69.752 132.275C69.9863 131.696 70.1035 131.074 70.1035 130.41L70.084 120.781ZM73.1699 135H74.9766V127.422C75.1003 127.194 75.2435 126.986 75.4062 126.797C75.5755 126.608 75.7578 126.442 75.9531 126.299C76.194 126.136 76.4577 126.009 76.7441 125.918C77.0306 125.82 77.3398 125.771 77.6719 125.771C78.056 125.771 78.3945 125.817 78.6875 125.908C78.987 125.999 79.2409 126.146 79.4492 126.348C79.651 126.549 79.804 126.813 79.9082 127.139C80.0124 127.464 80.0645 127.861 80.0645 128.33V135H81.8711V128.291C81.8711 127.588 81.7832 126.982 81.6074 126.475C81.4382 125.96 81.194 125.537 80.875 125.205C80.556 124.873 80.1686 124.629 79.7129 124.473C79.2637 124.316 78.7624 124.238 78.209 124.238C77.7988 124.245 77.4082 124.307 77.0371 124.424C76.6725 124.535 76.334 124.694 76.0215 124.902C75.8132 125.039 75.6146 125.202 75.4258 125.391C75.2435 125.573 75.0742 125.775 74.918 125.996L74.791 124.434H73.1699V135ZM89.6836 133.73C89.1172 133.73 88.6419 133.62 88.2578 133.398C87.8802 133.171 87.5775 132.874 87.3496 132.51C87.1152 132.152 86.946 131.748 86.8418 131.299C86.7441 130.843 86.6953 130.384 86.6953 129.922V129.512C86.6953 129.056 86.7441 128.604 86.8418 128.154C86.946 127.705 87.1152 127.298 87.3496 126.934C87.584 126.576 87.89 126.286 88.2676 126.064C88.6517 125.837 89.1237 125.723 89.6836 125.723C90.0482 125.723 90.3867 125.785 90.6992 125.908C91.0182 126.032 91.2917 126.201 91.5195 126.416C91.7474 126.631 91.9264 126.882 92.0566 127.168C92.1934 127.448 92.265 127.747 92.2715 128.066H93.9805C93.9805 127.533 93.873 127.031 93.6582 126.562C93.4434 126.094 93.1471 125.687 92.7695 125.342C92.3854 125.003 91.9297 124.736 91.4023 124.541C90.8815 124.339 90.3086 124.238 89.6836 124.238C88.8828 124.238 88.1829 124.382 87.584 124.668C86.985 124.954 86.487 125.339 86.0898 125.82C85.6862 126.309 85.3835 126.872 85.1816 127.51C84.9798 128.148 84.8789 128.815 84.8789 129.512V129.922C84.8789 130.625 84.9798 131.296 85.1816 131.934C85.3835 132.565 85.6862 133.122 86.0898 133.604C86.487 134.092 86.985 134.479 87.584 134.766C88.1829 135.052 88.8828 135.195 89.6836 135.195C90.2435 135.195 90.7806 135.101 91.2949 134.912C91.8092 134.717 92.265 134.456 92.6621 134.131C93.0592 133.812 93.375 133.441 93.6094 133.018C93.8503 132.588 93.974 132.139 93.9805 131.67H92.2715C92.265 131.963 92.1868 132.236 92.0371 132.49C91.8939 132.738 91.7018 132.952 91.4609 133.135C91.2201 133.324 90.9434 133.47 90.6309 133.574C90.3249 133.678 90.0091 133.73 89.6836 133.73ZM97.4766 120V121.572H101.07V133.438H97.4766V135H106.324V133.438H102.877V120H97.4766ZM113.873 135.195C114.902 135.195 115.764 134.99 116.461 134.58C117.164 134.163 117.691 133.688 118.043 133.154L116.939 132.295C116.607 132.725 116.191 133.07 115.689 133.33C115.188 133.59 114.615 133.721 113.971 133.721C113.482 133.721 113.036 133.63 112.633 133.447C112.229 133.265 111.884 133.014 111.598 132.695C111.318 132.396 111.096 132.051 110.934 131.66C110.777 131.27 110.676 130.817 110.631 130.303V130.234H118.18V129.424C118.18 128.688 118.085 128.005 117.896 127.373C117.714 126.742 117.434 126.191 117.057 125.723C116.679 125.26 116.204 124.899 115.631 124.639C115.064 124.372 114.4 124.238 113.639 124.238C113.033 124.238 112.441 124.362 111.861 124.609C111.288 124.857 110.777 125.212 110.328 125.674C109.872 126.143 109.508 126.715 109.234 127.393C108.961 128.063 108.824 128.825 108.824 129.678V130.088C108.824 130.824 108.948 131.504 109.195 132.129C109.443 132.754 109.788 133.294 110.23 133.75C110.673 134.206 111.204 134.561 111.822 134.814C112.447 135.068 113.131 135.195 113.873 135.195ZM113.639 125.723C114.101 125.723 114.498 125.807 114.83 125.977C115.169 126.146 115.449 126.367 115.67 126.641C115.891 126.914 116.064 127.24 116.188 127.617C116.311 127.988 116.373 128.337 116.373 128.662V128.75H110.689C110.761 128.262 110.885 127.832 111.061 127.461C111.243 127.083 111.464 126.764 111.725 126.504C111.985 126.25 112.278 126.058 112.604 125.928C112.929 125.791 113.274 125.723 113.639 125.723ZM128.16 135H130.045V134.844C129.928 134.551 129.837 134.209 129.771 133.818C129.706 133.421 129.674 133.047 129.674 132.695V127.783C129.674 127.191 129.566 126.673 129.352 126.23C129.137 125.788 128.844 125.417 128.473 125.117C128.095 124.824 127.649 124.606 127.135 124.463C126.62 124.313 126.064 124.238 125.465 124.238C124.807 124.238 124.218 124.329 123.697 124.512C123.183 124.694 122.747 124.932 122.389 125.225C122.024 125.524 121.744 125.859 121.549 126.23C121.36 126.602 121.262 126.979 121.256 127.363H123.072C123.072 127.142 123.124 126.93 123.229 126.729C123.339 126.52 123.492 126.341 123.688 126.191C123.883 126.042 124.12 125.921 124.4 125.83C124.687 125.739 125.009 125.693 125.367 125.693C125.751 125.693 126.096 125.742 126.402 125.84C126.715 125.938 126.979 126.074 127.193 126.25C127.408 126.432 127.574 126.65 127.691 126.904C127.809 127.158 127.867 127.445 127.867 127.764V128.594H125.895C125.159 128.594 124.492 128.665 123.893 128.809C123.3 128.952 122.792 129.167 122.369 129.453C121.946 129.746 121.617 130.111 121.383 130.547C121.155 130.983 121.041 131.491 121.041 132.07C121.041 132.513 121.126 132.926 121.295 133.311C121.471 133.688 121.718 134.014 122.037 134.287C122.35 134.567 122.73 134.788 123.18 134.951C123.635 135.114 124.143 135.195 124.703 135.195C125.048 135.195 125.374 135.16 125.68 135.088C125.986 135.016 126.275 134.919 126.549 134.795C126.816 134.671 127.06 134.528 127.281 134.365C127.509 134.202 127.714 134.03 127.896 133.848C127.916 134.069 127.945 134.284 127.984 134.492C128.03 134.694 128.089 134.863 128.16 135ZM124.967 133.623C124.615 133.623 124.306 133.577 124.039 133.486C123.772 133.395 123.551 133.268 123.375 133.105C123.199 132.949 123.066 132.76 122.975 132.539C122.89 132.318 122.848 132.077 122.848 131.816C122.848 131.543 122.896 131.299 122.994 131.084C123.098 130.869 123.248 130.684 123.443 130.527C123.717 130.306 124.085 130.143 124.547 130.039C125.016 129.928 125.562 129.873 126.188 129.873H127.867V132.012C127.763 132.22 127.62 132.422 127.438 132.617C127.255 132.806 127.04 132.975 126.793 133.125C126.539 133.275 126.259 133.395 125.953 133.486C125.647 133.577 125.318 133.623 124.967 133.623ZM140.152 124.238C139.384 124.238 138.697 124.408 138.092 124.746C137.493 125.078 136.979 125.534 136.549 126.113L136.539 125.85L136.461 124.434H134.742V135H136.559V128.223C136.676 127.897 136.822 127.604 136.998 127.344C137.18 127.077 137.392 126.852 137.633 126.67C137.9 126.462 138.212 126.305 138.57 126.201C138.928 126.09 139.329 126.035 139.771 126.035C140.117 126.035 140.445 126.055 140.758 126.094C141.077 126.126 141.412 126.182 141.764 126.26L142.008 124.492C141.826 124.414 141.552 124.352 141.188 124.307C140.829 124.261 140.484 124.238 140.152 124.238Z" fill="black"/>
</svg>
