<svg width="200" height="200" viewBox="0 0 200 200" fill="none" xmlns="http://www.w3.org/2000/svg">
<rect width="200" height="200" fill="white"/>
<circle cx="100" cy="100" r="98" stroke="#598E1B" stroke-width="4"/>
<path d="M29.6289 85.7812V87.3535H32.959V98.4375H29.6289V100H38.2227V98.4375H34.8145V87.3535H38.2227V85.7812H29.6289ZM41.6406 100H43.4473V92.4219C43.571 92.194 43.7142 91.9857 43.877 91.7969C44.0462 91.6081 44.2285 91.4421 44.4238 91.2988C44.6647 91.1361 44.9284 91.0091 45.2148 90.918C45.5013 90.8203 45.8105 90.7715 46.1426 90.7715C46.5267 90.7715 46.8652 90.8171 47.1582 90.9082C47.4577 90.9993 47.7116 91.1458 47.9199 91.3477C48.1217 91.5495 48.2747 91.8132 48.3789 92.1387C48.4831 92.4642 48.5352 92.8613 48.5352 93.3301V100H50.3418V93.291C50.3418 92.5879 50.2539 91.9824 50.0781 91.4746C49.9089 90.9603 49.6647 90.5371 49.3457 90.2051C49.0267 89.873 48.6393 89.6289 48.1836 89.4727C47.7344 89.3164 47.2331 89.2383 46.6797 89.2383C46.2695 89.2448 45.8789 89.3066 45.5078 89.4238C45.1432 89.5345 44.8047 89.694 44.4922 89.9023C44.2839 90.0391 44.0853 90.2018 43.8965 90.3906C43.7142 90.5729 43.5449 90.7747 43.3887 90.9961L43.2617 89.4336H41.6406V100ZM58.1543 98.7305C57.5879 98.7305 57.1126 98.6198 56.7285 98.3984C56.3509 98.1706 56.0482 97.8743 55.8203 97.5098C55.5859 97.1517 55.4167 96.748 55.3125 96.2988C55.2148 95.8431 55.166 95.3841 55.166 94.9219V94.5117C55.166 94.056 55.2148 93.6035 55.3125 93.1543C55.4167 92.7051 55.5859 92.2982 55.8203 91.9336C56.0547 91.5755 56.3607 91.2858 56.7383 91.0645C57.1224 90.8366 57.5944 90.7227 58.1543 90.7227C58.5189 90.7227 58.8574 90.7845 59.1699 90.9082C59.4889 91.0319 59.7624 91.2012 59.9902 91.416C60.2181 91.6309 60.3971 91.8815 60.5273 92.168C60.6641 92.4479 60.7357 92.7474 60.7422 93.0664H62.4512C62.4512 92.5326 62.3438 92.0312 62.1289 91.5625C61.9141 91.0938 61.6178 90.6868 61.2402 90.3418C60.8561 90.0033 60.4004 89.7363 59.873 89.541C59.3522 89.3392 58.7793 89.2383 58.1543 89.2383C57.3535 89.2383 56.6536 89.3815 56.0547 89.668C55.4557 89.9544 54.9577 90.3385 54.5605 90.8203C54.1569 91.3086 53.8542 91.8717 53.6523 92.5098C53.4505 93.1478 53.3496 93.8151 53.3496 94.5117V94.9219C53.3496 95.625 53.4505 96.2956 53.6523 96.9336C53.8542 97.5651 54.1569 98.1217 54.5605 98.6035C54.9577 99.0918 55.4557 99.4792 56.0547 99.7656C56.6536 100.052 57.3535 100.195 58.1543 100.195C58.7142 100.195 59.2513 100.101 59.7656 99.9121C60.2799 99.7168 60.7357 99.4564 61.1328 99.1309C61.5299 98.8118 61.8457 98.4408 62.0801 98.0176C62.321 97.5879 62.4447 97.1387 62.4512 96.6699H60.7422C60.7357 96.9629 60.6576 97.2363 60.5078 97.4902C60.3646 97.7376 60.1725 97.9525 59.9316 98.1348C59.6908 98.3236 59.4141 98.4701 59.1016 98.5742C58.7956 98.6784 58.4798 98.7305 58.1543 98.7305ZM65.1562 94.6191V94.834C65.1562 95.5957 65.2669 96.3021 65.4883 96.9531C65.7096 97.6042 66.0286 98.1706 66.4453 98.6523C66.8555 99.1341 67.3568 99.5117 67.9492 99.7852C68.5482 100.059 69.222 100.195 69.9707 100.195C70.7129 100.195 71.3802 100.059 71.9727 99.7852C72.5651 99.5117 73.0697 99.1341 73.4863 98.6523C73.8965 98.1706 74.2122 97.6042 74.4336 96.9531C74.6549 96.3021 74.7656 95.5957 74.7656 94.834V94.6191C74.7656 93.8574 74.6549 93.151 74.4336 92.5C74.2122 91.8424 73.8965 91.2728 73.4863 90.791C73.0697 90.3092 72.5618 89.9316 71.9629 89.6582C71.3704 89.3783 70.6999 89.2383 69.9512 89.2383C69.209 89.2383 68.5417 89.3783 67.9492 89.6582C67.3568 89.9316 66.8555 90.3092 66.4453 90.791C66.0286 91.2728 65.7096 91.8424 65.4883 92.5C65.2669 93.151 65.1562 93.8574 65.1562 94.6191ZM66.9629 94.834V94.6191C66.9629 94.1048 67.0247 93.6133 67.1484 93.1445C67.2721 92.6693 67.4609 92.2526 67.7148 91.8945C67.9622 91.5365 68.2715 91.2533 68.6426 91.0449C69.0137 90.8301 69.4499 90.7227 69.9512 90.7227C70.4525 90.7227 70.8887 90.8301 71.2598 91.0449C71.6374 91.2533 71.9531 91.5365 72.207 91.8945C72.4544 92.2526 72.64 92.6693 72.7637 93.1445C72.8939 93.6133 72.959 94.1048 72.959 94.6191V94.834C72.959 95.3548 72.8971 95.8529 72.7734 96.3281C72.6497 96.7969 72.4642 97.2103 72.2168 97.5684C71.9629 97.9264 71.6471 98.2096 71.2695 98.418C70.8984 98.6263 70.4655 98.7305 69.9707 98.7305C69.4694 98.7305 69.0299 98.6263 68.6523 98.418C68.2747 98.2096 67.9622 97.9264 67.7148 97.5684C67.4609 97.2103 67.2721 96.7969 67.1484 96.3281C67.0247 95.8529 66.9629 95.3548 66.9629 94.834ZM77.6758 100H79.4824V92.4219C79.6061 92.194 79.7493 91.9857 79.9121 91.7969C80.0814 91.6081 80.2637 91.4421 80.459 91.2988C80.6999 91.1361 80.9635 91.0091 81.25 90.918C81.5365 90.8203 81.8457 90.7715 82.1777 90.7715C82.5618 90.7715 82.9004 90.8171 83.1934 90.9082C83.4928 90.9993 83.7467 91.1458 83.9551 91.3477C84.1569 91.5495 84.3099 91.8132 84.4141 92.1387C84.5182 92.4642 84.5703 92.8613 84.5703 93.3301V100H86.377V93.291C86.377 92.5879 86.2891 91.9824 86.1133 91.4746C85.944 90.9603 85.6999 90.5371 85.3809 90.2051C85.0618 89.873 84.6745 89.6289 84.2188 89.4727C83.7695 89.3164 83.2682 89.2383 82.7148 89.2383C82.3047 89.2448 81.9141 89.3066 81.543 89.4238C81.1784 89.5345 80.8398 89.694 80.5273 89.9023C80.319 90.0391 80.1204 90.2018 79.9316 90.3906C79.7493 90.5729 79.5801 90.7747 79.4238 90.9961L79.2969 89.4336H77.6758V100ZM96.709 97.1973C96.709 97.3665 96.6764 97.526 96.6113 97.6758C96.5462 97.8255 96.4518 97.9622 96.3281 98.0859C96.1263 98.2878 95.8464 98.4473 95.4883 98.5645C95.1302 98.6751 94.7103 98.7305 94.2285 98.7305C93.9225 98.7305 93.6133 98.6979 93.3008 98.6328C92.9883 98.5677 92.7051 98.457 92.4512 98.3008C92.1908 98.1445 91.9727 97.9395 91.7969 97.6855C91.6276 97.4316 91.5299 97.1191 91.5039 96.748H89.6973C89.6973 97.1973 89.7982 97.6302 90 98.0469C90.2083 98.4635 90.5078 98.8281 90.8984 99.1406C91.2826 99.4596 91.7546 99.7168 92.3145 99.9121C92.8743 100.101 93.5124 100.195 94.2285 100.195C94.8535 100.195 95.4297 100.12 95.957 99.9707C96.4844 99.821 96.9368 99.6094 97.3145 99.3359C97.6921 99.0625 97.985 98.7337 98.1934 98.3496C98.4082 97.9655 98.5156 97.5391 98.5156 97.0703C98.5156 96.6341 98.4212 96.25 98.2324 95.918C98.0501 95.5859 97.7832 95.293 97.4316 95.0391C97.0801 94.7917 96.6471 94.5801 96.1328 94.4043C95.6185 94.222 95.0358 94.0625 94.3848 93.9258C93.89 93.8281 93.4798 93.7272 93.1543 93.623C92.8353 93.5189 92.5814 93.4017 92.3926 93.2715C92.1973 93.1413 92.0605 92.9948 91.9824 92.832C91.9043 92.6693 91.8652 92.4837 91.8652 92.2754C91.8652 92.0736 91.9141 91.8783 92.0117 91.6895C92.1094 91.5007 92.2559 91.3346 92.4512 91.1914C92.64 91.0482 92.8776 90.9342 93.1641 90.8496C93.457 90.765 93.7956 90.7227 94.1797 90.7227C94.5508 90.7227 94.8828 90.7747 95.1758 90.8789C95.4753 90.9831 95.7292 91.1198 95.9375 91.2891C96.1458 91.4583 96.3086 91.6536 96.4258 91.875C96.543 92.0898 96.6016 92.3112 96.6016 92.5391H98.4082C98.4082 92.0768 98.3073 91.6471 98.1055 91.25C97.9102 90.8464 97.6302 90.4948 97.2656 90.1953C96.901 89.8958 96.4583 89.6615 95.9375 89.4922C95.4167 89.3229 94.8307 89.2383 94.1797 89.2383C93.5742 89.2383 93.0176 89.3197 92.5098 89.4824C92.0085 89.6452 91.5755 89.8665 91.2109 90.1465C90.8464 90.4264 90.5632 90.7552 90.3613 91.1328C90.1595 91.5039 90.0586 91.9043 90.0586 92.334C90.0586 92.7702 90.1562 93.1543 90.3516 93.4863C90.5469 93.8118 90.8236 94.0951 91.1816 94.3359C91.5332 94.5833 91.9564 94.7949 92.4512 94.9707C92.9525 95.1465 93.5059 95.2962 94.1113 95.4199C94.6061 95.5176 95.0195 95.6283 95.3516 95.752C95.6836 95.8691 95.9505 95.9993 96.1523 96.1426C96.3542 96.2858 96.4974 96.4453 96.582 96.6211C96.6667 96.7904 96.709 96.9824 96.709 97.1973ZM101.982 89.4336V91.0059H105.576V98.4375H101.982V100H110.83V98.4375H107.383V89.4336H101.982ZM105.342 86.6602C105.342 86.9531 105.43 87.1973 105.605 87.3926C105.788 87.5879 106.061 87.6855 106.426 87.6855C106.784 87.6855 107.054 87.5879 107.236 87.3926C107.419 87.1973 107.51 86.9531 107.51 86.6602C107.51 86.4974 107.484 86.3477 107.432 86.2109C107.38 86.0742 107.301 85.9603 107.197 85.8691C107.113 85.7845 107.005 85.7194 106.875 85.6738C106.745 85.6217 106.595 85.5957 106.426 85.5957C106.257 85.5957 106.104 85.6217 105.967 85.6738C105.837 85.7194 105.729 85.7845 105.645 85.8691C105.54 85.9668 105.462 86.084 105.41 86.2207C105.365 86.3574 105.342 86.5039 105.342 86.6602ZM120.732 97.1973C120.732 97.3665 120.7 97.526 120.635 97.6758C120.57 97.8255 120.475 97.9622 120.352 98.0859C120.15 98.2878 119.87 98.4473 119.512 98.5645C119.154 98.6751 118.734 98.7305 118.252 98.7305C117.946 98.7305 117.637 98.6979 117.324 98.6328C117.012 98.5677 116.729 98.457 116.475 98.3008C116.214 98.1445 115.996 97.9395 115.82 97.6855C115.651 97.4316 115.553 97.1191 115.527 96.748H113.721C113.721 97.1973 113.822 97.6302 114.023 98.0469C114.232 98.4635 114.531 98.8281 114.922 99.1406C115.306 99.4596 115.778 99.7168 116.338 99.9121C116.898 100.101 117.536 100.195 118.252 100.195C118.877 100.195 119.453 100.12 119.98 99.9707C120.508 99.821 120.96 99.6094 121.338 99.3359C121.715 99.0625 122.008 98.7337 122.217 98.3496C122.432 97.9655 122.539 97.5391 122.539 97.0703C122.539 96.6341 122.445 96.25 122.256 95.918C122.074 95.5859 121.807 95.293 121.455 95.0391C121.104 94.7917 120.671 94.5801 120.156 94.4043C119.642 94.222 119.059 94.0625 118.408 93.9258C117.913 93.8281 117.503 93.7272 117.178 93.623C116.859 93.5189 116.605 93.4017 116.416 93.2715C116.221 93.1413 116.084 92.9948 116.006 92.832C115.928 92.6693 115.889 92.4837 115.889 92.2754C115.889 92.0736 115.938 91.8783 116.035 91.6895C116.133 91.5007 116.279 91.3346 116.475 91.1914C116.663 91.0482 116.901 90.9342 117.188 90.8496C117.48 90.765 117.819 90.7227 118.203 90.7227C118.574 90.7227 118.906 90.7747 119.199 90.8789C119.499 90.9831 119.753 91.1198 119.961 91.2891C120.169 91.4583 120.332 91.6536 120.449 91.875C120.566 92.0898 120.625 92.3112 120.625 92.5391H122.432C122.432 92.0768 122.331 91.6471 122.129 91.25C121.934 90.8464 121.654 90.4948 121.289 90.1953C120.924 89.8958 120.482 89.6615 119.961 89.4922C119.44 89.3229 118.854 89.2383 118.203 89.2383C117.598 89.2383 117.041 89.3197 116.533 89.4824C116.032 89.6452 115.599 89.8665 115.234 90.1465C114.87 90.4264 114.587 90.7552 114.385 91.1328C114.183 91.5039 114.082 91.9043 114.082 92.334C114.082 92.7702 114.18 93.1543 114.375 93.4863C114.57 93.8118 114.847 94.0951 115.205 94.3359C115.557 94.5833 115.98 94.7949 116.475 94.9707C116.976 95.1465 117.529 95.2962 118.135 95.4199C118.63 95.5176 119.043 95.6283 119.375 95.752C119.707 95.8691 119.974 95.9993 120.176 96.1426C120.378 96.2858 120.521 96.4453 120.605 96.6211C120.69 96.7904 120.732 96.9824 120.732 97.1973ZM130 86.875H128.184V89.4336H125.41V90.8301H128.184V96.5723C128.184 97.2233 128.268 97.7799 128.438 98.2422C128.613 98.6979 128.851 99.069 129.15 99.3555C129.45 99.6484 129.801 99.8633 130.205 100C130.615 100.13 131.055 100.195 131.523 100.195C131.803 100.195 132.083 100.182 132.363 100.156C132.65 100.13 132.92 100.091 133.174 100.039C133.428 99.9935 133.662 99.9382 133.877 99.873C134.092 99.8014 134.274 99.7201 134.424 99.6289L134.17 98.3496C134.059 98.3757 133.916 98.4082 133.74 98.4473C133.571 98.4798 133.389 98.5124 133.193 98.5449C132.992 98.5775 132.786 98.6068 132.578 98.6328C132.37 98.6523 132.168 98.6621 131.973 98.6621C131.706 98.6621 131.452 98.6296 131.211 98.5645C130.977 98.4993 130.768 98.3854 130.586 98.2227C130.404 98.0664 130.26 97.8548 130.156 97.5879C130.052 97.321 130 96.9824 130 96.5723V90.8301H134.023V89.4336H130V86.875ZM142.402 100.195C143.431 100.195 144.294 99.9902 144.99 99.5801C145.693 99.1634 146.221 98.6882 146.572 98.1543L145.469 97.2949C145.137 97.7246 144.72 98.0697 144.219 98.3301C143.717 98.5905 143.145 98.7207 142.5 98.7207C142.012 98.7207 141.566 98.6296 141.162 98.4473C140.758 98.265 140.413 98.0143 140.127 97.6953C139.847 97.3958 139.626 97.0508 139.463 96.6602C139.307 96.2695 139.206 95.8171 139.16 95.3027V95.2344H146.709V94.4238C146.709 93.6882 146.615 93.0046 146.426 92.373C146.243 91.7415 145.964 91.1914 145.586 90.7227C145.208 90.2604 144.733 89.8991 144.16 89.6387C143.594 89.3717 142.93 89.2383 142.168 89.2383C141.562 89.2383 140.97 89.362 140.391 89.6094C139.818 89.8568 139.307 90.2116 138.857 90.6738C138.402 91.1426 138.037 91.7155 137.764 92.3926C137.49 93.0632 137.354 93.8249 137.354 94.6777V95.0879C137.354 95.8236 137.477 96.5039 137.725 97.1289C137.972 97.7539 138.317 98.2943 138.76 98.75C139.202 99.2057 139.733 99.5605 140.352 99.8145C140.977 100.068 141.66 100.195 142.402 100.195ZM142.168 90.7227C142.63 90.7227 143.027 90.8073 143.359 90.9766C143.698 91.1458 143.978 91.3672 144.199 91.6406C144.421 91.9141 144.593 92.2396 144.717 92.6172C144.84 92.9883 144.902 93.3366 144.902 93.6621V93.75H139.219C139.29 93.2617 139.414 92.832 139.59 92.4609C139.772 92.0833 139.993 91.7643 140.254 91.5039C140.514 91.25 140.807 91.0579 141.133 90.9277C141.458 90.791 141.803 90.7227 142.168 90.7227ZM149.746 100H151.553V92.4219C151.676 92.194 151.82 91.9857 151.982 91.7969C152.152 91.6081 152.334 91.4421 152.529 91.2988C152.77 91.1361 153.034 91.0091 153.32 90.918C153.607 90.8203 153.916 90.7715 154.248 90.7715C154.632 90.7715 154.971 90.8171 155.264 90.9082C155.563 90.9993 155.817 91.1458 156.025 91.3477C156.227 91.5495 156.38 91.8132 156.484 92.1387C156.589 92.4642 156.641 92.8613 156.641 93.3301V100H158.447V93.291C158.447 92.5879 158.359 91.9824 158.184 91.4746C158.014 90.9603 157.77 90.5371 157.451 90.2051C157.132 89.873 156.745 89.6289 156.289 89.4727C155.84 89.3164 155.339 89.2383 154.785 89.2383C154.375 89.2448 153.984 89.3066 153.613 89.4238C153.249 89.5345 152.91 89.694 152.598 89.9023C152.389 90.0391 152.191 90.2018 152.002 90.3906C151.82 90.5729 151.65 90.7747 151.494 90.9961L151.367 89.4336H149.746V100ZM166.035 86.875H164.219V89.4336H161.445V90.8301H164.219V96.5723C164.219 97.2233 164.303 97.7799 164.473 98.2422C164.648 98.6979 164.886 99.069 165.186 99.3555C165.485 99.6484 165.837 99.8633 166.24 100C166.65 100.13 167.09 100.195 167.559 100.195C167.839 100.195 168.118 100.182 168.398 100.156C168.685 100.13 168.955 100.091 169.209 100.039C169.463 99.9935 169.697 99.9382 169.912 99.873C170.127 99.8014 170.309 99.7201 170.459 99.6289L170.205 98.3496C170.094 98.3757 169.951 98.4082 169.775 98.4473C169.606 98.4798 169.424 98.5124 169.229 98.5449C169.027 98.5775 168.822 98.6068 168.613 98.6328C168.405 98.6523 168.203 98.6621 168.008 98.6621C167.741 98.6621 167.487 98.6296 167.246 98.5645C167.012 98.4993 166.803 98.3854 166.621 98.2227C166.439 98.0664 166.296 97.8548 166.191 97.5879C166.087 97.321 166.035 96.9824 166.035 96.5723V90.8301H170.059V89.4336H166.035V86.875ZM65.4785 126H68.7695C69.4531 125.993 70.0879 125.912 70.6738 125.756C71.2663 125.6 71.7969 125.375 72.2656 125.082C72.7083 124.802 73.1087 124.464 73.4668 124.066C73.8249 123.669 74.1211 123.227 74.3555 122.738C74.5833 122.27 74.7559 121.755 74.873 121.195C74.9967 120.635 75.0586 120.043 75.0586 119.418V118.373C75.0521 117.722 74.9837 117.11 74.8535 116.537C74.7298 115.964 74.5475 115.437 74.3066 114.955C74.0397 114.389 73.6816 113.891 73.2324 113.461C72.7897 113.025 72.2786 112.673 71.6992 112.406C71.2826 112.211 70.8268 112.061 70.332 111.957C69.8438 111.846 69.3229 111.788 68.7695 111.781H65.4785V126ZM67.3145 113.266H68.7695C69.2188 113.272 69.6322 113.324 70.0098 113.422C70.3874 113.513 70.7292 113.643 71.0352 113.812C71.4648 114.04 71.8262 114.34 72.1191 114.711C72.4186 115.076 72.6562 115.486 72.832 115.941C72.9688 116.293 73.0697 116.674 73.1348 117.084C73.2064 117.488 73.2454 117.911 73.252 118.354V119.418C73.2454 119.854 73.2096 120.274 73.1445 120.678C73.0794 121.075 72.9818 121.446 72.8516 121.791C72.7018 122.214 72.4967 122.598 72.2363 122.943C71.9824 123.282 71.6797 123.568 71.3281 123.803C70.9961 124.031 70.6152 124.206 70.1855 124.33C69.7624 124.454 69.2904 124.519 68.7695 124.525H67.3145V113.266ZM82.3438 126.195C83.3724 126.195 84.235 125.99 84.9316 125.58C85.6348 125.163 86.1621 124.688 86.5137 124.154L85.4102 123.295C85.0781 123.725 84.6615 124.07 84.1602 124.33C83.6589 124.59 83.0859 124.721 82.4414 124.721C81.9531 124.721 81.5072 124.63 81.1035 124.447C80.6999 124.265 80.3548 124.014 80.0684 123.695C79.7884 123.396 79.5671 123.051 79.4043 122.66C79.248 122.27 79.1471 121.817 79.1016 121.303V121.234H86.6504V120.424C86.6504 119.688 86.556 119.005 86.3672 118.373C86.1849 117.742 85.9049 117.191 85.5273 116.723C85.1497 116.26 84.6745 115.899 84.1016 115.639C83.5352 115.372 82.8711 115.238 82.1094 115.238C81.5039 115.238 80.9115 115.362 80.332 115.609C79.7591 115.857 79.248 116.212 78.7988 116.674C78.3431 117.143 77.9785 117.715 77.7051 118.393C77.4316 119.063 77.2949 119.825 77.2949 120.678V121.088C77.2949 121.824 77.4186 122.504 77.666 123.129C77.9134 123.754 78.2585 124.294 78.7012 124.75C79.1439 125.206 79.6745 125.561 80.293 125.814C80.918 126.068 81.6016 126.195 82.3438 126.195ZM82.1094 116.723C82.5716 116.723 82.9688 116.807 83.3008 116.977C83.6393 117.146 83.9193 117.367 84.1406 117.641C84.362 117.914 84.5345 118.24 84.6582 118.617C84.7819 118.988 84.8438 119.337 84.8438 119.662V119.75H79.1602C79.2318 119.262 79.3555 118.832 79.5312 118.461C79.7135 118.083 79.9349 117.764 80.1953 117.504C80.4557 117.25 80.7487 117.058 81.0742 116.928C81.3997 116.791 81.7448 116.723 82.1094 116.723ZM96.709 123.197C96.709 123.367 96.6764 123.526 96.6113 123.676C96.5462 123.826 96.4518 123.962 96.3281 124.086C96.1263 124.288 95.8464 124.447 95.4883 124.564C95.1302 124.675 94.7103 124.73 94.2285 124.73C93.9225 124.73 93.6133 124.698 93.3008 124.633C92.9883 124.568 92.7051 124.457 92.4512 124.301C92.1908 124.145 91.9727 123.939 91.7969 123.686C91.6276 123.432 91.5299 123.119 91.5039 122.748H89.6973C89.6973 123.197 89.7982 123.63 90 124.047C90.2083 124.464 90.5078 124.828 90.8984 125.141C91.2826 125.46 91.7546 125.717 92.3145 125.912C92.8743 126.101 93.5124 126.195 94.2285 126.195C94.8535 126.195 95.4297 126.12 95.957 125.971C96.4844 125.821 96.9368 125.609 97.3145 125.336C97.6921 125.062 97.985 124.734 98.1934 124.35C98.4082 123.965 98.5156 123.539 98.5156 123.07C98.5156 122.634 98.4212 122.25 98.2324 121.918C98.0501 121.586 97.7832 121.293 97.4316 121.039C97.0801 120.792 96.6471 120.58 96.1328 120.404C95.6185 120.222 95.0358 120.062 94.3848 119.926C93.89 119.828 93.4798 119.727 93.1543 119.623C92.8353 119.519 92.5814 119.402 92.3926 119.271C92.1973 119.141 92.0605 118.995 91.9824 118.832C91.9043 118.669 91.8652 118.484 91.8652 118.275C91.8652 118.074 91.9141 117.878 92.0117 117.689C92.1094 117.501 92.2559 117.335 92.4512 117.191C92.64 117.048 92.8776 116.934 93.1641 116.85C93.457 116.765 93.7956 116.723 94.1797 116.723C94.5508 116.723 94.8828 116.775 95.1758 116.879C95.4753 116.983 95.7292 117.12 95.9375 117.289C96.1458 117.458 96.3086 117.654 96.4258 117.875C96.543 118.09 96.6016 118.311 96.6016 118.539H98.4082C98.4082 118.077 98.3073 117.647 98.1055 117.25C97.9102 116.846 97.6302 116.495 97.2656 116.195C96.901 115.896 96.4583 115.661 95.9375 115.492C95.4167 115.323 94.8307 115.238 94.1797 115.238C93.5742 115.238 93.0176 115.32 92.5098 115.482C92.0085 115.645 91.5755 115.867 91.2109 116.146C90.8464 116.426 90.5632 116.755 90.3613 117.133C90.1595 117.504 90.0586 117.904 90.0586 118.334C90.0586 118.77 90.1562 119.154 90.3516 119.486C90.5469 119.812 90.8236 120.095 91.1816 120.336C91.5332 120.583 91.9564 120.795 92.4512 120.971C92.9525 121.146 93.5059 121.296 94.1113 121.42C94.6061 121.518 95.0195 121.628 95.3516 121.752C95.6836 121.869 95.9505 121.999 96.1523 122.143C96.3542 122.286 96.4974 122.445 96.582 122.621C96.6667 122.79 96.709 122.982 96.709 123.197ZM101.982 115.434V117.006H105.576V124.438H101.982V126H110.83V124.438H107.383V115.434H101.982ZM105.342 112.66C105.342 112.953 105.43 113.197 105.605 113.393C105.788 113.588 106.061 113.686 106.426 113.686C106.784 113.686 107.054 113.588 107.236 113.393C107.419 113.197 107.51 112.953 107.51 112.66C107.51 112.497 107.484 112.348 107.432 112.211C107.38 112.074 107.301 111.96 107.197 111.869C107.113 111.785 107.005 111.719 106.875 111.674C106.745 111.622 106.595 111.596 106.426 111.596C106.257 111.596 106.104 111.622 105.967 111.674C105.837 111.719 105.729 111.785 105.645 111.869C105.54 111.967 105.462 112.084 105.41 112.221C105.365 112.357 105.342 112.504 105.342 112.66ZM113.379 120.629V120.834C113.379 121.589 113.477 122.296 113.672 122.953C113.867 123.604 114.147 124.171 114.512 124.652C114.87 125.134 115.309 125.512 115.83 125.785C116.351 126.059 116.934 126.195 117.578 126.195C117.962 126.195 118.32 126.153 118.652 126.068C118.984 125.99 119.287 125.876 119.561 125.727C119.736 125.629 119.899 125.515 120.049 125.385C120.205 125.255 120.352 125.111 120.488 124.955V125.863C120.488 126.319 120.423 126.723 120.293 127.074C120.163 127.426 119.977 127.719 119.736 127.953C119.489 128.194 119.193 128.376 118.848 128.5C118.503 128.624 118.115 128.686 117.686 128.686C117.445 128.686 117.204 128.66 116.963 128.607C116.722 128.562 116.481 128.484 116.24 128.373C115.999 128.262 115.762 128.113 115.527 127.924C115.293 127.742 115.065 127.517 114.844 127.25L113.906 128.334C114.147 128.679 114.434 128.969 114.766 129.203C115.104 129.438 115.456 129.623 115.82 129.76C116.178 129.903 116.533 130.004 116.885 130.062C117.236 130.128 117.549 130.16 117.822 130.16C118.486 130.16 119.092 130.062 119.639 129.867C120.186 129.672 120.658 129.385 121.055 129.008C121.445 128.63 121.748 128.171 121.963 127.631C122.184 127.09 122.295 126.472 122.295 125.775V115.434H120.654L120.566 116.586C120.443 116.43 120.309 116.286 120.166 116.156C120.029 116.026 119.883 115.912 119.727 115.814C119.44 115.626 119.118 115.482 118.76 115.385C118.408 115.287 118.021 115.238 117.598 115.238C116.94 115.238 116.351 115.372 115.83 115.639C115.309 115.906 114.867 116.277 114.502 116.752C114.137 117.227 113.857 117.797 113.662 118.461C113.473 119.118 113.379 119.841 113.379 120.629ZM115.186 120.834V120.629C115.186 120.115 115.238 119.626 115.342 119.164C115.452 118.695 115.625 118.282 115.859 117.924C116.087 117.572 116.38 117.292 116.738 117.084C117.103 116.876 117.539 116.771 118.047 116.771C118.346 116.771 118.62 116.811 118.867 116.889C119.115 116.96 119.339 117.061 119.541 117.191C119.743 117.328 119.922 117.488 120.078 117.67C120.234 117.852 120.371 118.054 120.488 118.275V123.119C120.371 123.347 120.234 123.555 120.078 123.744C119.922 123.933 119.746 124.096 119.551 124.232C119.349 124.369 119.121 124.477 118.867 124.555C118.62 124.626 118.34 124.662 118.027 124.662C117.526 124.662 117.096 124.561 116.738 124.359C116.38 124.151 116.087 123.871 115.859 123.52C115.625 123.168 115.452 122.761 115.342 122.299C115.238 121.837 115.186 121.348 115.186 120.834ZM125.723 126H127.529V118.422C127.653 118.194 127.796 117.986 127.959 117.797C128.128 117.608 128.311 117.442 128.506 117.299C128.747 117.136 129.01 117.009 129.297 116.918C129.583 116.82 129.893 116.771 130.225 116.771C130.609 116.771 130.947 116.817 131.24 116.908C131.54 116.999 131.794 117.146 132.002 117.348C132.204 117.549 132.357 117.813 132.461 118.139C132.565 118.464 132.617 118.861 132.617 119.33V126H134.424V119.291C134.424 118.588 134.336 117.982 134.16 117.475C133.991 116.96 133.747 116.537 133.428 116.205C133.109 115.873 132.721 115.629 132.266 115.473C131.816 115.316 131.315 115.238 130.762 115.238C130.352 115.245 129.961 115.307 129.59 115.424C129.225 115.535 128.887 115.694 128.574 115.902C128.366 116.039 128.167 116.202 127.979 116.391C127.796 116.573 127.627 116.775 127.471 116.996L127.344 115.434H125.723V126Z" fill="black"/>
</svg>
