<svg width="14" height="9" viewBox="0 0 14 9" fill="none" xmlns="http://www.w3.org/2000/svg">
<path d="M7.5835 8.20734L13.2335 2.54734C13.3272 2.45438 13.4016 2.34378 13.4524 2.22192C13.5032 2.10006 13.5293 1.96935 13.5293 1.83734C13.5293 1.70533 13.5032 1.57462 13.4524 1.45276C13.4016 1.3309 13.3272 1.2203 13.2335 1.12734C13.0461 0.941089 12.7927 0.836548 12.5285 0.836548C12.2643 0.836548 12.0109 0.941089 11.8235 1.12734L6.8235 6.07734L1.8735 1.12734C1.68614 0.941089 1.43268 0.836548 1.1685 0.836548C0.904313 0.836548 0.650862 0.941089 0.463499 1.12734C0.369011 1.21995 0.29384 1.3304 0.242344 1.45228C0.190847 1.57415 0.164049 1.70503 0.1635 1.83734C0.164049 1.96965 0.190847 2.10053 0.242344 2.22241C0.29384 2.34428 0.369011 2.45473 0.463499 2.54734L6.1135 8.20734C6.20714 8.30885 6.32079 8.38985 6.44729 8.44526C6.57379 8.50067 6.7104 8.52927 6.8485 8.52927C6.9866 8.52927 7.12321 8.50067 7.2497 8.44526C7.3762 8.38985 7.48986 8.30885 7.5835 8.20734Z" fill="black"/>
</svg>
